<svg enable-background="new 0 0 227.06 38.64" viewBox="0 0 227.06 38.64" xmlns="http://www.w3.org/2000/svg"><g fill="#fff"><path d="m56.57 31.76h-2.91v-24.98h13.93v2.58h-11.02v9.14h10.36v2.58h-10.36z"/><path d="m87.43 31.76-3.11-7.95h-10.01l-3.08 7.95h-2.94l9.88-25.09h2.45l9.83 25.09zm-4.01-10.56-2.91-7.74c-.38-.98-.76-2.18-1.16-3.61-.25 1.09-.61 2.3-1.08 3.61l-2.94 7.74z"/><path d="m108.15 6.78h3.13l-9.01 24.99h-2.87l-8.96-24.99h3.08l5.74 16.17c.66 1.86 1.18 3.66 1.57 5.42.41-1.85.95-3.69 1.61-5.52z"/><path d="m136.4 19.23c0 4-1.01 7.14-3.03 9.43s-4.83 3.44-8.43 3.44c-3.68 0-6.52-1.13-8.52-3.38s-3-5.43-3-9.53c0-4.07 1-7.22 3.01-9.46 2-2.24 4.85-3.36 8.54-3.36 3.59 0 6.39 1.14 8.41 3.42 2.01 2.29 3.02 5.43 3.02 9.44zm-19.91 0c0 3.38.72 5.95 2.16 7.7s3.54 2.62 6.28 2.62c2.77 0 4.86-.87 6.27-2.61s2.12-4.31 2.12-7.71c0-3.36-.7-5.91-2.11-7.65s-3.49-2.61-6.25-2.61c-2.77 0-4.87.87-6.32 2.62s-2.15 4.31-2.15 7.64z"/><path d="m144.87 21.37v10.39h-2.9v-24.98h6.85c3.06 0 5.33.59 6.79 1.76s2.2 2.94 2.2 5.3c0 3.3-1.67 5.54-5.02 6.7l6.78 11.23h-3.43l-6.05-10.39h-5.22zm0-2.49h3.98c2.05 0 3.55-.41 4.51-1.22s1.44-2.04 1.44-3.67c0-1.65-.49-2.84-1.46-3.57s-2.54-1.09-4.69-1.09h-3.78z"/><path d="m163.6 31.76v-24.98h2.9v24.99h-2.9z"/><path d="m181.05 31.76h-2.9v-22.4h-7.91v-2.58h18.73v2.58h-7.91v22.4z"/><path d="m206.65 31.76h-13.93v-24.98h13.93v2.58h-11.02v8.05h10.36v2.56h-10.36v9.19h11.02z"/><path d="m226.29 25.11c0 2.2-.8 3.91-2.39 5.14-1.6 1.23-3.76 1.85-6.49 1.85-2.96 0-5.24-.38-6.84-1.15v-2.8c1.03.43 2.14.77 3.35 1.03 1.21.25 2.4.38 3.59.38 1.94 0 3.39-.37 4.38-1.1.98-.74 1.47-1.76 1.47-3.07 0-.87-.17-1.57-.52-2.13s-.93-1.06-1.74-1.53-2.05-1-3.72-1.59c-2.32-.83-3.99-1.82-4.98-2.96-1-1.14-1.5-2.63-1.5-4.46 0-1.93.72-3.46 2.17-4.6s3.36-1.71 5.74-1.71c2.48 0 4.77.46 6.85 1.37l-.91 2.53c-2.06-.87-4.07-1.3-6.02-1.3-1.54 0-2.74.33-3.61.99s-1.3 1.58-1.3 2.75c0 .87.16 1.58.48 2.13s.86 1.06 1.61 1.52c.76.46 1.92.97 3.48 1.53 2.62.93 4.42 1.94 5.41 3.01 1 1.07 1.49 2.46 1.49 4.17z"/></g><path d="m39.29 4.25c-2.18-2.36-5.17-3.66-8.42-3.66-2.43 0-4.65.77-6.61 2.28-.99.76-1.88 1.7-2.67 2.79v.03c-.79-1.09-1.69-2.03-2.68-2.79-1.96-1.51-4.18-2.28-6.61-2.28-3.25 0-6.24 1.3-8.42 3.66-2.15 2.33-3.34 5.52-3.34 8.98 0 3.56 1.33 6.82 4.17 10.25 2.55 3.07 6.21 6.19 10.45 9.81l.01.01c1.45 1.23 3.09 2.63 4.79 4.12.45.39 1.03.61 1.63.61v-.03c.6 0 1.18-.22 1.63-.61 1.7-1.49 3.35-2.89 4.79-4.12 4.24-3.61 7.9-6.73 10.45-9.81 2.85-3.44 4.17-6.69 4.17-10.25 0-3.46-1.19-6.65-3.34-8.99z" fill="#ef5451"/><path d="m39.29 4.16c-2.18-2.36-5.17-3.66-8.42-3.66-2.43 0-4.65.77-6.61 2.28-.99.76-1.88 1.7-2.67 2.79v32.37c.6 0 1.18-.22 1.63-.61 1.7-1.49 3.35-2.89 4.79-4.12 4.24-3.61 7.9-6.73 10.45-9.81 2.85-3.44 4.17-6.69 4.17-10.25 0-3.46-1.19-6.65-3.34-8.99z" fill="#d32e2e"/><path d="m21.59 5.6c-.79-1.1-1.69-2.03-2.68-2.8-1.96-1.51-4.18-2.28-6.61-2.28-3.25 0-6.24 1.3-8.42 3.66-2.15 2.34-3.34 5.53-3.34 8.98 0 3.56 1.33 6.82 4.17 10.25 2.55 3.07 6.21 6.19 10.45 9.81l.01.01c1.45 1.23 3.09 2.63 4.79 4.12.45.39 1.03.61 1.63.61z" fill="#ef5451"/></svg>