<svg enable-background="new 0 0 568.5 190.1" viewBox="0 0 568.5 190.1" xmlns="http://www.w3.org/2000/svg" xmlns:xlink="http://www.w3.org/1999/xlink"><linearGradient id="a" gradientTransform="matrix(1 0 0 -1 1307.8203 -1322.6299)" gradientUnits="userSpaceOnUse" x1="-750.6063" x2="-1296.9644" y1="-1403.8174" y2="-1403.8174"><stop offset="0" stop-color="#013a67"/><stop offset="1" stop-color="#6cd1ff"/></linearGradient><linearGradient id="b"><stop offset="0" stop-color="#08406f"/><stop offset="1" stop-color="#60c5f5"/></linearGradient><linearGradient id="c" gradientTransform="matrix(1 0 0 -1 1307.8203 -1322.6299)" gradientUnits="userSpaceOnUse" x1="-1244.0249" x2="-1247.9705" xlink:href="#b" y1="-1387.0111" y2="-1383.0659"/><linearGradient id="d" gradientTransform="matrix(1 0 0 -1 1307.8203 -1322.6299)" gradientUnits="userSpaceOnUse" x1="-1185.4399" x2="-1189.0649" xlink:href="#b" y1="-1462.1295" y2="-1458.5045"/><linearGradient id="e" gradientTransform="matrix(1 0 0 -1 1307.8203 -1322.6299)" gradientUnits="userSpaceOnUse" x1="-1283.0114" x2="-1283.0114" xlink:href="#b" y1="-1442.2739" y2="-1437.9598"/><linearGradient id="f" gradientTransform="matrix(1 0 0 -1 1307.8203 -1322.6299)" gradientUnits="userSpaceOnUse" x1="-1187.5498" x2="-1187.5498" xlink:href="#b" y1="-1481.4028" y2="-1476.9449"/><linearGradient id="g" gradientTransform="matrix(1 0 0 -1 1307.8203 -1322.6299)" gradientUnits="userSpaceOnUse" x1="-881.0408" x2="-881.0408" xlink:href="#b" y1="-1442.2439" y2="-1437.7778"/><linearGradient id="h" gradientTransform="matrix(1 0 0 -1 1307.8203 -1322.6299)" gradientUnits="userSpaceOnUse" x1="-1057.6708" x2="-1057.6708" xlink:href="#b" y1="-1443.1149" y2="-1438.6379"/><linearGradient id="i" gradientTransform="matrix(1 0 0 -1 1307.8203 -1322.6299)" gradientUnits="userSpaceOnUse" x1="-786.4548" x2="-786.4548" xlink:href="#b" y1="-1330.4078" y2="-1325.5449"/><linearGradient id="j" gradientTransform="matrix(1 0 0 -1 1307.8203 -1322.6299)" gradientUnits="userSpaceOnUse" x1="-793.7218" x2="-793.7218" xlink:href="#b" y1="-1354.9359" y2="-1350.7258"/><linearGradient id="k" gradientTransform="matrix(1 0 0 -1 1307.8203 -1322.6299)" gradientUnits="userSpaceOnUse" x1="-849.3653" x2="-849.3653" xlink:href="#b" y1="-1398.4519" y2="-1394.7319"/><linearGradient id="l" gradientTransform="matrix(1 0 0 -1 1307.8203 -1322.6299)" gradientUnits="userSpaceOnUse" x1="-818.5743" x2="-818.5743" xlink:href="#b" y1="-1373.3319" y2="-1367.7775"/><linearGradient id="m" gradientTransform="matrix(1 0 0 -1 1307.8203 -1322.6299)" gradientUnits="userSpaceOnUse" x1="-1234.3446" x2="-1237.8876" xlink:href="#b" y1="-1417.0481" y2="-1413.505"/><linearGradient id="n" gradientTransform="matrix(1 0 0 -1 1307.8203 -1322.6299)" gradientUnits="userSpaceOnUse" x1="-1188.4792" x2="-1193.8453" xlink:href="#b" y1="-1352.5905" y2="-1352.5905"/><linearGradient id="o" gradientTransform="matrix(1 0 0 -1 1307.8203 -1322.6299)" gradientUnits="userSpaceOnUse" x1="-1135.6533" x2="-1142.3136" xlink:href="#b" y1="-1368.1808" y2="-1368.1808"/><linearGradient id="p" gradientTransform="matrix(1 0 0 -1 1307.8203 -1322.6299)" gradientUnits="userSpaceOnUse" x1="-1052.7463" x2="-1058.7393" xlink:href="#b" y1="-1373.4371" y2="-1373.4371"/><linearGradient id="q" gradientTransform="matrix(1 0 0 -1 1307.8203 -1322.6299)" gradientUnits="userSpaceOnUse" x1="-959.4583" x2="-965.1593" xlink:href="#b" y1="-1352.8457" y2="-1352.8457"/><linearGradient id="r" gradientTransform="matrix(1 0 0 -1 1307.8203 -1322.6299)" gradientUnits="userSpaceOnUse" x1="-907.7743" x2="-913.5713" xlink:href="#b" y1="-1366.6667" y2="-1366.6667"/><linearGradient id="s" gradientTransform="matrix(1 0 0 -1 1307.8203 -1322.6299)" gradientUnits="userSpaceOnUse" x1="-1206.9694" x2="-1212.0803" xlink:href="#b" y1="-1417.1589" y2="-1417.1589"/><linearGradient id="t" gradientTransform="matrix(1 0 0 -1 1307.8203 -1322.6299)" gradientUnits="userSpaceOnUse" x1="-1187.4855" x2="-1191.0386" xlink:href="#b" y1="-1422.0581" y2="-1418.5052"/><linearGradient id="u" gradientTransform="matrix(1 0 0 -1 1307.8203 -1322.6299)" gradientUnits="userSpaceOnUse" x1="-755.2981" x2="-758.9673" xlink:href="#b" y1="-1340.7222" y2="-1337.0527"/><linearGradient id="v" gradientTransform="matrix(1 0 0 -1 1307.8203 -1322.6299)" gradientUnits="userSpaceOnUse" x1="-1162.7404" x2="-1168.1388" xlink:href="#b" y1="-1418.0994" y2="-1418.0994"/><linearGradient id="w" gradientTransform="matrix(1 0 0 -1 1307.8203 -1322.6299)" gradientUnits="userSpaceOnUse" x1="-1159.9584" x2="-1164.4459" xlink:href="#b" y1="-1355.2308" y2="-1350.7433"/><linearGradient id="x" gradientTransform="matrix(1 0 0 -1 1307.8203 -1322.6299)" gradientUnits="userSpaceOnUse" x1="-1092.8884" x2="-1097.0469" xlink:href="#b" y1="-1370.543" y2="-1366.3846"/><linearGradient id="y" gradientTransform="matrix(1 0 0 -1 1307.8203 -1322.6299)" gradientUnits="userSpaceOnUse" x1="-1004.4196" x2="-1008.8035" xlink:href="#b" y1="-1376.031" y2="-1371.6469"/><linearGradient id="z" gradientTransform="matrix(1 0 0 -1 1307.8203 -1322.6299)" gradientUnits="userSpaceOnUse" x1="-931.7646" x2="-935.9719" xlink:href="#b" y1="-1355.0817" y2="-1350.8739"/><linearGradient id="A" gradientTransform="matrix(1 0 0 -1 1307.8203 -1322.6299)" gradientUnits="userSpaceOnUse" x1="-819.9973" x2="-823.4544" xlink:href="#b" y1="-1383.4858" y2="-1380.0289"/><linearGradient id="B" gradientTransform="matrix(1 0 0 -1 1307.8203 -1322.6299)" gradientUnits="userSpaceOnUse" x1="-808.9262" x2="-812.887" xlink:href="#b" y1="-1427.597" y2="-1423.6364"/><linearGradient id="C" gradientTransform="matrix(1 0 0 -1 1307.8203 -1322.6299)" gradientUnits="userSpaceOnUse" x1="-866.899" x2="-871.1835" xlink:href="#b" y1="-1369.8367" y2="-1365.5522"/><linearGradient id="D" gradientTransform="matrix(1 0 0 -1 1307.8203 -1322.6299)" gradientUnits="userSpaceOnUse" x1="-821.876" x2="-826.989" xlink:href="#b" y1="-1364.8704" y2="-1359.7574"/><linearGradient id="E" gradientTransform="matrix(1 0 0 -1 1307.8203 -1322.6299)" gradientUnits="userSpaceOnUse" x1="-1122.7572" x2="-1126.4001" xlink:href="#b" y1="-1440.5515" y2="-1436.9084"/><linearGradient id="F" gradientTransform="matrix(1 0 0 -1 1307.8203 -1322.6299)" gradientUnits="userSpaceOnUse" x1="-1005.7061" x2="-1009.3478" xlink:href="#b" y1="-1417.3596" y2="-1413.7179"/><linearGradient id="G" gradientTransform="matrix(1 0 0 -1 1307.8203 -1322.6299)" gradientUnits="userSpaceOnUse" x1="-958.8457" x2="-962.3552" xlink:href="#b" y1="-1421.3055" y2="-1417.796"/><linearGradient id="H" gradientTransform="matrix(1 0 0 -1 1307.8203 -1322.6299)" gradientUnits="userSpaceOnUse" x1="-937.9277" x2="-942.3527" xlink:href="#b" y1="-1441.8652" y2="-1437.4406"/><linearGradient id="I" gradientTransform="matrix(1 0 0 -1 1307.8203 -1322.6299)" gradientUnits="userSpaceOnUse" x1="-1079.2773" x2="-1085.3153" xlink:href="#b" y1="-1419.9899" y2="-1419.9899"/><linearGradient id="J" gradientTransform="matrix(1 0 0 -1 1307.8203 -1322.6299)" gradientUnits="userSpaceOnUse" x1="-978.4303" x2="-983.6423" xlink:href="#b" y1="-1416.7388" y2="-1416.7388"/><linearGradient id="K" gradientTransform="matrix(1 0 0 -1 1307.8203 -1322.6299)" gradientUnits="userSpaceOnUse" x1="-933.7653" x2="-940.0099" xlink:href="#b" y1="-1416.0269" y2="-1416.0269"/><linearGradient id="L" gradientTransform="matrix(1 0 0 -1 1307.8203 -1322.6299)" gradientUnits="userSpaceOnUse" x1="-868.0967" x2="-872.5153" xlink:href="#b" y1="-1407.8972" y2="-1403.4788"/><linearGradient id="M" gradientTransform="matrix(1 0 0 -1 1307.8203 -1322.6299)" gradientUnits="userSpaceOnUse" x1="-835.8143" x2="-835.8143" xlink:href="#b" y1="-1417.7308" y2="-1411.9279"/><path d="m490.5 28.7 45.5.2 21.2-22-78-.3-73.3 73.6-10.2.6.3-70.8-41.3 42.1-9.8 1.1v-42.8l-84.4 83.4-10.5 1.2.9-85.9-73.7 74.8-9.7.1-1.1-71.9-39.8 40.1-11.1.5.5-42.8-105.1 106 34.6-.6 45.4-44h8.7l-.5 44.2 36.2-37h8.6v37.7l-39.7 39.5 38.1-.5 75-75.9h10.1v37.3l46.8.3 45.2-45.5 8.7-.6-.1 43 36.1-36.1h8.5l.6 36.4-.7 1.9h109.1l20.9-21.2-67.8-1.1-.7-9.9 10.6-11.1h25.6l22.3-22.6-13.5-.5v-9.5z" fill="url(#a)"/><path d="m114 14.2-101.2 101.1-11.5 4.3s-.6 0-.3-.4c0 0 117.3-117.3 117.5-117.5.2-.2.5 0 .5 0z" fill="url(#c)"/><path d="m145.1 116.8-37.5 37.5-11.1 4.5s-.6.1-.2-.4l43.9-43.8z" fill="url(#d)"/><path d="m48.2 119.6h-46.8l11.5-4.3h32.6z" fill="url(#e)"/><path d="m144 158.8h-47.5l11.1-4.5h33.8z" fill="url(#f)"/><path d="m484.1 119.6h-114.6l3.8-4.5h107.5z" fill="url(#g)"/><path d="m276.3 120.5h-51.5c-.3 0-.8-.3-.8-.3l4.6-4.1h45.1z" fill="url(#h)"/><path d="m476.6 2.9h88.7c.8 0 .8.3.8.3l-10.6 4.6h-75.2z" fill="url(#i)"/><path d="m538.3 32.3h-46.3l-2.1-4.2h45.3z" fill="url(#j)"/><path d="m472.9 75.8h-24.7l-4.1-3.7h25.6z" fill="url(#k)"/><path d="m491.1 50.7h-13.6l-1.2-5.5h25.5c.3 0 .4.1.4.1z" fill="url(#l)"/><path d="m96.1 71.6-47.9 48-2.8-4.3 46.7-46.3c2-2.3 4.7-1.7 4.7-1.7z" fill="url(#m)"/><path d="m114 52.7v-38.5l5-12.5s.3.1.3.6v53.6l-.3 2.3s-4.5.1-5-5.5z" fill="url(#n)"/><path d="m172.2 89.8s-6.5 1.9-6.6-5.6c-.1-7.3 0-69.3 0-69.3l5.1-13.9s.2 0 .2.7v81.8z" fill="url(#o)"/><path d="m255.1 99.9s-5.9.6-6-6.1v-80.1l4.7-12.1s.6.2.6.9v91.1z" fill="url(#p)"/><path d="m348.4 58.4s-4.9.5-5.7-4.6v-39.7l4.4-12.1s.6.1.6.9v49.7z" fill="url(#q)"/><path d="m400 86.3s-4.9.6-5.8-4.4v-67.6l4.9-12.5s.3.2.3 1.7v77.2z" fill="url(#r)"/><path d="m97 121.8s-.8-.1-.8-1.1c0-.9-.1-49-.1-49s-1.2-1.6.6-4.4c.5.1 3.5.7 4.1 4.3v40.4z" fill="url(#s)"/><path d="m140.1 79.6s-41.5 41.5-41.9 41.9c-.3.4-1.2.3-1.2.3l3.8-10 36.1-36.1s1.3-1.7 3.8-1.6z" fill="url(#t)"/><path d="m565.9 4.6-27.6 27.7-3.1-4.2 20.3-20.3 10.6-4.5c0-.1.3.8-.2 1.3z" fill="url(#u)"/><path d="m140.2 114.6-.1-35s-1.3-2.6.6-5.5c.6 0 3.7.4 4.3 4.1v38.5z" fill="url(#v)"/><path d="m165.5 14.9-41.5 41.5c-2 2-5 1.8-5 1.8-1.8-3.5.3-6.1.3-6.1s50.5-50.5 50.9-50.9c.3-.4.5-.3.5-.3z" fill="url(#w)"/><path d="m249.1 13.8-74.4 74.4c-1.6 1.6-2.5 1.7-2.5 1.7-3.8-1.9-1.2-6.3-1.2-6.3s80.7-80.6 81-81c.9-1.1 1.8-.9 1.8-.9z" fill="url(#x)"/><path d="m342.7 14.1-84.2 84.2c-1.4 1.4-3.4 1.6-3.4 1.6-3.1-1.6-.8-6.2-.8-6.2s90.6-90.5 91-90.9c.9-1.1 1.8-.9 1.8-.9z" fill="url(#y)"/><path d="m394.2 14.3-42.5 42.5c-1.4 1.4-3.4 1.7-3.4 1.7-2.9-1.9-.6-6-.6-6s49.6-49.7 49.9-50.1c1-1 1.4-.7 1.4-.7z" fill="url(#z)"/><path d="m502.2 46.5-29.4 29.4-3.2-3.7 21.4-21.4 11.1-5.4c.1-.1.5.2.1 1.1z" fill="url(#A)"/><path d="m512.9 91-28.8 28.7-3.3-4.5 20-20 12.3-5.4c0-.1.4.4-.2 1.2z" fill="url(#B)"/><path d="m480.3 7.8-76.9 76.9c-1.4 1.4-3.4 1.6-3.4 1.6-2.4-3.1-.7-6-.7-6l77.3-77.4z" fill="url(#C)"/><path d="m492 32.3-12.7 12.8c-2.8 2.3-1.8 5.6-1.8 5.6-2.2-.2-3.1-2.1-3.4-3.7s.3-3.4 1.3-4.5l14.5-14.4z" fill="url(#D)"/><path d="m141.4 154.3 77.9-77.9s1.4-1.9 4.3-1.8l-.5 5.2s-78.7 78.5-79.1 78.9z" fill="url(#E)"/><path d="m273.6 116 47.6-47.7s1.4-1.9 4.3-1.8l-.9 5.6-48.3 48.3z" fill="url(#F)"/><path d="m329.4 111.3 36.8-36.8c.8-.8 1.8-1.8 3.4-1.8l-.1 5.5-43.1 43c-.6.6-1 .4-1 .4z" fill="url(#G)"/><path d="m361.2 119.1 7.2-7.3 5.6 2.3-.7 1-3.8 4.4-.3.3h-7.7c-.3 0-.5-.3-.5-.3s-.2 0 .2-.4z" fill="url(#H)"/><path d="m223.2 118.3-.1-38.5s-1.7-2 .5-5.2c.7 0 4.2.5 4.9 4.7v36.7l-4.6 4.1c.1 0-.6-.5-.7-1.8z" fill="url(#I)"/><path d="m324.7 120.9-.1-48.8s-1.5-2.7.9-5.6c.6 0 3.2.5 3.9 4.7v40l-4 10.4s-.6-.1-.7-.7z" fill="url(#J)"/><path d="m368.5 111.8v-32.7s-2.1-3.4 1.1-6.5c.7 0 4.1.2 4.5 4.3v37.1z" fill="url(#K)"/><path d="m448.2 75.8-13.5 13.5-3.8 4.8c-3.9-2.5-2-6.9-.9-7.9l14.1-14.1z" fill="url(#L)"/><path d="m500.8 95.1h-66.4c-2.5-.2-3.6-1-3.6-1 0-3.6 3.8-4.8 3.8-4.8h77.7c.5 0 .7.4.7.4z" fill="url(#M)"/><path d="m198.3 181.5c3.2 0 5.9 2.9 5.9 6.2h-18v-58.3h6v52.1z" fill="#c0392b"/><path d="m215 187.6c-3.2 0-6.1-2.9-6.1-6.2v-40.4h6.1z" fill="#c0392b"/><path d="m232.9 141h-6.2v-11.7h-6.1v58.3h12.2c3.2 0 5.9-2.9 5.9-6.2v-34.8c.1-3.1-2.5-5.6-5.8-5.6zm-.1 40.5h-6.1v-34.7h6.1z" fill="#c0392b"/><path d="m245.4 129h48.5s2.8.4 3.6 2.1c.9 1.6 7.9 16.1 8.6 17.7s.1 2.8-.9 4.1-11 12.7-11 12.7l12.3 21.6h-18.5s-14.5-24.8-15.3-26-.8-3.1 1-3.1h6.3c.8 0 1.2-.1 2.2-1 1-.8 6-6.9 6-6.9s-2.4-6.4-2.9-7.6-1.6-1.6-2.7-1.6c-1 0-18.7 0-18.7 0v46.1h-18.3z" fill="#333"/><path d="m287.6 187.8-.1-.2s-3.6-6.2-7.4-12.6c-3.7-6.3-7.6-12.9-8-13.4-.4-.6-.6-1.2-.6-1.9 0-.5.1-1 .5-1.4.3-.4.9-.6 1.5-.6h6.3c.7 0 .9 0 1.8-.9.4-.3 1.9-2.1 3.3-3.7 1.1-1.2 2-2.4 2.4-2.9-.5-1.2-2.4-6.3-2.8-7.3-.4-1-1.3-1.3-2.2-1.3-.5 0-5.2 0-9.7 0-3.6 0-7.2 0-8.5 0v46.1h-19.3v-58.7-.5h.5 48.5c2.1-.1 3.2.6 4.1 2.3.9 1.7 7.9 16.1 8.6 17.8.2.5.3 1 .3 1.5 0 1.2-.6 2.1-1.3 3.1-.9 1.2-9.3 10.8-10.8 12.5l12.5 22.1zm18-1-12-21.2.2-.3s10.1-11.5 11-12.7c.7-.9 1.1-1.6 1.1-2.4 0-.4-.1-.7-.2-1.2-.6-1.6-7.7-16.1-8.5-17.7-.9-1.6-1.3-1.8-3.2-1.8-1.9 0-43 0-48 0v57.3h17.3v-46.1h.5 18.7c1.1 0 2.5.4 3.1 1.9.5 1.2 2.9 7.6 2.9 7.6l.1.3-.2.2s-4.9 6-6 6.9c-1 .8-1.6 1.1-2.5 1.1-.8 0-4.5 0-6.3 0-.8 0-.9.4-1 1 0 .4.2 1 .4 1.3.8 1.2 13.7 23.2 15.2 25.8z" fill="#fff"/><path d="m432.1 129h48.5c2 0 2.8.4 3.6 2.1.9 1.6 7.9 16.1 8.6 17.7s.1 2.8-.9 4.1-11 12.7-11 12.7l12.3 21.6h-18.5s-14.5-24.8-15.3-26-.8-3.1 1-3.1 5.5 0 6.3 0 1.2-.1 2.2-1c1-.8 6-6.9 6-6.9s-2.4-6.4-2.9-7.6-1.6-1.6-2.7-1.6-18.7 0-18.7 0v46.1h-18.3z" fill="#333"/><path d="m474.3 187.8-.1-.2s-3.6-6.2-7.4-12.6c-3.7-6.3-7.6-12.9-8-13.4-.4-.6-.6-1.2-.6-1.9 0-.5.1-1 .5-1.4.3-.4.9-.6 1.5-.6h6.3c.7 0 .9 0 1.8-.8.4-.3 1.9-2.1 3.3-3.7 1.1-1.2 2-2.4 2.4-2.9-.5-1.2-2.4-6.3-2.8-7.3-.4-1-1.3-1.3-2.2-1.3-.5 0-5.2 0-9.7 0-3.6 0-7.2 0-8.5 0v46.1h-19.3v-58.8-.5h.5 48.5c2.1-.1 3.2.6 4.1 2.3.9 1.7 7.9 16.1 8.6 17.8.2.5.3 1.1.3 1.5 0 1.2-.6 2.1-1.3 3.1-.9 1.2-9.3 10.8-10.8 12.5l12.5 22.1zm18-1-12-21.2.2-.3s10.1-11.5 11-12.7c.7-.9 1.1-1.6 1.1-2.4 0-.4-.1-.7-.2-1.2-.6-1.6-7.7-16.1-8.5-17.7-.9-1.6-1.3-1.8-3.2-1.8-1.9 0-43 0-48 0v57.3h17.3v-46.1h.5 18.7c1.1 0 2.5.4 3.1 1.9.5 1.2 2.9 7.6 2.9 7.6l.1.3-.2.2s-4.9 6-6 6.9c-1 .8-1.6 1.1-2.5 1.1-.8 0-4.5 0-6.3 0-.8 0-.9.4-1 1 0 .4.2 1 .4 1.4.8 1.2 13.7 23.2 15.2 25.8h17.4z" fill="#fff"/><path d="m309.8 187.3s0-37.3 0-38.5c0-1.3.3-1.8.9-3.1s7.4-13.9 8.2-15c.7-1.2 1.8-1.6 3.8-1.6s48.2 0 48.2 0v12.1s-34.9 0-36.3 0-1.9.1-2.8 2-3.7 8.8-3.7 8.8h36.7v12h-36.7v11h42.8v12.3z" fill="#333"/><path d="m309.8 187.8v-.5h.5-.5v.5h-.5v-.5s0-37.3 0-38.5c0-1.4.4-2 .9-3.3.6-1.3 7.4-13.8 8.2-15.1.8-1.4 2.2-1.9 4.2-1.9h48.2.5v13.1h-.5s-34.9 0-36.3 0c-1.3.1-1.4-.1-2.4 1.7-.7 1.5-2.7 6.3-3.4 8.1h36.5v13.1h-36.7v10h42.8v13.3zm60.6-1v-11.3h-42.8v-12h36.7v-11.1h-37l.3-.7s2.8-6.8 3.7-8.8c.8-2 1.9-2.4 3.3-2.3h35.8v-11.1c-5 0-45.9 0-47.7 0-2 0-2.7.4-3.4 1.4-.7 1.1-7.6 13.8-8.2 15-.6 1.3-.8 1.7-.8 2.8v38z" fill="#fff"/><path d="m411.1 147.3v-18.3h-21.9v18.3h-18.4v21.4h18.4v18.6h21.9v-18.6h17.9v-21.4zm-11 17.2c-3.6 0-6.4-2.9-6.4-6.4 0-3.6 2.9-6.4 6.4-6.4 3.6 0 6.4 2.9 6.4 6.4s-2.9 6.4-6.4 6.4z" fill="#333"/><g fill="#fff"><path d="m388.8 187.8v-18.6h-18.4v-22.4h18.4v-18.3h22.9v18.3h17.9v22.4h-17.9v18.6zm-17.4-19.6h18.4v18.6h20.9v-18.6h17.9v-20.4h-17.4v-.5h.5-.5v.5h-.5v-18.3h-20.9v18.3h-18.4zm28.7-3.2v-.5-.5c3.3 0 5.9-2.7 5.9-5.9 0-3.3-2.7-5.9-5.9-5.9-3.3 0-5.9 2.7-5.9 5.9 0 3.3 2.7 5.9 5.9 5.9v.5.5c-3.8 0-6.9-3.1-6.9-6.9 0-3.8 3.1-6.9 6.9-6.9 3.8 0 6.9 3.1 6.9 6.9 0 3.8-3.1 6.9-6.9 6.9z"/><path d="m406.3 174.6h-12.5l6.1 6.2z"/><path d="m416.7 151.7v12.6l6.1-6.2z"/><path d="m383.4 164.3v-12.6l-6.1 6.2z"/></g><path d="m542.5 129h-35c-6.5 0-11.8 5.3-11.8 11.8v34.8c0 6.5 5.3 11.8 11.8 11.8h35c6.5 0 11.8-5.3 11.8-11.8v-34.8c-.1-6.5-5.3-11.8-11.8-11.8zm-17.6 46.7c-9.7 0-17.6-7.9-17.6-17.6s7.9-17.6 17.6-17.6 17.6 7.9 17.6 17.6-7.9 17.6-17.6 17.6z" fill="#333"/><path d="m507.4 187.8c-6.8 0-12.3-5.5-12.3-12.3v-34.7c0-6.8 5.5-12.3 12.3-12.3h35v.5.5h-35c-6.2 0-11.3 5-11.3 11.3v34.7c0 6.2 5 11.3 11.3 11.3h35c6.2 0 11.3-5 11.3-11.3v-34.7c0-6.2-5-11.3-11.3-11.3v-.5-.5c6.8 0 12.3 5.5 12.3 12.3v34.7c0 6.8-5.5 12.3-12.3 12.3zm-.5-29.7c0-10 8.1-18.1 18.1-18.1 10 0 18.1 8.1 18.1 18.1 0 10-8.1 18.1-18.1 18.1v-.5-.5c9.4 0 17.1-7.6 17.1-17.1 0-9.4-7.6-17.1-17.1-17.1-9.4 0-17.1 7.6-17.1 17.1 0 9.4 7.6 17.1 17.1 17.1v.5.5c-10 0-18.1-8.1-18.1-18.1z" fill="#fff"/><path d="m208.9 129.4h6.1v6.3h-6.1z" fill="#c0392b"/><path d="m393.8 141.4h12.5l-6.1-6.2z" fill="#fff"/></svg>