<svg enable-background="new 0 0 429.8 129.2" viewBox="0 0 429.8 129.2" xmlns="http://www.w3.org/2000/svg" xmlns:xlink="http://www.w3.org/1999/xlink"><clipPath id="a"><path d="m93.6 12.6 4.7 11.3c-.5.5-.9.9-1.2 1.5-.3.5-.4 1.1-.5 1.8 0 .7 0 1.5.2 2.5s.5 2.1.8 3.4l-4.8-11c-.4-1.4-.7-2.5-.9-3.5s-.3-1.8-.2-2.6c0-.7.2-1.3.5-1.9.5-.6.9-1.1 1.4-1.5z"/></clipPath><clipPath id="b"><path d="m9.1 24.8c2.7 3.6 5.4 7.3 8.1 10.9-.2-.3-.5-.6-.8-.8s-.6-.4-.9-.6-.7-.3-1-.3c-.4-.1-.8-.1-1.2-.1-.2 0-.3 0-.5 0s-.4 0-.5.1c-.2 0-.4.1-.6.1s-.4.1-.6.1l-8.2-11c.2-.1.4-.1.6-.1.2-.1.4-.1.6-.1s.4 0 .6-.1.4 0 .5 0c.4 0 .8 0 1.2.1s.7.2 1.1.4l.9.6c.2.2.5.5.7.8z"/></clipPath><clipPath id="c"><path d="m113.5 26.9c1.3 3.6 2.6 7.2 4 10.8-.3-.7-.7-1.2-1.1-1.6-.5-.4-1-.7-1.5-.8-.5-.2-1-.3-1.4-.3s-.6 0-.7 0l-4.2-11h.7s.9.1 1.4.3 1.1.5 1.6.9c.5.5.9 1 1.2 1.7z"/></clipPath><clipPath id="d"><path d="m71.3 20.5c1.9 3.7 3.7 7.4 5.6 11-1.1-2.1-2.3-3.8-3.6-5.2-1.3-1.3-2.8-2.3-4.3-3s-3.2-1.2-5-1.5-3.6-.4-5.6-.4c-.4 0-.7 0-1.1 0s-.7 0-1.1 0-.8 0-1.1 0c-.4 0-.8 0-1.2.1-5.3.3-9.1 1.5-12 3.4-2.8 1.9-4.6 4.4-5.7 7.1-1.1 2.8-1.6 5.8-1.7 8.8-.2 3 0 5.8 0 8.3l-7.4-10.4c0-2.5-.2-5.5 0-8.6s.6-6.2 1.8-9.1 3-5.5 5.9-7.4 6.9-3.2 12.4-3.5c.4 0 .8 0 1.2-.1s.8 0 1.2 0 .8 0 1.2 0 .8 0 1.1 0c2 0 4 .1 5.8.4s3.6.8 5.2 1.5 3.1 1.8 4.5 3.2c1.5 1.4 2.8 3.2 3.9 5.4z"/></clipPath><clipPath id="e"><path d="m146 31c.9 3.5 1.8 7.1 2.7 10.6v-.1-.1-.1-.1c-.2-.3-.4-.7-.6-1-.3-.3-.6-.6-.9-.8s-.8-.5-1.3-.6-1-.2-1.7-.2c-.2 0-.5 0-.8 0s-.6.1-.8.1c-.3.1-.6.1-.9.2s-.7.2-1 .3c-1.3.4-2.4.9-3.6 1.7s-2.4 1.6-3.7 2.9c-1.3 1.2-2.7 2.8-4.2 4.7s-3.2 4.3-5.2 7.1l-3.7-10.1c2-2.9 3.8-5.4 5.4-7.4s3-3.6 4.4-4.9c1.3-1.3 2.6-2.2 3.8-3s2.5-1.3 3.8-1.7c.4-.1.7-.2 1-.3s.7-.2 1-.2c.3-.1.6-.1.9-.1h.8c.7 0 1.2.1 1.7.2s.9.4 1.3.6.7.6.9.9.5.7.7 1v.1s0 .1 0 .1 0 .1 0 .1z"/></clipPath><clipPath id="f"><path d="m145.7 51.4 2.7 9.9c-.3 0-.5 0-.8 0s-.6 0-.9 0-.6 0-.9 0-.6 0-.9 0c-2.1 0-4.4 0-6.7.1s-4.6.1-6.7.2-4.1.2-5.7.2-2.9.1-3.7.2l-3.8-9.9c.8 0 2.2-.1 3.9-.2s3.8-.2 6-.2 4.6-.2 7-.2c2.4-.1 4.8-.1 7-.1h.9.9.9z"/></clipPath><clipPath id="g"><path d="m121.6 110.9c-.6-1.3-1.3-2.6-1.9-3.9-.7-1.3-1.3-2.7-2-4-2.9-6-4.5-11.8-5.3-17.1-.7-5.3-.6-10.3.1-14.7.6-4.4 1.7-8.3 2.8-11.5s2.2-5.8 2.9-7.5l3.8 9.8c-.7 1.7-1.7 4.2-2.8 7.3-1 3.1-2.1 6.8-2.7 11s-.7 9-.1 14.1c.9 5.2 2.4 10.7 5.2 16.5z"/></clipPath><clipPath id="h"><path d="m162.9 22c.7 3.7 1.3 7.3 2 11v.6c-.1.2-.2.4-.3.7-.1.2-.3.4-.5.6s-.5.4-.7.5c-.5.3-.8.6-1 1s-.4.8-.4 1.3c-.1.5-.1 1-.1 1.6v2.1s0 5-.1 11.1c-.1 6-.1 13.9-.2 21.7-.1 7.9-.1 15.9-.2 22.2s-.1 11-.1 12.1v.9s0 .6.1.9.1.6.1.8.1.5.2.8c0-.1-.1-.3-.1-.4-.3-1.2-.6-2.3-1-3.5-.4-1.3-.7-2.7-1.1-4-.1-.3-.1-.5-.2-.8s-.1-.6-.1-.8-.1-.6-.1-.9 0-.6 0-.9c0-1.2.1-6.1.1-12.6.1-6.6.1-14.9.2-23.1s.1-16.3.2-22.6.1-10.7.1-11.5 0-1.5 0-2.2c0-.6 0-1.2.1-1.7s.2-.9.4-1.3.6-.7 1-1c.3-.2.5-.4.7-.6s.4-.4.6-.7c.2-.2.3-.5.3-.7s.2-.4.1-.6z"/></clipPath><clipPath id="i"><path d="m27.2 38.7 7.4 10.4c0 2.4.3 7.6.6 14 .4 6.4.8 14.2 1.3 21.7s.9 14.9 1.3 20.5.6 9.6.7 10.3l-7.3-7.7c0-.7-.3-4.8-.7-10.7s-.8-13.5-1.3-21.3c-.5-7.9-1-15.9-1.3-22.6-.4-6.7-.6-12-.7-14.6z"/></clipPath><clipPath id="j"><path d="m164.4 109.3 2 7.7c-2.4 0-5 0-7.6 0s-5.1 0-7.3 0-4.2 0-5.6 0-2.3 0-2.5 0l-2.9-7.7h2.6s3.5 0 5.8 0h7.6z"/></clipPath><clipPath id="k"><path d="m93 22.1 4.8 11c.4 1.3 1 3.5 1.5 6.4s1 6.5 1 10.7-.3 9.1-1.4 14.4-2.9 11.1-5.7 17.2-6.8 11.7-11.7 16.6c-4.9 5-10.8 9.3-17.4 12.9s-13.8 6.4-21.5 8.4c-7.7 1.9-15.8 3-24.1 3-.1 0-.2 0-.3 0s-.2 0-.3 0-.2 0-.3 0-.2 0-.3 0l-8.2-7.4h.4s.2 0 .4 0h.4.4c8.6 0 17.1-1.1 25.1-3.1s15.6-5 22.4-8.7c6.5-3.8 12.6-8.3 17.8-13.5 5.1-5.2 9.3-11 12.2-17.3 2.9-6.4 4.8-12.4 5.9-17.9s1.5-10.5 1.5-14.9-.5-8.2-1-11.2c-.6-3-1.2-5.3-1.6-6.6z"/></clipPath><clipPath id="l"><path d="m111.8 105.2c-1.4-2.7-2.8-5.4-4.2-8.1 1.2 2.3 2.6 4.7 4.1 6.9s3.1 4.3 4.8 6.2c1.7 1.8 3.4 3.4 5.2 4.6 1.7 1.2 3.5 2 5.2 2.3l3.5 7.4c-1.6-.3-3.3-1-5-2.2-1.7-1.1-3.4-2.7-5-4.4-1.6-1.8-3.2-3.8-4.6-5.9-1.5-2.3-2.9-4.5-4-6.8z"/></clipPath><clipPath id="m"><path d="m262.3 38.1c.7-3.6 1.3-7.2 2-10.8.1-.6.3-1.1.6-1.7s.8-1.1 1.3-1.6c.6-.5 1.2-1 2-1.5s1.7-.9 2.8-1.4l-2.2 11c-1 .4-1.9.9-2.7 1.3s-1.4.9-2 1.4c-.5.5-1 1-1.3 1.5s-.4 1.2-.5 1.8z"/></clipPath><clipPath id="n"><path d="m302.4 39.2c1.2-3.6 2.4-7.2 3.6-10.7.2-.6.4-1.1.7-1.6s.5-.9.8-1.2c.3-.4.6-.7 1-1.1s.8-.7 1.2-1.1l-3.7 10.9c-.4.4-.8.7-1.2 1s-.7.7-1 1-.6.7-.8 1.2-.4 1-.6 1.6z"/></clipPath><clipPath id="o"><path d="m361.1 42.2c2-3.5 4-7.1 6-10.6.2-.3.4-.6.6-.8s.5-.5.9-.8.7-.5 1.2-.8c.4-.3.9-.6 1.5-1l-6.2 10.8c-.5.4-1 .7-1.4 1s-.8.5-1.1.8c-.3.2-.6.5-.8.7-.4.1-.6.4-.7.7z"/></clipPath><clipPath id="p"><path d="m172.9 39 1.6 10.3c-.3-1.7-.6-3-1-4s-.8-1.6-1.3-2-1-.6-1.5-.7-1.1-.1-1.6-.2l-1.9-10.6c.6 0 1.1.1 1.7.2.5.1 1.1.3 1.5.7.5.4.9 1.1 1.3 2.1.5 1.1.9 2.4 1.2 4.2z"/></clipPath><clipPath id="q"><path d="m290.5 43.6-3 10.2c0-.1 0-.7 0-1.6s0-2.1 0-3.5c0-1.3 0-2.8-.1-4.2s-.1-2.7-.3-3.8c-.1-1.1-.4-2-.9-2.7s-1-1.4-1.6-2-1.3-1-2.1-1.4-1.5-.7-2.2-.9l2.7-11c.7.3 1.5.6 2.3 1s1.5.9 2.2 1.5 1.2 1.3 1.7 2.1.8 1.8.9 2.8c.1 1.1.2 2.5.3 3.9s.1 3 .1 4.4v3.6z"/></clipPath><clipPath id="r"><path d="m385.1 53.8c2.3-3.4 4.7-6.8 7-10.2.7-1 1.4-1.9 2.3-2.9.8-.9 1.8-1.8 2.8-2.6s2.1-1.4 3.3-1.9 2.5-.7 3.9-.7h.7c.2 0 .5 0 .7.1.2 0 .5.1.7.1s.5.1.7.2c2.6.6 4.6 1.6 6.1 2.8 1.5 1.1 2.6 2.4 3.3 3.7.7 1.2 1.1 2.4 1.4 3.3.2.9.3 1.5.3 1.6l-8 10c0-.1 0-.7-.3-1.5-.2-.8-.6-2-1.3-3.1-.7-1.2-1.7-2.4-3.2-3.5s-3.4-2.1-5.9-2.7c-.2-.1-.5-.1-.7-.2s-.5-.1-.7-.1-.5 0-.7-.1-.4 0-.7 0c-1.3 0-2.6.3-3.8.7s-2.2 1.1-3.2 1.8-1.9 1.6-2.7 2.5c-.7.8-1.4 1.8-2 2.7z"/></clipPath><clipPath id="s"><path d="m290.2 50.4-3 9.9c-3.4.1-6.6.1-9.6.1s-5.7.1-7.9.1c-2.3 0-4.2 0-5.5 0s-2.2 0-2.3 0l1.9-9.9h2.4 5.7c2.4 0 5.2 0 8.3-.1s6.5 0 10-.1z"/></clipPath><clipPath id="t"><path d="m360.5 51.9-5.8 9.9c.2-3.6.2-6.7.1-9.3-.1-2.7-.3-4.9-.7-6.8s-.8-3.3-1.5-4.5c-.6-1.1-1.4-1.9-2.3-2.4l5.7-10.8c.9.5 1.7 1.3 2.4 2.5.6 1.2 1.2 2.7 1.5 4.6.4 1.9.6 4.3.7 7 .1 2.9.1 6.1-.1 9.8z"/></clipPath><clipPath id="u"><path d="m242.3 31.4-1.1 10.6c-4.1 4.4-8.3 8-12.6 10.9s-8.7 5.1-12.9 6.9c-4.3 1.8-8.4 3.1-12.4 4.2-3.9 1.1-7.6 2-11 2.8l-.9-9.7c3.5-.9 7.3-1.8 11.4-2.9s8.4-2.5 12.9-4.4c4.4-1.9 9-4.2 13.4-7.2 4.5-2.9 8.9-6.6 13.2-11.2z"/></clipPath><clipPath id="v"><path d="m410.7 56.6c-2.6 3.2-5.2 6.5-7.7 9.7-.2.3-.5.5-.8.9-.3.3-.6.7-1 1-.4.4-.8.8-1.4 1.2s-1.1.9-1.7 1.4l7.5-9.5c.7-.5 1.3-1 1.8-1.5s1-.9 1.4-1.3.8-.8 1.1-1.1c.4-.2.6-.5.8-.8z"/></clipPath><clipPath id="w"><path d="m379.3 68.1c2.3-3.2 4.5-6.4 6.8-9.6.2-.3.4-.5.7-.6.3-.2.6-.3 1-.4s.9-.1 1.5-.2c.6 0 1.2-.1 2-.1h.4s.2 0 .4 0 .2 0 .3 0 .2 0 .3 0c1.3 0 2.6 0 3.8.2 1.2.1 2.4.3 3.5.6s2.2.7 3.1 1.3 1.8 1.3 2.6 2.1l-7.5 9.5c-.7-.8-1.6-1.5-2.5-2.1-.9-.5-1.9-.9-3-1.2s-2.2-.5-3.4-.6-2.4-.2-3.6-.2c-.1 0-.2 0-.3 0s-.2 0-.3 0-.2 0-.3 0-.2 0-.3 0c-.7 0-1.3 0-1.9.1-.5 0-1 .1-1.4.2s-.7.2-1 .4c-.5.2-.7.3-.9.6z"/></clipPath><clipPath id="x"><path d="m189.3 109.8c-.3-2.7-.7-5.3-1-8 0-.1 0-.3 0-.4s0-.3 0-.4c0-.2 0-.3 0-.5s0-.3 0-.5c0 0 0-3.5 0-8.7s0-12.2 0-19.4 0-14.6 0-20.7 0-10.9 0-12.8.4-3.7 1.2-5.4c.8-1.6 1.9-3.1 3.3-4.3 1.4-1.3 3.1-2.3 5.1-3.2s4.2-1.5 6.7-1.9c.4-.1.8-.1 1.2-.2s.8-.1 1.1-.1.7-.1 1.1-.1h1c1.7 0 3.2.2 4.5.6s2.4 1 3.4 1.7 1.9 1.5 2.7 2.5c.8.9 1.6 2 2.3 3.1l-.3 10.7c-.7-1-1.4-2-2.2-2.9s-1.6-1.7-2.6-2.4-2.1-1.2-3.3-1.6-2.7-.6-4.3-.6c-.3 0-.6 0-1 0-.3 0-.7 0-1 .1-.3 0-.7.1-1.1.1s-.7.1-1.1.2c-2.4.4-4.5 1-6.5 1.9-1.9.8-3.6 1.9-4.9 3.1-1.4 1.2-2.4 2.6-3.2 4.2-.7 1.6-1.1 3.3-1.1 5.2v12.3 20 18.7 8.3.5.4.4c0-.2 0-.1 0 .1z"/></clipPath><clipPath id="y"><path d="m247.2 102.8c-.4 2.6-.9 5.3-1.3 7.9 0-.2.1-.4.1-.5s0-.4.1-.6c0-.2 0-.4.1-.6s0-.4 0-.6c.1-2.2.3-7.1.5-13.3s.5-13.6.7-21 .4-14.6.4-20.5c.1-5.9 0-10.4-.2-12.1-.2-1.8-.7-3.3-1.2-4.6-.6-1.3-1.2-2.3-1.9-3.2-.7-.8-1.4-1.5-2.1-2-.6-.5-1.2-.8-1.6-.9l1.1-11.1c.4.2 1 .5 1.7 1s1.4 1.2 2.1 2c.7.9 1.4 2 2 3.3s1.1 2.9 1.3 4.7.3 6.5.2 12.6-.2 13.7-.5 21.3c-.2 7.7-.5 15.4-.7 21.8s-.5 11.5-.6 13.8v.7c0 .2 0 .4-.1.6 0 .2 0 .4-.1.6z"/></clipPath><clipPath id="z"><path d="m314 104.3c-1.3 2.6-2.6 5.2-4 7.9.2-.3.3-.7.5-1.1s.3-.8.4-1.3.2-.9.3-1.4.1-1.1.2-1.6c.1-1.8.4-6 .7-11.3s.7-11.8 1-18.2.7-12.6.9-17.5.4-8.5.4-9.5-.1-1.8-.2-2.5-.3-1.2-.6-1.6-.7-.7-1.3-.9-1.3-.3-2.2-.3l3.9-10.5c.9 0 1.7.1 2.3.3s1 .5 1.3.9.5 1 .6 1.7.2 1.6.2 2.6-.1 4.7-.4 9.8c-.2 5.1-.6 11.6-.9 18.2s-.7 13.4-1 18.9c-.3 5.6-.6 9.9-.7 11.8 0 .6-.1 1.2-.2 1.7s-.2 1-.3 1.5-.2.9-.4 1.3-.3.7-.5 1.1z"/></clipPath><clipPath id="A"><path d="m287.6 104.3c-1 2.6-1.9 5.2-2.9 7.9.1-.2.2-.5.2-.8.1-.3.1-.5.2-.8s.1-.6.1-.9.1-.6.1-1c.1-2 .3-6 .5-10.8s.4-10.4.6-15.8.4-10.6.5-14.6.2-6.7.2-7.2l3-9.9c0 .5-.1 3.4-.3 7.5-.1 4.1-.3 9.6-.5 15.2s-.4 11.5-.6 16.4c-.2 5-.4 9.1-.5 11.2 0 .3-.1.7-.1 1s-.1.6-.2.9-.1.6-.2.9c.1.3 0 .5-.1.8z"/></clipPath><clipPath id="B"><path d="m194.4 108.5.8 7.7c-1.1 0-2.9 0-5.1 0s-4.7 0-7.1 0-4.9 0-7 0-3.8 0-4.8 0l-1.8-7.7h5 7.3 7.4z"/></clipPath><clipPath id="C"><path d="m169.4 108.5 1.8 7.7h-.1s-.1 0-.1 0h-.1s-.1 0-.1 0l-1.8-7.7h.1.1.1z"/></clipPath><clipPath id="D"><path d="m168.9 108.5 1.8 7.7c-.1 0-.1 0-.2 0s-.1 0-.1 0-.1 0-.1 0l-1.8-7.7h.1.1z"/></clipPath><clipPath id="E"><path d="m266.2 109.8-2.1 7.6c-3 0-5.9 0-8.6 0s-5.3 0-7.4 0c-2.2 0-4 0-5.3 0s-2.1 0-2.3 0l1.1-7.6h2.4 5.5 7.7s5.9 0 9 0z"/></clipPath><clipPath id="F"><path d="m325.3 110.3-4.4 7.6c-1.6-.1-3.5-.2-5.5-.3s-3.9-.3-5.8-.5c-1.8-.2-3.4-.3-4.6-.5-1.2-.1-2-.2-2.1-.2l3.7-7.7c.1 0 1 .1 2.2.2 1.3.1 2.9.3 4.8.5s4 .4 6 .5c2 .2 3.9.3 5.7.4z"/></clipPath><clipPath id="G"><path d="m305.9 110-3.6 7.6c-3.1 0-6.1-.1-8.9-.1s-5.4-.1-7.6-.1-4.1 0-5.4-.1c-1.3 0-2.2 0-2.3 0l2.6-7.6h2.4c1.4 0 3.3 0 5.7.1 2.3 0 5 0 8 .1 2.7.1 5.9.1 9.1.1z"/></clipPath><clipPath id="H"><path d="m353.4 108.9c-1.8 2.6-3.7 5.1-5.5 7.7-.6.8-1.1 1.5-1.6 2.2s-1.1 1.3-1.6 1.9-1 1.1-1.5 1.6-1 .9-1.4 1.2l5.3-7.4c.5-.4.9-.8 1.4-1.3l1.6-1.6s1.1-1.3 1.7-2c.5-.8 1-1.5 1.6-2.3z"/></clipPath><clipPath id="I"><path d="m320.7 52.3c1.5-3.4 2.9-6.8 4.4-10.2.1-.2.2-.4.3-.6s.2-.3.4-.4c.1-.1.3-.2.4-.2s.3-.1.5-.1.5 0 .7.1c.3.1.6.1.9.2s.7.2 1.1.4.8.3 1.2.5c1.4.5 3.5 1.8 6 3.7 2.5 1.8 5.3 4.2 8.1 7 2.8 2.7 5.4 5.8 7.6 8.9s3.9 6.4 4.7 9.5 1.2 6.3 1.2 9.6-.4 6.8-1.2 10.5-2.1 7.6-3.7 11.7-3.7 8.5-6.2 13.2l-5.3 7.4c2.4-4.5 4.3-8.7 5.9-12.7s2.8-7.7 3.6-11.2 1.2-6.9 1.2-10.1-.4-6.3-1.1-9.2c-.8-3-2.4-6.1-4.5-9.1s-4.7-5.9-7.3-8.6c-2.6-2.6-5.4-4.9-7.7-6.7-2.4-1.8-4.4-3-5.7-3.5-.4-.2-.8-.3-1.2-.5-.4-.1-.7-.3-1-.4s-.6-.2-.9-.2c-.3-.1-.5-.1-.7-.1s-.3 0-.5.1c-.2 0-.3.1-.4.2s-.2.2-.4.4c-.2.1-.3.2-.4.4z"/></clipPath><clipPath id="J"><path d="m414.1 118.8-8 7.3c-1.3-.2-3.2-.5-5.6-1.3-2.4-.7-5.1-1.8-8.1-3.5s-6.2-4-9.4-7.1-6.5-7.1-9.5-12.1-5-10.2-6.1-15.3-1.4-10.1-1.3-14.7c.2-4.6.8-8.8 1.6-12.2s1.8-6.2 2.6-7.8c.8-1.7 1.4-3.1 1.8-4.4s.6-2.4.6-3.3-.2-1.7-.7-2.4-1.1-1.2-1.9-1.7l6.4-10.7c.9.5 1.5 1.1 2 1.8s.7 1.5.7 2.5-.2 2.1-.6 3.5c-.4 1.3-1 2.8-1.9 4.6-.8 1.7-1.8 4.5-2.7 8.1-.8 3.6-1.5 7.9-1.6 12.7-.2 4.8.2 10 1.4 15.3s3.2 10.7 6.4 15.9 6.6 9.3 9.9 12.6c3.4 3.3 6.7 5.7 9.8 7.4 3.1 1.8 6 2.9 8.5 3.7 2.3.5 4.3.9 5.7 1.1z"/></clipPath><g enable-background="new"><g clip-path="url(#a)" enable-background="new"><path d="m93.6 12.6 4.7 11.3c-.5.5-.9.9-1.2 1.5-.3.5-.4 1.1-.5 1.8 0 .7 0 1.5.2 2.5s.5 2.1.8 3.4l-4.8-11c-.4-1.4-.7-2.5-.9-3.5s-.3-1.8-.2-2.6c0-.7.2-1.3.5-1.9.5-.6.9-1.1 1.4-1.5" fill="#856125"/></g><g clip-path="url(#b)" enable-background="new"><path d="m9.1 24.8 8.1 10.9c-.2-.3-.5-.6-.8-.8s-.6-.4-.9-.6-.7-.3-1-.3c-.4-.1-.8-.1-1.2-.1-.2 0-.3 0-.5 0s-.4 0-.5.1c-.2 0-.4.1-.6.1s-.4.1-.6.1l-8.2-11c.2-.1.4-.1.6-.1.2-.1.4-.1.6-.1s.4 0 .6-.1.4 0 .5 0c.4 0 .8 0 1.2.1s.7.2 1.1.4l.9.6c.2.2.5.5.7.8" fill="#856125"/></g><g clip-path="url(#c)" enable-background="new"><path d="m113.5 26.9 4 10.8c-.3-.7-.7-1.2-1.1-1.6-.5-.4-1-.7-1.5-.8-.5-.2-1-.3-1.4-.3s-.6 0-.7 0l-4.2-11h.7s.9.1 1.4.3 1.1.5 1.6.9c.5.5.9 1 1.2 1.7" fill="#856125"/></g><g clip-path="url(#d)" enable-background="new"><path d="m71.3 20.5 5.6 11c-1.1-2.1-2.3-3.8-3.6-5.2-1.3-1.3-2.8-2.3-4.3-3s-3.2-1.2-5-1.5-3.6-.4-5.6-.4c-.4 0-.7 0-1.1 0s-.7 0-1.1 0-.8 0-1.1 0c-.4 0-.8 0-1.2.1-5.3.3-9.1 1.5-12 3.4-2.8 1.9-4.6 4.4-5.7 7.1-1.1 2.8-1.6 5.8-1.7 8.8-.2 3 0 5.8 0 8.3l-7.4-10.4c0-2.5-.2-5.5 0-8.6s.6-6.2 1.8-9.1 3-5.5 5.9-7.4 6.9-3.2 12.4-3.5c.4 0 .8 0 1.2-.1s.8 0 1.2 0 .8 0 1.2 0 .8 0 1.1 0c2 0 4 .1 5.8.4s3.6.8 5.2 1.5 3.1 1.8 4.5 3.2c1.5 1.4 2.8 3.2 3.9 5.4" fill="#856125"/></g><g clip-path="url(#e)" enable-background="new"><path d="m146 31 2.7 10.6v-.1-.1-.1-.1c-.2-.3-.4-.7-.6-1-.3-.3-.6-.6-.9-.8s-.8-.5-1.3-.6-1-.2-1.7-.2c-.2 0-.5 0-.8 0s-.6.1-.8.1c-.3.1-.6.1-.9.2s-.7.2-1 .3c-1.3.4-2.4.9-3.6 1.7s-2.4 1.6-3.7 2.9c-1.3 1.2-2.7 2.8-4.2 4.7s-3.2 4.3-5.2 7.1l-3.7-10.1c2-2.9 3.8-5.4 5.4-7.4s3-3.6 4.4-4.9c1.3-1.3 2.6-2.2 3.8-3s2.5-1.3 3.8-1.7c.4-.1.7-.2 1-.3s.7-.2 1-.2c.3-.1.6-.1.9-.1h.8c.7 0 1.2.1 1.7.2s.9.4 1.3.6.7.6.9.9.5.7.7 1v.1s0 .1 0 .1 0 .1 0 .1z" fill="#856125"/></g><g clip-path="url(#f)" enable-background="new"><path d="m145.7 51.4 2.7 9.9c-.3 0-.5 0-.8 0s-.6 0-.9 0-.6 0-.9 0-.6 0-.9 0c-2.1 0-4.4 0-6.7.1s-4.6.1-6.7.2-4.1.2-5.7.2-2.9.1-3.7.2l-3.8-9.9c.8 0 2.2-.1 3.9-.2s3.8-.2 6-.2 4.6-.2 7-.2c2.4-.1 4.8-.1 7-.1h.9.9.9z" fill="#856125"/></g><g clip-path="url(#g)" enable-background="new"><path d="m118.3 52.1 3.8 9.9c-.7 1.7-1.7 4.2-2.8 7.3-1 3.1-2.1 6.8-2.7 11s-.7 9-.1 14.1c.7 5.1 2.2 10.7 5.1 16.5l-3.8-7.9c-2.9-6-4.5-11.8-5.3-17.1-.7-5.3-.6-10.3.1-14.7.6-4.4 1.7-8.3 2.8-11.5s2.2-5.8 2.9-7.6" fill="#856125"/></g><g clip-path="url(#h)" enable-background="new"><path d="m162.9 22 2 11v.6c-.1.2-.2.4-.3.7-.1.2-.3.4-.5.6s-.5.4-.7.5c-.5.3-.8.6-1 1s-.4.8-.4 1.3c-.1.5-.1 1-.1 1.6v2.1s0 5-.1 11.1c-.1 6-.1 13.9-.2 21.7-.1 7.9-.1 15.9-.2 22.2s-.1 11-.1 12.1v.9s0 .6.1.9.1.6.1.8.1.5.2.8l-2.2-7.9c-.1-.3-.1-.5-.2-.8s-.1-.6-.1-.8-.1-.6-.1-.9 0-.6 0-.9c0-1.2.1-6.1.1-12.6.1-6.6.1-14.9.2-23.1s.1-16.3.2-22.6.1-10.7.1-11.5 0-1.5 0-2.2c0-.6 0-1.2.1-1.7s.2-.9.4-1.3.6-.7 1-1c.3-.2.5-.4.7-.6s.4-.4.6-.7c.2-.2.3-.5.3-.7s.2-.4.1-.6" fill="#856125"/></g><g clip-path="url(#i)" enable-background="new"><path d="m27.2 38.7 7.4 10.4c0 2.4.3 7.6.6 14 .4 6.4.8 14.2 1.3 21.7s.9 14.9 1.3 20.5.6 9.6.7 10.3l-7.3-7.7c0-.7-.3-4.8-.7-10.7s-.8-13.5-1.3-21.3c-.5-7.9-1-15.9-1.3-22.6-.4-6.7-.6-12-.7-14.6" fill="#856125"/></g><g clip-path="url(#j)" enable-background="new"><path d="m164.4 109.3 2 7.7c-2.4 0-5 0-7.6 0s-5.1 0-7.3 0-4.2 0-5.6 0-2.3 0-2.5 0l-2.9-7.7h2.6s3.5 0 5.8 0h7.6z" fill="#856125"/></g><g clip-path="url(#k)" enable-background="new"><path d="m93 22.1 4.8 11c.4 1.3 1 3.5 1.5 6.4s1 6.5 1 10.7-.3 9.1-1.4 14.4-2.9 11.1-5.7 17.2-6.8 11.7-11.7 16.6c-4.9 5-10.8 9.3-17.4 12.9s-13.8 6.4-21.5 8.4c-7.7 1.9-15.8 3-24.1 3-.1 0-.2 0-.3 0s-.2 0-.3 0-.2 0-.3 0-.2 0-.3 0l-8.2-7.4h.4s.2 0 .4 0h.4.4c8.6 0 17.1-1.1 25.1-3.1s15.6-5 22.4-8.7c6.5-3.8 12.6-8.3 17.8-13.5 5.1-5.2 9.3-11 12.2-17.3 2.9-6.4 4.8-12.4 5.9-17.9s1.5-10.5 1.5-14.9-.5-8.2-1-11.2c-.6-3-1.2-5.3-1.6-6.6" fill="#856125"/></g><path d="m93 22.1c.4 1.4 1 3.6 1.5 6.6s1 6.8 1 11.2-.3 9.4-1.5 14.9c-1.1 5.5-3 11.5-5.9 17.9-2.9 6.3-7 12.1-12.1 17.3s-11.2 9.7-18.1 13.4c-6.8 3.7-14.4 6.7-22.4 8.7s-16.5 3.1-25.1 3.1c-.1 0-.2 0-.4 0-.1 0-.2 0-.4 0-.1 0-.2 0-.4 0s-.2 0-.4 0c1.4-1 2.5-1.9 3.4-2.8s1.6-2 2-3.4.7-3.1.8-5.3c.1-2.3 0-5.1-.2-8.8-.2-3.6-.5-8.8-.7-14.7-.3-5.8-.6-12.4-.9-18.7s-.6-12.4-.9-17.4-.6-9-.8-11c-.2-1.7-.5-3.3-.8-4.5s-.7-2.4-1.2-3.2-1.1-1.4-1.8-1.9-1.6-.6-2.6-.6c-.2 0-.4 0-.5 0-.2 0-.4 0-.6.1-.2 0-.4.1-.6.1s-.4.1-.6.1c5.8-4.5 10.9-8 15.6-10.8 4.6-2.7 8.8-4.7 12.6-6.1 3.9-1.4 7.4-2.3 11-2.8 3.5-.5 7-.6 10.6-.6h3.4c1.2.1 2.3.1 3.6.1s2.4.1 3.7.1 2.6.1 3.9.1c5.6.1 10.1.6 13.6 1.5s6.1 2 8 3.1 3.1 2.3 3.8 3.1 1 1.5 1 1.6c-.6.5-1 1-1.3 1.5-.3.6-.4 1.2-.5 1.9 0 .7 0 1.6.2 2.6.3 1 .6 2.2 1 3.6zm-22.4 54.3c2.4-4.4 4-9.1 5.1-13.8 1-4.7 1.5-9.5 1.5-14.1s-.5-9.2-1.3-13.4-1.9-8.1-3.2-11.5c-1.1-2.9-2.4-5.2-3.8-7s-3-3.2-4.7-4.1c-1.7-1-3.6-1.6-5.6-2s-4.2-.5-6.5-.5c-.4 0-.8 0-1.1 0s-.8 0-1.2 0-.8 0-1.2 0-.8 0-1.2.1c-5.5.3-9.5 1.6-12.4 3.5-3 2-4.8 4.6-6 7.4-1.2 2.9-1.6 6-1.8 9.1s0 6.1 0 8.6.3 7.9.6 14.6c.4 6.7.8 14.7 1.3 22.5s.9 15.5 1.3 21.3c.4 5.9.6 10 .7 10.7 3.7-.3 7-.7 10.2-1.5s6.2-2.1 9.3-4.3c3.1-2.1 6.1-5.1 9.4-9.3 3.4-4 6.8-9.4 10.6-16.3" fill="#deba27"/><g clip-path="url(#l)" enable-background="new"><path d="m126.8 117 3.5 7.4c-1.6-.3-3.3-1-5-2.2-1.7-1.1-3.4-2.7-5-4.4-1.6-1.8-3.2-3.8-4.6-5.9s-2.8-4.4-3.9-6.6l-4.2-8.1c1.2 2.3 2.6 4.7 4.1 6.9s3.1 4.3 4.8 6.2c1.7 1.8 3.4 3.4 5.2 4.6 1.6 1 3.4 1.8 5.1 2.1" fill="#856125"/></g><path d="m140.5 109.4c.1 0 .4-.2.9-.5s1.1-.8 1.8-1.5c.6-.7 1.3-1.6 1.8-2.7s.8-2.5.9-4.1c0-1.6.1-5.3.1-10.1 0-4.7 0-10.4 0-16s-.1-11-.1-15.3c0-4.2-.1-7.2-.1-7.9-.3 0-.6 0-.9 0s-.6 0-.9 0-.6 0-.9 0-.6 0-.9 0c-2.2 0-4.6 0-7 .1s-4.8.1-7 .2-4.3.2-6 .2-3.1.1-3.9.2c-.8 2.1-2.2 5.3-3.5 9.4s-2.4 9.1-2.6 14.8c-.3 5.7.3 12.1 2.5 18.9 2.2 6.9 6 14.2 12.1 21.8-2.2-.4-4.6-1.6-6.8-3.5-2.3-1.8-4.5-4.3-6.6-7s-4-5.8-5.6-8.9-3-6.1-3.9-8.9c-1-2.8-1.8-5.8-2.3-8.9-.6-3.1-.9-6.4-1-9.8s.1-6.8.6-10.3 1.3-7 2.5-10.5 2.3-6 3.4-8 2.1-3.4 3-4.5 1.7-2 2.3-3 1.1-2.1 1.3-3.6 0-2.7-.4-3.5-1-1.4-1.7-1.8-1.4-.6-1.9-.7-1-.1-1.1-.1c5.3-.3 11-.7 16.7-1s11.3-.6 16.3-.9 9.5-.5 12.9-.7 5.7-.3 6.5-.3h.1s.1 0 .1 0h.1s.1 0 .1 0c.6 0 1.1.1 1.3.4.3.2.3.6.3.9s-.3.8-.5 1.1c-.3.4-.7.7-1.1 1-.5.3-.8.6-1 1s-.4.8-.4 1.3c-.1.5-.1 1.1-.1 1.7v2.2c0 .8 0 5.2-.1 11.5s-.1 14.4-.2 22.6-.2 16.5-.2 23.1c-.1 6.6-.1 11.4-.1 12.6s.1 2.4.4 3.4.7 1.9 1.2 2.7 1.1 1.4 1.7 1.8c.7.5 1.4.8 2.1.9-2.5 0-5.2 0-7.9 0s-5.3 0-7.6 0-4.3 0-5.8 0c-1.7.2-2.7.2-2.9.2zm5.5-68.9c0-.8.1-1.7.1-2.7s.1-2 .1-2.9 0-1.9 0-2.6c-.1-.8-.2-1.3-.3-1.7-.2-.4-.4-.7-.7-1s-.6-.6-.9-.9c-.4-.3-.8-.5-1.3-.6s-1.1-.2-1.7-.2c-.3 0-.5 0-.8 0s-.6.1-.9.1c-.3.1-.6.1-1 .2s-.7.2-1 .3c-1.3.4-2.5 1-3.8 1.7-1.2.7-2.5 1.7-3.8 3s-2.8 2.9-4.4 4.9-3.4 4.4-5.4 7.4h1.8s1.3 0 1.9 0h2 2 4.8c1.6 0 3.1 0 4.4-.1 1.3 0 2.5-.1 3.5-.1s1.7-.1 2.1-.1c.6-.1 1.1-.2 1.5-.4s.7-.5.9-.9.4-.9.5-1.4c.3-.6.3-1.3.4-2" fill="#deba27"/></g><g enable-background="new"><g clip-path="url(#m)" enable-background="new"><path d="m271.1 21.1-2.2 11c-1 .4-1.9.9-2.7 1.3s-1.4.9-2 1.4c-.5.5-1 1-1.3 1.5s-.5 1.1-.6 1.6l2-10.8c.1-.6.3-1.1.6-1.7s.8-1.1 1.3-1.6c.6-.5 1.2-1 2-1.5.9-.3 1.8-.7 2.9-1.2" fill="#856125"/></g><g clip-path="url(#n)" enable-background="new"><path d="m309.8 23.4-3.8 11c-.4.4-.8.7-1.2 1s-.7.7-1 1-.6.7-.8 1.2-.5 1-.7 1.6l3.6-10.7c.2-.6.4-1.1.7-1.6s.5-.9.8-1.2c.3-.4.6-.7 1-1.1s.9-.8 1.4-1.2" fill="#856125"/></g><g clip-path="url(#o)" enable-background="new"><path d="m371.2 28.1-6.2 10.8c-.5.4-1 .7-1.4 1s-.8.5-1.1.8c-.3.2-.6.5-.8.7-.2.3-.4.5-.6.8l6-10.6c.2-.3.4-.6.6-.8s.5-.5.9-.8.7-.5 1.2-.8c.4-.4.9-.7 1.4-1.1" fill="#856125"/></g><g clip-path="url(#p)" enable-background="new"><path d="m172.9 39 1.6 10.3c-.3-1.7-.6-3-1-4s-.8-1.6-1.3-2-1-.6-1.5-.7-1.1-.1-1.6-.2l-1.9-10.6c.6 0 1.1.1 1.7.2.5.1 1.1.3 1.5.7.5.4.9 1.1 1.3 2.1.5 1.1.9 2.4 1.2 4.2" fill="#856125"/></g><g clip-path="url(#q)" enable-background="new"><path d="m290.5 43.6-3 10.2c0-.1 0-.6 0-1.4s0-1.8 0-3 0-2.5-.1-3.8c0-1.3-.1-2.6-.2-3.7l3-10.6c.1 1.1.2 2.5.2 3.8s.1 2.7.1 3.9v3.1s0 1.4 0 1.5" fill="#8a6625"/><path d="m290.2 31.3-3 10.6c0-.1 0-.2 0-.3s0-.2 0-.3 0-.2 0-.3 0-.2 0-.3c-.1-1.1-.4-2-.9-2.7s-1-1.4-1.6-2-1.3-1-2.1-1.4-1.5-.7-2.2-.9l2.7-11c.7.3 1.5.6 2.3 1s1.5.9 2.2 1.5 1.2 1.3 1.7 2.1.8 1.8.9 2.8v.3.3s0 .2 0 .3 0 .1 0 .3" fill="#856125"/></g><g clip-path="url(#r)" enable-background="new"><path d="m418.3 47.3-8 10s0 0 0-.1l8-10v.1s0-.1 0 0c0-.1 0-.1 0 0z" fill="#8a6625"/><path d="m418.3 47.1-8 10c0-.3-.1-1-.4-1.9s-.7-2-1.5-3.1-1.8-2.3-3.2-3.3-3.3-1.9-5.6-2.5c-.2-.1-.5-.1-.7-.2s-.5-.1-.7-.1-.5 0-.7-.1-.4 0-.7 0c-1.3 0-2.6.3-3.8.7s-2.2 1.1-3.2 1.8-1.9 1.6-2.7 2.5-1.5 1.8-2.2 2.8l7-10.2c.7-1 1.4-1.9 2.3-2.9.8-.9 1.8-1.8 2.8-2.6s2.1-1.4 3.3-1.9 2.5-.7 3.9-.7h.7c.2 0 .5 0 .7.1.2 0 .5.1.7.1s.5.1.7.2c2.5.6 4.4 1.5 5.9 2.6s2.6 2.3 3.3 3.4c.8 1.2 1.2 2.3 1.5 3.2.5 1.1.6 1.8.6 2.1" fill="#856125"/></g><g clip-path="url(#s)" enable-background="new"><path d="m290.2 50.4-3 9.9c-3.4.1-6.6.1-9.6.1s-5.7.1-7.9.1c-2.3 0-4.2 0-5.5 0s-2.2 0-2.3 0l1.9-9.9h2.4 5.7c2.4 0 5.2 0 8.3-.1s6.5 0 10-.1" fill="#856125"/></g><g clip-path="url(#t)" enable-background="new"><path d="m360.5 51.9-5.8 9.9c.1-1.3.1-2.5.1-3.7s0-2.3 0-3.4 0-2.1-.1-3c0-.9-.1-1.8-.2-2.7l5.7-10.4c.1.9.1 1.8.2 2.8 0 1 .1 2 .1 3.1v3.5c.1 1.3.1 2.5 0 3.9" fill="#8a6625"/><path d="m360.4 38.6-5.7 10.4c-.1-1.4-.3-2.7-.6-3.9-.2-1.1-.5-2.1-.9-2.9-.3-.8-.8-1.5-1.2-2.1-.5-.6-1-1-1.5-1.3l5.5-10.8c.6.3 1.1.8 1.6 1.4s.9 1.3 1.3 2.2.7 1.9.9 3.1c.3 1.1.5 2.4.6 3.9" fill="#856125"/></g><g clip-path="url(#u)" enable-background="new"><path d="m242.3 31.4-1.1 10.6c-4.1 4.4-8.3 8-12.6 10.9s-8.7 5.1-12.9 6.9c-4.3 1.8-8.4 3.1-12.4 4.2-3.9 1.1-7.6 2-11 2.8l-.9-9.7c3.5-.9 7.3-1.8 11.4-2.9s8.4-2.5 12.9-4.4c4.4-1.9 9-4.2 13.4-7.2 4.5-2.9 8.9-6.6 13.2-11.2" fill="#856125"/></g><g clip-path="url(#v)" enable-background="new"><path d="m410.7 56.6-7.7 9.7c-.2.3-.5.5-.8.9-.3.3-.6.7-1 1-.4.4-.8.8-1.4 1.2s-1.1.9-1.7 1.4l7.5-9.5c.7-.5 1.3-1 1.8-1.5s1-.9 1.4-1.3.8-.8 1.1-1.1c.4-.2.6-.5.8-.8" fill="#856125"/></g><g clip-path="url(#w)" enable-background="new"><path d="m405.7 61.4-7.5 9.5c-.7-.8-1.6-1.5-2.5-2.1-.9-.5-1.9-.9-3-1.2s-2.2-.5-3.4-.6-2.4-.2-3.6-.2c-.1 0-.2 0-.3 0s-.2 0-.3 0-.2 0-.3 0-.2 0-.3 0c-.7 0-1.3 0-1.9.1-.5 0-1 .1-1.4.2s-.7.2-1 .4-.5.4-.7.6l6.8-9.6c.2-.3.4-.5.7-.6.3-.2.6-.3 1-.4s.9-.1 1.5-.2c.6 0 1.2-.1 2-.1h.4s.2 0 .4 0 .2 0 .3 0 .2 0 .3 0c1.3 0 2.6 0 3.8.2 1.2.1 2.4.3 3.5.6s2.2.7 3.1 1.3 1.6 1.2 2.4 2.1" fill="#856125"/></g><g clip-path="url(#x)" enable-background="new"><path d="m221.9 30.9-.3 10.7c-.7-1-1.4-2-2.2-2.9s-1.6-1.7-2.6-2.4-2.1-1.2-3.3-1.6-2.7-.6-4.3-.6c-.3 0-.6 0-1 0-.3 0-.7 0-1 .1-.3 0-.7.1-1.1.1s-.7.1-1.1.2c-2.4.4-4.5 1-6.5 1.9-1.9.8-3.6 1.9-4.9 3.1-1.4 1.2-2.4 2.6-3.2 4.2-.7 1.6-1.1 3.3-1.1 5.2v12.3 20 18.7 8.3.5.4.4.4l-1-8c0-.1 0-.3 0-.4s0-.3 0-.4c0-.2 0-.3 0-.5s0-.3 0-.5c0 0 0-3.5 0-8.7s0-12.2 0-19.4 0-14.6 0-20.7 0-10.9 0-12.8.4-3.7 1.2-5.4c.8-1.6 1.9-3.1 3.3-4.3 1.4-1.3 3.1-2.3 5.1-3.2s4.2-1.5 6.7-1.9c.4-.1.8-.1 1.2-.2s.8-.1 1.1-.1.7-.1 1.1-.1h1c1.7 0 3.2.2 4.5.6s2.4 1 3.4 1.7 1.9 1.5 2.7 2.5c.8.7 1.6 1.7 2.3 2.8" fill="#856125"/></g><g clip-path="url(#y)" enable-background="new"><path d="m247.2 102.8-1.3 7.9c0-.1 0-.2 0-.3s0-.2 0-.3 0-.2 0-.3 0-.2 0-.3l1.3-8v.3s0 .2 0 .3v.3z" fill="#8f6b25"/><path d="m247.3 101.7-1.3 8c0-.1 0-.2 0-.3s0-.2 0-.3 0-.2 0-.3 0-.2 0-.3c.1-2.2.3-6.8.5-12.6s.5-12.9.7-20 .4-14.2.5-20.1.1-10.7-.1-13.2l1.4-10.6c.2 2.6.2 7.5.1 13.7s-.3 13.6-.5 20.9c-.2 7.4-.5 14.7-.7 20.8s-.4 10.9-.5 13.1v.3.3.3c-.1.1-.1.2-.1.3" fill="#8a6625"/><path d="m249 31.8-1.4 10.6c0-.1 0-.2 0-.3s0-.2 0-.3 0-.2 0-.2c0-.1 0-.1 0-.2-.2-1.8-.7-3.3-1.2-4.6-.6-1.3-1.2-2.3-1.9-3.2-.7-.8-1.4-1.5-2.1-2-.6-.5-1.2-.8-1.6-.9l1.1-11.1c.4.2 1 .5 1.7 1s1.4 1.2 2.1 2c.7.9 1.4 2 2 3.3s1.1 2.9 1.3 4.7v.2.2s0 .2 0 .3 0 .4 0 .5" fill="#856125"/></g><g clip-path="url(#z)" enable-background="new"><path d="m314 104.3-4 7.9c0-.1.1-.1.1-.2s.1-.1.1-.2 0-.1.1-.2c0-.1 0-.1.1-.2l4-7.9c0 .1 0 .1-.1.2 0 .1-.1.1-.1.2s-.1.1-.1.2c0 0-.1.1-.1.2" fill="#997526"/><path d="m314.3 103.6-4 7.9c0-.1.1-.3.1-.4s.1-.3.1-.4.1-.3.1-.4.1-.3.1-.4l4-8c0 .2-.1.3-.1.5s-.1.3-.1.4-.1.3-.1.4 0 .2-.1.4" fill="#947026"/><path d="m314.9 101.9-4 8c.1-.2.1-.4.1-.7 0-.2.1-.5.1-.7s.1-.5.1-.7c0-.3.1-.5.1-.8l4-8.1c0 .3-.1.5-.1.8s-.1.5-.1.8c0 .2-.1.5-.1.7s-.1.5-.1.7" fill="#8f6b25"/><path d="m315.4 98.9-4 8.1v-.1-.1-.1s0-.1 0-.1c.1-1.8.4-6 .7-11.3s.7-11.8 1-18.2.7-12.6.9-17.5.4-8.5.4-9.5c0-.1 0-.3 0-.4s0-.3 0-.4 0-.3 0-.4 0-.2 0-.4l4.1-10.4v.4.4s0 .3 0 .4 0 .3 0 .5c0 1-.1 4.7-.4 9.8-.2 5.1-.6 11.6-.9 18.2s-.7 13.4-1 18.9c-.3 5.6-.6 9.9-.7 11.8v.1.1c-.1.1-.1.1-.1.2 0-.1 0 0 0 0" fill="#8a6625"/><path d="m318.3 38.2-4.1 10.4c-.1-.7-.2-1.2-.3-1.7-.2-.5-.4-.8-.7-1.1s-.7-.5-1.2-.6-1.2-.2-1.9-.2l3.9-10.5c.8 0 1.5.1 2 .2s1 .4 1.3.7.6.7.7 1.2.3.9.3 1.6" fill="#856125"/></g><g clip-path="url(#A)" enable-background="new"><path d="m287.6 104.3-2.9 7.9c0-.1.1-.2.1-.2 0-.1.1-.2.1-.3s.1-.2.1-.3 0-.2.1-.3l2.9-7.9c0 .1 0 .2-.1.3s-.1.2-.1.3-.1.2-.1.3c0 0 0 .1-.1.2" fill="#947026"/><path d="m288 103.2-2.9 7.9c0-.1.1-.3.1-.4s.1-.3.1-.5.1-.3.1-.5 0-.3.1-.5l2.9-8c0 .2 0 .3-.1.5s0 .3-.1.5-.1.3-.1.5c-.1.2-.1.3-.1.5" fill="#8f6b25"/><path d="m288.3 101.3-2.9 8v-.1-.1-.1-.1c.1-2 .3-6 .5-10.8s.4-10.4.6-15.8.4-10.6.5-14.6.2-6.7.2-7.2l3-9.9c0 .5-.1 3.4-.3 7.5-.1 4.1-.3 9.6-.5 15.2s-.4 11.5-.6 16.4c-.2 5-.4 9.1-.5 11.2v.1.1.1z" fill="#8a6625"/></g><g clip-path="url(#B)" enable-background="new"><path d="m194.4 108.5.8 7.7c-1.1 0-2.9 0-5.1 0s-4.7 0-7.1 0-4.9 0-7 0-3.8 0-4.8 0l-1.8-7.7h5 7.3 7.4z" fill="#856125"/></g><path d="m191.4 57.2c5-3.1 9.2-5.9 12.8-8.5 3.5-2.5 6.4-4.8 8.7-6.9s4.2-4 5.6-5.8c1.5-1.8 2.6-3.5 3.4-5.1-.7-1.1-1.5-2.1-2.3-3.1s-1.7-1.8-2.7-2.5-2.1-1.3-3.4-1.7-2.8-.6-4.5-.6c-.3 0-.7 0-1 0s-.7 0-1.1.1-.7.1-1.1.1c-.4.1-.8.1-1.2.2-2.5.4-4.7 1.1-6.7 1.9-2 .9-3.7 1.9-5.1 3.2s-2.5 2.7-3.3 4.3-1.2 3.4-1.2 5.4v12.8 20.7 19.4 8.7c0 .9 0 1.6.2 2.3.1.7.4 1.3.8 1.9s1 1.2 1.9 1.9 2 1.5 3.4 2.4c-1.2 0-3.1 0-5.3 0s-4.8 0-7.4 0-5.1 0-7.3 0-4 0-5 0c.4 0 .9-.1 1.4-.4.5-.2 1.1-.6 1.6-1.1s1-1.3 1.3-2.3.5-2.2.5-3.8c0-2.1 0-6.6 0-12.3 0-5.6-.1-12.5-.2-19.2s-.2-13.4-.4-18.9c-.2-5.4-.4-9.7-.7-11.5s-.7-3.2-1.1-4.1c-.4-1-.9-1.6-1.3-2.1-.5-.4-1-.6-1.5-.7s-1.1-.1-1.7-.2c5.3-2.9 10-5.3 14.2-7.1 4.2-1.9 8-3.3 11.5-4.3s6.7-1.7 9.8-2.1 6-.6 9-.6h.3.3.3.3c3.1 0 5.9.3 8.5.9 2.6.5 5 1.3 7.3 2.4s4.5 2.5 6.7 4.2 4.4 3.7 6.7 6.1c-4.2 4.6-8.7 8.3-13.1 11.3-4.5 3-9 5.3-13.4 7.2s-8.8 3.2-12.9 4.4c-4.3 1.4-8.1 2.3-11.6 3.1z" fill="#deba27"/><g clip-path="url(#C)" enable-background="new"><path d="m169.4 108.5 1.8 7.7h-.1s-.1 0-.1 0h-.1s-.1 0-.1 0l-1.8-7.7h.1.1.1z" fill="#856125"/></g><path d="m168.9 108.5c-.1 0-.1 0-.2 0s-.1 0-.1 0h-.1.1.2.1.5-.1-.1-.1c-.1 0-.2 0-.2 0z" fill="#e0bc27"/><g clip-path="url(#D)" enable-background="new"><path d="m168.9 108.5 1.8 7.7c-.1 0-.1 0-.2 0s-.1 0-.1 0-.1 0-.1 0l-1.8-7.7h.1.1z" fill="#856125"/></g><g clip-path="url(#E)" enable-background="new"><path d="m266.2 109.8-2.1 7.6c-3 0-5.9 0-8.6 0s-5.3 0-7.4 0c-2.2 0-4 0-5.3 0s-2.1 0-2.3 0l1.1-7.6h2.4 5.5 7.7s5.9 0 9 0" fill="#856125"/></g><g clip-path="url(#F)" enable-background="new"><path d="m325.3 110.3-4.4 7.6c-1.6-.1-3.5-.2-5.5-.3s-3.9-.3-5.8-.5c-1.8-.2-3.4-.3-4.6-.5-1.2-.1-2-.2-2.1-.2l3.7-7.7c.1 0 1 .1 2.2.2 1.3.1 2.9.3 4.8.5s4 .4 6 .5c2 .2 3.9.3 5.7.4" fill="#856125"/></g><g clip-path="url(#G)" enable-background="new"><path d="m305.9 110-3.6 7.6c-3.1 0-6.1-.1-8.9-.1s-5.4-.1-7.6-.1-4.1 0-5.4-.1c-1.3 0-2.2 0-2.3 0l2.6-7.6h2.4c1.4 0 3.3 0 5.7.1 2.3 0 5 0 8 .1 2.7.1 5.9.1 9.1.1" fill="#856125"/></g><path d="m241.8 19.8 29.3 1.4c-1.3.5-2.3 1.1-3.2 1.6-.9.6-1.6 1.2-2.2 1.8s-.9 1.3-1.2 1.9c-.2.7-.3 1.3-.3 2s.1 1.9.1 3.4v4.9 4.5 2.2h26.2c0-.1 0-.8 0-1.7 0-1 0-2.2 0-3.6s-.1-2.9-.1-4.4c-.1-1.4-.2-2.8-.3-3.9s-.5-2-.9-2.8c-.5-.8-1-1.5-1.7-2.1s-1.4-1.1-2.2-1.5-1.5-.7-2.3-1c3.8 0 7.3.1 10.5.2s6 .2 8.3.3 4.3.2 5.6.2 2.1.1 2.3.1c-.8.7-1.5 1.3-2.1 2s-1.1 1.5-1.5 2.6-.7 2.5-1 4.5c-.3 1.9-.5 4.4-.7 7.6s-.5 8.3-.8 14.1-.6 12.5-.9 18.9-.5 12.6-.7 17.5-.3 8.6-.3 10 .1 2.5.2 3.6c.2 1 .4 1.9.8 2.7s.8 1.4 1.3 1.9 1.1.9 1.8 1.3c-3.2 0-6.4-.1-9.3-.1s-5.6-.1-8-.1c-2.3 0-4.3 0-5.7-.1-1.4 0-2.3 0-2.4 0 .1 0 .6 0 1.3-.2s1.6-.5 2.5-1.1 1.8-1.5 2.6-2.7 1.2-2.9 1.4-5c.1-2.1.3-6.2.5-11.2s.4-10.8.6-16.4.4-11 .5-15.2c.1-4.1.2-7 .3-7.5-3.5.1-6.9.1-10 .1s-5.9.1-8.3.1-4.3 0-5.7 0-2.2 0-2.4 0c0 .6-.2 3.8-.4 8.3s-.5 10.4-.7 16.4-.5 12.1-.6 16.9c-.2 4.9-.2 8.5-.2 9.6.1 1.1.2 2.1.4 3s.5 1.6.8 2.3.8 1.2 1.3 1.6 1.1.8 1.7 1c-3.1 0-6.1 0-9 0s-5.5 0-7.7 0-4.2 0-5.5 0c-1.4 0-2.2 0-2.4 0 .1 0 .4 0 1-.2.5-.2 1.2-.5 1.9-1.1s1.4-1.5 1.9-2.8.9-3.1 1-5.4.3-7.4.6-13.8c.2-6.4.5-14.1.7-21.8.2-7.6.4-15.2.5-21.3s0-10.8-.2-12.6-.7-3.4-1.3-4.7-1.3-2.4-2-3.3-1.5-1.5-2.1-2c-.6-.5-1.2-.8-1.6-.9z" fill="#deba27"/><g clip-path="url(#H)" enable-background="new"><path d="m353.4 108.9-5.5 7.7c-.6.8-1.1 1.5-1.6 2.2s-1.1 1.3-1.6 1.9-1 1.1-1.5 1.6-1 .9-1.4 1.2l5.3-7.4c.5-.4.9-.8 1.4-1.3l1.6-1.6s1.1-1.3 1.7-2c.5-.8 1-1.5 1.6-2.3" fill="#856125"/></g><g clip-path="url(#I)" enable-background="new"><path d="m347 116-5.3 7.4c.6-1.1 1.1-2.2 1.6-3.2.5-1.1 1-2.1 1.5-3.1s.9-2 1.4-3 .8-2 1.2-2.9l5.5-7.9c-.4 1-.8 2-1.3 3s-.9 2.1-1.4 3.1c-.5 1.1-1 2.1-1.6 3.2-.4 1.2-1 2.3-1.6 3.4" fill="#997526"/><path d="m353 103.3-5.5 7.9c.4-.9.7-1.9 1.1-2.8.3-.9.6-1.8.9-2.7s.6-1.8.8-2.6c.2-.9.5-1.7.7-2.6l5.6-8.3c-.2.9-.4 1.8-.7 2.7s-.5 1.8-.8 2.7-.6 1.9-1 2.8c-.4 1-.7 1.9-1.1 2.9" fill="#947026"/><path d="m356.6 92.2-5.6 8.3c.2-.7.3-1.3.4-2s.3-1.3.4-1.9.2-1.3.3-1.9.1-1.2.2-1.9l5.7-8.6c-.1.6-.1 1.3-.2 1.9-.1.7-.2 1.3-.3 2s-.2 1.3-.4 2-.3 1.4-.5 2.1" fill="#8f6b25"/><path d="m357.9 84.2-5.7 8.6c.1-.6.1-1.2.1-1.8s0-1.2 0-1.8 0-1.2 0-1.8-.1-1.2-.1-1.7l5.7-8.9c.1.6.1 1.2.1 1.8v1.8 1.9c0 .6 0 1.2-.1 1.9" fill="#8a6625"/><path d="m357.9 76.8-5.7 8.9c0-.5-.1-.9-.2-1.4s-.1-.9-.2-1.4-.2-.9-.3-1.4-.2-.9-.3-1.4c-.8-3-2.4-6.1-4.5-9.1s-4.7-5.9-7.3-8.6c-2.6-2.6-5.4-4.9-7.7-6.7-2.4-1.8-4.4-3-5.7-3.5-.4-.2-.8-.3-1.2-.5-.4-.1-.7-.3-1-.4s-.6-.2-.9-.2c-.3-.1-.5-.1-.7-.1s-.3 0-.5.1c-.2 0-.3.1-.4.2s-.2.2-.4.4c-.1.2-.2.3-.3.5l4.4-10.2c.1-.2.2-.4.3-.6s.2-.3.4-.4c.1-.1.3-.2.4-.2s.3-.1.5-.1.5 0 .7.1c.3.1.6.1.9.2s.7.2 1.1.4.8.3 1.2.5c1.4.5 3.5 1.8 6 3.7 2.5 1.8 5.3 4.2 8.1 7 2.8 2.7 5.4 5.8 7.6 8.9s3.9 6.4 4.7 9.5c.1.5.2.9.3 1.4s.2.9.3 1.4.2 1 .2 1.4c.1.6.2 1.1.2 1.6" fill="#856125"/></g><path d="m324.3 23.4c.3 0 .6 0 .9.1s.6.1.9.2.6.2 1 .4c.3.2.7.3 1.1.6 1.5.9 3.9 2.2 6.7 3.9s6.1 3.8 9.4 6.2 6.6 5.1 9.4 8c2.9 2.9 5.3 5.9 6.9 9.1.2-3.7.2-6.9.1-9.7s-.3-5.1-.7-7-.9-3.5-1.5-4.6c-.6-1.2-1.4-2-2.4-2.5h1.3 1.2s.8 0 1.2 0h1.2 4.1 3.2 2.1.9c-1.2.8-2.2 1.4-2.9 2s-1.2 1.1-1.5 1.8-.5 1.7-.6 3c-.1 1.4-.1 3.1-.1 5.6 0 2.4-.1 5.6-.2 9.3s-.2 7.8-.5 12c-.2 4.3-.5 8.6-.9 12.8s-.9 8.2-1.5 11.6c-.6 3.5-1.6 6.8-2.8 9.9s-2.7 6-4.2 8.6c-1.6 2.6-3.2 4.9-4.7 6.8-1.6 1.9-3.1 3.4-4.3 4.4 2.5-4.7 4.5-9.1 6.2-13.2 1.6-4.1 2.9-8 3.7-11.7s1.2-7.1 1.2-10.5c0-3.3-.4-6.5-1.2-9.6s-2.5-6.3-4.7-9.5c-2.2-3.1-4.9-6.2-7.6-8.9-2.8-2.7-5.6-5.1-8.1-7-2.5-1.8-4.6-3.1-6-3.7-.4-.2-.9-.3-1.2-.5-.4-.1-.7-.3-1.1-.4-.3-.1-.6-.2-.9-.2-.3-.1-.5-.1-.7-.1-.5 0-.8.1-1.1.4s-.5.8-.7 1.5-.3 1.7-.5 2.9c-.1 1.2-.3 2.7-.4 4.5-.2 2.7-.5 7-.7 12-.3 5-.6 10.7-.9 16.2s-.6 10.8-.8 14.8c-.2 4.1-.3 7-.4 7.7 0 .7.1 1.6.3 2.5s.5 1.8.8 2.7.8 1.7 1.3 2.4 1.1 1.3 1.7 1.6c-1.7-.1-3.7-.2-5.7-.3s-4.1-.3-6-.5-3.6-.3-4.8-.5c-1.3-.1-2.1-.2-2.2-.2 1.3-.2 2.5-.4 3.5-.8s1.9-1 2.7-1.7c.7-.8 1.4-1.7 1.8-3 .5-1.2.8-2.8.9-4.6.1-1.9.4-6.2.7-11.8.3-5.5.7-12.3 1-18.9s.7-13.1.9-18.2.4-8.8.4-9.8-.1-1.9-.2-2.6-.3-1.3-.6-1.7-.8-.7-1.3-.9c-.6-.2-1.3-.3-2.3-.3 1.2-1.8 2.3-3.4 3.2-4.7.9-1.4 1.8-2.5 2.6-3.4s1.5-1.6 2.3-2.1c.5-.2 1.3-.4 2.1-.4z" fill="#deba27"/><g clip-path="url(#J)" enable-background="new"><path d="m414.1 118.8-8 7.3c-1.3-.2-3.2-.5-5.6-1.3-2.4-.7-5.1-1.8-8.1-3.5s-6.2-4-9.4-7.1-6.5-7.1-9.5-12.1c-1.1-1.8-2.1-3.6-2.9-5.5-.8-1.8-1.5-3.7-2.1-5.6s-1-3.7-1.4-5.6-.6-3.7-.8-5.5l6.2-9.1c.2 1.9.4 3.8.8 5.7s.9 3.9 1.5 5.8 1.3 3.9 2.2 5.8 1.9 3.8 3 5.7c3.2 5.2 6.6 9.3 9.9 12.6 3.4 3.3 6.7 5.7 9.8 7.4 3.1 1.8 6 2.9 8.5 3.7 2.5.7 4.5 1.1 5.9 1.3" fill="#856125"/><path d="m372.5 70.8-6.2 9.1c-.1-1-.2-2-.2-2.9 0-1-.1-1.9-.1-2.8s0-1.9.1-2.8c0-.9.1-1.8.2-2.7l6.2-9.6c-.1.9-.1 1.8-.2 2.8 0 .9-.1 1.9-.1 2.9s0 2 .1 3 .1 2 .2 3" fill="#8a6625"/><path d="m372.5 59.2-6.2 9.6c.1-.9.2-1.7.3-2.6s.2-1.7.4-2.5c.1-.8.3-1.6.4-2.3s.3-1.5.5-2.1l6.3-10c-.2.7-.3 1.4-.5 2.2s-.3 1.6-.4 2.4-.3 1.7-.4 2.5c-.3 1-.4 1.8-.4 2.8" fill="#8f6b25"/><path d="m374 49.3-6.3 10c.1-.6.3-1.2.4-1.7.2-.6.3-1.1.5-1.6s.3-1 .5-1.4.3-.9.5-1.2l6.4-10.2c-.2.4-.3.8-.5 1.3s-.3 1-.5 1.5-.3 1.1-.5 1.6-.3 1.1-.5 1.7" fill="#947026"/><path d="m376 43.1-6.4 10.2c0-.1.1-.2.1-.4 0-.1.1-.2.1-.3s.1-.2.1-.3.1-.2.1-.3c.1-.2.2-.4.3-.7.1-.2.2-.4.3-.6s.2-.4.3-.6.2-.4.2-.6l6.4-10.3c-.1.2-.2.4-.3.6s-.2.4-.3.6-.2.4-.3.7c-.1.2-.2.5-.3.7 0 .1-.1.2-.1.3-.1.1-.1.2-.2.3s-.1.2-.2.4.2.2.2.3" fill="#997526"/><path d="m377.7 39.1-6.4 10.3c.1-.3.2-.5.3-.8s.2-.5.3-.7.2-.5.2-.7c.1-.2.1-.4.2-.7l6.5-10.5c-.1.2-.1.5-.2.7s-.1.5-.2.7-.2.5-.3.8c-.2.4-.3.7-.4.9" fill="#947026"/><path d="m378.7 36.2-6.5 10.5c0-.1.1-.3.1-.4s.1-.3.1-.4 0-.3.1-.4 0-.3 0-.4l6.5-10.5v.4c0 .1 0 .3-.1.4 0 .1 0 .3-.1.4 0 .1-.1.2-.1.4" fill="#8f6b25"/><path d="m379 34.5-6.5 10.5c0-.1 0-.2 0-.3s0-.2 0-.3 0-.2 0-.3 0-.2 0-.3l6.5-10.6v.3s0 .2 0 .3v.3z" fill="#8a6625"/><path d="m379 33.2-6.5 10.6c0-.4-.1-.8-.2-1.1-.1-.4-.3-.7-.5-1s-.5-.6-.8-.8-.6-.5-1-.7l6.4-10.7c.4.2.8.5 1.1.7s.6.6.8.9.4.7.5 1 .1.7.2 1.1" fill="#856125"/></g><path d="m379.1 29.1c.7 0 1.5 0 2.4.1s2 .2 3.3.3 2.8.3 4.5.5 3.7.5 5.9.8c3 .4 5.9.8 8.5 1.1s5 .6 7.1.8 4 .4 5.6.5 2.9.2 3.9.2h.2.2s.1 0 .2 0 .1 0 .2 0c.6 0 1.1-.1 1.6-.2s.9-.2 1.3-.3.7-.2 1.1-.2c.3-.1.6-.1.8-.1h.3c.1 0 .2.1.2.1.1.1.1.1.1.2s.1.2.1.4c0 .4-.2.9-.5 1.6-.4.7-.9 1.5-1.6 2.6s-1.6 2.4-2.5 4c-1 1.6-2.1 3.6-3.3 5.9 0-.1-.1-.7-.3-1.6s-.6-2-1.4-3.3c-.7-1.2-1.8-2.5-3.3-3.7-1.5-1.1-3.5-2.1-6.1-2.8-.2-.1-.5-.1-.7-.2s-.5-.1-.7-.1-.5 0-.7-.1-.5 0-.7 0c-2.2 0-4.1.6-5.8 1.6s-3.2 2.4-4.5 3.8c-1.3 1.5-2.3 3-3.2 4.5-.8 1.4-1.5 2.7-1.9 3.5-.5.9-.7 1.6-.8 2.1 0 .5.2.8.6 1.1s1.2.4 2.1.4 2.3.1 3.8.1c1.6 0 3.4.1 5.3.3s3.8.4 5.5.6 3.3.4 4.4.7 1.8.4 1.8.6c0 .1-.1.4-.2.7s-.5.8-.9 1.3-1 1.2-1.9 1.9c-.8.8-1.8 1.7-3.1 2.7-.8-.9-1.6-1.6-2.6-2.1s-2-1-3.1-1.3-2.3-.5-3.5-.6-2.5-.2-3.8-.2c-.1 0-.2 0-.3 0s-.2 0-.3 0-.2 0-.4 0c-.1 0-.2 0-.4 0-1.4 0-2.5.1-3.3.2s-1.3.4-1.7.9-.6 1.1-.7 2-.2 2.1-.3 3.6c-.1 7.5.7 14.2 2.2 20 1.5 5.9 3.7 11 6.4 15.4s5.9 8.2 9.4 11.4 7.2 5.8 11 7.9c-1.4-.2-3.4-.6-5.8-1.3-2.5-.8-5.3-1.9-8.5-3.7-3.1-1.8-6.5-4.2-9.8-7.4-3.4-3.3-6.7-7.4-9.9-12.6s-5.2-10.6-6.4-15.9-1.5-10.5-1.4-15.3c.2-4.8.8-9.1 1.6-12.7s1.8-6.4 2.7-8.1c.8-1.7 1.5-3.2 1.9-4.6.4-1.3.6-2.5.6-3.5s-.3-1.8-.7-2.5-1.1-1.3-2-1.8c.2 0 .3-.1.5-.1s.4-.1.6-.1.5 0 .7-.1c-.2.1.1.1.4.1z" fill="#deba27"/></g></svg>