<svg enable-background="new 0 0 566.9 157.8" viewBox="0 0 566.9 157.8" xmlns="http://www.w3.org/2000/svg" xmlns:xlink="http://www.w3.org/1999/xlink"><linearGradient id="a" gradientTransform="matrix(1 0 0 -1 -.1797 -715.4102)" gradientUnits="userSpaceOnUse" x1="558.1287" x2="11.7707" y1="-795.5972" y2="-795.5972"><stop offset="0" stop-color="#013a67"/><stop offset="1" stop-color="#6cd1ff"/></linearGradient><linearGradient id="b"><stop offset="0" stop-color="#08406f"/><stop offset="1" stop-color="#60c5f5"/></linearGradient><linearGradient id="c" gradientTransform="matrix(1 0 0 -1 -.1797 -715.4102)" gradientUnits="userSpaceOnUse" x1="64.7087" x2="60.7641" xlink:href="#b" y1="-778.7893" y2="-774.8449"/><linearGradient id="d" gradientTransform="matrix(1 0 0 -1 -.1797 -715.4102)" gradientUnits="userSpaceOnUse" x1="123.2949" x2="119.6694" xlink:href="#b" y1="-853.91" y2="-850.2845"/><linearGradient id="e" gradientTransform="matrix(1 0 0 -1 -.1797 -715.4102)" gradientUnits="userSpaceOnUse" x1="25.7237" x2="25.7237" xlink:href="#b" y1="-834.0522" y2="-829.7392"/><linearGradient id="f" gradientTransform="matrix(1 0 0 -1 -.1797 -715.4102)" gradientUnits="userSpaceOnUse" x1="121.1852" x2="121.1852" xlink:href="#b" y1="-873.1822" y2="-868.7252"/><linearGradient id="g" gradientTransform="matrix(1 0 0 -1 -.1797 -715.4102)" gradientUnits="userSpaceOnUse" x1="427.6942" x2="427.6942" xlink:href="#b" y1="-834.0242" y2="-829.5573"/><linearGradient id="h" gradientTransform="matrix(1 0 0 -1 -.1797 -715.4102)" gradientUnits="userSpaceOnUse" x1="251.0642" x2="251.0642" xlink:href="#b" y1="-834.8952" y2="-830.4162"/><linearGradient id="i" gradientTransform="matrix(1 0 0 -1 -.1797 -715.4102)" gradientUnits="userSpaceOnUse" x1="522.2802" x2="522.2802" xlink:href="#b" y1="-722.1872" y2="-717.3242"/><linearGradient id="j" gradientTransform="matrix(1 0 0 -1 -.1797 -715.4102)" gradientUnits="userSpaceOnUse" x1="515.0132" x2="515.0132" xlink:href="#b" y1="-746.7152" y2="-742.5052"/><linearGradient id="k" gradientTransform="matrix(1 0 0 -1 -.1797 -715.4102)" gradientUnits="userSpaceOnUse" x1="459.3697" x2="459.3697" xlink:href="#b" y1="-790.2312" y2="-786.5112"/><linearGradient id="l" gradientTransform="matrix(1 0 0 -1 -.1797 -715.4102)" gradientUnits="userSpaceOnUse" x1="490.1607" x2="490.1607" xlink:href="#b" y1="-765.1112" y2="-759.5569"/><linearGradient id="m" gradientTransform="matrix(1 0 0 -1 -.1797 -715.4102)" gradientUnits="userSpaceOnUse" x1="74.3898" x2="70.8468" xlink:href="#b" y1="-808.8263" y2="-805.2833"/><linearGradient id="n" gradientTransform="matrix(1 0 0 -1 -.1797 -715.4102)" gradientUnits="userSpaceOnUse" x1="120.2557" x2="114.8897" xlink:href="#b" y1="-744.3698" y2="-744.3698"/><linearGradient id="o" gradientTransform="matrix(1 0 0 -1 -.1797 -715.4102)" gradientUnits="userSpaceOnUse" x1="173.0817" x2="166.4214" xlink:href="#b" y1="-759.9608" y2="-759.9608"/><linearGradient id="p" gradientTransform="matrix(1 0 0 -1 -.1797 -715.4102)" gradientUnits="userSpaceOnUse" x1="255.9887" x2="249.9957" xlink:href="#b" y1="-765.2165" y2="-765.2165"/><linearGradient id="q" gradientTransform="matrix(1 0 0 -1 -.1797 -715.4102)" gradientUnits="userSpaceOnUse" x1="349.2767" x2="343.5757" xlink:href="#b" y1="-744.625" y2="-744.625"/><linearGradient id="r" gradientTransform="matrix(1 0 0 -1 -.1797 -715.4102)" gradientUnits="userSpaceOnUse" x1="400.9607" x2="395.1637" xlink:href="#b" y1="-758.4461" y2="-758.4461"/><linearGradient id="s" gradientTransform="matrix(1 0 0 -1 -.1797 -715.4102)" gradientUnits="userSpaceOnUse" x1="101.7657" x2="96.6547" xlink:href="#b" y1="-808.9387" y2="-808.9387"/><linearGradient id="t" gradientTransform="matrix(1 0 0 -1 -.1797 -715.4102)" gradientUnits="userSpaceOnUse" x1="121.2493" x2="117.6962" xlink:href="#b" y1="-813.8383" y2="-810.2853"/><linearGradient id="u" gradientTransform="matrix(1 0 0 -1 -.1797 -715.4102)" gradientUnits="userSpaceOnUse" x1="553.4371" x2="549.7676" xlink:href="#b" y1="-732.5016" y2="-728.832"/><linearGradient id="v" gradientTransform="matrix(1 0 0 -1 -.1797 -715.4102)" gradientUnits="userSpaceOnUse" x1="145.9947" x2="140.5962" xlink:href="#b" y1="-809.8792" y2="-809.8792"/><linearGradient id="w" gradientTransform="matrix(1 0 0 -1 -.1797 -715.4102)" gradientUnits="userSpaceOnUse" x1="148.7768" x2="144.289" xlink:href="#b" y1="-747.0104" y2="-742.5225"/><linearGradient id="x" gradientTransform="matrix(1 0 0 -1 -.1797 -715.4102)" gradientUnits="userSpaceOnUse" x1="215.8458" x2="211.6874" xlink:href="#b" y1="-762.322" y2="-758.1635"/><linearGradient id="y" gradientTransform="matrix(1 0 0 -1 -.1797 -715.4102)" gradientUnits="userSpaceOnUse" x1="304.3149" x2="299.9307" xlink:href="#b" y1="-767.8107" y2="-763.4265"/><linearGradient id="z" gradientTransform="matrix(1 0 0 -1 -.1797 -715.4102)" gradientUnits="userSpaceOnUse" x1="376.9709" x2="372.7631" xlink:href="#b" y1="-746.8615" y2="-742.6532"/><linearGradient id="A" gradientTransform="matrix(1 0 0 -1 -.1797 -715.4102)" gradientUnits="userSpaceOnUse" x1="488.7377" x2="485.2807" xlink:href="#b" y1="-775.2651" y2="-771.8083"/><linearGradient id="B" gradientTransform="matrix(1 0 0 -1 -.1797 -715.4102)" gradientUnits="userSpaceOnUse" x1="499.8078" x2="495.8475" xlink:href="#b" y1="-819.3773" y2="-815.4171"/><linearGradient id="C" gradientTransform="matrix(1 0 0 -1 -.1797 -715.4102)" gradientUnits="userSpaceOnUse" x1="441.8365" x2="437.5535" xlink:href="#b" y1="-761.615" y2="-757.332"/><linearGradient id="D" gradientTransform="matrix(1 0 0 -1 -.1797 -715.4102)" gradientUnits="userSpaceOnUse" x1="486.8591" x2="481.7462" xlink:href="#b" y1="-756.6499" y2="-751.5369"/><linearGradient id="E" gradientTransform="matrix(1 0 0 -1 -.1797 -715.4102)" gradientUnits="userSpaceOnUse" x1="185.9781" x2="182.3352" xlink:href="#b" y1="-832.3316" y2="-828.6887"/><linearGradient id="F" gradientTransform="matrix(1 0 0 -1 -.1797 -715.4102)" gradientUnits="userSpaceOnUse" x1="303.0284" x2="299.3871" xlink:href="#b" y1="-809.1404" y2="-805.4991"/><linearGradient id="G" gradientTransform="matrix(1 0 0 -1 -.1797 -715.4102)" gradientUnits="userSpaceOnUse" x1="349.8888" x2="346.3794" xlink:href="#b" y1="-813.0854" y2="-809.5758"/><linearGradient id="H" gradientTransform="matrix(1 0 0 -1 -.1797 -715.4102)" gradientUnits="userSpaceOnUse" x1="370.8065" x2="366.3824" xlink:href="#b" y1="-833.6425" y2="-829.2187"/><linearGradient id="I" gradientTransform="matrix(1 0 0 -1 -.1797 -715.4102)" gradientUnits="userSpaceOnUse" x1="229.4577" x2="223.4197" xlink:href="#b" y1="-811.7692" y2="-811.7692"/><linearGradient id="J" gradientTransform="matrix(1 0 0 -1 -.1797 -715.4102)" gradientUnits="userSpaceOnUse" x1="330.3047" x2="325.0923" xlink:href="#b" y1="-808.5187" y2="-808.5187"/><linearGradient id="K" gradientTransform="matrix(1 0 0 -1 -.1797 -715.4102)" gradientUnits="userSpaceOnUse" x1="374.9697" x2="368.7251" xlink:href="#b" y1="-807.8066" y2="-807.8066"/><linearGradient id="L" gradientTransform="matrix(1 0 0 -1 -.1797 -715.4102)" gradientUnits="userSpaceOnUse" x1="440.638" x2="436.2195" xlink:href="#b" y1="-799.6758" y2="-795.2573"/><linearGradient id="M" gradientTransform="matrix(1 0 0 -1 -.1797 -715.4102)" gradientUnits="userSpaceOnUse" x1="472.9207" x2="472.9207" xlink:href="#b" y1="-809.5092" y2="-803.7083"/><path d="m491.2 27.7 45.6.2 21.1-22-77.9-.3-73.3 73.6-10.3.6.3-70.8-41.2 42.1-9.9 1.1v-42.8l-84.3 83.4-10.5 1.2.9-85.9-73.8 74.8-9.6.1-1.2-71.9-39.8 40.1-11 .5.4-42.8-105.1 106 34.6-.6 45.4-44h8.7l-.4 44.2 36.1-37h8.7v37.7l-39.8 39.5 38.1-.5 75-75.9h10.1v37.3l46.8.3 45.2-45.5 8.7-.6-.1 43 36.1-36.1h8.6l.5 36.4-.7 1.9h109.2l20.9-21.2-67.9-1.1-.6-9.9 10.6-11.1h25.6l22.2-22.6-13.4-.5v-9.5z" fill="url(#a)"/><path d="m114.7 13.2-101.1 101.1-11.5 4.3s-.6 0-.3-.4c0 0 117.3-117.3 117.5-117.5.2-.2.5 0 .5 0z" fill="url(#c)"/><path d="m145.8 115.8-37.5 37.5-11.1 4.5s-.6.1-.2-.4l43.9-43.7z" fill="url(#d)"/><path d="m49 118.6h-46.9l11.5-4.3h32.6z" fill="url(#e)"/><path d="m144.8 157.8h-47.6l11.1-4.5h33.9z" fill="url(#f)"/><path d="m484.8 118.6h-114.6l3.9-4.5h107.4z" fill="url(#g)"/><path d="m277.1 119.5h-51.5c-.3 0-.8-.3-.8-.3l4.6-4.1h45.1z" fill="url(#h)"/><path d="m477.4 1.9h88.6c.8 0 .8.3.8.3l-10.6 4.5h-75.2z" fill="url(#i)"/><path d="m539 31.3h-46.3l-2.1-4.2h45.3z" fill="url(#j)"/><path d="m473.6 74.8h-24.7l-4.1-3.7h25.6z" fill="url(#k)"/><path d="m491.8 49.7h-13.6l-1.2-5.5h25.5c.3 0 .4.1.4.1z" fill="url(#l)"/><path d="m96.9 70.6-47.9 48-2.8-4.3 46.6-46.3c2-2.3 4.7-1.7 4.7-1.7z" fill="url(#m)"/><path d="m114.7 51.7v-38.5l5.1-12.5s.3.1.3.6v53.6l-.3 2.3s-4.5 0-5.1-5.5z" fill="url(#n)"/><path d="m172.9 88.8s-6.5 1.9-6.6-5.6c-.1-7.3 0-69.3 0-69.3l5.2-13.9s.2 0 .2.7v81.8z" fill="url(#o)"/><path d="m255.8 98.9s-5.9.6-6-6.1v-80.1l4.7-12.1s.6.2.6.9v91.1z" fill="url(#p)"/><path d="m349.1 57.4s-4.9.5-5.7-4.6v-39.7l4.4-12.1s.6.1.6.9v49.7z" fill="url(#q)"/><path d="m400.8 85.3s-4.9.6-5.8-4.4v-67.6l4.9-12.5s.3.2.3 1.7v77.2z" fill="url(#r)"/><path d="m97.8 120.8s-.8-.1-.8-1.1c0-.9-.1-49-.1-49s-1.2-1.6.6-4.4c.5.1 3.5.7 4.1 4.3v40.4z" fill="url(#s)"/><path d="m140.8 78.6s-41.5 41.5-41.9 41.9c-.3.4-1.2.3-1.2.3l3.8-10 36.1-36.1s1.3-1.7 3.8-1.6z" fill="url(#t)"/><path d="m566.6 3.6-27.6 27.7-3.1-4.2 20.3-20.3 10.6-4.5c0-.1.4.8-.2 1.3z" fill="url(#u)"/><path d="m140.9 113.6-.1-35s-1.3-2.6.6-5.5c.6 0 3.7.4 4.3 4.1v38.5z" fill="url(#v)"/><path d="m166.3 13.9-41.5 41.5c-2 2-5 1.8-5 1.8-1.8-3.5.3-6.1.3-6.1s50.5-50.5 50.9-50.9c.3-.4.5-.3.5-.3z" fill="url(#w)"/><path d="m249.8 12.8-74.4 74.4c-1.6 1.6-2.5 1.7-2.5 1.7-3.8-1.9-1.2-6.3-1.2-6.3s80.7-80.6 81-81c.9-1.1 1.8-.9 1.8-.9z" fill="url(#x)"/><path d="m343.4 13.1-84.2 84.2c-1.4 1.4-3.4 1.6-3.4 1.6-3.1-1.6-.8-6.2-.8-6.2s90.6-90.5 91-90.9c.9-1.1 1.8-.9 1.8-.9z" fill="url(#y)"/><path d="m395 13.3-42.5 42.5c-1.4 1.4-3.4 1.7-3.4 1.7-2.9-1.9-.6-6-.6-6s49.6-49.7 49.9-50.1c1-1 1.4-.7 1.4-.7z" fill="url(#z)"/><path d="m503 45.5-29.4 29.4-3.2-3.7 21.4-21.4 11.1-5.4c0-.1.4.2.1 1.1z" fill="url(#A)"/><path d="m513.6 90-28.8 28.7-3.3-4.5 20-20 12.3-5.4c.1-.1.5.4-.2 1.2z" fill="url(#B)"/><path d="m481.1 6.8-76.9 76.9c-1.4 1.4-3.4 1.6-3.4 1.6-2.4-3.1-.7-6-.7-6l77.3-77.4z" fill="url(#C)"/><path d="m492.7 31.3-12.7 12.8c-2.8 2.3-1.8 5.6-1.8 5.6-2.2-.2-3.1-2.1-3.4-3.7s.3-3.4 1.3-4.5l14.5-14.4z" fill="url(#D)"/><path d="m142.2 153.3 77.9-77.9s1.4-1.9 4.3-1.8l-.5 5.2s-78.7 78.5-79.1 78.9z" fill="url(#E)"/><path d="m274.3 115 47.7-47.7s1.4-1.9 4.3-1.8l-.9 5.6-48.3 48.3z" fill="url(#F)"/><path d="m330.1 110.3 36.8-36.8c.8-.8 1.8-1.8 3.4-1.8l-.1 5.5-43.1 43c-.6.6-1 .4-1 .4z" fill="url(#G)"/><path d="m362 118.1 7.2-7.3 5.6 2.3-.7 1-3.8 4.4-.3.3h-7.7c-.3 0-.5-.3-.5-.3s-.2 0 .2-.4z" fill="url(#H)"/><path d="m224 117.3-.1-38.5s-1.7-2 .5-5.2c.7 0 4.2.5 4.9 4.7v36.7l-4.6 4.1s-.7-.5-.7-1.8z" fill="url(#I)"/><path d="m325.4 119.9-.1-48.8s-1.5-2.7.9-5.6c.6 0 3.2.5 3.9 4.7v40l-4 10.4s-.6-.1-.7-.7z" fill="url(#J)"/><path d="m369.2 110.8v-32.7s-2.1-3.4 1.1-6.5c.7 0 4.1.2 4.5 4.3v37.1z" fill="url(#K)"/><path d="m448.9 74.8-13.5 13.5-3.8 4.8c-3.9-2.5-2-6.9-.9-7.9l14.1-14.1z" fill="url(#L)"/><path d="m501.6 94.1h-66.4c-2.5-.2-3.6-1-3.6-1 0-3.6 3.8-4.8 3.8-4.8h77.7c.5 0 .7.4.7.4z" fill="url(#M)"/><g fill="#333"><path d="m0 142.1v-9.5h2.9l1.7 6.5 1.7-6.5h2.9v9.5h-1.8v-7.5l-1.9 7.5h-1.8l-1.9-7.5v7.5z"/><path d="m17.2 132.5h1.9v5.2c0 .8 0 1.4.1 1.6.1.4.3.7.6.9s.7.4 1.3.4c.5 0 1-.1 1.2-.3.3-.2.4-.5.5-.8s.1-.9.1-1.6v-5.3h1.9v5c0 1.1-.1 1.9-.2 2.4s-.3.9-.6 1.2-.7.6-1.1.8c-.5.2-1.1.3-1.8.3-.9 0-1.6-.1-2.1-.3s-.8-.5-1.1-.8-.5-.7-.5-1.1c-.1-.5-.2-1.4-.2-2.4 0-.1 0-5.2 0-5.2z"/><path d="m33 142.1v-9.4h1.9v7.8h4.8v1.6z"/><path d="m48.4 142.1v-7.9h-2.8v-1.6h7.6v1.6h-2.8v7.9z"/><path d="m60.4 142.1v-9.5h1.9v9.5z"/><path d="m70.3 142.1v-9.5h3.1c1.2 0 1.9 0 2.3.1.5.1 1 .5 1.4.9.4.5.6 1.1.6 1.9 0 .6-.1 1.1-.3 1.5s-.5.7-.8.9-.7.4-1 .5c-.5.1-1.1.1-2 .1h-1.3v3.6zm1.9-8v2.7h1.1c.8 0 1.3-.1 1.5-.1.3-.1.5-.3.6-.5s.2-.5.2-.7c0-.3-.1-.6-.3-.9-.2-.2-.5-.4-.8-.4-.2 0-.7-.1-1.4-.1z"/><path d="m85.4 142.1v-9.4h1.9v7.8h4.8v1.6z"/><path d="m99.6 142.1v-9.5h7.1v1.6h-5.1v2.1h4.8v1.6h-4.8v2.6h5.3v1.6z"/><path d="m190 142.1h-2.1l-.8-2.2h-3.8l-.8 2.2h-2l3.7-9.5h2zm-3.6-3.8-1.3-3.5-1.3 3.5z"/><path d="m197.1 142.1v-9.5h4c1 0 1.8.1 2.2.3.5.2.8.5 1.1.9s.4.9.4 1.5c0 .7-.2 1.3-.6 1.8s-1 .8-1.9.9c.4.2.8.5 1 .8.3.3.6.8 1.1 1.5l1.2 1.9h-2.3l-1.3-2.2c-.5-.7-.8-1.2-1-1.4s-.4-.3-.6-.4-.5-.1-1-.1h-.4v4zm1.9-5.5h1.4c.9 0 1.5 0 1.7-.1s.4-.2.5-.4.2-.4.2-.7-.1-.6-.3-.8-.4-.3-.7-.4c-.2 0-.6 0-1.4 0h-1.4z"/><path d="m218.9 138.6 1.9.6c-.3 1-.8 1.8-1.4 2.3-.7.5-1.5.8-2.5.8-1.3 0-2.3-.4-3.1-1.3s-1.2-2-1.2-3.5c0-1.6.4-2.8 1.2-3.7s1.9-1.3 3.2-1.3c1.2 0 2.1.3 2.8 1 .4.4.8 1 1 1.8l-1.9.5c-.1-.5-.3-.9-.7-1.2s-.8-.4-1.3-.4c-.7 0-1.3.3-1.7.8s-.7 1.3-.7 2.5.2 2.1.6 2.6 1 .8 1.7.8c.5 0 .9-.2 1.3-.5.4-.6.7-1.1.8-1.8z"/><path d="m237.2 142.1h-2.1l-.8-2.2h-3.8l-.8 2.2h-2l3.7-9.5h2zm-3.6-3.8-1.3-3.5-1.3 3.5z"/><path d="m244.3 132.5h3.5c.8 0 1.4.1 1.8.2.6.2 1 .5 1.4.9s.7.9.9 1.5.3 1.4.3 2.3c0 .8-.1 1.5-.3 2-.2.7-.6 1.3-1 1.7-.3.3-.8.6-1.4.8-.4.1-1 .2-1.7.2h-3.6zm1.9 1.6v6.3h1.4c.5 0 .9 0 1.2-.1s.6-.2.8-.4.4-.5.5-.9.2-1 .2-1.7-.1-1.3-.2-1.7-.3-.7-.5-.9-.5-.4-.9-.4c-.3-.1-.8-.1-1.6-.1z"/><path d="m260.1 142.1v-9.5h7.1v1.6h-5.2v2.1h4.8v1.6h-4.8v2.6h5.3v1.6z"/><path d="m283.2 142.1v-9.5h2.9l1.7 6.5 1.7-6.5h2.9v9.5h-1.8v-7.5l-1.9 7.5h-1.9l-1.9-7.5v7.5z"/><path d="m309 142.1h-2.1l-.8-2.2h-3.8l-.8 2.2h-2l3.7-9.5h2zm-3.5-3.8-1.3-3.5-1.3 3.5z"/><path d="m322.2 138.6 1.9.6c-.3 1-.8 1.8-1.4 2.3-.7.5-1.5.8-2.5.8-1.3 0-2.3-.4-3.1-1.3s-1.2-2-1.2-3.5c0-1.6.4-2.8 1.2-3.7s1.9-1.3 3.2-1.3c1.2 0 2.1.3 2.8 1 .4.4.8 1 1 1.8l-1.9.5c-.1-.5-.4-.9-.7-1.2-.4-.3-.8-.4-1.3-.4-.7 0-1.3.3-1.7.8s-.7 1.3-.7 2.5.2 2.1.6 2.6 1 .8 1.7.8c.5 0 .9-.2 1.3-.5.4-.6.7-1.1.8-1.8z"/><path d="m331.9 142.1v-9.5h1.9v3.7h3.8v-3.7h1.9v9.5h-1.9v-4.2h-3.8v4.2z"/><path d="m347.6 142.1v-9.5h1.9v9.5z"/><path d="m357.5 142.1v-9.5h1.9l3.9 6.4v-6.4h1.8v9.5h-1.9l-3.8-6.2v6.2z"/><path d="m373.2 142.1v-9.5h7.1v1.6h-5.1v2.1h4.8v1.6h-4.8v2.6h5.3v1.6z"/><path d="m397.1 142.1v-9.5h7.1v1.6h-5.2v2.1h4.8v1.6h-4.8v2.6h5.3v1.6z"/><path d="m412.1 142.1v-9.5h2.9l1.7 6.5 1.7-6.5h2.9v9.5h-1.8v-7.5l-1.9 7.5h-1.9l-1.9-7.5v7.5z"/><path d="m429.3 132.5h1.9v5.2c0 .8 0 1.4.1 1.6.1.4.3.7.6.9s.7.4 1.3.4c.5 0 1-.1 1.2-.3.3-.2.4-.5.5-.8s.1-.9.1-1.6v-5.3h1.9v5c0 1.1-.1 1.9-.2 2.4s-.3.9-.6 1.2-.7.6-1.1.8c-.5.2-1.1.3-1.8.3-.9 0-1.6-.1-2.1-.3s-.8-.5-1.1-.8-.5-.7-.5-1.1c-.1-.5-.2-1.4-.2-2.4z"/><path d="m445.1 142.1v-9.4h1.9v7.8h4.8v1.6z"/><path d="m467.9 142.1h-2.1l-.8-2.2h-3.8l-.8 2.2h-2l3.7-9.5h2zm-3.6-3.8-1.3-3.5-1.3 3.5z"/><path d="m476.2 142.1v-7.9h-2.8v-1.6h7.6v1.6h-2.8v7.9z"/><path d="m487.7 137.4c0-1 .1-1.8.4-2.4.2-.5.5-.9.9-1.3s.8-.7 1.2-.9c.6-.3 1.3-.4 2.1-.4 1.4 0 2.5.4 3.4 1.3.8.9 1.3 2.1 1.3 3.6s-.4 2.7-1.3 3.6c-.8.9-2 1.3-3.4 1.3s-2.5-.4-3.4-1.3-1.2-2-1.2-3.5zm2-.1c0 1.1.2 1.9.7 2.4.5.6 1.1.8 1.9.8s1.4-.3 1.9-.8c.5-.6.7-1.4.7-2.5s-.2-1.9-.7-2.4-1.1-.8-1.9-.8-1.4.3-1.9.8-.7 1.4-.7 2.5z"/><path d="m504.5 142.1v-9.5h4c1 0 1.8.1 2.2.3.5.2.8.5 1.1.9s.4.9.4 1.5c0 .7-.2 1.3-.6 1.8s-1 .8-1.9.9c.4.2.8.5 1 .8.3.3.6.8 1.1 1.5l1.2 1.9h-2.3l-1.4-2.1c-.5-.7-.8-1.2-1-1.4s-.4-.3-.6-.4-.5-.1-1-.1h-.4v4zm2-5.5h1.4c.9 0 1.5 0 1.7-.1s.4-.2.5-.4.2-.4.2-.7-.1-.6-.3-.8-.4-.3-.7-.4c-.2 0-.6 0-1.4 0h-1.5z"/></g></svg>