<svg enable-background="new 0 0 502 122.9" viewBox="0 0 502 122.9" xmlns="http://www.w3.org/2000/svg"><g fill="#0849ff"><path d="m45.5 39.6c0-7-3.5-11.3-9.6-11.3s-7.8 4.4-7.8 9.6 4.3 9.6 20.9 17.4 20 18.3 20 31.3-10.5 33.9-34 33.9-33-14.8-33-36.5h20.9c0 8.7 4.3 13.1 11.3 13.1s9.6-5.2 9.6-9.6c0-4.3.7-6.6-24.4-19.1-15.7-7.9-16.6-25.3-16.6-30.5s2.6-21.7 16.5-29.6c13.9-7.8 33.9-2.6 41.8 7.8 7.8 10.4 5.2 23.5 5.2 23.5-8.7 0-20.8 0-20.8 0z"/><path d="m233.4 5.7h-25.2v62.6l-40.9-63.5h-25.3v66.1l-42.6-65.2h-26.1l.9 114.8h28.7v-17.4h25.2l10.4 16.5h32.2s0-48.7 0-55.7l36.5 56.5h28.8v-56.4l36.5 55.7h33.9zm-130.5 74.8v-16.5l11.3 16.5z"/><path d="m311.7 118.8-72.2-113.1h145.3l-33.9 53.9s-8.7-5.2-20 12.2-6.1 24.4-5.2 27c-3.6 6.1-14 20-14 20z"/></g><path d="m485.9 56.8c-3.6 1.9-9 .7-10-5.2 12.6-8.4 15.9-13.2 17.1-19.9s-4.8-7-10.9-3.2-14.3 13.5-14.6 25.9c-3.9 5.7-8 12.2-14.4 11.9 7.2-13.5 8.7-20 7.7-24.8s-6.2-4.8-18.1 13c1.2-10.7 5.7-20.3 6.5-22.9.9-2.6 1-4.8-1.7-4.1-2.8.7-6.4 7.2-11.2 19.1s-12.5 22.5-14.8 25.2c-2.3 2.8-6.2 3.9-5.9-3.3s4.9-13 5.9-16.2-.7-8.6-2.8-7.2-8.6 13.8-11.7 19.3c-3.2 5.5-7.1 10.6-8.6 12-1.4 1.4-4.4 1-3.2-3.5s4.2-9.1 5.7-11.5c1.5-2.3 4.5-7.1 1.3-8.4s-10.9 2.8-13.5 20.4c-2.2 4.5-4.9 7.4-8.3 8.6 1.3-6.4 2.9-22-3.3-19 1-3.5-.7-5.1-4.1-4.5-3.3.6-17.1 8.4-18 26-3 5.4-10.7 12.2-14.8 12.2s-6.4-3.6-6.1-7.5 5.4-9.3 7.8-10.4c.9 2.2 2.3 2 3.2 2s3.6-3.2 4.6-8.1.4-7.4-2-8.3c-2.5-.9-9.3 3.5-13.3 9.3-4.1 5.8-11 17.1-2.2 27.1s17.7-.9 24.1-12.8c1.7 6.5 6.7 9.3 10.3 9.3s9.4-4.5 11.7-9.7c3.5.1 8.4-4.4 10.6-8.6-.1 4.6 5.7 9 9.1 8.3 3.5-.7 8-9.4 10.7-15.4 0 7.7-.4 13.5 5.1 13.3 5.5-.1 14.1-15.8 23.5-33.1-4.4 21-7.5 28.4-8.3 34.5-.7 6.1.6 15.1 3.2 15.1s4.9-12.9 5.7-24.4c5.5-1.6 6.7-2 7.7-2s4.8 1.6 10.4-2.5c5.7-4.1 9-9.3 13-14.6 3 7.4 8.3 10 16.8 5.2 8.6-4.8 13-18.1 13.8-21.5-4.7 8-10.1 13-13.7 14.9zm-112.8 26.6c-.3 5.7-4.2 7.2-5.9 7.2s-4.9-.3-4.9-5.8 4.9-12 10.1-17.1c2-1.9-.1 3-.7 8.6-.6 5.5.3 7.8 1.4 7.1zm68.6-16.1c1.6-8.4 7.8-17.7 10.9-17.7 3 0-.9 9.6-2.6 13-1.8 3.5-4.7 3.8-8.3 4.7zm43.1-35c2.8-2.3 3.9 1 1.2 4.9-2.8 3.9-8.8 9.6-10.4 10.1.6-7.6 6.4-12.7 9.2-15z" fill="#c60000"/><path d="m475.3 24.8c.1-3.6 2-8.6 5.4-12.5 3.3-3.9 9.1-10 11.3-10.3s3.2 1.9 3.2 5.4 0 4.6-2.5 6.5-10.6 7.7-11.9 9-5.6 5.8-5.5 1.9z" fill="#c60000"/></svg>