<svg viewBox="0 0 787 93.17" xmlns="http://www.w3.org/2000/svg"><g fill="#555"><path d="m325.4 79.28c-6.56 8.9-12.79 10.58-16.14 12.44a21.34 21.34 0 0 1 -10.64 2.8q-15.81 0-24.68-10.29c-5.92-6.88-8.87-16.52-8.87-29q0-22.18 11.22-37.68t29.79-15.48q14.09 0 23.08 7.94t9 24.85h-18.16q0-8.1-3.57-11.38t-10.25-3.25c-7.3 0-12.92 3.57-16.94 10.67a49 49 0 0 0 -6 24.34c0 6.2 1.32 11.28 3.89 15.2s6.49 5.91 11.67 5.91c5.4 0 9.58-1.54 12.6-4.59a27.44 27.44 0 0 0 6.6-11.76h-16.9l2.73-16.45h33l-2.83 15.96a55.71 55.71 0 0 1 -8.62 19.77z" transform="translate(-1 -1.83)"/><path d="m602.85 79.47c-6.45 8.79-12.64 10.44-15.91 12.28a21.15 21.15 0 0 1 -10.54 2.77q-15.61 0-24.39-10.2t-8.73-28.64q0-21.91 11.08-37.21t29.41-15.31c9.3 0 16.89 2.61 22.83 7.85s8.89 13.4 8.89 24.54h-18c0-5.33-1.18-9.08-3.53-11.21s-5.71-3.24-10.13-3.24c-7.18 0-12.73 3.53-16.7 10.58a47.89 47.89 0 0 0 -5.94 24q0 9.24 3.84 15.05t11.53 5.81c5.3 0 9.46-1.49 12.42-4.51a27.67 27.67 0 0 0 6.57-11.62h-16.71l2.74-16.25h32.57l-2.76 15.75a54.82 54.82 0 0 1 -8.54 19.56z" transform="translate(-1 -1.83)"/><path d="m481.2 2.52-14.76 88.01h-15.88l12.51-68.21-27.58 68.21h-13.02l-6.01-68.17-9.48 68.17h-16.08l14.69-88.01h22.54l5.04 61.98 25.33-62.14z"/><path d="m498.01 36.59h25.94l-2.7 17.07h-25.94l-3.35 18.74h29.29l-2.89 18.13h-46.16l14.59-88.1h45.61l-2.79 18.25h-28.71z"/><path d="m360.76 4.19-35.49 88.17h17.29l6.34-17.19h22.63l1.47 17.19h16.75l-10-88.17zm-6.37 55.93 12.86-35.06 3 35.06z" transform="translate(-1 -1.83)"/><path d="m635.35 37.28h25.59l-2.63 16.82h-25.63l-3.33 18.52h28.96l-2.86 17.94h-45.6l14.42-87.07h45.05l-2.76 18.04h-28.35z"/><g transform="translate(-1 -1.83)"><path d="m693 5.29-35.06 87.1h17.12l6.22-17h22.38l1.47 17h16.51l-9.91-87.1zm-6.26 55.22 12.67-34.64 3 34.64z"/><path d="m748.12 43.58 3.81-21.43h9.14c3.37 0 5.88.61 7.56 1.81s2.51 3.69 2.51 7.37c0 4.13-1.37 7.17-4.07 9.21a16.92 16.92 0 0 1 -10.38 3zm-10.32-38.26-14.42 87.07h16.67l5.59-33.18h7.72l12.89 33.18h19.11l-14.28-36.74a34 34 0 0 0 12.25-11.18 27.45 27.45 0 0 0 4.67-15.9c0-8.23-1.84-14.13-5.56-17.79s-8.92-5.46-15.65-5.46z"/></g></g><g transform="translate(-1 -1.83)"><path d="m25.13 33.53c21.27-24.39 46.87-37.45 57.25-29.25s1.47 34.72-19.83 59.02-46.89 37.45-57.23 29.25-1.46-34.66 19.81-59.02z" fill="#f00"/><path d="m109.67 33.6c21.85-24.2 48.16-37.22 58.8-29s1.53 34.4-20.36 58.6-48.11 37.25-58.77 29.07-1.52-34.43 20.33-58.67z" fill="#0c9"/><path d="m191.79 33.6c21.85-24.2 48.21-37.22 58.79-29.04s1.5 34.44-20.33 58.64-48.18 37.25-58.79 29.07-1.46-34.43 20.33-58.67z" fill="#09f"/></g></svg>