<svg enable-background="new 0 0 488.2 108" viewBox="0 0 488.2 108" xmlns="http://www.w3.org/2000/svg"><path d="m47.6 47.5c0 .4-.3.6-.8.8-.6.2-2.5.2-5.7.2-2.9 0-4.8-.1-5.6-.2-.7-.1-1.1-.6-1.3-1.4-.7-2.9-1.2-4.5-1.6-4.7-.3-.1-3.1-.2-8.2-.2-3.5 0-5.3.1-5.5.3-.3.3-.7 1.4-1.2 3.3-.4 1.7-.9 2.6-1.4 2.8-.7.2-3 .2-7 .2-3.1 0-4.7-.3-4.7-.9 0-.5 2.3-7.1 6.9-19.6 5-13.5 7.7-21 8.2-22.3.2-.8.5-1.2.9-1.2.6 0 1.4.1 2.6.2s2 .2 2.6.2 1.4 0 2.4-.1 1.9-.1 2.4-.1c.4 0 .7.3 1.1 1 1 2.1 3.9 9.5 8.8 22.1 4.7 12.4 7.1 19 7.1 19.6zm-21.7-27.9c-.4.9-1.2 2.9-2.2 5.9-1.1 3.1-1.7 5-1.7 5.5 0 .4.6.6 1.8.6.6 0 1.7.1 3.1.1 1.3 0 2.1-.2 2.2-.5 0-.1.1-.2.1-.4 0-.7-.5-2.5-1.4-5.6-.8-2.9-1.5-4.8-1.9-5.6z" fill="#fcfcfc"/><path d="m35.2 49.7c-1.2-.2-2.3-1.3-2.5-2.5-.4-1.8-.8-3.1-1-3.7-.3 0-.8 0-1.5-.1-1.3 0-3.3-.1-5.9-.1-2.2 0-3.9.1-4.6.1 0 .1-.1.1-.1.2-.2.5-.4 1.2-.6 2-.2.9-.4 1.7-.8 2.3-.3.6-.8 1.3-1.8 1.6-1 .5-3.1.5-7.2.5-2.5 0-3.9-.1-5.1-.7-.4-.2-1.1-.8-1.1-1.7 0-.5.1-.6.2-.9s.2-.6.3-1.1c.3-.9.7-2.2 1.3-3.8 1.2-3.3 2.9-8 5.2-14.3 5-13.5 7.7-21 8.1-22.3.2-.5.3-.9.6-1.3.4-.4 1-.9 1.8-.9.6 0 1.5.1 2.7.2 1.1.1 2 .1 2.5.1s1.3 0 2.3-.1c1.1-.1 1.9-.1 2.5-.1s1.2.3 1.6.7.6.8.8 1.2c1.1 2.3 4 9.6 8.8 22.2 4.3 11.1 6.6 17.5 7.2 19.4.1.3.1.4.2.9 0 .5-.2 1.2-.6 1.5-.4.4-.8.6-1.2.7-1.1.3-2.9.3-6.2.3-3 0-4.8-.1-5.9-.3zm10.7-2.8c0-.1-.1-.3-.2-.5-.3-.9-.7-2.1-1.4-3.8-1.2-3.3-3-8.1-5.5-14.4-4.8-12.5-7.8-19.9-8.7-22 0-.1-.1-.1-.1-.2-.5 0-1.1 0-1.9.1-1.1.1-1.9.1-2.5.1-.7 0-1.5-.1-2.7-.2-.7-.1-1.4-.1-1.8-.1v.1c-.5 1.4-3.2 8.8-8.2 22.4-3.6 9.9-5.9 16.1-6.6 18.5.6.1 1.6.1 2.9.1 3.4 0 5.7-.1 6.4-.2 0 0 0 0 0-.1.1-.3.3-.8.5-1.6.2-1 .4-1.7.7-2.4.2-.6.4-1.1.9-1.7.4-.3.6-.3.7-.4.2 0 .3-.1.5-.1.3 0 .7-.1 1.2-.1 1 0 2.3-.1 4.1-.1 3.9 0 6.4 0 7.6.1.5.1.6 0 1.2.2h.1c.6.4.8.7.9 1 .2.3.3.7.5 1.1.3.9.6 2 1 3.5 0 .2.1.2.1.2h.1c.6.1 2.5.2 5.4.2 2.3.4 3.9.4 4.8.3zm-22.1-13.8c-1-.1-1.7 0-2.7-.8-.3-.3-.6-.8-.6-1.3 0-.7.2-1.2.5-2.2s.7-2.3 1.3-3.9c1-3 1.7-5 2.2-6l1.3-2.7 1.4 2.7c.5 1 1.2 2.9 2.1 5.9.9 3.1 1.4 4.8 1.5 6 0 .3 0 .6-.2 1-.5 1-1.2 1.1-1.7 1.2-.6.1-1.2.2-1.9.2-1.5 0-2.5 0-3.2-.1zm3.9-2.9c-.2-.8-.6-2.4-1.2-4.5-.2-.7-.4-1.3-.6-1.9-.2.6-.5 1.4-.7 2.2-.7 1.9-1.1 3.3-1.4 4.2h.2c.6 0 1.6.1 3 .1.3-.1.5-.1.7-.1zm-3.2-9.9 1.3-.7z" fill="#9fcfff"/><path d="m83 4.8c0-.4-.1.2-.2 2-.2 2.3-.4 5.2-.5 8.7-.2 4-.2 8.6-.2 13.7 0 8.4.2 14.4.7 18 0 .4.1.6.1.7 0 .2-.2.4-.5.4-.7.1-3.4.2-8.1.2-1.1 0-1.7-.2-1.9-.6 0-.8-.1-1.6-.1-2.3 0-.2-.1-.3-.2-.5-.1.1-.3.2-.5.4-2.2 2.2-5 3.2-8.3 3.2-4.3 0-7.8-1.5-10.4-4.5-2.5-2.9-3.7-6.5-3.7-10.9 0-4.5 1.2-8.1 3.6-11 2.6-3.1 6-4.6 10.4-4.6 3.1 0 5.5 1 7.2 2.9.3.3.5.5.6.5.2 0 .3-.3.3-.8 0-1.6 0-3.9-.1-7.1s-.2-5.5-.2-7.1c0-.6.2-.9.5-1 1.3-.1 3.1-.2 5.4-.4 4.1-.4 5.9-.7 5.4-.7.5 0 .7.3.7.8zm-11.6 28.1c0-1.6-.6-3-1.7-4.2s-2.5-1.8-4.1-1.8c-1.7 0-3 .6-4 1.8s-1.5 2.7-1.5 4.4.5 3.1 1.5 4.2c1 1.2 2.3 1.8 4 1.8s3-.6 4.1-1.8 1.7-2.7 1.7-4.4z" fill="#fcfcfc"/><path d="m51.7 45.1c-2.7-3.2-4.1-7.2-4.1-11.9s1.3-8.8 4-12c2.8-3.4 6.9-5.2 11.6-5.1 2.5 0 4.8.6 6.6 1.9 0-1.3-.1-2.9-.1-4.7-.1-3.1-.1-5.5-.1-7.1 0-.4 0-.9.3-1.4.2-.5.8-1 1.4-1.1h.1.1c1.3-.1 3.1-.2 5.3-.4 3-.4 4.9-.6 5.2-.7l.2.8s.1-.1.1-.1v-.8c.5 0 1.2.2 1.6.7.4.4.5.9.5 1.3v.1.2h-.8l.8.2h.1v.4c0 .3-.1.9-.2 1.6-.2 2.2-.4 5.1-.5 8.6-.2 4-.2 8.5-.2 13.6 0 8.4.2 14.4.7 17.9 0 .4.1.6.1.9 0 .4-.2 1.1-.6 1.4s-.8.4-1.1.5c-1 .1-3.6.2-8.3.2-.7 0-1.2-.1-1.8-.2-.5-.2-1.2-.6-1.5-1.4l-.1-.2v-.2c-2.2 1.5-4.8 2.3-7.6 2.2h-.1c-4.8-.2-8.8-1.9-11.6-5.2zm2.2-22c-2.2 2.6-3.3 5.8-3.3 10 0 4.1 1.1 7.3 3.3 9.9 2.3 2.7 5.3 4 9.2 4 3 0 5.3-.9 7.2-2.8.2-.2.5-.4.9-.6l1-.5.8.9c.3.3.5.8.6 1.3v.1.1c0 .5.1 1 .1 1.5h.4c3.3 0 5.7 0 7-.1-.4-3.7-.7-9.6-.7-17.7 0-5.1.1-9.7.2-13.7.1-3.6.3-6.5.5-8.8 0-.4.1-.7.1-1h-.1c-.9.1-2.3.3-4.1.5-1.8.1-3.3.3-4.5.3 0 1.5 0 3.7.1 6.5.1 3.1.1 5.5.1 7.1-.1.5.1 1-.6 1.8-.3.3-.8.5-1.2.5-.7 0-1-.3-1.2-.5s-.4-.3-.6-.6c-1.4-1.6-3.3-2.4-6.1-2.4-3.9.2-6.8 1.5-9.1 4.2zm28.1-17.3.2-.2zm2.2-.3-.7-.5zm.2-.3-.8-.3zm-2.3-1.8-.3-.8zm-21.5 34.8c-1.2-1.4-1.9-3.2-1.9-5.2s.6-3.8 1.8-5.3c1.2-1.6 3.1-2.4 5.2-2.4 2 0 3.8.8 5.2 2.3 1.4 1.4 2.1 3.3 2.1 5.3s-.7 3.9-2 5.3c-1.3 1.5-3.2 2.4-5.2 2.3h-.1c-2.1.1-3.9-.8-5.1-2.3zm2.2-8.6c-.8 1-1.1 2-1.1 3.4s.4 2.3 1.2 3.2 1.6 1.3 2.8 1.3c1.3 0 2.1-.4 3-1.3.9-1 1.3-2 1.3-3.3s-.4-2.2-1.3-3.2c-.9-.9-1.8-1.3-3-1.3-1.3 0-2.1.4-2.9 1.2z" fill="#9fcfff"/><path d="m117 27c0 3.5-.1 5.6-.3 6.2-.5 1.5-1.9 3.9-4.2 7.4-2 3-3.8 5.3-5.2 7-.5.6-2.1 1-4.8 1-2.3 0-3.8-.1-4.5-.2-.4-.1-.8-.3-1.1-.6-1.2-1.3-3-3.6-5.2-6.9-2.4-3.5-3.9-6-4.4-7.3-.5-1.4-.8-3.5-.8-6.3 0-.8 0-2 0-3.6s0-2.8 0-3.6c0-.5.4-.8 1.1-.8 1 0 2.6 0 4.7.1s3.7.1 4.7.1c.5 0 .7.3.7 1 0 .6 0 1.4-.1 2.6s-.1 2-.1 2.6c0 2.1.1 3.9.2 5.2.1.7.7 2 1.8 3.9 1.2 2 2 3 2.5 3s1.3-1 2.5-3c1.1-1.9 1.7-3.1 1.7-3.8.2-1.5.2-3.2.2-5.3 0-.6-.1-1.5-.2-2.7s-.2-2.1-.2-2.7.2-1 .6-1h2.2 2.2c.5 0 1.2 0 2.2-.1s1.7-.1 2.2-.1.8.3 1 .8c.4 1.1.6 3.5.6 7.1z" fill="#fcfcfc"/><path d="m97.5 49.7c-.7-.2-1.3-.5-1.8-1.1-1.3-1.4-3.1-3.8-5.4-7.1-2.5-3.6-3.9-6-4.5-7.6-.6-1.7-.8-3.9-.9-6.9 0-.8 0-2 0-3.6s0-2.8 0-3.6c0-.6.3-1.4.9-1.8s1.2-.5 1.7-.5c1.1 0 2.6 0 4.7.1s3.6.1 4.7.1c.6 0 1.3.3 1.7.8.4.6.5 1.1.5 1.6 0 .6 0 1.5-.1 2.7-.1 1.1-.1 2-.1 2.5 0 2.1.1 3.8.2 5.1 0 .1.5 1.5 1.6 3.3.5.8.9 1.5 1.2 1.9.3-.4.7-1 1.2-1.8 1.1-1.8 1.6-3.1 1.6-3.2.2-1.4.2-3.1.2-5.1 0-.5-.1-1.4-.2-2.5-.1-1.2-.2-2.1-.2-2.8 0-.5.1-1 .4-1.6.4-.6 1.2-.9 1.7-.9h2.2 2.2c.4 0 1.1 0 2.1-.1s1.8-.1 2.3-.1c1.1-.1 2.3.9 2.4 1.9.4 1.5.6 3.9.6 7.5 0 1.8 0 3.2-.1 4.3s-.1 1.8-.3 2.4c-.6 1.8-2 4.2-4.4 7.8-2.1 3-3.8 5.4-5.3 7.1-.7.8-1.5 1-2.5 1.2s-2.1.3-3.5.3c-2.3 0-3.8-.1-4.8-.3zm8.6-3.1c1.4-1.6 3.1-3.9 5.1-6.8 2.3-3.4 3.7-5.9 4.1-7 0 0 .1-.6.2-1.6s.1-2.4.1-4.1c0-3.2-.2-5.4-.4-6.4-.4 0-1 .1-1.7.1-1 .1-1.8.1-2.3.1s-1.2 0-2.2 0c-.5 0-.9 0-1.3 0 0 .5.1 1.1.2 1.9.1 1.2.2 2.1.2 2.8 0 2.1-.1 3.9-.3 5.5-.2 1.2-.8 2.4-1.9 4.4-.6 1-1.1 1.8-1.6 2.4s-.9 1.2-2.2 1.3c-1.2-.1-1.6-.7-2.2-1.3-.5-.6-1.1-1.4-1.7-2.5-1.2-2-1.8-3.3-2-4.5-.1-1.4-.2-3.2-.2-5.3 0-.7 0-1.6.1-2.7.1-.8.1-1.4.1-1.9-1 0-2.3 0-3.9-.1-1.8-.1-3.2-.1-4.2-.1v2.9 3.6c0 2.7.3 4.7.7 5.8.3 1 1.8 3.4 4.2 6.9 2.2 3.3 4 5.5 5.1 6.8.1.1.1.1.3.2.4.1 1.9.2 4.2.2 1.9-.2 3.3-.5 3.5-.6z" fill="#9fcfff"/><path d="m149.3 31.6c0 2.1-.7 3.2-2 3.5-.2 0-2.3.3-6.3.7-2.4.3-6 .6-10.8 1 .3 1.3 1.2 2.3 2.6 3 1.2.6 2.5.9 4 .9 1.8 0 3.6-.5 5.5-1.5.8-.5 1.6-1 2.3-1.5.4.2 1.1 1.2 2.2 3.1 1 1.9 1.5 3.1 1.5 3.6 0 .1-.2.4-.5.7-2.5 2.7-6.4 4-11.6 4-4.9 0-8.8-1.4-11.8-4.3-3.1-2.9-4.6-6.7-4.6-11.6 0-4.7 1.4-8.6 4.1-11.6 2.8-3.1 6.6-4.7 11.2-4.7 3.9 0 7.3 1.4 10 4.3s4.2 6.5 4.2 10.4zm-10.8-1.9c0-1.3-.4-2.4-1.3-3.3-.9-1-2-1.4-3.2-1.4-1.3 0-2.4.5-3.2 1.6-.8 1-1.2 2.2-1.2 3.5 0 .6.3.8.9.8 1.5 0 3.9-.2 7.1-.7.6-.1.9-.2.9-.5z" fill="#fcfcfc"/><path d="m123.4 46c-3.4-3.2-5.1-7.5-5.1-12.6 0-5 1.5-9.3 4.5-12.6 3.1-3.4 7.3-5.2 12.3-5.2 4.3 0 8.1 1.6 11.1 4.8 3 3.1 4.5 7 4.5 11.2 0 1.2-.2 2.2-.7 3.2-.5.9-1.5 1.6-2.5 1.8-.2 0-.7.1-1.6.2.3.3.5.6.8 1 .4.6.9 1.4 1.4 2.3.5 1 .9 1.8 1.2 2.4.3.7.5 1.2.5 1.9 0 .6-.2.9-.4 1.1s-.3.4-.5.6c-2.9 3.1-7.2 4.5-12.7 4.5 0 0 0 0-.1 0-5.1.1-9.4-1.5-12.7-4.6zm1.6-23.2c-2.5 2.7-3.7 6.1-3.7 10.5 0 4.5 1.4 7.9 4.1 10.5 2.7 2.5 6.2 3.8 10.7 3.8 5 0 8.4-1.3 10.5-3.5 0-.1-.1-.3-.2-.4-.2-.5-.6-1.3-1.1-2.2-.4-.8-.8-1.4-1.1-1.9-.4.3-.8.5-1.3.8-2 1.1-4.1 1.6-6.2 1.6-1.7 0-3.3-.3-4.7-1-1.8-.8-3.1-2.3-3.4-4.1l-.4-1.7 1.7-.1c4.8-.4 8.4-.7 10.8-.9 4-.4 6.2-.6 6.2-.6.3-.1.3-.1.5-.4.1-.2.3-.8.3-1.7 0-3.6-1.2-6.5-3.7-9.2-2.5-2.6-5.4-3.8-8.9-3.8-4.3.1-7.5 1.5-10.1 4.3zm8.4 15.7c1 .5 2.1.7 3.4.7 1.5 0 3.1-.4 4.7-1.3.4-.2.8-.5 1.2-.8-.5.1-1 .1-1.6.2-2 .2-4.8.5-8.4.8.2.1.4.2.7.4zm-4.6-6.7c-.5-.5-.7-1.2-.7-1.7 0-1.6.5-3.2 1.5-4.4 1-1.4 2.7-2.2 4.4-2.2 1.6 0 3.2.7 4.3 1.9s1.8 2.7 1.8 4.4c0 1-.7 1.5-1.1 1.6-.4.2-.8.3-1.2.3-3.2.5-5.6.7-7.3.7-.6 0-1.2-.1-1.7-.6zm3.2-4.3c-.4.6-.7 1.2-.8 1.9 1.3-.1 3.3-.3 5.7-.6-.1-.5-.4-.9-.8-1.4-.7-.7-1.3-.9-2.1-1-.9.1-1.4.3-2 1.1z" fill="#9fcfff"/><path d="m183.1 47.4c0 .6-.3.9-.9 1s-2.1.1-4.5.1c-2.6 0-4.2-.1-4.8-.2s-.9-.5-.9-1.3c0-1 0-2.4.1-4.4.1-1.9.1-3.4.1-4.4 0-.8 0-1.9-.1-3.4 0-1.5-.1-2.6-.1-3.4 0-2.8-1.2-4.2-3.6-4.2-.8 0-1.7.3-2.8 1-1.1.8-1.7 1.5-1.7 2.3v16.6c0 .7-.3 1.1-.9 1.1-.7.1-2.2.1-4.4.1-2.4 0-3.9-.1-4.7-.2-.6-.1-.9-.4-.9-1 0-1.6 0-4 0-7.2s0-5.6 0-7.2c0-5.1-.4-9.1-1.2-12 0-.2-.1-.3-.1-.5 0-.3.2-.6.5-.7 1.3-.1 3-.4 5.1-.7 3.2-.6 5.1-1 5.5-1 .2 0 .4.7.5 2.1s.3 2.1.5 2.1c-.2 0 .9-.7 3.3-2.1s4.5-2.1 6.4-2.1c2.6 0 4.8.6 6.5 1.8 1.9 1.4 2.9 3.4 2.9 5.9v9.8 6c.2 2.8.2 4.7.2 6.1z" fill="#fcfcfc"/><path d="m172.7 49.7c-.6-.1-1.2-.4-1.6-1-.4-.5-.5-1.2-.5-1.7 0-1 0-2.4.1-4.4.1-1.9.1-3.4.1-4.3 0-.7 0-1.9-.1-3.3 0-1.5-.1-2.6-.1-3.4 0-1.2-.3-1.9-.5-2.2-.3-.3-.7-.5-1.6-.5-.4 0-1 .2-1.9.8-.5.3-.8.6-.9.8s-.1.2-.1.2v16.6c0 .6-.1 1.2-.6 1.8-.4.5-1.1.8-1.7.9-.9.1-2.3.1-4.6.1-2.4 0-4-.1-4.9-.2-.5-.1-1.1-.3-1.6-.8s-.7-1.2-.6-1.7c0-1.6 0-4 0-7.2s0-5.6 0-7.2c0-5-.4-8.9-1.1-11.6-.1-.3-.1-.5-.1-.8-.1-.8.6-1.8 1.4-2.1l.2-.1h.2c1.3-.1 3-.4 5.1-.7 3.3-.6 4.9-.9 5.7-1 .9 0 1.3.6 1.5.9s.2.5.3.8c.1.4.2.9.2 1.5.4-.3 1-.6 1.6-.9 2.6-1.5 4.9-2.3 7.1-2.3 2.8 0 5.3.7 7.4 2.1 2.3 1.6 3.6 4.2 3.5 7.1v9.8 5.9 6c0 .5-.2 1.2-.6 1.7s-1 .7-1.5.8c-.8.1-2.2.1-4.7.1-2.7-.3-4.2-.3-5.1-.5zm5.1-2.8c1.8 0 3.2 0 3.8-.1 0-1.3 0-3.1 0-5.5 0-2.6 0-4.6 0-6v-9.8c0-2.1-.7-3.5-2.3-4.7-1.4-1-3.3-1.6-5.6-1.6-1.4 0-3.3.6-5.6 1.9-1.8 1-2.9 1.8-3 1.9l-1 .5c-.1 0-.3 0-.6-.1-.1 0-.2-.1-.2-.1-.3-.2-.5-.5-.6-.6-.2-.3-.2-.5-.3-.8-.1-.5-.2-1.1-.3-1.8 0-.2 0-.4-.1-.6-.1 0-.3 0-.4.1-.9.2-2.2.4-3.8.7-1.6.2-3 .4-4.2.6.7 3 1.1 6.9 1.1 11.7v7.2 6.8c.7.1 2.1.1 4.1.1 1.8 0 3.1 0 3.8-.1v-16c0-1.6 1.1-2.7 2.4-3.6 1.2-.8 2.4-1.3 3.6-1.3 1.5 0 2.9.5 3.9 1.6.9 1.1 1.3 2.5 1.3 4.1 0 .7 0 1.9.1 3.3 0 1.5.1 2.6.1 3.4 0 1 0 2.5-.1 4.4-.1 1.8-.1 3.2-.1 4.1.4.3 1.9.4 4 .3z" fill="#9fcfff"/><path d="m208.7 39.3c0 .6-.1 1.5-.2 2.8s-.2 2.2-.2 2.7-.1 1-.2 1.1c-.1.2-.5.4-1 .7-2.6 1.5-5.6 2.2-8.8 2.2-5.9 0-8.9-2.3-8.9-6.8 0-1.3.1-3.4.2-6.1s.2-4.7.2-6.1c0-.9-.5-1.3-1.6-1.3-.1 0-.2 0-.4 0s-.3 0-.4 0c-.8 0-1.2-.3-1.2-.8 0-.3 0-.8.1-1.5s.1-1.2.1-1.5c0-.4 0-1.1-.1-2s-.1-1.5-.1-2c0-.4.7-.6 2-.7.7 0 1.1-.2 1.2-.6.1-.8.2-2 .1-3.7-.1-2.6-.1-3.9-.1-3.8 0-2.4.2-3.6.7-3.6.6 0 1.3.1 2.4.4 1.2.3 2 .4 2.4.5 1 .1 2.6.3 4.7.6.5 0 .8.2.8.5 0 .8-.1 2.1-.2 3.7-.1 1.7-.2 2.9-.2 3.7 0 1 .3 1.5.9 1.5.7 0 1.8 0 3.2-.1s2.5-.1 3.3-.1c.4 0 .7.2.7.5 0 .5-.1 1.2-.2 2.1s-.2 1.6-.2 2.1v2.1 2.1c0 .4-.3.6-.9.6-.4 0-1.1 0-2.1 0s-1.6 0-2.1 0h-2.3c-.3 0-.5.5-.5 1.3v2.2 2.2c0 1.7.2 2.9.6 3.6.6.9 1.6 1.3 3.2 1.3.5 0 1.2-.1 2.2-.4.9-.2 1.6-.4 2-.4.7.3.9.5.9 1z" fill="#fcfcfc"/><path d="m198.3 50.3c-3.1 0-5.7-.6-7.6-2s-2.8-3.7-2.8-6.3c0-1.4.1-3.4.2-6.1.1-2.6.1-4.6.2-5.9 0 0 0 0-.1 0s-.2 0-.3 0c-.2 0-.3 0-.5 0-.6 0-1.1-.1-1.7-.5s-1-1.2-.9-1.8c0-.4 0-.9.1-1.6 0-.7.1-1.1.1-1.4 0-.4 0-1-.1-1.9s-.1-1.6-.1-2c0-.5.3-1.1.6-1.4s.6-.4.9-.5c.5-.2 1.1-.2 1.7-.3 0-.4.1-1 0-1.6 0-.3 0-.7 0-1.1-.1-2.1-.1-3.4-.1-3.7v-.1c0-1.9 0-3 .6-4.1.2-.4.7-1 1.6-1 .8 0 1.6.1 2.7.4s1.9.4 2.2.4c1 .1 2.6.3 4.6.6.4 0 .8.1 1.3.4s.9 1 .8 1.6c0 .9-.1 2.1-.2 3.8-.1 1.6-.2 2.9-.2 3.6.6 0 1.5 0 2.6-.1 1.5-.1 2.6-.1 3.3-.1.4 0 .8 0 1.4.4.5.3.9 1.1.8 1.6 0 .6-.1 1.3-.2 2.3-.1.9-.1 1.6-.1 2v2.1 2.2c0 .5-.3 1.3-.8 1.7-.6.4-1.1.4-1.5.4s-1.1 0-2.1 0-1.6 0-2 0h-1.3v2 2.2c0 1.6.2 2.6.4 2.8.2.3.6.6 2 .6.3 0 .9-.1 1.8-.3 1-.2 1.7-.4 2.4-.4.5 0 1.1.1 1.6.6s.6 1.1.6 1.5c0 .7-.1 1.7-.2 3-.2 1.2-.2 2.1-.2 2.6 0 .7.1 1.2-.5 2-.5.6-.9.7-1.5 1.1-2.9 1.5-6.1 2.3-9.5 2.3zm-10.5-23.3h.4c.7 0 1.5.1 2.2.7s.9 1.4.9 2.1c0 1.4-.1 3.4-.2 6.1s-.2 4.7-.2 6c0 2 .6 3.1 1.6 3.9 1.1.8 3 1.4 5.7 1.4 3 0 5.6-.7 8-2 .2-.1.3-.2.4-.2 0-.1 0-.2 0-.3 0-.7.1-1.6.2-2.9.1-.6.1-1.2.2-1.6-.2 0-.5.1-.7.2-1 .2-1.8.4-2.6.4-1.8 0-3.6-.5-4.5-2.1-.6-1.2-.8-2.5-.8-4.3 0-.4 0-1.2 0-2.2s0-1.7 0-2.2c.1-.8-.1-1.4.7-2.3.3-.3.8-.5 1.2-.5h2.3 2.1 1.4c0-.4 0-.8 0-1.2 0-.9 0-1.7 0-2.2 0-.6.1-1.3.2-2.3 0-.3.1-.6.1-.9-.6 0-1.4 0-2.3.1-1.5.1-2.6.1-3.3.1s-1.6-.5-2-1.1-.4-1.2-.4-1.9c0-.9.1-2.2.2-3.9.1-1.1.1-2 .2-2.7-1.8-.2-3.2-.4-4.1-.5-.6-.1-1.4-.2-2.6-.5-.4-.1-.8-.2-1.1-.2 0 .5-.1 1.1-.1 1.9v.2.7c0 .6 0 1.6.1 2.9v1.2c0 1.1 0 2-.2 2.7-.1.7-.6 1.3-1.1 1.5-.5.3-1 .3-1.5.3-.2 0-.3 0-.5 0 0 .3 0 .6.1 1 .1.9.1 1.6.1 2s0 .9-.1 1.6z" fill="#9fcfff"/><path d="m243.5 20.4c0 1.5-.1 3.8-.2 6.8s-.2 5.3-.2 6.8.1 3.7.2 6.6.2 5.1.2 6.6c0 .6-.3.9-.8 1-.8.2-2.4.3-4.9.3-2.2 0-3.8-.1-4.7-.2-.4-.1-.6-.3-.7-.7-.1-.6-.1-1.2-.2-1.8-.1-.9-.2-1.4-.4-1.4.3 0-.7.7-3.1 2.1s-4.5 2.1-6.4 2.1c-5.4 0-8.6-2.4-9.6-7.3-.4-2.3-.7-5.6-.7-9.9 0-4.7.4-8.3 1.1-11 .2-.8.6-1.3 1.3-1.3h4.3 4.3c.6 0 1 .3 1 .8 0 .1 0 .4-.1.6-.4 2.8-.6 5.6-.6 8.5 0 3.6.1 6 .3 7.3.4 2.2 1.7 3.4 4 3.4.9 0 1.9-.4 2.9-1.2s1.6-1.6 1.6-2.5c0-.8.1-5.9.1-15.4 0-.7.1-1.1.2-1.2.1-.2.5-.3 1.1-.3h4.5 4.5c.6 0 1 .2 1.1.5-.1.2-.1.5-.1.8z" fill="#fcfcfc"/><path d="m232.8 49.9c-1-.1-1.8-1-2-1.9v-.1-.1c0-.3-.1-.6-.1-.8-.4.2-.9.5-1.4.8-2.5 1.5-4.9 2.3-7.2 2.3-2.9 0-5.4-.7-7.4-2.1-1.9-1.5-3.2-3.7-3.7-6.4-.5-2.4-.7-5.8-.7-10.2 0-4.7.4-8.5 1.2-11.4.2-.6.4-1.1.9-1.6s1.2-.8 1.8-.8h4.3 4.3c.5 0 1.1.1 1.7.6s.8 1.2.8 1.7c0 .3 0 .5-.1.9-.4 2.7-.6 5.4-.6 8.2 0 3.5.1 5.9.3 7.1.1.9.4 1.3.8 1.6.3.3.8.5 1.8.5.4 0 1.1-.2 2-.9s1-1.1 1-1.4c0-.6.1-5.8.1-15.3 0-.4 0-.7.1-1s0-.5.3-1c.4-.6.9-.8 1.3-.9s.7-.1 1.1-.1h4.5 4.5c.4 0 .9 0 1.3.2.5.2 1 .6 1.2 1.2v.1.1c.1.4.1.7.1 1.1 0 1.6-.1 3.8-.2 6.9-.1 3-.2 5.3-.2 6.7s.1 3.6.2 6.6.2 5.2.2 6.6c0 .5-.1 1.1-.5 1.6s-.9.8-1.4.9c-1.1.3-2.7.3-5.3.4-2.4.1-4 0-5-.1zm9.1-3c0-1.4-.1-3.5-.2-6.2-.1-3-.2-5.2-.2-6.7 0-1.6.1-3.8.2-6.9.1-2.8.2-5 .2-6.4-1 0-2.4 0-4.2 0-1.9 0-3.3 0-4.3 0 0 9.5 0 14.6-.1 15.5-.1 1.5-1 2.7-2.2 3.6s-2.5 1.5-3.8 1.5c-1.4 0-2.7-.3-3.7-1.2-1-.8-1.6-2.1-1.8-3.4-.3-1.5-.4-4-.4-7.5 0-2.8.2-5.6.6-8.4-.9 0-2.1 0-3.7 0-1.8 0-3.1 0-4 0v.2c-.7 2.5-1.1 6.1-1.1 10.6 0 4.3.2 7.5.6 9.6.5 2.2 1.3 3.6 2.6 4.6s3.1 1.5 5.6 1.5c1.6 0 3.4-.6 5.6-1.9 1.6-.9 2.6-1.6 2.8-1.7l1-.5h.1c.1 0 .3 0 .5.1 0 0 .1 0 .1.1.1 0 .2.1.3.2.2.1.3.3.4.4.2.3.3.5.3.7.1.4.2.8.2 1.3 0 .4.1.9.1 1.3.8.1 2.2.1 4 .1 2.3-.3 3.8-.4 4.5-.5z" fill="#9fcfff"/><path d="m268.9 29.2c0 .8-.4 1.2-1.3 1.2-.4 0-1 0-1.7-.1s-1.3-.1-1.7-.1c-1.7 0-2.9.3-3.5.8s-.9 1.6-.9 3.2v4 4c0 .6 0 1.5.1 2.7s.1 2 .1 2.6c0 .5-.3.8-1 .8-1 .1-2.5.1-4.5.1-1.9 0-3.5-.1-4.7-.2-.7-.1-1-.4-1-1 0-1.6 0-4.1 0-7.3 0-3.3 0-5.7 0-7.3 0-4.8-.4-8.8-1.3-11.9 0-.2-.1-.3-.1-.5 0-.3.2-.5.5-.6 1.1-.1 2.8-.3 4.9-.7 3.2-.6 4.9-1 5-1 .4 0 .6.6.7 1.9s.3 1.9.6 1.9c-.3 0 .6-.5 2.5-1.6 2-1.1 3.9-1.6 5.7-1.6 1.1 0 1.7.2 1.7.7 0 .6-.1 1.4-.2 2.5-.1 1.2-.2 2-.2 2.5v2.4c.2 1.4.3 2.2.3 2.6z" fill="#fcfcfc"/><path d="m249.8 49.8c-.5-.1-1.1-.3-1.6-.7-.5-.5-.7-1.2-.7-1.8 0-1.6 0-4.1 0-7.3 0-3.3 0-5.7 0-7.3 0-4.7-.4-8.5-1.3-11.5-.1-.3-.1-.5-.1-.8-.1-.8.7-1.9 1.5-2l.1-.1h.2c1.1-.1 2.7-.3 4.8-.7 2.4-.5 4-.8 4.6-.9.3 0 .2-.1.6-.1.5 0 1.1.3 1.3.6.3.3.4.6.5.9.2.5.2.9.3 1.5.3-.1.6-.3.9-.5 2.1-1.2 4.3-1.8 6.4-1.8.7 0 1.3.1 1.9.3s1.4 1 1.3 1.9c0 .7-.1 1.6-.2 2.7s-.2 2-.2 2.4v2.3c0 1.2.1 2 .1 2.4 0 .7-.2 1.5-.8 2s-1.3.7-2 .7c-.5 0-1 0-1.8-.1-.7 0-1.3-.1-1.6-.1-1.5 0-2.4.3-2.5.4 0 0-.4.6-.4 2.1v4 4c0 .5 0 1.4.1 2.5.1 1.2.1 2.1.1 2.7s-.3 1.3-.8 1.7-1.1.5-1.6.6c-1.1.1-2.6.1-4.6.1-1.7 0-3.3 0-4.5-.1zm9.5-26.4c-.1 0-.1 0-.1 0-.1 0-.2 0-.3 0s-.2-.1-.3-.1-.1-.1-.2-.1c-.2-.2-.4-.3-.5-.5-.2-.3-.3-.6-.4-.8-.1-.5-.2-1-.3-1.7 0-.1 0-.3 0-.4-.1 0-.1 0-.2 0-.8.2-2 .4-3.7.7-1.6.2-2.9.4-3.9.6.8 3.2 1.2 7 1.2 11.6v7.3 6.9c1 .1 2.4.1 4.2.1 1.7 0 3.1 0 4-.1 0-.5-.1-1.1-.1-1.9-.1-1.2-.1-2.1-.1-2.8 0-.9 0-2.2 0-4s0-3.1 0-4c0-1.8.3-3.3 1.4-4.4 1.2-1 2.6-1.1 4.4-1.2.4 0 1 0 1.8.1.6 0 1.1.1 1.4.1 0-.4 0-1.1-.1-2.1 0-1 0-1.8 0-2.5 0-.6.1-1.4.2-2.6.1-.6.1-1.1.1-1.6-.1 0-.1 0-.2 0-1.5 0-3.2.4-5 1.4-1.3.7-2.1 1.2-2.2 1.3z" fill="#9fcfff"/><path d="m300.5 31.6c0 2.1-.7 3.2-2 3.5-.2 0-2.3.3-6.3.7-2.4.3-6 .6-10.8 1 .3 1.3 1.2 2.3 2.6 3 1.2.6 2.5.9 4 .9 1.8 0 3.6-.5 5.5-1.5.8-.5 1.6-1 2.3-1.5.4.2 1.1 1.2 2.2 3.1 1 1.9 1.5 3.1 1.5 3.6 0 .1-.2.4-.5.7-2.5 2.7-6.4 4-11.6 4-4.9 0-8.8-1.4-11.8-4.3-3.1-2.9-4.6-6.7-4.6-11.6 0-4.7 1.4-8.6 4.1-11.6 2.8-3.1 6.6-4.7 11.2-4.7 3.9 0 7.3 1.4 10 4.3 2.9 3.1 4.2 6.5 4.2 10.4zm-10.7-1.9c0-1.3-.4-2.4-1.3-3.3-.9-1-2-1.4-3.2-1.4-1.3 0-2.4.5-3.2 1.6-.8 1-1.2 2.2-1.2 3.5 0 .6.3.8.9.8 1.5 0 3.9-.2 7-.7.7-.1 1-.2 1-.5z" fill="#fcfcfc"/><path d="m274.7 46c-3.4-3.2-5.1-7.5-5.1-12.6 0-5 1.5-9.3 4.5-12.6 3.1-3.4 7.3-5.2 12.3-5.1 4.3 0 8.1 1.6 11.1 4.8 3 3.1 4.5 7 4.5 11.2 0 1.2-.2 2.2-.7 3.2-.5.9-1.5 1.6-2.5 1.8-.2 0-.7.1-1.6.2.3.3.5.6.8 1 .4.6.9 1.4 1.4 2.3.5 1 .9 1.8 1.2 2.4.3.7.5 1.2.5 1.9 0 .6-.2.9-.4 1.1s-.3.4-.5.6c-2.9 3.1-7.2 4.5-12.7 4.5 0 0 0 0-.1 0-5.1 0-9.5-1.6-12.7-4.7zm1.6-23.2c-2.5 2.7-3.7 6.1-3.7 10.5 0 4.5 1.4 7.9 4.1 10.5 2.7 2.5 6.2 3.8 10.7 3.8 5 0 8.4-1.2 10.5-3.5 0-.1-.1-.3-.2-.4-.2-.5-.6-1.3-1.1-2.2-.4-.8-.8-1.4-1.1-1.9-.4.3-.8.5-1.3.8-2 1.1-4.1 1.6-6.2 1.6-1.7 0-3.3-.3-4.7-1-1.7-.8-3.1-2.3-3.4-4.1l-.4-1.7 1.7-.1c4.8-.4 8.4-.7 10.8-.9 4-.4 6.2-.6 6.2-.6.3-.1.3-.1.5-.4.1-.3.3-.8.3-1.7 0-3.6-1.2-6.5-3.7-9.2-2.5-2.6-5.4-3.8-8.9-3.8-4.3.1-7.5 1.5-10.1 4.3zm8.4 15.6c1 .5 2.1.7 3.4.7 1.5 0 3.1-.4 4.7-1.3.4-.3.8-.5 1.2-.8-.5.1-1 .1-1.6.2-2 .2-4.8.5-8.4.8.2.2.4.3.7.4zm-4.7-6.6c-.5-.5-.7-1.2-.7-1.7 0-1.6.5-3.2 1.5-4.4 1-1.4 2.7-2.2 4.4-2.2 1.6 0 3.2.7 4.3 1.9s1.8 2.7 1.8 4.4c0 1-.7 1.5-1.1 1.6-.4.2-.8.3-1.2.3-3.2.5-5.6.7-7.3.7-.5 0-1.1-.1-1.7-.6zm3.2-4.3c-.4.6-.7 1.2-.8 1.9 1.3-.1 3.3-.3 5.7-.6-.1-.5-.4-.9-.8-1.4-.7-.7-1.3-1-2.1-1-.8.1-1.3.3-2 1.1z" fill="#9fcfff"/><path d="m360.1 47.3c0 .6-.2.8-.9.8-.4 0-1.5-.2-3.4-.7-1.9-.4-3-.8-3.4-.9-4.3 1.7-8.4 2.5-12.3 2.5-6.3 0-11.5-2.1-15.5-6.3-4-4.1-6-9.4-6-15.7 0-6.5 1.9-11.9 5.8-16.1 4-4.4 9.2-6.6 15.6-6.6 3.1 0 6 .6 8.8 1.8 3 1.3 5.3 3.1 7 5.5.3.5.5.8.5 1 0 .7-.9 2.1-2.7 4.4s-3 3.4-3.5 3.4c-.1 0-.6-.4-1.4-1.3-1-1-2-1.8-3.1-2.3-1.6-.8-3.3-1.3-5.1-1.3-3.1 0-5.5 1.1-7.3 3.4-1.7 2.1-2.5 4.7-2.5 7.9 0 3.3.9 6 2.6 7.9 1.8 2 4.3 3 7.6 3 2.1 0 4.4-.5 7-1.6-.1-.7-.2-2.4-.6-5.1-.3-2.1-.4-3.8-.4-5.1 0-.4.1-.6.4-.7.1 0 .3-.1.5-.1.6 0 1.5.1 2.7.2s2.1.2 2.7.2c.7 0 1.6 0 2.9-.1s2.3-.1 2.9-.1c.5 0 .8.3.8 1 0 1-.1 2.5-.2 4.4s-.2 3.5-.2 4.4c0 2.6.2 6.6.6 11.8z" fill="#fcfcfc"/><path d="m323.6 43.8c-4.3-4.4-6.4-10.1-6.4-16.8 0-6.8 2.1-12.6 6.2-17.1 4.3-4.7 10-7.1 16.7-7.1 3.3 0 6.4.6 9.4 1.9 3.2 1.4 5.7 3.4 7.6 6 .4.6.7.9.8 1.9 0 1-.4 1.5-.9 2.4-.5.8-1.2 1.8-2.2 3-1.4 1.8-2.4 2.9-3.4 3.5-.3.2-.7.4-1.4.5-.8-.1-.8-.3-1-.4s-.3-.2-.4-.3c-.3-.3-.6-.6-1-1-.9-.9-1.8-1.6-2.7-2.1-1.3-.7-2.8-1.1-4.4-1.1-2.7 0-4.6.9-6.1 2.9-1.4 1.8-2.2 4.1-2.2 6.9 0 3.1.8 5.3 2.2 6.9 1.5 1.6 3.5 2.5 6.5 2.5 1.6 0 3.4-.3 5.4-1.1-.1-.9-.2-2.2-.4-4-.3-2.2-.4-3.9-.4-5.3 0-.4.1-.8.3-1.2s.7-.8 1.2-.9c.4-.1.6-.1.9-.1.7 0 1.6.1 2.8.2s2 .2 2.6.2 1.5 0 2.8-.1 2.3-.1 3-.1c.6 0 1.4.3 1.8.8.4.6.5 1.1.5 1.7 0 1-.1 2.5-.2 4.5s-.2 3.4-.2 4.4c0 2.6.2 6.5.6 11.7v.3l-1.5.1 1.5-.1v.2c0 .5-.2 1.2-.7 1.7-.5.4-1.1.5-1.6.5-.8 0-1.8-.3-3.7-.7-1.4-.3-2.4-.6-3-.8-4.2 1.6-8.4 2.4-12.3 2.4 0 0 0 0-.1 0-6.7-.1-12.3-2.4-16.6-6.8zm2-31.9c-3.6 4-5.4 8.9-5.4 15.1 0 6 1.9 10.8 5.6 14.7 3.8 3.9 8.5 5.8 14.5 5.9 3.7 0 7.6-.8 11.7-2.4l.5-.2.5.2c.2.1 1.4.4 3.2.9 1 .2 1.8.4 2.3.5-.4-5-.5-8.8-.5-11.4 0-1 .1-2.5.2-4.5.1-1.6.1-2.9.2-3.9-.6 0-1.3.1-2.1.1-1.3.1-2.3.1-3 .1s-1.6-.1-2.9-.2c-.8-.1-1.4-.1-1.9-.1 0 1.1.2 2.5.4 4.2.3 2.8.5 4.5.6 5.2l.1 1.1-1 .4c-2.7 1.1-5.2 1.7-7.5 1.7-3.6 0-6.6-1.1-8.8-3.5-2-2.3-3-5.3-3-8.9 0-3.4.9-6.4 2.8-8.8 2-2.6 5-4 8.5-4 2.1 0 4.1.5 5.9 1.4 1.2.6 2.3 1.5 3.4 2.6.2.2.3.3.5.5 0 0 .1-.1.1-.1.5-.5 1.2-1.3 2.1-2.4 1.3-1.6 2.1-2.9 2.3-3.4 0-.1-.1-.2-.2-.3-1.5-2.1-3.6-3.8-6.4-5-2.5-1.1-5.3-1.7-8.2-1.7-6.1.1-10.8 2.1-14.5 6.2z" fill="#9fcfff"/><path d="m395 32.9c0 1.6.1 3.9.3 7s.3 5.4.3 7c0 .8-.4 1.3-1.1 1.3-2.5.2-5.4.3-8.7.3-.4 0-.6-.6-.8-1.8-.1-1.2-.3-1.8-.5-1.8-.2.1-.4.3-.6.5-2.3 2.3-4.7 3.5-7.4 3.5-4 0-7.3-1.6-9.9-4.7-2.5-2.9-3.7-6.5-3.7-10.5 0-4.7 1.3-8.5 3.8-11.4 2.7-3 6.3-4.5 10.9-4.5 3.2 0 5.7 1.1 7.6 3.4.1.1.2.2.2.2.2 0 .4-.5.6-1.5s.5-1.5.8-1.5c.8 0 2.2.2 4.3.6 2 .4 3.5.8 4.4 1 .3.1.5.3.5.5 0 .1 0 .3-.1.6-.6 3.8-.9 7.7-.9 11.8zm-9.8.2c0-1.7-.5-3.2-1.6-4.3s-2.5-1.7-4.3-1.7-3.2.6-4.3 1.7-1.6 2.6-1.6 4.3.6 3.1 1.7 4.3 2.5 1.8 4.2 1.8 3.2-.6 4.3-1.7 1.6-2.6 1.6-4.4z" fill="#fcfcfc"/><path d="m365.5 45.2c-2.7-3.2-4.1-7.1-4.1-11.5 0-5 1.4-9.2 4.2-12.4 2.9-3.3 7.1-5 12-5 2.8 0 5.2.8 7.2 2.4.1-.2.2-.5.3-.7.2-.4.7-1.1 1.8-1.1 1 0 2.4.2 4.6.7 2.1.4 3.5.8 4.5 1.1.3.1.6.3.9.6s.5.8.5 1.3c0 .4-.1.5-.1.9-.6 3.6-1 7.4-1 11.5 0 1.5.1 3.8.3 6.9s.3 5.5.3 7.1c0 .6-.1 1.3-.6 1.9s-1.2.9-1.9.9c-2.6.2-5.5.3-8.8.3-1.1 0-1.7-.8-1.9-1.3-.1-.3-.2-.6-.3-.9-2.2 1.8-4.6 2.7-7.1 2.7h-.1c-4.1-.1-7.9-2-10.7-5.4zm2.4-21.9c-2.3 2.6-3.4 5.9-3.5 10.4 0 3.8 1.1 6.9 3.4 9.6 2.4 2.8 5.2 4.2 8.7 4.2 2.2 0 4.2-.9 6.3-3 .3-.3.6-.6 1-.8l.4-.2h.4c.9.1 1.1.7 1.3.9.1.3.2.5.3.7.1.4.2.9.3 1.5 0 .2 0 .3.1.4 2.8 0 5.3-.1 7.5-.2 0-1.5-.1-3.8-.3-6.7-.2-3.1-.3-5.5-.3-7.1 0-4.1.3-8 .9-11.7-.8-.2-2-.5-3.5-.8s-2.6-.5-3.3-.6c0 .1 0 .2-.1.3-.2.8-.3 1.3-.8 2-.2.2-.5.6-1.3.7-.9-.1-1.2-.5-1.4-.7-1.6-1.9-3.6-2.8-6.4-2.8-4.2-.1-7.4 1.3-9.7 3.9zm11.3 17.4c-2 0-3.9-.8-5.2-2.2-1.4-1.4-2.2-3.3-2.1-5.3 0-2.1.7-4 2-5.4 1.4-1.4 3.3-2.2 5.3-2.1 2.1 0 4 .7 5.4 2.2 1.4 1.4 2.1 3.3 2.1 5.3 0 2.1-.7 4-2.1 5.4-1.4 1.3-3.3 2.1-5.4 2.1.1 0 .1 0 0 0zm-3.1-10.9c-.8.8-1.2 1.8-1.2 3.3 0 1.3.4 2.3 1.3 3.2s1.8 1.3 3.1 1.3c1.4 0 2.4-.4 3.2-1.2.8-.9 1.2-1.8 1.2-3.3 0-1.4-.4-2.4-1.2-3.3-.8-.8-1.8-1.2-3.2-1.2-1.5 0-2.4.4-3.2 1.2z" fill="#9fcfff"/><path d="m450.1 47.1c0 .7-.3 1.1-.9 1.2s-2.1.1-4.5.1c-2.5 0-4-.1-4.7-.2s-.9-.6-.9-1.5 0-2.3.1-4.2.1-3.3.1-4.2c0-3.6 0-6.1-.1-7.6-.1-2.4-1.3-3.6-3.5-3.6-1 0-1.9.4-2.9 1.2s-1.5 1.7-1.6 2.7c-.1.9-.1 3.4-.1 7.5 0 1 0 2.4.1 4.4s.1 3.4.1 4.4c0 .7-.3 1-.9 1h-9.3c-.6 0-.9-.4-.9-1.3 0-1 0-2.4.1-4.3s.1-3.4.1-4.4c0-.8 0-1.9-.1-3.4 0-1.5-.1-2.7-.1-3.5 0-2.9-1.1-4.4-3.3-4.4-.9 0-1.9.3-2.9 1-1.1.8-1.7 1.6-1.7 2.4v8.3s0 6.5 0 8.3c0 .5-.1.8-.2 1s-.4.2-1 .2c-.9.1-2.4.1-4.4.1-1.3 0-2.7-.1-4.4-.2-.5 0-.8-.1-.9-.2s-.1-.4-.1-.9c0-1.6 0-4.1 0-7.3 0-3.3 0-5.7 0-7.3 0-3.4-.2-7.1-.7-11.3 0-.2-.1-.4-.1-.6 0-.3.1-.6.4-.7.4-.2 1.3-.3 2.5-.5 1.5-.1 2.4-.2 2.7-.3.2 0 1-.3 2.4-.6 1-.3 1.8-.4 2.4-.4.4 0 .6.7.6 2.1s.1 2.1.2 2.1c.2-.1.4-.2.7-.4 1.8-1.4 3.3-2.4 4.4-2.9 1.6-.8 3.3-1.1 5.1-1.1 1.9 0 3.6.4 5 1.3 1.7.9 2.7 2.3 3.2 4 1.1-1.5 2.6-2.7 4.5-3.7s3.7-1.5 5.5-1.5c2.7 0 4.9.6 6.6 1.9 1.9 1.4 2.9 3.4 2.9 6 0 1.1 0 2.7-.1 4.9s-.1 3.8-.1 4.9c0 1.3 0 3.2.1 5.8.6 2.5.6 4.4.6 5.7z" fill="#fcfcfc"/><path d="m439.7 49.7c-.6-.1-1.3-.6-1.7-1.2s-.4-1.2-.5-1.8c0-1 0-2.4.1-4.3s.1-3.3.1-4.2c0-3.6 0-6.1-.1-7.6-.1-1-.3-1.5-.5-1.8-.2-.2-.6-.4-1.4-.4-.5 0-1.1.2-1.9.9-.7.6-1 1.2-1.1 1.7-.1.7-.1 3.3-.1 7.4 0 .9 0 2.4.1 4.3.1 2 .1 3.4.1 4.4 0 .5-.1 1.2-.6 1.7-.5.6-1.2.8-1.8.8h-9.3c-.6 0-1.5-.3-1.9-1-.4-.6-.5-1.2-.5-1.8 0-1 0-2.4.1-4.4.1-1.9.1-3.4.1-4.3 0-.7 0-1.9-.1-3.4 0-1.5-.1-2.7-.1-3.5 0-1.3-.3-2-.5-2.4-.3-.3-.5-.5-1.3-.5-.5 0-1.2.2-2.1.8-1 .6-1.1 1.1-1 1.1v8.3 8.3c-.1.6.1 1.1-.6 2-.8.7-1.3.6-1.9.7-1 .1-2.5.1-4.5.1-1.3 0-2.8-.1-4.5-.2-.3 0-.6-.1-.8-.1-.3-.1-.6-.1-1-.6s-.4-.8-.5-1.1c0-.3-.1-.5-.1-.8 0-1.6 0-4.1 0-7.3 0-3.3 0-5.7 0-7.3 0-3.3-.2-7-.7-11.1 0-.3-.1-.5-.1-.8-.1-.7.5-1.8 1.4-2.1.8-.3 1.6-.4 3-.6 1.4-.1 2.3-.2 2.6-.3.2 0 1-.3 2.3-.6 1.1-.3 2-.5 2.8-.5.6 0 1.2.3 1.4.7.3.3.4.6.5.9.1.4.2.9.2 1.4 1.2-.9 2.3-1.6 3.2-2 1.8-.9 3.7-1.3 5.8-1.3s4.1.5 5.8 1.5c1.2.7 2.1 1.5 2.9 2.6 1-.9 2.1-1.7 3.4-2.4 2.1-1.1 4.2-1.7 6.2-1.7 2.9 0 5.5.7 7.5 2.2 2.3 1.7 3.5 4.3 3.5 7.2 0 1.1 0 2.7-.1 4.9s-.1 3.8-.1 4.8c0 1.3 0 3.2.1 5.8s.1 4.5.1 5.8c0 .6-.1 1.2-.5 1.8s-1.1.9-1.7.9c-.8.1-2.3.1-4.7.1-2.6.5-4.1.5-5 .3zm4.9-2.8c1.9 0 3.3 0 4-.1 0-1.3 0-3.1-.1-5.5-.1-2.6-.1-4.5-.1-5.8 0-1.1 0-2.7.1-4.9s.1-3.8.1-4.8c0-2.3-.7-3.7-2.3-4.8-1.4-1-3.2-1.6-5.7-1.6-1.5 0-3.1.4-4.8 1.3s-3 2-4 3.3l-1.8 2.4-.8-2.9c-.4-1.3-1.1-2.3-2.5-3.1-1.2-.7-2.6-1.1-4.3-1.1-1.6 0-3.1.3-4.4 1-.9.4-2.3 1.4-4.1 2.8-.3.3-.7.5-1.1.6l-.3.1h-.3c-.7 0-1.1-.4-1.3-.7-.2-.2-.2-.4-.3-.5-.1-.3-.1-.5-.1-.7-.1-.4-.1-1-.1-1.7 0-.2 0-.4 0-.5-.3.1-.7.1-1.1.3-1.4.4-2.2.6-2.5.7-.4.1-1.3.1-2.8.3-.6.1-1.2.1-1.6.2.5 4.2.7 7.9.7 11.3v7.4 7c1.5.1 2.8.2 3.9.2 1.8 0 3.1 0 4-.1 0-1.8 0-4.5 0-8 0-3.7 0-6.5 0-8.3 0-1.6 1.1-2.8 2.4-3.6 1.2-.8 2.4-1.3 3.7-1.3 1.4 0 2.9.5 3.7 1.7.8 1.1 1.1 2.6 1.1 4.2 0 .8 0 1.9.1 3.4 0 1.5.1 2.7.1 3.5 0 1 0 2.5-.1 4.4-.1 1.8-.1 3.1-.1 4h8c0-.9 0-2.2-.1-3.9-.1-2-.1-3.4-.1-4.4 0-4.2 0-6.7.1-7.7.1-1.4.9-2.7 2.1-3.7 1.1-1 2.4-1.6 3.8-1.6s2.7.4 3.6 1.4 1.3 2.3 1.4 3.7c.1 1.6.1 4.1.1 7.7 0 1 0 2.4-.1 4.3s-.1 3.3-.1 4.2v.1c.6-.2 2-.1 4-.2z" fill="#9fcfff"/><path d="m484 31.6c0 2.1-.7 3.2-2 3.5-.2 0-2.3.3-6.3.7-2.4.3-6 .6-10.8 1 .3 1.3 1.2 2.3 2.6 3 1.2.6 2.5.9 4 .9 1.8 0 3.6-.5 5.5-1.5.8-.5 1.6-1 2.3-1.5.4.2 1.1 1.2 2.2 3.1 1 1.9 1.5 3.1 1.5 3.6 0 .1-.2.4-.5.7-2.5 2.7-6.4 4-11.6 4-4.9 0-8.8-1.4-11.8-4.3-3.1-2.9-4.6-6.7-4.6-11.6 0-4.7 1.4-8.6 4.1-11.6 2.8-3.1 6.6-4.7 11.2-4.7 3.9 0 7.3 1.4 10 4.3 2.8 3.1 4.2 6.5 4.2 10.4zm-10.7-1.9c0-1.3-.4-2.4-1.3-3.3-.9-1-2-1.4-3.2-1.4-1.3 0-2.4.5-3.2 1.6-.8 1-1.2 2.2-1.2 3.5 0 .6.3.8.9.8 1.5 0 3.9-.2 7-.7.6-.1 1-.2 1-.5z" fill="#fcfcfc"/><path d="m458.1 46c-3.4-3.2-5.1-7.5-5.1-12.6 0-5 1.5-9.3 4.5-12.6 3.1-3.4 7.3-5.2 12.3-5.2 4.3 0 8.1 1.6 11.1 4.8 3 3.1 4.5 7 4.5 11.2 0 1.2-.2 2.2-.7 3.2-.5.9-1.5 1.6-2.5 1.8-.2 0-.7.1-1.6.2.3.3.5.6.8 1 .4.6.9 1.4 1.4 2.3.5 1 .9 1.8 1.2 2.4.3.7.5 1.1.5 1.9 0 .6-.2.9-.4 1.1s-.3.4-.5.6c-2.9 3.1-7.2 4.5-12.7 4.5 0 0 0 0-.1 0-5 0-9.4-1.5-12.7-4.6zm1.7-23.2c-2.5 2.7-3.7 6.1-3.7 10.5 0 4.5 1.4 7.9 4.1 10.5 2.7 2.5 6.2 3.8 10.7 3.8 5 0 8.4-1.2 10.5-3.5 0-.1-.1-.3-.2-.4-.2-.5-.6-1.3-1.1-2.2-.4-.8-.8-1.4-1.1-1.9-.4.3-.8.5-1.3.8-2 1.1-4.1 1.6-6.2 1.6-1.7 0-3.3-.3-4.7-1-1.7-.8-3.1-2.3-3.4-4.1l-.4-1.7 1.7-.1c4.8-.4 8.4-.7 10.8-.9 4-.4 6.2-.6 6.2-.6.3-.1.3-.1.5-.4.1-.3.3-.8.3-1.7 0-3.6-1.2-6.5-3.7-9.2-2.5-2.6-5.4-3.8-8.9-3.8-4.3.1-7.6 1.5-10.1 4.3zm8.3 15.6c1 .5 2.1.7 3.4.7 1.5 0 3.1-.4 4.8-1.3.4-.2.8-.5 1.2-.7-.5.1-1 .1-1.6.2-2 .2-4.8.5-8.4.8.2.1.4.2.6.3zm-4.6-6.6c-.5-.5-.7-1.2-.7-1.7 0-1.6.5-3.2 1.5-4.4 1-1.4 2.7-2.2 4.4-2.2 1.6 0 3.2.7 4.3 1.9s1.8 2.7 1.8 4.4c0 1-.7 1.5-1.1 1.6-.4.2-.8.3-1.2.3-3.2.5-5.6.7-7.3.7-.5 0-1.2-.1-1.7-.6zm3.2-4.3c-.4.6-.7 1.2-.8 1.9 1.3-.1 3.3-.3 5.7-.6-.1-.5-.4-.9-.8-1.4-.7-.7-1.3-.9-2.1-1-.8.1-1.4.3-2 1.1z" fill="#9fcfff"/><path d="m186.2 88.2c0 4.1-1.7 7.7-5.2 10.7-3.1 2.6-6.8 4.3-11.2 5-.2 0-.3 0-.4 0-.5 0-1.5-1.4-3.1-4.3s-2.4-4.6-2.4-5.3c0-.2.2-.4.5-.4 3-.7 4.9-1.2 5.9-1.7 2.1-1.1 3.2-2.6 3.2-4.7 0-1.3-.7-2.8-2.1-4.4-2.4-2.8-3.7-4.3-3.9-4.6-1.4-2.1-2.1-4.5-2.1-7.1 0-3.7 1.7-6.8 5.2-9.3 2.8-2 6.3-3.4 10.4-4h.5c.3 0 .6.2.7.7.5 1.5 1.8 4.2 3.7 8.1.1.1.1.2.1.3 0 .3-.2.5-.6.5-.2 0-.4 0-.8-.1s-.7-.1-.9-.1c-1.5 0-2.8.3-3.9 1-1.3.8-2 1.9-2 3.2 0 1.2.7 2.8 2.2 4.6 2.6 3.3 4 5 4.1 5.1 1.4 2.3 2.1 4.5 2.1 6.8z" fill="#fcfcfc"/><path d="m167.9 104.7c-.3-.3-.6-.6-.9-1-.6-.8-1.3-1.9-2.1-3.4s-1.4-2.6-1.9-3.6c-.4-1-.7-1.5-.7-2.4 0-.5.2-1 .6-1.4.4-.3.8-.5 1-.5 2.9-.7 4.9-1.2 5.5-1.6 1.8-.9 2.3-1.8 2.4-3.4 0-.8-.5-2-1.7-3.5-1.2-1.4-2.1-2.5-2.8-3.3s-1-1.2-1.2-1.5c-1.6-2.4-2.4-5-2.4-7.9 0-4.2 2.1-7.9 5.8-10.5 3-2.2 6.8-3.6 11.1-4.3h.1.7c.6 0 1.1.3 1.5.6.3.3.5.7.7 1.1.5 1.4 1.7 4.1 3.6 7.9.1.2.2.5.2 1 0 .4-.1 1-.6 1.5-.5.4-1 .5-1.4.5-.3 0-.6 0-1.1-.1-.4-.1-.6-.1-.7-.1-1.2 0-2.2.3-3.1.8-1 .6-1.2 1.1-1.2 2 0 .6.5 2 1.9 3.7 2.6 3.3 3.9 5 4.1 5.2v.1c1.6 2.4 2.4 5 2.4 7.5 0 4.6-2 8.6-5.8 11.8-3.3 2.8-7.3 4.6-11.9 5.3-.2 0-.4 0-.6 0-.9.1-1.2-.3-1.5-.5zm-2.1-9.2c.4.8 1 1.9 1.8 3.4 1 1.8 1.8 3 2.2 3.5 4.1-.7 7.4-2.2 10.2-4.6 3.2-2.8 4.7-5.8 4.7-9.5 0-1.9-.6-3.8-1.9-5.9-.2-.3-1.6-2-4-5.1-1.6-1.9-2.5-3.7-2.5-5.5 0-1.9 1.1-3.6 2.7-4.5 1.4-.8 2.9-1.2 4.6-1.2h.1c-1.4-2.9-2.4-5-2.9-6.4-3.8.6-6.9 1.8-9.5 3.7-3.2 2.3-4.5 4.8-4.6 8.1 0 2.3.6 4.3 1.9 6.2 0 0 0 0 .1.1s.1.2.2.3c.2.2.4.5.8.9.6.8 1.6 1.8 2.8 3.2 1.5 1.8 2.4 3.5 2.4 5.4.1 2.6-1.5 4.9-4 6.1-1.1.5-2.7 1-5.2 1.6 0-.1 0 0 .1.2z" fill="#9fcfff"/><path d="m211.6 93.3c0 .6-.1 1.5-.2 2.8s-.2 2.2-.2 2.7-.1 1-.2 1.1c-.1.2-.5.4-1 .7-2.6 1.5-5.6 2.2-8.8 2.2-5.9 0-8.9-2.3-8.9-6.8 0-1.3.1-3.4.2-6.1s.2-4.7.2-6.1c0-.9-.5-1.3-1.6-1.3-.1 0-.2 0-.4 0s-.3 0-.4 0c-.8 0-1.2-.3-1.2-.8 0-.3 0-.8.1-1.5s.1-1.2.1-1.5c0-.4 0-1.1-.1-2s-.1-1.5-.1-2c0-.4.7-.6 2-.7.7 0 1.1-.2 1.2-.6.1-.8.2-2 .1-3.7-.1-2.6-.1-3.9-.1-3.8 0-2.4.2-3.6.7-3.6.6 0 1.3.1 2.4.4 1.2.3 2 .4 2.4.5 1 .1 2.6.3 4.7.6.5 0 .8.2.8.5 0 .8-.1 2.1-.2 3.7-.1 1.7-.2 2.9-.2 3.7 0 1 .3 1.5.9 1.5.7 0 1.8 0 3.2-.1s2.5-.1 3.3-.1c.4 0 .7.2.7.5 0 .5-.1 1.2-.2 2.1s-.2 1.6-.2 2.1v2.1 2.1c0 .4-.3.6-.9.6-.4 0-1.1 0-2.1 0s-1.6 0-2.1 0h-2.3c-.3 0-.5.4-.5 1.3v2.2 2.2c0 1.7.2 2.9.6 3.6.6.9 1.6 1.3 3.2 1.3.5 0 1.2-.1 2.2-.4.9-.2 1.6-.4 2-.4.7.3.9.5.9 1z" fill="#fcfcfc"/><path d="m201.2 104.3c-3.1 0-5.7-.6-7.6-2s-2.8-3.7-2.8-6.3c0-1.4.1-3.4.2-6.1.1-2.6.1-4.6.1-5.9 0 0 0 0-.1 0s-.2 0-.3 0c-.2 0-.3 0-.5 0-.6 0-1.1-.1-1.7-.5s-1-1.2-.9-1.8c0-.4 0-.9.1-1.6s.1-1.1.1-1.4c0-.4 0-1-.1-1.9s-.1-1.6-.1-2c0-.5.3-1.1.6-1.3.3-.3.6-.4.9-.5.5-.2 1.1-.2 1.7-.3 0-.4.1-1 .1-1.6 0-.3 0-.7 0-1.1-.1-2.1-.1-3.4-.1-3.7v-.1-.1c0-1.8 0-2.8.6-3.9.2-.4.7-1 1.6-1 .8 0 1.6.2 2.7.4 1.1.3 1.9.4 2.2.4 1 .1 2.6.3 4.6.6.4 0 .8.1 1.3.4s.9 1 .8 1.6c0 .9-.1 2.2-.2 3.8s-.2 2.9-.2 3.6c.6 0 1.5 0 2.6-.1 1.5-.1 2.6-.1 3.3-.1.4 0 .8 0 1.4.4.5.3.9 1.1.8 1.6 0 .6-.1 1.3-.2 2.3-.1.9-.1 1.6-.1 2v2.1 2.2c0 .5-.3 1.3-.8 1.7-.6.4-1.1.4-1.5.4s-1.1 0-2.1 0-1.6 0-2 0h-1.3v2 2.2c0 1.6.2 2.6.4 2.8.2.3.6.6 2 .6.3 0 .9-.1 1.8-.3 1-.2 1.7-.4 2.4-.4.5 0 1.1.1 1.6.6s.6 1.1.6 1.5c0 .7-.1 1.7-.2 3-.2 1.2-.2 2.1-.2 2.6 0 .7.1 1.2-.5 2-.5.6-.9.7-1.5 1.1-2.9 1.3-6.1 2.1-9.5 2.1zm-10.6-23.3h.4c.7 0 1.5.1 2.2.7s.9 1.4.9 2.1c0 1.4-.1 3.4-.2 6.1s-.2 4.7-.2 6c0 1.9.6 3.1 1.6 3.9 1.1.8 3 1.4 5.7 1.4 3 0 5.6-.7 8-2 .2-.1.3-.2.4-.2 0-.1 0-.2 0-.3 0-.7.1-1.6.2-2.9.1-.6.1-1.2.2-1.6-.2 0-.5.1-.7.2-1 .2-1.8.4-2.6.4-1.8 0-3.6-.5-4.5-2.1-.6-1.2-.8-2.5-.8-4.3 0-.4 0-1.2 0-2.2s0-1.7 0-2.2c.1-.8-.1-1.4.7-2.3.3-.3.8-.5 1.3-.5h2.3 2.1 1.4c0-.4 0-.8 0-1.2 0-.9 0-1.7 0-2.2 0-.6.1-1.3.2-2.3 0-.3.1-.6.1-.9-.6 0-1.4 0-2.3.1-1.5.1-2.6.1-3.3.1s-1.6-.5-2-1.1-.4-1.2-.4-1.9c0-.9.1-2.2.2-3.9.1-1.1.1-2 .2-2.7-1.8-.2-3.2-.4-4.2-.5-.6-.1-1.4-.2-2.6-.5-.4-.1-.8-.2-1.1-.2 0 .5-.1 1.1-.1 1.9v.2.7c0 .6.1 1.6.1 2.8v1.2c0 1.1 0 2-.2 2.7-.1.7-.6 1.3-1.1 1.5-.5.3-1 .3-1.5.3-.2 0-.3 0-.5 0 0 .3 0 .6.1 1 .1.9.1 1.6.1 2.1 0 .4 0 .9-.1 1.6zm3.1-15.1" fill="#9fcfff"/><path d="m246.3 74.4c0 1.5-.1 3.8-.2 6.8s-.2 5.3-.2 6.8.1 3.7.2 6.6.2 5.1.2 6.6c0 .6-.3.9-.8 1-.8.2-2.4.3-4.9.3-2.2 0-3.8-.1-4.7-.2-.4-.1-.6-.3-.7-.7-.1-.6-.1-1.2-.2-1.8-.1-.9-.2-1.4-.4-1.4.3 0-.7.7-3.1 2.1s-4.5 2.1-6.4 2.1c-5.4 0-8.6-2.4-9.6-7.3-.4-2.3-.7-5.6-.7-9.9 0-4.7.4-8.3 1.1-11 .2-.8.6-1.3 1.3-1.3h4.3 4.3c.6 0 1 .3 1 .8 0 .1 0 .4-.1.6-.4 2.8-.6 5.6-.6 8.5 0 3.6.1 6 .3 7.3.4 2.2 1.7 3.4 4 3.4.9 0 1.9-.4 2.9-1.2s1.6-1.6 1.6-2.5c0-.8.1-5.9.1-15.4 0-.7.1-1.1.2-1.2.1-.2.5-.3 1.1-.3h4.5 4.5c.6 0 1 .2 1.1.5-.1.2-.1.5-.1.8z" fill="#fcfcfc"/><path d="m235.6 103.9c-1-.1-1.8-1-2-1.9v-.1-.1c0-.3-.1-.6-.1-.8-.4.2-.9.5-1.4.8-2.5 1.5-4.9 2.3-7.2 2.3-2.9 0-5.4-.7-7.4-2.1-1.9-1.5-3.2-3.7-3.7-6.4-.5-2.4-.7-5.8-.7-10.2 0-4.7.4-8.5 1.2-11.4.2-.6.4-1.1.9-1.6s1.2-.8 1.8-.8h4.3 4.3c.5 0 1.1.1 1.7.5.6.5.8 1.2.8 1.7 0 .3 0 .5-.1.9-.4 2.7-.6 5.4-.6 8.2 0 3.5.1 5.9.3 7.1.2.9.4 1.3.8 1.6.3.3.8.5 1.8.5.4 0 1.1-.2 2-.9s1-1.1 1-1.4c0-.6.1-5.8.1-15.3 0-.4 0-.7 0-1 .1-.3 0-.5.3-1 .4-.6.9-.8 1.3-.9s.7-.1 1.1-.1h4.5 4.5c.4 0 .9 0 1.3.2.5.2 1 .6 1.2 1.2v.1.1c.1.4.1.7.1 1.1 0 1.6-.1 3.8-.2 6.9-.1 3-.2 5.3-.2 6.7s0 3.6.2 6.6c.1 2.9.2 5.2.2 6.6 0 .5-.1 1.1-.5 1.6s-.9.8-1.4.9c-1.1.3-2.7.3-5.3.4-2.2.2-3.8.1-4.9 0zm-1.1-7h.1c.1 0 .3 0 .5.1h.1c.1 0 .2.1.3.2.2.1.3.3.4.4.2.3.3.5.3.7.1.4.2.8.2 1.3 0 .4.1.9.1 1.3.8.1 2.2.1 4 .1 2 0 3.5-.1 4.2-.2 0-1.4-.1-3.5-.2-6.2-.1-3-.2-5.2-.2-6.7 0-1.6.1-3.8.2-6.9.1-2.8.2-5 .2-6.4-1 0-2.4 0-4.2 0-1.9 0-3.3 0-4.3 0 0 9.5 0 14.6-.1 15.5-.1 1.5-1 2.7-2.2 3.6s-2.5 1.5-3.8 1.5c-1.4 0-2.7-.3-3.7-1.2-1-.8-1.6-2.1-1.8-3.4-.3-1.5-.4-3.9-.4-7.5 0-2.8.2-5.7.6-8.4-.9 0-2.1 0-3.7 0-1.8 0-3.1 0-4 0 0 0 0 .1-.1.2-.7 2.5-1.1 6.1-1.1 10.6 0 4.3.2 7.5.6 9.6.5 2.2 1.3 3.6 2.6 4.6s3.1 1.5 5.6 1.5c1.6 0 3.4-.6 5.6-1.9 1.6-.9 2.8-1.8 2.8-1.8z" fill="#9fcfff"/><path d="m283.9 58.8c0-.4-.1.2-.2 2-.2 2.3-.4 5.2-.5 8.7-.2 4-.2 8.6-.2 13.7 0 8.4.2 14.4.7 18 0 .4.1.6.1.7 0 .2-.2.4-.5.4-.7.1-3.4.2-8.1.2-1.1 0-1.7-.2-1.9-.6 0-.8-.1-1.6-.1-2.3 0-.2-.1-.3-.2-.5-.1.1-.3.2-.5.4-2.2 2.2-5 3.2-8.3 3.2-4.3 0-7.8-1.5-10.4-4.5-2.5-2.9-3.7-6.5-3.7-10.9 0-4.5 1.2-8.1 3.6-11 2.6-3.1 6-4.6 10.4-4.6 3.1 0 5.5 1 7.2 2.9.3.3.5.5.6.5.2 0 .3-.3.3-.8 0-1.6 0-3.9-.1-7.1-.1-3.1-.1-5.5-.1-7 0-.6.2-.9.5-1 1.3-.1 3.1-.2 5.4-.4 4.1-.5 5.9-.8 5.4-.8.4 0 .6.3.6.8zm-11.6 28.1c0-1.6-.6-3-1.7-4.2s-2.5-1.8-4.1-1.8c-1.7 0-3 .6-4 1.8s-1.5 2.7-1.5 4.4.5 3.1 1.5 4.2c1 1.2 2.4 1.8 4 1.8s3-.6 4.1-1.8c1.2-1.3 1.7-2.7 1.7-4.4z" fill="#fcfcfc"/><path d="m285.3 59v.3c0 .3-.1.9-.2 1.6-.2 2.2-.4 5.1-.5 8.6-.2 4-.2 8.5-.2 13.6 0 8.4.2 14.4.7 17.9 0 .4.1.6.1.9 0 .4-.2 1.1-.6 1.4s-.8.4-1.1.5c-1 .1-3.6.2-8.3.2-.6 0-1.2-.1-1.8-.2-.5-.2-1.2-.6-1.5-1.4l-.1-.2v-.2c-2.2 1.5-4.8 2.3-7.6 2.2h-.1c-4.6 0-8.6-1.7-11.4-5.1-2.7-3.2-4.1-7.2-4.1-11.9s1.3-8.8 4-12c2.8-3.4 6.9-5.2 11.6-5.1 2.5 0 4.8.6 6.6 1.9 0-1.3-.1-2.9-.1-4.7-.1-3.1-.1-5.5-.1-7.1 0-.4 0-.9.3-1.4.2-.5.8-1 1.4-1.1h.1.2c1.3-.1 3-.2 5.3-.4 3.1-.4 5-.6 5.2-.7l.3-.1h.1c.5 0 1.1.2 1.6.7.4.4.5.9.5 1.3v.1.2zm-30.5 18.1c-2.2 2.6-3.3 5.8-3.3 10 0 4.1 1.1 7.3 3.3 9.9 2.3 2.7 5.3 4 9.2 4 3 0 5.3-.9 7.2-2.8.2-.2.5-.5.9-.7l1-.5.8.9c.3.3.5.7.6 1.3v.1.1c0 .5.1 1 .1 1.5h.4c3.3 0 5.7 0 7-.1-.4-3.7-.7-9.6-.7-17.7 0-5.1.1-9.7.2-13.7.1-3.6.3-6.5.5-8.8 0-.4.1-.7.1-1h-.1c-.9.1-2.3.3-4.1.5-1.8.1-3.3.3-4.5.3 0 1.5 0 3.7.1 6.5.1 3.1.1 5.5.1 7.1-.1.5.1 1-.6 1.8-.3.3-.8.5-1.2.5-.7 0-1-.3-1.2-.4-.2-.2-.4-.3-.6-.6-1.4-1.6-3.3-2.4-6.1-2.4-3.9.2-6.8 1.5-9.1 4.2zm6.7 15.1c-1.2-1.4-1.9-3.2-1.9-5.2s.6-3.8 1.8-5.3c1.2-1.6 3.1-2.4 5.2-2.4 2 0 3.8.8 5.2 2.3 1.4 1.4 2.1 3.3 2.1 5.3s-.7 3.9-2 5.3c-1.3 1.5-3.2 2.4-5.2 2.3h-.1c-2.1.1-3.9-.8-5.1-2.3zm2.2-8.6c-.8 1-1.1 2-1.1 3.4s.4 2.3 1.2 3.2 1.6 1.3 2.8 1.3c1.3 0 2.1-.4 3-1.3.9-1 1.3-2 1.3-3.3s-.4-2.2-1.3-3.2c-.9-.9-1.8-1.3-3-1.3-1.3 0-2.1.4-2.9 1.2z" fill="#9fcfff"/><path d="m299.8 88.2c0 1.5 0 3.7.1 6.7s.1 5.2.1 6.6c0 .4-.3.7-.8.8-.7.1-2.3.2-4.7.2-2.5 0-4-.1-4.7-.2-.5-.1-.7-.2-.8-.4 0-.1-.1-.4-.1-.9 0-1.4 0-3.5.1-6.4s.1-5 .1-6.4c0-5.8-.2-10.4-.7-13.9 0-.3-.1-.5-.1-.6 0-.4.3-.6.8-.6.6 0 1.4.1 2.6.2s2.1.2 2.7.2 1.5-.1 2.7-.2 2.1-.2 2.7-.2c.5 0 .7.2.7.6 0 .1 0 .3-.1.6-.4 4-.6 8.6-.6 13.9zm.8-22.8c0 3.6-2 5.3-6 5.3-1.7 0-3.1-.4-4.3-1.3-1.2-1-1.8-2.3-1.8-4 0-1.6.6-2.9 1.9-3.9 1.2-.9 2.6-1.4 4.2-1.4s3 .5 4.1 1.4c1.2 1 1.9 2.3 1.9 3.9z" fill="#fcfcfc"/><path d="m289.5 103.7c-.6-.1-1.3-.2-1.9-1.2-.2-.6-.2-.6-.2-.9 0-.2 0-.4 0-.7 0-1.4 0-3.6.1-6.4s.1-4.9.1-6.4c0-5.8-.2-10.3-.7-13.7 0-.4-.1-.6-.1-.8 0-.5.3-1.3.8-1.7s1.1-.4 1.5-.4c.6 0 1.3 0 2.2.1-.7-.3-1.4-.7-2-1.1-1.6-1.2-2.4-3.1-2.4-5.2 0-2 .9-3.9 2.5-5.1 1.4-1.2 3.2-1.8 5.1-1.7 1.9 0 3.7.6 5.1 1.8 1.6 1.2 2.4 3.1 2.4 5.1s-.6 3.9-2 5.1c-.6.5-1.3.9-2 1.2.7-.1 1.3-.1 1.7-.1s1 .1 1.5.5.7 1.1.7 1.6c0 .3 0 .4-.1.7-.4 3.9-.7 8.5-.7 13.7 0 1.5 0 3.7.1 6.6.1 3 .1 5.2.1 6.7 0 .5-.2 1.1-.6 1.6-.4.4-1 .6-1.4.7-.9.2-2.5.2-4.9.2s-3.9 0-4.9-.2zm8.9-2.9c0-1.4 0-3.4-.1-6-.1-3-.1-5.2-.1-6.7 0-5.1.2-9.6.6-13.5-.5 0-1 .1-1.7.1-1.2.1-2.1.2-2.8.2s-1.6-.1-2.8-.2c-.7-.1-1.2-.1-1.7-.1.4 3.5.6 8 .6 13.6 0 1.4 0 3.6-.1 6.4-.1 2.7-.1 4.8-.1 6.2.7.1 2.1.1 4.1.1s3.4 0 4.1-.1zm-7.1-38.1c-1 .8-1.3 1.6-1.3 2.8 0 1.3.4 2.1 1.3 2.8.8.7 1.9 1 3.3 1 1.8 0 2.9-.4 3.5-1 .6-.5 1-1.4 1-2.9 0-1.2-.4-1.9-1.3-2.7-.9-.7-1.9-1.1-3.2-1.1-1.4 0-2.4.3-3.3 1.1z" fill="#9fcfff"/><path d="m335.2 87.2c0 4.7-1.4 8.4-4.3 11.3s-6.6 4.4-11.2 4.4c-4.5 0-8.2-1.4-11.1-4.3s-4.4-6.5-4.4-11c0-4.7 1.4-8.6 4.2-11.5 2.8-3 6.5-4.4 11.3-4.4 4.6 0 8.4 1.4 11.2 4.3 2.8 2.8 4.3 6.6 4.3 11.2zm-10.1 0c0-1.6-.5-3-1.5-4.3s-2.3-1.9-3.9-1.9-2.9.6-4 1.9c-1 1.2-1.5 2.6-1.5 4.2 0 1.7.5 3.1 1.5 4.3 1 1.3 2.4 1.9 4 1.9s2.9-.6 4-1.9c.9-1.1 1.4-2.6 1.4-4.2z" fill="#fcfcfc"/><path d="m319.7 104.4c-4.8 0-9-1.6-12.1-4.7-3.2-3.1-4.8-7.3-4.8-12.1 0-5 1.5-9.3 4.6-12.6s7.3-4.9 12.4-4.9c4.9 0 9.1 1.6 12.3 4.8s4.7 7.4 4.7 12.3c0 5-1.6 9.2-4.7 12.4-3.3 3.2-7.5 4.8-12.4 4.8zm-10.2-27.4c-2.5 2.7-3.8 6.1-3.8 10.5 0 4.2 1.3 7.4 3.9 10s5.9 3.8 10 3.9c4.3 0 7.6-1.3 10.2-3.9s3.8-5.9 3.8-10.3c0-4.3-1.3-7.6-3.9-10.2s-5.8-3.9-10.2-3.9c-4.3 0-7.5 1.3-10 3.9zm5.1 15.4c-1.2-1.4-1.8-3.3-1.8-5.2s.6-3.7 1.8-5.2c1.3-1.6 3.1-2.5 5.1-2.4 2 0 3.8.9 5.1 2.4 1.2 1.5 1.8 3.3 1.8 5.2s-.6 3.8-1.8 5.2c-1.3 1.6-3.1 2.5-5.1 2.4h-.1c-1.9 0-3.8-.9-5-2.4zm2.3-8.5c-.8.9-1.1 1.9-1.1 3.3s.4 2.4 1.1 3.3c.8 1 1.6 1.3 2.8 1.4 1.2 0 2-.4 2.8-1.3.7-.9 1.1-1.9 1.1-3.3 0-1.3-.4-2.3-1.2-3.3-.8-.9-1.5-1.3-2.7-1.3-1.2-.1-2 .2-2.8 1.2z" fill="#9fcfff"/></svg>