<svg enable-background="new 0 0 1466.3 456.5" viewBox="0 0 1466.3 456.5" xmlns="http://www.w3.org/2000/svg"><g fill="#919191"><path d="m13.1 24.1h206.4v61.6h-70.5v181.1h-68.8v-181h-67.7z"/><path d="m238.7 24.1h67.7v243.2h-68.8z"/><path d="m327.3 113.3h61.1v47.9h-61.1z"/><path d="m404 213.8 71.3-8.4c1.9 9.3 5 15.9 9.5 19.7s9.9 5.8 16.4 5.8c11.5 0 20.5-5.4 26.9-16.3 4.7-8 8.2-25 10.6-50.8-8.6 8.2-17.4 14.3-26.4 18.1s-19.5 5.8-31.3 5.8c-23.1 0-42.7-7.7-58.6-23-15.9-15.4-23.9-34.8-23.9-58.2 0-16 4.1-30.6 12.2-43.8s19.3-23.1 33.5-29.9c14.2-6.7 32.1-10.1 53.5-10.1 25.8 0 46.6 4.1 62.2 12.4s28.1 21.4 37.4 39.5c9.3 18 14 41.9 14 71.5 0 43.5-9.8 75.4-29.4 95.7-19.6 20.2-46.8 30.4-81.5 30.4-20.5 0-36.8-2.2-48.6-6.7-11.9-4.4-21.7-10.9-29.6-19.5-7.9-8.7-14-19.4-18.2-32.2zm132.1-107.6c0-13.1-3.5-23.3-10.6-30.7-7-7.4-15.6-11.1-25.7-11.1-9.5 0-17.4 3.3-23.7 10s-9.4 16.7-9.4 30.1c0 13.5 3.3 23.8 9.8 30.9s14.6 10.7 24.4 10.7c10.1 0 18.5-3.5 25.2-10.4 6.7-6.8 10-16.7 10-29.5z"/><path d="m626.6 213.8 71.3-8.4c1.9 9.3 5 15.9 9.5 19.7s9.9 5.8 16.4 5.8c11.5 0 20.5-5.4 26.9-16.3 4.7-8 8.2-25 10.6-50.8-8.6 8.2-17.4 14.3-26.4 18.1s-19.5 5.8-31.4 5.8c-23.1 0-42.7-7.7-58.6-23-15.9-15.4-23.9-34.8-23.9-58.2 0-16 4.1-30.6 12.2-43.8s19.3-23.1 33.5-29.9c14.2-6.7 32.1-10.1 53.5-10.1 25.8 0 46.6 4.1 62.2 12.4s28.1 21.4 37.4 39.5c9.3 18 14 41.9 14 71.5 0 43.5-9.8 75.4-29.4 95.7-19.6 20.2-46.8 30.4-81.5 30.4-20.5 0-36.8-2.2-48.6-6.7-11.9-4.4-21.7-10.9-29.6-19.5-7.9-8.7-13.9-19.4-18.1-32.2zm132.1-107.6c0-13.1-3.5-23.3-10.6-30.7-7-7.4-15.6-11.1-25.7-11.1-9.5 0-17.4 3.3-23.7 10s-9.4 16.7-9.4 30.1c0 13.5 3.3 23.8 9.8 30.9s14.6 10.7 24.4 10.7c10.1 0 18.5-3.5 25.2-10.4 6.6-6.8 10-16.7 10-29.5z"/><path d="m922.2 23.6h33.7l-110.1 250.4h-29.8z"/><path d="m1045.1 278.1v-45.1h-130.7v-66.5l135.3-150.2h74.5v148.2h32.4v68.5h-32.4v45.1zm16.5-61.6v45.1h46v-45.1h32.4v-35.5h-32.4v-148.2h-50.6l-126.1 140v43.7m130.7-35.5h-96l96-105.5m-58.7 89h42.1v-46.3z"/><path d="m1354.8 278.1-12.9-39.8h-78.5l-12.6 39.8h-99.7l103.7-257.7h98.2l103.7 257.7zm-.9-56.3 12.9 39.8h65.3l-90.4-224.7h-75.9l-90.4 224.7h63.2l12.6-39.8h96.6v8.3l-7.9 2.5 7.9-2.5v-8.3zm-11.1-35.7h-79.5l39.5-121.5m-16.8 105h33.9l-17.1-51.9z"/><path d="m158.9 381.4 17 1.7c-1.9 9-6.6 16.1-14.2 21.2s-17 7.6-28.1 7.6c-13.9 0-25.1-3.5-33.6-10.5s-12.7-17.1-12.7-30.2c0-8.5 1.8-15.9 5.5-22.2 3.6-6.4 9.2-11.1 16.6-14.3s15.6-4.8 24.3-4.8c11.1 0 20.1 2.2 27.1 6.5s11.5 10.4 13.5 18.4l-16.8 2c-1.6-5.3-4.4-9.2-8.5-11.9s-9-4-14.7-4c-8.7 0-15.8 2.4-21.2 7.2s-8.2 12.4-8.2 22.8c0 10.5 2.6 18.2 7.9 23 5.2 4.8 12.1 7.2 20.5 7.2 6.8 0 12.4-1.6 17-4.8 4.5-3.3 7.4-8.3 8.6-14.9z"/><path d="m184.2 370.9c0-14.5 5.2-25.3 15.7-32.3 8.8-5.8 19.4-8.7 32-8.7 14 0 25.4 3.5 34.3 10.6s13.3 16.8 13.3 29.3c0 10.1-2 18-5.9 23.8s-9.7 10.3-17.2 13.5-15.7 4.8-24.6 4.8c-14.3 0-25.8-3.5-34.6-10.6-8.6-7-13-17.1-13-30.4zm17.8 0c0 10 2.8 17.6 8.5 22.6s12.9 7.5 21.5 7.5 15.7-2.5 21.4-7.5 8.5-12.7 8.5-23c0-9.7-2.9-17.1-8.6-22.1s-12.8-7.5-21.3-7.5c-8.6 0-15.8 2.5-21.5 7.5-5.7 4.9-8.5 12.5-8.5 22.5z"/><path d="m299.9 410.1v-78.5h15.4v11c3.2-3.8 7.4-6.9 12.8-9.3 5.3-2.3 11.3-3.5 18.1-3.5 7.5 0 13.7 1.2 18.6 3.6 4.8 2.4 8.2 5.8 10.2 10.1 8.1-9.2 18.5-13.7 31.5-13.7 10.1 0 17.9 2.2 23.3 6.5s8.2 10.9 8.2 19.9v53.9h-17.2v-49.4c0-5.3-.6-9.1-1.7-11.5-1.1-2.3-3.2-4.2-6.1-5.7-2.9-1.4-6.4-2.1-10.4-2.1-7.2 0-13.1 1.8-17.8 5.5s-7.1 9.5-7.1 17.6v45.6h-17.3v-51c0-5.9-1.4-10.3-4.2-13.3s-7.4-4.4-13.8-4.4c-4.9 0-9.4 1-13.5 3s-7.1 4.9-9 8.6c-1.9 3.8-2.8 9.3-2.8 16.4v40.7z"/><path d="m463.5 440.2v-108.5h15.7v10.2c3.7-4 7.9-7 12.6-9s10.3-3 17-3c8.7 0 16.4 1.7 23 5.2 6.6 3.4 11.7 8.3 15.1 14.6s5.1 13.2 5.1 20.7c0 8-1.9 15.3-5.6 21.7s-9.2 11.4-16.3 14.8-14.6 5.1-22.5 5.1c-5.8 0-10.9-.9-15.5-2.8s-8.3-4.2-11.3-7.1v38.2zm15.7-68.9c0 10.1 2.7 17.6 8 22.4s11.7 7.2 19.3 7.2c7.7 0 14.2-2.5 19.7-7.5s8.2-12.7 8.2-23.2c0-10-2.7-17.5-8-22.5s-11.7-7.5-19.1-7.5-13.9 2.6-19.5 7.9c-5.8 5.4-8.6 13.1-8.6 23.2z"/><path d="m639.5 410.1v-11.5c-7.9 8.9-18.7 13.3-32.3 13.3-6 0-11.6-.9-16.8-2.7s-9.1-4-11.6-6.7-4.3-6-5.3-9.9c-.7-2.6-1.1-6.7-1.1-12.4v-48.6h17.3v43.5c0 6.9.4 11.6 1.1 14 1.1 3.5 3.4 6.2 6.9 8.2s7.9 3 13 3 10-1 14.6-3.1c4.5-2 7.8-4.8 9.6-8.4 1.9-3.5 2.8-8.6 2.8-15.3v-42h17.3v78.5z"/><path d="m719.7 398.2 2.5 11.8c-4.9.8-9.2 1.2-13 1.2-6.3 0-11.1-.8-14.6-2.3s-5.9-3.5-7.3-6-2.1-7.7-2.1-15.7v-45.2h-12.7v-10.3h12.7v-19.4l17.2-8v27.4h17.4v10.3h-17.4v45.9c0 3.8.3 6.2.9 7.3s1.6 1.9 3 2.6c1.4.6 3.3 1 5.9 1 1.8 0 4.4-.2 7.5-.6z"/><path d="m806.3 384.9 17.8 1.7c-2.8 8-8 14.3-15.6 18.7s-17.3 6.6-29.2 6.6c-14.9 0-26.7-3.5-35.4-10.6s-13.1-17-13.1-29.7c0-13.2 4.4-23.5 13.2-30.7 8.8-7.3 20.3-10.9 34.3-10.9 13.6 0 24.7 3.6 33.4 10.7 8.6 7.1 12.9 17.2 12.9 30.1 0 .8 0 2-.1 3.5h-76c.6 8.6 3.8 15.2 9.5 19.8s12.8 6.9 21.3 6.9c6.3 0 11.7-1.3 16.2-3.8 4.6-2.6 8.2-6.7 10.8-12.3zm-56.7-21.5h56.9c-.8-6.6-2.9-11.6-6.5-14.9-5.5-5.1-12.6-7.7-21.4-7.7-7.9 0-14.6 2-20 6.1s-8.4 9.6-9 16.5z"/><path d="m845.6 410.1v-78.5h15.5v11.9c4-5.6 7.6-9.2 11-11s7.1-2.7 11.1-2.7c5.8 0 11.7 1.4 17.7 4.3l-5.9 12.3c-4.2-1.9-8.4-2.9-12.7-2.9-3.8 0-7.2.9-10.2 2.6-3 1.8-5.1 4.2-6.4 7.3-1.9 4.7-2.9 9.9-2.9 15.5v41.1z"/></g></svg>