<svg enable-background="new 0 0 501.9 74.4" viewBox="0 0 501.9 74.4" xmlns="http://www.w3.org/2000/svg"><g fill="#f00" stroke="#000" transform="translate(-4.383546 -772.49433)"><path d="m72.6 831.4c0 4.3-1.3 7.7-3.9 10.4-2.6 2.6-6.1 3.9-10.5 3.9h-51.2v-14.3h51.2v-14.3h-38.1c-4.2 0-7.6-1.3-10.3-4-2.6-2.7-3.9-6.1-3.9-10.3v-14.4c0-2 .4-3.9 1.2-5.7s1.8-3.3 3.1-4.5c1.3-1.3 2.8-2.3 4.5-3s3.5-1.1 5.4-1.1h47.7v14.3h-47.7v14.4h38.1c2 0 3.9.4 5.7 1.1s3.3 1.7 4.6 3 2.3 2.8 3.1 4.5c.7 1.8 1.1 3.7 1.1 5.7z"/><path d="m155.8 845.7h-57.4c-9.5 0-14.3-4.8-14.3-14.3v-43.1c0-2 .4-3.9 1.2-5.7s1.8-3.3 3.1-4.5c1.3-1.3 2.8-2.3 4.5-3s3.6-1.1 5.5-1.1h55v14.3h-55v43.1h43v-14.3h-28.5v-14.3h43z"/><path d="m209.7 817.1h-43v-14.3h43z"/><path d="m259.5 845.7h-43v-14.3h14.5v-43.1h-14.4v-14.3h28.7v57.4h14.2z"/><path d="m283.4 774c-1.9 0-3.7.4-5.4 1.1s-3.2 1.7-4.5 3-2.3 2.8-3.1 4.5c-.8 1.8-1.2 3.7-1.2 5.7v43.1c0 9.5 4.7 14.3 14.2 14.3h43c9.5 0 14.3-4.8 14.3-14.3v-43.1c0-2-.4-3.8-1.1-5.6s-1.8-3.3-3-4.6c-1.3-1.3-2.8-2.3-4.6-3.1-1.8-.7-3.6-1.1-5.6-1.1h-43zm0 14.3h43v43.1h-43z"/><path d="m365.6 774c-1.9 0-3.7.4-5.4 1.1s-3.2 1.7-4.5 3-2.3 2.8-3.1 4.5c-.8 1.8-1.2 3.7-1.2 5.7v43.1c0 9.5 4.7 14.3 14.2 14.3h43c9.5 0 14.3-4.8 14.3-14.3v-43.1c0-2-.4-3.8-1.1-5.6s-1.8-3.3-3.1-4.6-2.8-2.3-4.6-3.1c-1.8-.7-3.6-1.1-5.6-1.1h-42.9zm0 14.3h43v43.1h-43z"/><path d="m447.9 774c-1.9 0-3.7.4-5.4 1.1s-3.2 1.7-4.5 3-2.3 2.8-3.1 4.5c-.8 1.8-1.2 3.7-1.2 5.7v43.1c0 9.5 4.7 14.3 14.2 14.3h43c9.5 0 14.3-4.8 14.3-14.3v-43.1c0-2-.4-3.8-1.1-5.6s-1.8-3.3-3-4.6c-1.3-1.3-2.8-2.3-4.6-3.1-1.8-.7-3.6-1.1-5.6-1.1h-43zm0 14.3h43v43.1h-43z"/></g></svg>