<svg enable-background="new 0 0 504 160" viewBox="0 0 504 160" xmlns="http://www.w3.org/2000/svg" xmlns:xlink="http://www.w3.org/1999/xlink"><linearGradient id="a" gradientTransform="matrix(1 0 0 -1 0 458.7688)" gradientUnits="userSpaceOnUse" x1="305.3378" x2="305.3378" y1="437.8022" y2="383.6634"><stop offset="0" stop-color="#fff"/><stop offset=".7908" stop-color="#ffa102"/></linearGradient><path d="m107.3 104.3-41 39.7-.5.4h-53.7l121.4-129.2v58.5l49.4-55.1v85.1h2.1l35.6-79h84.7l-12.8 28.5h-49.7l-7.8 17.8h27.1l-12.7 29.5h-22.6l-7.7 17.2h103.2l7.7-17.2h-47.8l33.1-75.8h85.3l-12.4 28.5h-51.3l-7.7 17.8h47.6l-20.4 46.7h60.6l7.7-17.2h-47.8l33.1-75.8h84l-12.4 28.5h-49.3l-7.8 17.8h47l-32.3 73.5h-291.4v-39.9l-40.5 42.3zm-42.1 38.6v-1.6z" fill="#ffe5c0"/><path d="m104.5 115.5-33 31.9-1.8 1.8h-66.7l137-145.8v58l49.4-55.1v80.2l29.9-66.5h94.7 94.6 94.4l-16.5 38h-49.3l-3.6 8.3h47l-36.4 82.9h-299.2v-32.9l-40.5 42.3zm-37.4 27.5v-6.3zm271.1-76.7h47.6l-20.4 46.7h50.3l3.5-7.7h-47.8l20.7-47.3h-50.3zm-110 46.7h92.9l3.5-7.7h-47.8l26.5-60.5-6 13.2h-49.7l-3.6 8.3h27.1l-16.8 39h-22.7z" fill="#f7f7f7"/><path d="m107.1 109.9-37 35.8-1.1 1.1h-60.3l129.2-137.5v58.2l49.4-55.1v85l33.8-75.1h89.9l-14.9 33.2h-49.7l-5.7 13.1h27.1l-14.8 34.3h-22.6l-5.6 12.5h98.1l5.6-12.5h-47.8l35.2-80.5h90.4l-14.4 33.2h-51.3l-5.7 13.1h47.6l-20.5 46.6h55.5l5.6-12.5h-47.8l35.2-80.5h89.1l-14.4 33.2h-49.3l-5.7 13.1h47l-34.4 78.2h-295.2v-36.4l-40.5 42.3zm-39.8 33v-3.9z" fill="#a05f00"/><path d="m109.9 102.9-41.8 40.3-.3.3h-52.9l120.4-127.8v58.5l49.5-55.1v84.5h2.8l35.7-79h84l-12.5 27.7h-49.8l-8.1 18.6h27.2l-12.4 28.7h-22.7l-8.1 18h104.3l8.1-18h-47.9l32.9-75h84.7l-12.1 27.7h-51.5l-8.1 18.6h47.7l-20.5 46.7h61.6l8.1-18h-47.9l32.9-75h83.3l-12.1 27.7h-49.4l-8.1 18.6h47.1l-32 72.7h-291.5v-40.6l-40.6 42.3zm-42.6 39.4v-1.2z" fill="#f7f7f7"/><path d="m68.1 141.4 43.3-41.5v40.8l40.9-41.9v43.4h288l30.9-69.6h-47l9.1-20.9h49.3l11-25.3h-79.8l-31 71.9h47.8l-9.8 21.1h-64.8l20.4-46.7h-47.6l9.1-20.9h51.3l11-25.3h-81.1l-31 71.9h47.1l-9.8 21.1h-106.6l9.5-21.1h22.6l11-25.6h-27.2l9.1-20.9h49.7l11.4-25.3h-80.5l-35.6 79h-5.4v-82.9l-49.4 55.1v-58.6l-115.4 122.2z" fill="#ffa102"/><path d="m221.3 32.4c22.9-1.8 50.4 3 73 18.3l11-24.4h-81.2zm192.2-6.2-6 13.6c24-2.6 56.6-2.9 76.5 9.5l10-23.1zm-105.7 25.4c37.1.1 49.9-1.8 71.5-7.1 2.8-.7 8-1.8 14.8-2.8l6.7-15.4h-81.9zm-173.4-14.8v-17.6l-17.8 19c5.7-1.1 11.4-1.9 17.8-1.4zm41.4 17.4c1.2-3.7 4-7.1 8-10.1v-21.4l-21 23.5c4 2.2 8.3 4.8 13 8z" fill="url(#a)"/></svg>