<svg enable-background="new -0.57 -0.5 568 93.173" height="93.173" viewBox="-.57 -.5 568 93.173" width="568" xmlns="http://www.w3.org/2000/svg" xmlns:xlink="http://www.w3.org/1999/xlink"><linearGradient id="a"><stop offset="0" stop-color="#fff"/><stop offset="1" stop-color="#ccc"/></linearGradient><linearGradient id="b" gradientUnits="userSpaceOnUse" x1="176.729" x2="176.729" xlink:href="#a" y1=".000488" y2="92.5005"/><linearGradient id="c" gradientUnits="userSpaceOnUse" x1="413.6333" x2="413.6333" xlink:href="#a" y1=".0874" y2="92.5874"/><linearGradient id="d" gradientUnits="userSpaceOnUse" x1="477.2065" x2="477.2065" xlink:href="#a" y1=".0874" y2="92.5874"/><linearGradient id="e" gradientUnits="userSpaceOnUse" x1="540.7222" x2="540.7222" xlink:href="#a" y1=".0874" y2="92.5874"/><path d="m18.421 92.138 1.372-18.127h7.505l1.511 18.127h18.522l-11.611-91.688h-23.933l-11.787 91.688zm7.792-33.256h-5.337l2.706-35.629zm51.342-58.432h-25.806v91.688h17.652v-52.217l7.301 52.216h11.463l7.014-51.932v51.932h17.651v-91.687h-25.843l-4.799 40.498zm38.488 11.158c-.012 6.318-.084 12.634-.033 18.955.033 1.033.096 2.065.156 2.808.134 1.565.257 2.042.518 3.058.268 1.004.72 2.259 1.432 3.368.334.531.71 1.036 1.269 1.646s1.301 1.325 2.083 1.993c1.611 1.394 3.367 2.47 5.129 3.399 3.851 2.129 7.678 4.232 11.555 6.391.52.329 1.071.605 1.619 1.137 1.332 1.28 1.328 2.768 1.309 4.191l.074 1.98.028 12.414c.012.907-.075 1.803-.512 2.766-.149.279-.354.539-.6.75-.782.65-1.768.822-2.742.433-.3-.125-.576-.306-.81-.53-.982-.945-.869-2.287-1.01-3.439l-.008-18.684h-19.514l.02 20.92c.016 2.568.033 5.002.589 7.519.299 1.297.776 2.646 1.5 3.853s1.691 2.272 2.826 3.105c1.134.832 2.434 1.43 3.461 1.785 1.028.354 1.784.467 2.54.558s1.511.19 2.269.19h19.826c.898 0 1.798.039 2.905-.266 1.109-.304 2.422-.844 3.557-1.564 1.137-.723 2.096-1.625 2.756-2.594.66-.967 1.023-2.002 1.336-2.934s.574-1.763.765-2.872c.191-1.108.313-2.493.382-3.881.066-1.388.033-2.774.033-4.163v-14.697c0-.275 0-.553-.008-1.174-.006-.621-.018-1.586-.061-2.689s-.118-2.344-.186-3.146c-.067-.801-.127-1.163-.201-1.522s-.164-.715-.265-1.069c-.101-.353-.212-.704-.495-1.312-.281-.607-.733-1.474-1.278-2.277-.544-.804-1.18-1.546-1.89-2.208-.711-.661-1.496-1.24-2.37-1.838-1.807-1.227-3.822-2.482-5.766-3.56l-8.284-4.52c-.499-.272-.991-.557-1.466-.869-.476-.313-.935-.647-1.211-.857-.497-.379-.498-.429-.707-.651-.082-.093-.161-.188-.298-.413-.312-.497-.689-1.371-.759-2.11-.049-.397-.007-.797-.007-1.198.005-2.886-.015-5.865.014-8.657-.017-.65-.001-1.393.24-2.087.111-.341.257-.671.438-.949.94-1.257 2.065-1.441 3.305-.92.282.147.542.359.762.606s.4.527.529.83c.128.302.206.625.257 1.072.105.921.114 2.188.107 3.302v10.903h19.598c-.021-5.63.068-11.255-.063-16.891-.055-1.304-.149-2.607-.229-3.466-.079-.859-.145-1.273-.227-1.684-.085-.411-.185-.817-.301-1.221-.116-.403-.245-.803-.553-1.489-.307-.686-.79-1.657-1.424-2.523s-1.419-1.625-2.302-2.24c-.884-.615-1.865-1.084-2.707-1.387-1.657-.569-2.919-.665-4.359-.849-.706-.075-1.414-.145-2.124-.139l-16.964.136c-1.947.063-3.875.305-5.903.873-.618.189-1.198.427-1.75.719-1.11.606-2.034 1.269-2.993 2.447-.483.599-.994 1.363-1.413 2.174-.847 1.661-1.354 3.472-1.394 5.258m47.933-11.158v14.789h9.775v76.898h19.598v-76.898h9.701v-14.789zm65.204 0h-20.866v91.688h19.569v-36.547c1.282.049 2.563-.108 3.863.293.274.098.531.246.752.435.904.776.834 1.767.973 2.703.17 1.881.037 3.771.084 5.653v27.462h19.568l-.018-28.663c-.031-2.825-.223-5.624-.839-8.45-.173-.638-.402-1.276-.688-1.905-.433-1.004-1.019-1.943-1.732-2.771-.713-.829-1.554-1.549-2.482-2.126s-1.947-1.011-3.006-1.285c.511-.127 1.017-.287 1.519-.48 1.007-.383 1.952-.93 2.786-1.612.833-.683 1.555-1.502 2.127-2.415.57-.913.993-1.919 1.248-2.966.209-.75.384-1.504.525-2.262.459-3.09.623-6.187.561-9.291v-9.6c.061-1.895-.029-3.802-.271-5.699-.118-.945-.274-1.886-.442-2.666-.167-.781-.346-1.402-.578-2.004s-.516-1.184-.846-1.737c-.331-.554-.709-1.079-1.129-1.569-.656-.7-1.396-1.321-2.201-1.844-1.67-1.083-3.544-1.688-5.393-1.846-4.354-.508-8.721-.365-13.084-.496m-1.297 14.908c.924.007 1.841.018 2.768.022.442.04.895.152 1.333.35 1.273.838 1.338 1.902 1.454 2.93.082 1.154.078 2.315.117 3.474-.016 4.017.051 8.032-.047 12.048-.01.717-.07 1.432-.177 2.146-.033.334-.131.663-.288.96-.156.297-.371.563-.629.779-.592.533-1.38.56-2.091.644-.81.077-1.627.086-2.44.029zm47.692 76.78 1.371-18.127h7.507l1.51 18.127h18.521l-11.609-91.688h-23.935l-11.785 91.688zm7.793-33.256h-5.338l2.706-35.629zm67.719-52.774c-.672-1.077-1.539-2.035-2.547-2.802-1.01-.768-2.158-1.345-3.012-1.688-.855-.343-1.416-.451-1.975-.55-.561-.099-1.121-.187-1.682-.252-.564-.064-1.127-.105-2.467-.165-1.34-.059-3.455-.191-5.572-.192l-25.372-.009v91.688l31.104-.053c.773-.002 1.531-.221 2.293-.355 1.604-.289 3.016-.594 4.521-1.275.793-.356 1.646-.832 2.422-1.416.773-.586 1.471-1.283 2.129-2.356.658-1.075 1.277-2.526 1.732-4.302.453-1.773.801-3.871.797-5.971l-.137-62.58c-.004-1.429-.361-2.84-.727-4.146-.36-1.305-.837-2.499-1.507-3.576m-21.824 9.33c.416 0 .834-.033 1.238.017s.791.144 1.111.244.57.209.795.359.422.342.578.562c.678 1.017.594 2.464.654 3.747v52.802c0 .391-.002.781-.057 1.16-.057.379-.15.746-.271 1.065s-.271.592-.473.823c-.197.232-.445.424-.715.576-.27.154-.553.34-.865.34h-3.205v-61.695z" fill="url(#b)"/><path d="m149.017 92.672h-19.827c-.802 0-1.576-.104-2.328-.193-.765-.093-1.576-.213-2.644-.582-1.068-.371-2.403-.983-3.593-1.855-1.19-.873-2.2-1.987-2.959-3.25-.759-1.267-1.25-2.662-1.559-4.002-.57-2.583-.585-5.057-.602-7.626l-.021-21.421h20.513l.006 19.121c.135 1.247.073 2.408.861 3.142.188.181.413.328.647.425.292.116.578.171.852.171.494-.003.962-.173 1.381-.517.195-.168.365-.382.469-.576.375-.834.466-1.593.468-2.41 0-.054 0-.102 0-.148l-.029-12.397-.073-2.003c0-.16.002-.315.002-.465-.006-1.259-.114-2.35-1.159-3.363-.487-.475-.987-.728-1.516-1.06-3.875-2.156-7.701-4.261-11.543-6.384-1.783-.939-3.572-2.036-5.223-3.463-.796-.68-1.549-1.406-2.125-2.034-.577-.628-.977-1.165-1.321-1.715-.753-1.171-1.217-2.469-1.495-3.512-.263-1.012-.4-1.563-.533-3.144-.06-.75-.125-1.79-.158-2.843-.015-1.62-.019-3.239-.019-4.854 0-4.707.042-9.407.052-14.108v.002l.5.001-.5-.011c.042-1.875.57-3.755 1.449-5.476.438-.846.964-1.634 1.47-2.262.998-1.229 1.999-1.949 3.146-2.573.583-.307 1.192-.556 1.85-.759 2.071-.579 4.043-.825 6.034-.89l16.94-.137c.052-.002.089 0 .112 0 .715 0 1.412.07 2.103.143 1.422.182 2.743.282 4.466.875.879.317 1.896.8 2.822 1.447.929.645 1.752 1.443 2.419 2.355.668.91 1.162 1.91 1.479 2.612.315.703.458 1.141.577 1.557.12.415.222.834.311 1.261.085.425.155.867.234 1.733.081.871.176 2.179.23 3.502.058 2.534.073 5.065.073 7.595 0 2.453-.013 4.904-.013 7.354 0 .651.002 1.3.004 1.951l.002.502h-20.6v-11.402c-.002-.181 0-.363 0-.543 0-.96-.021-1.968-.104-2.702-.047-.419-.116-.684-.22-.933-.107-.251-.257-.485-.443-.694-.185-.206-.4-.379-.583-.477-.375-.16-.715-.234-1.026-.234-.595.008-1.118.251-1.665.966-.149.23-.282.522-.385.842-.172.491-.218 1.043-.218 1.578 0 .11.002.22.006.348-.014 1.248-.019 2.536-.019 3.834 0 1.254.004 2.523.004 3.782 0 .347.002.693 0 1.037 0 .275-.017.529-.017.759 0 .13.006.257.022.392.052.612.411 1.464.688 1.897.129.208.17.257.234.33.251.264.156.218.645.597.268.203.722.533 1.184.836.458.303.939.581 1.431.848l8.286 4.522c1.959 1.086 3.985 2.349 5.808 3.583.881.605 1.688 1.198 2.428 1.887.738.687 1.397 1.458 1.961 2.293.566.835 1.028 1.719 1.319 2.345.292.628.419 1.022.522 1.385.104.365.197.732.273 1.107.077.373.143.771.209 1.58.068.813.146 2.057.187 3.169.044 1.111.056 2.081.063 2.703.008.622.008.904.008 1.18v14.697c0 .687.008 1.381.008 2.08 0 .698-.008 1.401-.043 2.108-.068 1.399-.191 2.799-.388 3.939-.197 1.145-.469 2.012-.784 2.948-.315.936-.69 2.02-1.396 3.055-.707 1.034-1.712 1.979-2.903 2.735-1.186.752-2.536 1.306-3.693 1.625-.943.255-1.752.282-2.486.282-.18 0-.362 0-.545 0zm-32.512-17.512c.017 2.569.035 4.962.577 7.41.29 1.257.752 2.56 1.443 3.706.688 1.15 1.611 2.166 2.691 2.961 1.078.792 2.341 1.374 3.328 1.715.989.34 1.69.443 2.437.534.761.092 1.497.188 2.21.188h19.827.55c.711 0 1.401-.027 2.223-.249 1.062-.291 2.339-.815 3.421-1.504 1.084-.69 1.997-1.551 2.61-2.452.616-.9.964-1.885 1.275-2.813.311-.927.562-1.723.746-2.797.185-1.076.307-2.446.375-3.821.033-.683.042-1.368.042-2.059 0-.69-.008-1.384-.008-2.08v-14.697c-.002-.275 0-.549-.008-1.169-.006-.62-.019-1.578-.062-2.675-.042-1.095-.116-2.333-.185-3.123-.066-.792-.121-1.119-.193-1.464-.071-.344-.158-.688-.255-1.032-.097-.342-.195-.649-.468-1.238-.272-.587-.713-1.437-1.238-2.208-.523-.773-1.134-1.486-1.816-2.121-.682-.636-1.447-1.2-2.31-1.792-1.795-1.219-3.799-2.467-5.725-3.535l-8.283-4.52c-.506-.276-1.01-.566-1.501-.89-.489-.321-.954-.659-1.24-.877-.504-.379-.599-.527-.778-.718-.091-.102-.205-.242-.348-.479-.349-.566-.745-1.461-.832-2.314-.021-.172-.027-.34-.027-.5 0-.276.017-.531.017-.761 0-.342 0-.688 0-1.035 0-1.256-.004-2.523-.004-3.782 0-1.3.004-2.592.019-3.824-.004-.116-.006-.234-.006-.358 0-.587.043-1.252.27-1.897.122-.375.282-.742.514-1.095.676-.921 1.555-1.402 2.484-1.394.473 0 .948.114 1.454.33.344.181.647.429.902.715.255.287.465.614.618.969.149.354.238.736.292 1.211.091.813.11 1.841.11 2.815v.543 10.403h18.598c-.001-.484-.003-.968-.003-1.452 0-2.453.013-4.906.013-7.354 0-2.526-.015-5.049-.073-7.562-.054-1.296-.147-2.592-.226-3.442-.079-.851-.141-1.236-.22-1.628-.081-.4-.178-.794-.29-1.184-.114-.392-.23-.754-.531-1.424-.297-.667-.77-1.611-1.371-2.432-.6-.819-1.346-1.541-2.184-2.124-.84-.584-1.787-1.039-2.583-1.325-1.599-.55-2.801-.641-4.25-.825-.676-.073-1.337-.137-1.987-.137-.035 0-.056 0-.081 0l-16.951.137c-1.918.062-3.801.298-5.773.85-.589.182-1.14.406-1.657.68-1.078.591-1.926 1.198-2.843 2.322-.462.572-.958 1.313-1.358 2.088-.817 1.601-1.302 3.342-1.339 5.042-.011 4.699-.052 9.396-.052 14.094 0 1.615.004 3.229.019 4.833.033 1.024.095 2.048.155 2.78.135 1.555.243 1.956.502 2.974.257.968.697 2.181 1.373 3.228.319.51.672.985 1.215 1.576.541.591 1.271 1.296 2.04 1.953 1.572 1.358 3.293 2.416 5.045 3.338 3.851 2.129 7.676 4.232 11.581 6.407.487.311 1.09.611 1.698 1.198 1.327 1.268 1.472 2.785 1.464 4.083 0 .162-.002.317-.002.45l.073 1.998.029 12.41c.002.056 0 .108 0 .155.002.892-.108 1.829-.57 2.85-.179.334-.421.641-.722.899-.585.487-1.292.755-2.026.753-.409.002-.821-.081-1.228-.242-.359-.149-.687-.363-.966-.633-1.176-1.157-1.012-2.679-1.163-3.799l-.009-18.178h-18.516zm191.453-75.21 25.875.008c2.136.002 4.261.133 5.594.193 1.342.06 1.921.102 2.501.168.574.066 1.145.155 1.713.255.563.1 1.184.22 2.073.579.89.359 2.069.95 3.129 1.754 1.056.807 1.964 1.808 2.667 2.936h.002l-.002.001c.703 1.127 1.196 2.369 1.565 3.704.366 1.314.74 2.768.744 4.28l.137 62.615v.002c0 .001.001.005 0 .014-.002 2.137-.354 4.252-.813 6.045-.465 1.816-1.1 3.312-1.79 4.439-.688 1.126-1.442 1.881-2.254 2.493-.813.613-1.695 1.104-2.517 1.474-1.563.707-3.027 1.021-4.641 1.313-.728.125-1.512.356-2.378.361l-31.606.054v-92.688zm1.001 91.687 30.603-.052c.679 0 1.41-.205 2.207-.348 1.594-.289 2.954-.585 4.403-1.24.764-.345 1.587-.803 2.324-1.358.736-.56 1.377-1.198 2.006-2.219.626-1.024 1.229-2.432 1.673-4.165.444-1.731.782-3.78.782-5.813.003 0-.003-.01 0-.051l-.137-62.561c-.002-1.346-.344-2.714-.707-4.012-.353-1.273-.813-2.419-1.449-3.446l.423-.265-.425.265c-.639-1.026-1.466-1.939-2.424-2.669-.962-.729-2.08-1.294-2.896-1.621-.821-.328-1.321-.423-1.875-.523-.556-.097-1.104-.185-1.65-.247-.549-.062-1.097-.104-2.434-.162-1.348-.06-3.453-.191-5.551-.193l-24.873-.007zm-23.459 1-1.508-18.129h-6.583l-1.335 17.666v.002l-.5-.038v.499h-18.991l11.917-92.687h24.813l11.738 92.687zm-27.778-1h17.388l1.371-18.126h8.431l1.51 18.124h17.493l-11.483-90.685h-23.053zm-24.668 1 .002-27.949c-.01-.327-.014-.65-.014-.977 0-.773.019-1.542.019-2.303 0-.788-.019-1.57-.083-2.314-.145-1.037-.095-1.796-.805-2.397-.174-.146-.379-.265-.576-.335-.749-.234-1.51-.266-2.318-.266-.234 0-.475.004-.719.004-.059 0-.118 0-.176-.001v36.538h-20.569v-92.687h21.368v.5l.014-.5c4.342.131 8.723-.015 13.111.496 1.928.166 3.881.796 5.623 1.926.84.543 1.609 1.19 2.308 1.937.438.512.833 1.06 1.18 1.638.344.577.641 1.184.883 1.814.243.628.429 1.279.599 2.078.172.798.33 1.752.45 2.708.195 1.534.292 3.075.292 4.611 0 .39-.006.777-.019 1.151v9.592c.008.417.013.838.013 1.259 0 2.708-.176 5.412-.581 8.132-.145.773-.324 1.541-.531 2.29-.268 1.099-.711 2.154-1.311 3.114-.602.958-1.358 1.818-2.233 2.536-.877.715-1.868 1.29-2.923 1.691-.026.011-.051.02-.077.029.571.236 1.124.519 1.649.844.97.604 1.85 1.356 2.596 2.223.747.869 1.36 1.853 1.808 2.893.299.653.535 1.317.722 2.006.626 2.873.819 5.708.85 8.557l.019 29.164h-20.571zm-1.141-37.225c.332.118.641.297.911.526 1.099.952 1.007 2.174 1.145 3.038.075.816.091 1.63.091 2.433 0 .775-.019 1.544-.019 2.303 0 .319.004.633.015.963v26.961h18.568l-.019-28.157c-.031-2.806-.222-5.57-.821-8.323-.166-.612-.386-1.226-.666-1.84-.413-.957-.973-1.854-1.651-2.644-.68-.79-1.482-1.476-2.368-2.027-.883-.55-1.856-.965-2.868-1.226l.004-.968c.492-.122.977-.276 1.464-.462.956-.363 1.854-.883 2.646-1.532.79-.647 1.477-1.427 2.02-2.291.541-.869.946-1.825 1.19-2.837.205-.736.377-1.474.512-2.2.394-2.65.568-5.304.568-7.968 0-.413-.004-.828-.012-1.25v-9.615c.012-.377.019-.757.019-1.136 0-1.493-.096-2.994-.286-4.485-.116-.933-.27-1.862-.434-2.625-.164-.761-.336-1.354-.556-1.929-.222-.574-.493-1.132-.811-1.661-.315-.529-.676-1.031-1.064-1.482-.628-.67-1.337-1.265-2.108-1.767-1.597-1.037-3.393-1.615-5.178-1.769-4.305-.501-8.657-.361-13.04-.491h-20.354v90.686h18.57v-36.565l.516.019c.218.008.436.011.66.011.234 0 .473-.005.719-.005.831-.001 1.708.025 2.637.315zm-58.663 37.225v-76.897h-9.774v-15.29h.5v-.5h39.575v15.79h-9.702v76.897zm-8.775-77.899h9.776l-.002 76.897h18.599v-76.897h9.7v-13.788h-38.073zm-69.795 77.899-.002-44.993-6.075 44.993h-12.336l-6.366-45.53v45.53h-18.653v-92.687h26.307v.5l.498-.058 4.145 36.232 4.343-36.674h26.79v92.687zm.999-52.432v51.43h16.65v-90.685h-24.898l-4.747 40.058-.993-.002-4.582-40.056h-24.861v90.686h16.652v-51.715l.995-.07 7.241 51.785h10.591l6.957-51.499zm-67.33 52.432-1.512-18.127h-6.581l-1.337 17.664.002.002-.5-.038v.499h-18.991l11.918-92.687h24.811l11.74 92.687zm-27.781-1h17.388l1.373-18.128h8.429l1.511 18.126h17.494l-11.483-90.685h-23.053zm326.985-14.004v-62.695h.501 1.209v1h-.711v60.697h2.706c.107.01.331-.102.62-.276.228-.128.429-.286.582-.469.155-.178.276-.394.384-.672.105-.281.193-.617.242-.96.05-.334.053-.7.053-1.088v-52.779c-.05-1.323-.013-2.691-.563-3.481-.12-.17-.273-.319-.447-.435-.175-.116-.374-.208-.666-.299-.297-.091-.657-.18-1.026-.224-.146-.019-.301-.025-.469-.025-.22 0-.456.011-.705.011v-1c.22 0 .456-.01.705-.01.188 0 .386.006.593.031.442.054.856.156 1.199.264.348.107.65.236.925.421.275.185.516.417.717.701.797 1.229.666 2.756.736 4.024v52.802c0 .392 0 .807-.061 1.233-.062.412-.163.811-.3 1.169-.135.359-.313.688-.559.969-.244.288-.539.512-.848.687-.253.135-.595.396-1.113.406h-3.704zm-50.064-18.251 2.747-36.167h.998l2.633 35.63-.5.036v.501zm1.08-1.001h4.261l-2.102-28.436zm-258.235 1.001 2.748-36.167h1l2.631 35.63-.5.036v.501zm1.081-1.001h4.258l-2.098-28.434zm206.434-19.142-.466-.031v-23.85h.5l.004-.5c.925.006 1.841.017 2.81.023.493.046 1.001.17 1.493.392l.035.017.033.022c1.464.944 1.578 2.306 1.68 3.312.083 1.18.079 2.345.118 3.51-.002.473-.004.946-.004 1.418 0 1.74.01 3.481.01 5.225 0 1.802-.013 3.608-.054 5.41-.01.74-.072 1.479-.18 2.19-.04.398-.153.788-.342 1.143-.187.356-.443.671-.736.918-.77.68-1.696.68-2.378.769-.479.046-.962.068-1.441.068-.364.001-.725-.013-1.082-.036zm1.081-.962c.45 0 .9-.021 1.335-.063.748-.081 1.399-.133 1.827-.531.209-.174.383-.39.51-.63.125-.236.206-.504.234-.8.104-.692.162-1.385.172-2.084.042-1.795.054-3.593.052-5.391.002-1.74-.008-3.481-.008-5.225 0-.475.002-.948.004-1.402-.039-1.171-.037-2.326-.116-3.436-.131-1.059-.149-1.821-1.197-2.546-.375-.164-.758-.258-1.094-.291-.76-.003-1.513-.011-2.266-.017v22.403c.181.008.364.013.547.013z"/><path d="m429.748 82.679h-21.398c-2.561-.081-4.543-.188-5.889-.313-1.109-.104-1.934-.478-2.566-1.179-.588-.59-.938-1.54-1.045-2.821-.127-1.505-.23-3.796-.313-6.783v-51.47c0-2.498.082-4.492.244-5.927.143-1.25.58-2.192 1.367-2.913.688-.691 1.471-1.078 2.391-1.18 1.098-.122 3.084-.185 5.906-.185h21.303v14.871h9.965v-24.329h-33.768c-2.48 0-4.979.152-7.43.452-2.609.322-4.953 1.41-6.99 3.267-2.104 2.102-3.33 4.65-3.65 7.576-.299 2.721-.449 6.049-.449 9.893v51.472c0 3.429.152 6.335.453 8.642.322 2.5 1.422 4.701 3.264 6.541 1.842 1.842 4.102 2.961 6.723 3.328 2.443.344 5.592.519 9.352.519h32.625v-24.33h-10.094v14.869z" fill="url(#c)"/><path d="m407.216 92.639c-3.777 0-6.943-.177-9.422-.524-2.72-.379-5.094-1.553-7.007-3.47-1.914-1.908-3.071-4.224-3.406-6.83-.304-2.338-.457-5.263-.457-8.705v-51.472c0-3.857.151-7.201.453-9.948.329-3.032 1.613-5.701 3.811-7.89 2.104-1.921 4.555-3.061 7.265-3.395 2.472-.301 4.99-.455 7.492-.457h34.267v25.329h-10.965v-14.87h-20.803c-2.813 0-4.796.065-5.852.183-.811.092-1.469.415-2.107 1.052-.689.637-1.071 1.433-1.209 2.6-.157 1.403-.241 3.383-.239 5.871l-.002 51.455c.082 2.983.187 5.27.313 6.757.101 1.215.434 2.047.917 2.526.547.6 1.216.914 2.242 1.017 1.326.123 3.304.23 5.841.312h20.899v-14.872h11.095v25.331zm-8.64-91.241c-2.51.31-4.745 1.347-6.698 3.124-2.028 2.028-3.195 4.457-3.507 7.276-.296 2.694-.446 6.007-.446 9.839v51.473c0 3.413.152 6.302.448 8.577.312 2.393 1.352 4.479 3.121 6.25 1.771 1.769 3.918 2.833 6.438 3.187 2.41.34 5.54.516 9.284.516h32.125v-23.333h-9.095v14.371.499h-21.914c-2.566-.08-4.555-.187-5.921-.314-1.191-.104-2.172-.539-2.872-1.322-.71-.717-1.075-1.787-1.19-3.132-.127-1.525-.23-3.82-.313-6.826v-51.47c0-2.51.081-4.518.247-5.984.148-1.333.641-2.42 1.511-3.21.752-.76 1.661-1.213 2.689-1.324 1.14-.125 3.129-.187 5.961-.187h21.803v14.87h8.965v-23.328h-33.267c-2.462 0-4.939.151-7.369.448zm31.172 81.28v-.499z"/><path d="m506.179 16.3c0-1.792-.063-3.528-.191-5.16-.137-1.718-.531-3.268-1.178-4.608-.658-1.364-1.654-2.554-2.963-3.535-1.297-.971-3.1-1.693-5.406-2.155-.613-.086-1.182-.152-1.711-.198-.518-.042-1.182-.084-1.996-.129-.836-.042-1.922-.064-3.23-.064h-41.33v9.458h8.641v72.771h-8.641v9.458h28.521v-9.458h-8.77v-32.229h20.678c1.801 0 3.564-.043 5.24-.127 1.764-.088 3.396-.357 4.861-.804 1.535-.467 2.904-1.272 4.068-2.394 1.164-1.124 2.082-2.667 2.729-4.612.359-1.171.586-2.487.676-3.914.084-1.38.084-3.208.002-5.397zm-10.728 3.6v11.482c0 2.177-.064 3.971-.189 5.334-.105 1.208-.422 2.15-.932 2.8-.484.618-1.316 1.057-2.473 1.304-1.316.282-3.27.426-5.803.426h-18.129v-31.337h17.623c2.479 0 4.438.083 5.83.25 1.213.144 2.111.485 2.666 1.012.549.521.918 1.423 1.096 2.68.205 1.438.311 3.474.311 6.049z" fill="url(#d)"/><path d="m447.671 92.636v-10.456l8.64-.002v-71.77h-8.64v-10.458h41.831c1.313 0 2.407.023 3.259.065.815.044 1.482.086 2.011.129.54.048 1.117.114 1.765.207 2.355.473 4.229 1.212 5.609 2.245 1.366 1.024 2.42 2.279 3.113 3.719.678 1.404 1.085 3.016 1.227 4.786.129 1.647.192 3.396.192 5.199v16.886c.038 1.09.059 2.095.062 3.003-.003.917-.021 1.732-.065 2.441-.091 1.461-.323 2.815-.699 4.042-.665 2.002-1.62 3.622-2.855 4.813-1.219 1.174-2.661 2.023-4.271 2.514-1.51.458-3.183.734-4.981.823-1.686.084-3.457.127-5.265.129h-20.179v31.229h8.771v10.456zm1.001-.999h27.52v-8.458h-8.769v-33.229h21.18c1.791 0 3.548-.042 5.214-.127 1.729-.084 3.322-.349 4.741-.781 1.461-.445 2.758-1.208 3.867-2.276 1.092-1.054 1.974-2.524 2.597-4.399.347-1.125.568-2.405.655-3.797.042-.68.062-1.478.062-2.38 0-.893-.021-1.886-.062-2.986v-16.904c.002-1.78-.062-3.503-.188-5.121-.133-1.667-.515-3.155-1.13-4.431-.623-1.288-1.563-2.414-2.813-3.352-1.212-.91-2.946-1.613-5.176-2.059-.606-.086-1.166-.15-1.682-.196-.511-.04-1.172-.083-1.98-.127-.824-.042-1.903-.063-3.206-.063h-40.83v8.458h8.642v73.771h-8.642zm18.753-49.892v-32.336h18.122c2.491 0 4.462.083 5.89.253 1.271.152 2.272.507 2.95 1.145.676.65 1.058 1.658 1.246 2.973.211 1.479.316 3.529.316 6.12v11.482c0 2.186-.065 3.992-.192 5.377-.111 1.269-.443 2.306-1.036 3.064-.59.75-1.538 1.223-2.761 1.484-1.379.296-3.354.437-5.906.437h-18.629zm.997-.998h17.632c2.513 0 4.443-.146 5.697-.416 1.09-.232 1.806-.636 2.184-1.124.427-.541.729-1.39.828-2.537.122-1.339.188-3.121.186-5.288v-11.482h.002c0-2.562-.107-4.583-.306-5.98-.167-1.198-.523-1.994-.946-2.387-.431-.416-1.227-.743-2.38-.878-1.358-.163-3.305-.247-5.771-.245h-17.125v30.337z"/><path d="m556.833 67.809v14.871h-21.398c-2.559-.081-4.541-.188-5.889-.313-1.105-.104-1.934-.477-2.563-1.178-.588-.59-.939-1.54-1.047-2.822-.125-1.5-.23-3.789-.313-6.781v-51.473c0-2.498.082-4.492.244-5.926.146-1.252.58-2.194 1.369-2.914.688-.692 1.471-1.078 2.389-1.18 1.098-.122 3.084-.185 5.906-.185h21.303v14.871h9.969v-24.329h-33.771c-2.479 0-4.977.152-7.426.452-2.613.322-4.955 1.41-6.994 3.267-2.102 2.102-3.328 4.65-3.648 7.575-.299 2.718-.451 6.047-.451 9.894v51.472c0 3.431.152 6.339.453 8.642.324 2.5 1.422 4.699 3.266 6.541 1.842 1.842 4.104 2.961 6.723 3.328 2.443.344 5.59.519 9.352.519h32.625v-24.33h-10.099z" fill="url(#e)"/><path d="m534.306 92.637c-3.778 0-6.943-.175-9.423-.521-2.717-.38-5.093-1.555-7.005-3.471-1.916-1.91-3.073-4.225-3.409-6.83-.305-2.334-.456-5.261-.458-8.706v-51.471c.002-3.86.153-7.207.455-9.948.33-3.033 1.615-5.7 3.81-7.891 2.106-1.921 4.555-3.061 7.269-3.393 2.47-.304 4.988-.455 7.487-.457h34.271v25.329h-10.968l-.002-14.871h-20.801c-2.813 0-4.796.064-5.852.181-.81.093-1.467.415-2.107 1.053-.689.636-1.067 1.432-1.21 2.602-.158 1.401-.241 3.384-.241 5.871v51.458c.083 2.986.188 5.271.311 6.754.103 1.216.437 2.046.922 2.531.542.595 1.216.91 2.237 1.012 1.329.124 3.306.23 5.843.313l20.898-.002v-14.37-.5h11.097v25.329h-33.124zm-8.639-91.24c-2.514.313-4.747 1.349-6.702 3.125-2.024 2.029-3.194 4.458-3.505 7.276-.296 2.693-.449 6.005-.447 9.84v51.471c-.002 3.416.151 6.307.447 8.578.313 2.394 1.353 4.478 3.124 6.249 1.77 1.768 3.918 2.834 6.438 3.188 2.408.339 5.537.516 9.283.516h32.125v-23.332h-9.1v14.87h-21.913c-2.565-.081-4.555-.188-5.92-.314-1.188-.106-2.172-.536-2.869-1.323-.708-.715-1.078-1.785-1.191-3.133-.125-1.517-.231-3.813-.314-6.822v-51.473c0-2.51.08-4.516.249-5.986.15-1.332.64-2.418 1.51-3.208.753-.764 1.661-1.214 2.688-1.325 1.138-.125 3.129-.187 5.962-.187h21.801v14.87h8.97v-23.326h-33.271c-2.459 0-4.937.149-7.365.446zm31.166 66.911v-.5z"/></svg>