<svg enable-background="new 23.577 0 290.5 85.789" height="85.789" viewBox="23.577 0 290.5 85.789" width="290.5" xmlns="http://www.w3.org/2000/svg"><path d="m277.235 70.452h-215.149c-19.423 0-35.228-15.804-35.228-35.228s15.807-35.224 35.228-35.224h215.146c19.426 0 35.229 15.802 35.229 35.226 0 19.423-15.801 35.226-35.226 35.226zm-215.149-62.119c-14.829 0-26.895 12.063-26.895 26.895 0 14.828 12.064 26.895 26.895 26.895h215.146c14.826 0 26.896-12.065 26.896-26.895s-12.068-26.895-26.896-26.895h-215.146z" fill="#d61616"/><path d="m89.718 51.562v-32.515h-9.778v22.735l-14.424-22.735h-10.512v32.515h9.779v-23.469l15.154 23.469z" fill="#d61616"/><path d="m105.61 51.562v-22.002h-9.778v22.002z" fill="#d61616"/><path d="m105.61 24.914v-5.867h-9.778v5.867z" fill="#d61616"/><path d="m139.834 51.562v-15.159c0-3.178-6.112-7.577-9.289-7.577h-2.935c-2.199 0-4.646 1.956-6.846 2.934v-2.2h-9.778v22.002h9.778v-15.159c0-1.467 3.422-3.178 4.891-3.178 1.467 0 4.154 1.711 4.154 3.178v15.158z" fill="#d61616"/><path d="m221.655 52.319v-15.157c0-3.18-6.109-7.578-9.293-7.578h-2.932c-2.201 0-4.646 1.956-6.849 2.933v-2.199h-9.776v22.002h9.776v-15.158c0-1.467 3.425-3.18 4.892-3.18s4.154 1.713 4.154 3.18v15.156h10.028z" fill="#d61616"/><path d="m155.725 51.562v-22.002h5.135v-2.934h-5.135v-4.646h-10.021v4.646h-5.135v2.934h5.135v22.002z" fill="#d61616"/><path d="m174.549 28.826c-7.823 0-14.423 5.378-14.423 11.979 0 6.846 6.6 12.223 14.423 12.223 6.846 0 12.469-3.91 13.936-9.045h-10.021v2.935c0 2.444-1.709 3.18-3.91 3.18-2.199 0-3.668-.734-3.668-3.18v-6.111h18.094c-.005-6.602-6.361-11.981-14.431-11.981zm0 2.2c2.201 0 3.912 1.468 3.912 3.912v2.199h-7.578v-2.199c0-2.445 1.467-3.912 3.666-3.912z" fill="#d61616"/><path d="m270.875 28.826c-8.07 0-14.427 5.378-14.427 11.979 0 6.846 6.354 12.223 14.427 12.223 7.817 0 14.422-5.377 14.422-12.223-.004-6.6-6.603-11.979-14.422-11.979zm0 2.2c2.194 0 3.666 1.468 3.666 3.912v11.979c0 2.443-1.472 3.179-3.666 3.179-2.445 0-3.914-.734-3.914-3.179v-11.979c-.002-2.445 1.467-3.912 3.914-3.912z" fill="#d61616"/><path d="m242.758 19.047v11.979s-2.937-2.199-6.849-2.199c-6.11 0-11.244 5.378-11.244 11.246 0 6.111 5.136 12.224 11.244 12.224 3.912 0 6.849-1.467 6.849-1.467v.731h9.778v-32.514zm-3.668 13.446c2.198 0 3.668 1.712 3.668 3.912v9.045c0 2.2-1.47 2.934-3.668 2.934-2.443 0-3.912-.732-3.912-2.934v-9.045c0-2.2 1.469-3.912 3.912-3.912z" fill="#d61616"/><path d="m286.516 29.216c-2.773 0-5.035-2.258-5.035-5.035 0-2.959 2.213-5.28 5.035-5.28 2.729 0 5.037 2.417 5.037 5.28 0 2.681-2.35 5.035-5.037 5.035zm0-9.533c-2.426 0-4.252 1.935-4.252 4.5 0 2.344 1.908 4.254 4.252 4.254 2.229 0 4.254-2.027 4.254-4.254 0-2.399-1.983-4.5-4.254-4.5zm.885 6.647-.863-1.516h-1.096v1.321h-.779v-4.545h2.104c.979 0 1.488.813 1.488 1.613 0 .614-.303 1.237-.885 1.491l.711 1.248zm-1.959-2.294h1.32c.221 0 .396-.079.521-.235.119-.149.188-.368.188-.597 0-.312-.15-.832-.709-.832h-1.32z" fill="#d61616"/><g fill="#8c8c8c"><path d="m48.071 85.789h-9.103c-2.601 0-3.901-1.301-3.901-3.901v-7.803h13.004v2.602h-10.404v1.95h10.403v2.601h-10.403v.65c0 .867.434 1.301 1.301 1.301h9.103z"/><path d="m49.372 85.789v-11.704h9.103c2.601 0 3.901 1.301 3.901 3.901v7.803h-2.601v-7.803c0-.866-.434-1.3-1.3-1.3h-6.502v9.103z"/><path d="m63.676 74.085h13.004v2.602h-5.202v9.103h-2.601v-9.103h-5.202v-2.602z"/><path d="m90.984 85.789h-9.103c-2.601 0-3.901-1.301-3.901-3.901v-7.803h13.004v2.602h-10.403v1.95h10.403v2.601h-10.403v.65c0 .867.434 1.301 1.301 1.301h9.103v2.6z"/><path d="m94.886 81.238v4.552h-2.601v-11.705h9.103c2.601 0 3.901 1.188 3.901 3.563 0 1.127-.187 1.955-.559 2.483.373.616.559 1.418.559 2.406v3.251h-2.601v-3.251c0-.867-.434-1.301-1.3-1.301h-6.502zm0-2.601h7.803v-1.95h-7.803z"/><path d="m106.589 74.085h13.004v2.602h-5.202v9.103h-2.601v-9.103h-5.202v-2.602z"/><path d="m123.495 82.538v3.251h-2.601v-7.803c0-2.601 1.3-3.901 3.901-3.901h5.202c2.601 0 3.901 1.301 3.901 3.901v7.803h-2.601v-3.251zm7.802-2.6v-1.951c0-.866-.434-1.3-1.3-1.3h-5.202c-.867 0-1.301.434-1.301 1.3v1.951z"/><path d="m135.199 85.789v-11.704h2.601v11.704z"/><path d="m139.1 85.789v-11.704h9.103c2.601 0 3.901 1.301 3.901 3.901v7.803h-2.601v-7.803c0-.866-.434-1.3-1.3-1.3h-6.502v9.103z"/><path d="m153.404 85.789v-11.704h10.403c2.602 0 3.901 1.301 3.901 3.901v7.803h-2.601v-7.803c0-.866-.434-1.3-1.301-1.3h-1.95v9.103h-2.601v-9.103h-3.251v9.103z"/><path d="m182.013 85.789h-9.103c-2.601 0-3.901-1.301-3.901-3.901v-7.803h13.004v2.602h-10.403v1.95h10.403v2.601h-10.403v.65c0 .867.434 1.301 1.301 1.301h9.103v2.6z"/><path d="m183.314 85.789v-11.704h9.103c2.602 0 3.901 1.301 3.901 3.901v7.803h-2.601v-7.803c0-.866-.434-1.3-1.301-1.3h-6.502v9.103z"/><path d="m197.619 74.085h13.004v2.602h-5.201v9.103h-2.602v-9.103h-5.201z"/><path d="m217.125 83.189h10.403v-1.951h-6.502c-2.601 0-3.901-1.175-3.901-3.523 0-2.419 1.301-3.629 3.901-3.629h9.103v2.602h-10.403v1.95h6.502c2.602 0 3.901 1.192 3.901 3.576s-1.3 3.576-3.901 3.576h-9.103z"/><path d="m236.63 81.238h-1.3c-2.601 0-3.901-1.3-3.901-3.901v-3.251h2.601v3.251c0 .867.434 1.301 1.301 1.301h5.201c.867 0 1.301-.434 1.301-1.301v-3.251h2.601v3.251c0 2.602-1.3 3.901-3.901 3.901h-1.3v4.552h-2.602v-4.552z"/><path d="m245.734 83.189h10.403v-1.951h-6.502c-2.601 0-3.901-1.175-3.901-3.523 0-2.419 1.301-3.629 3.901-3.629h9.103v2.602h-10.403v1.95h6.502c2.602 0 3.901 1.192 3.901 3.576s-1.3 3.576-3.901 3.576h-9.103z"/><path d="m260.039 74.085h13.004v2.602h-5.201v9.103h-2.602v-9.103h-5.201z"/><path d="m287.346 85.789h-9.103c-2.601 0-3.901-1.301-3.901-3.901v-7.803h13.004v2.602h-10.403v1.95h10.403v2.601h-10.403v.65c0 .867.434 1.301 1.301 1.301h9.103v2.6z"/><path d="m288.647 85.789v-11.704h10.403c2.601 0 3.901 1.301 3.901 3.901v7.803h-2.601v-7.803c0-.866-.434-1.3-1.301-1.3h-1.95v9.103h-2.602v-9.103h-3.251v9.103z"/></g></svg>