<svg enable-background="new 0 0 478.8 112" viewBox="0 0 478.8 112" xmlns="http://www.w3.org/2000/svg"><path d="m4.2 40.9c-.5-9.8 2.6-15.7 7.7-17.9s19-3.2 30.5-1.8 29.2 6.5 31.4 24.4c3.5-1.9 13.8-4.7 21.5-4.3 7.8.5 16.4 4 19.6 8.6 7.3-7.4 27.2-9.9 34.7-3.6-1.7-12.5 9-19.3 17.2-18.6s16.2 4.7 16.5 18.1c6-5.5 13.1-4.1 15.8-4.1-.6-13.4 4.6-21.4 14.5-21.3 10 .2 17.3 6.9 17.1 20.2 4.9-1.1 12.5-.7 14.5 2.8 5.1-4.1 20.7-6.2 25.8 4.1 10.6-10.7 26.2-7.4 31.2-3.6-.9-12.8 6.7-22.2 21.7-18.3-.8-10.2 7.6-16.1 15.6-14.2s12.9 10.1 27.9 39.6c.1-32.4-.5-36.7 2.2-41.3 2.7-4.6 9.2-6.8 14.4-6.5 5.2.4 12.6 4 12.9 12.1 7.4-8.5 19 3.8 32 19.5 6.3-24.4 14.4-31.3 22.1-30.7s10.9 5.6 13.3 15.8 10.2 51.9 11.6 59.6.5 15.1-6.3 17.1c-6.7 2-20.1 3.7-25.6-8.5-.9 1-7.1 3.2-11.5 2.2-.2 10-7.3 16.4-13.4 16.8s-16.2.8-19.1-12.7-4.3-20-4.4-20.4c-1.9 13-2.4 27-11.3 31.9-8.9 4.8-17.4 5.1-26.6-8.5-9.2-13.7-23.5-41.9-23.8-42.6-.9 1-.9 2.7-.9 6.1s.1 17.4 1 28.2-3.7 16.7-8.9 17.4-11.7.3-14.9-2.1c-3.7 2.6-12.6 4.5-16.1 1.1-2.9 1.4-12.4 4.7-22.8-2.7-1.1-.9-3.1-1.3-4.9.8s-10.5 5-16.7.9c-2.1.8-9 4-15.5-.3s-7.9-4.2-8.9-3.1c-1 1-6.5 5.5-12.7 5s-5.5-1.3-8.4 0-10.3 2.3-19.4-2.9c-2.1-1.1-5-2.7-6.9-.9s-5.3 4.3-10.9 4.3-10-1.5-11.4-2.7c-1.4-1.1-3.5-1.6-7.6-.1s-15.6 4-23.3.6c-7.8-3.4-11.4-5.5-12-6.3-3.8 3-13.9 7.5-20.8 8.3-6.8.9-15.8-1.6-19-4.8-4.3 3.5-4.8 4.6-11.6 4.6s-17.6 1.1-21.3-5.9c-.9-1.2-2.3-.2-2.7.9s-2.6 4.3-8.7 4.6c-6.2.4-24.6 1.9-24.4-10.3s1.1-25 1.2-32.9c.2-7.9-.7-12-1.2-21.7z"/><path d="m56.9 75.2c-3.1-4.4 1.8-7.7 6.8-12.4s6-19.5-3.6-26.8-31-8.4-39.4-7.4-8.4 6.7-7.7 14.1.7 20.9-.3 50.1c-.3 8.8 5.3 7 11.2 7.1s7.5-1.6 7.7-5.6c.1-4 1.3-9.8 5.6-10.1 4.3-.2 6.8 5.5 8.9 10.8s5.3 5 17.5 4.6c12.2-.5-3.6-20-6.7-24.4zm-19.2-12c-7.7-.3-7.8-6.4-7.7-8.8s2.7-8.8 7.1-8.7c4.3 0 7 1.3 8.4 5.7s-.1 12.1-7.8 11.8z" fill="#dbbd3b"/><path d="m109.6 82c-2.3-3.6-8.1-1.7-16.2 1.3-3.8 1.3-6 2-6.8.4-.9-1.6 3.6-3.3 10.1-5.3s13.7-5.8 14.4-12c.7-6.1-5.3-14.4-19.9-14.9-14.8-.5-20.9 11.6-23.2 18.3s.4 19.6 8.5 25.6 17.9 3.4 27-1.1 8.3-8.7 6.1-12.3zm-25.2-11c-2.3-3.8 0-7.4 2.7-9.1s7.8-1.4 9.3 1.6c1.4 3 0 6.5-3.1 8s-7.8 1.4-8.9-.5z" fill="#dbbd3b"/><path d="m141.4 67.1c4.8 3.7 10.5 4.6 12 2.4 1.4-2.1 2.8-8-2.1-12-5-4-15.4-6-23.9-3.1-8.5 2.8-12.5 10.1-10.8 16.1s11 8.7 13.9 10.1c3.6 1.7 5.1 3 4.3 4.3-.9 1.3-4.1-.3-7.3-1.7-3.1-1.4-8.1-3.7-10.1-1s-3.7 8.5 3.4 12.7c7.1 4.1 16.8 6 25 2.3 8.3-3.7 9.1-10.7 7.3-15.4-1.9-4.7-8.3-7.8-12.2-10.2-4-2.4-7.1-3.4-6.4-5.1.7-1.9 4.5-1.3 6.9.6z" fill="#dbbd3b"/><path d="m159.2 63.6c-.9-3.3 1.9-7.8 6.8-8.3 5-.4 8.8 3.1 8.5 7.1s-1.9 12.8-1.9 18.6 1.7 10.8 1.6 13.8-3.6 5.4-8 5.4-8-.1-8.3-5.7 1.3-14.1 1.6-18.8c.4-4.5-.1-9.2-.3-12.1z" fill="#dbbd3b"/><ellipse cx="167.1" cy="43.9" fill="#dbbd3b" rx="8.8" ry="8.1"/><path d="m220.3 69.8c.1-8.8 2.1-21.6 2.1-30.7s-5-10.7-9.4-10.2c-4.4.4-5.6 5.4-4.7 11.8 0 9.8-2.4 8.4-5.3 8.5-19.5 1.3-22.9 11.7-25.3 20.9s.9 18.1 6.4 24.3c5.6 6.3 21.1 6 22.2 4.7s2.4-3.1 4.1-1.1 5.3 2.3 7.8.7 3.7-5.7 2.8-8.4c-.7-2.7-.9-11.7-.7-20.5zm-21.9 13.6c-4.1 0-7.4-4.1-7.4-9.1s3.3-9.1 7.4-9.1 7.4 4.1 7.4 9.1-3.3 9.1-7.4 9.1z" fill="#dbbd3b"/><path d="m225.4 82.1c.3-21.5.3-21.1.3-23.8s4.4-7.8 8.8-8.3c4.4-.4 8.5-.9 8.5 5.7s-.3 19.4-.3 21.8 4.1 5.8 4.6.3c.4-5.6.4-18.9.6-22.6.1-3.7 3.8-5.3 7.7-5.4 3.8-.1 9.4 1.4 8.4 7.8s-1 12.7-1 18.1 2 12.8 1.6 17.5-3.7 7-7.1 6.8c-3.4-.1-5.8-2-7.1-2.4s-9 4.8-16.1.1c-7.2-4.6-9.2-10.4-8.9-15.6z" fill="#dbbd3b"/><path d="m306.4 86.6c-1.5-9.1-.9-15.1-.3-21.6s-2.3-10.7-8.3-13-18.4-.1-22.8 5.3-7.5 16.1-6.7 22.8c.9 6.7 1.3 15.4 12.2 19.1 11 3.7 12-2.4 14.4-2.6 2.4-.1 3.7 3.1 6.5 3.3 2.8.1 6-2.8 6.7-5.8.8-3.1-1.3-5-1.7-7.5zm-18.4-2.6c-3.9 0-7-4.2-7-9.3s3.1-9.3 7-9.3 7 4.2 7 9.3-3.1 9.3-7 9.3z" fill="#dbbd3b"/><path d="m331.9 28.5c-3.1-8.8 8.4-17.2 13.8-6s21.3 41.7 23.6 45.1 5 3 4.6-4.6c-.4-7.5.4-43.3.4-46.5s3.1-7.7 8.7-7.8c5.5-.1 8.7 3.3 8 11.4s-2.1 54.2-2.8 65.9-14.5 25.8-25.5 6.3c-11.1-19.5-28.3-57.7-30.8-63.8z" fill="#9a5f1b"/><path d="m396.6 32.8c-1.1-9.7 2.4-13.4 6.1-13.8s17.5 14.4 25.2 27.2c4.4 6.4 5.5 8.4 6.8-1.7s5.7-24.1 7.8-28.5 12.2-10.4 14.5 2.8 11.8 50.7 12.8 57.2 2.3 13.2-2.1 14.8-11.7 4-13.8-5.1-4.6-32.9-5.4-34.6c-.9-1.7-2.1-.7-2.6 3.7-.4 4.4-2 20.8-2.6 23.9s-7.6 10.3-13.3-.5-11-19.8-12.2-21.2c-1.3-1.4-1.9.9-1.4 4 .4 3.1 3.6 16.1 6.5 23.2 3 7.1 2.7 15.7-3.3 17.2-6 1.6-10.4 2.1-13.2-13.5-2.8-15.7-8.8-46.9-9.8-55.1z" fill="#9a5f1b"/><path d="m310.2 38.3c0-4.6 2.8-7.3 7.2-7.2 4.5.1 11.3.5 10.9 6.9-.4 6.5-1.2 30.3-1 39.3s.4 15.4.4 17.8c0 2.5-2.1 4.2-6.6 4.2s-9.1 1.3-9.6-4.8c-.5-6.2.3-23.8.3-31-.1-7.3-1.7-20.7-1.6-25.2z" fill="#dbbd3b"/><path d="m14.4 50c-.7-7.2-.6-13.5.8-16.2 1.5-2.6 5.1-5.6 16.6-4.4s20.1 2.7 28.2 6.8c-11.3-3.8-29.5-4.9-36.2-4.4-6.7.7-8.9 2.6-9.4 18.2z" fill="#fff8b6"/><path d="m46.5 55.3c-.8 4.4-2.1 7.3-5.3 8.3s-8.2-.2-9.6-1.8c2.2 3.1 7.8 3.3 11.1 2.4s3.7-7.4 3.8-8.9z" fill="#f9d84b"/><g fill="#fff8b6"><path d="m69.8 67.2c5.5-9.5 9.3-12.5 13.5-13.9 4.3-1.4 8.1-1.4 15.7.2-8.3-.6-14.9.1-18.2 2.2-3.2 2.1-9.6 9.3-11 11.5z"/><path d="m97.3 67.4c-.9 3.1-4.6 7-12.2 5.1 6.9 3.5 12.1-.6 12.2-5.1z"/><path d="m86.8 84.8c.9.9 3.3.6 6.1-.5s8.4-3.6 11.8-3.4c-2.7.3-4.1 1.2-6.3 2.1-2.1.9-8.2 4.4-11.6 1.8z"/><path d="m117.1 67c1.6-9.5 11.4-13.9 21.3-13.2-7-.4-18.6 4.5-21.3 13.2z"/><path d="m116.2 87.8c.8-4.5 2.1-8 8-5.4-2.9-1.1-6.5-.2-8 5.4z"/><path d="m169.9 56.6c-3.2-1.6-10.9.4-9.8 8.7.6-7.5 6.3-9.7 9.8-8.7z"/><path d="m159 45.1c-.1-4.5 4.2-10.8 11.7-7.8-5.5-1.5-11.3 2.4-11.7 7.8z"/><path d="m179.5 66.7c6.3-13.5 11.7-16.2 25-16.9-12.4 1.5-19.8 7.5-25 16.9z"/><path d="m193.8 82.1c4.7 4.3 10.9 1.1 12.1-4.2-.9 8-9.3 8.9-12.1 4.2z"/><path d="m215.5 29.5c-2.6-.6-6.4.9-6.5 7.5 1-5.8 4-7.3 6.5-7.5z"/><path d="m226.4 63.7c.4-10.7 5.1-12.7 11-12.9-5.6.4-10.1 4.3-11 12.9z"/><path d="m243.6 80.8c1.9 1.7 4.5 1.1 4.8-4.9.5 6.7-3.1 8-4.8 4.9z"/><path d="m248.5 58.3c0-6.3 3.6-8 6.8-7.7-3 .3-6.4 3.2-6.8 7.7z"/><path d="m270.3 68.5c4.7-11.5 8.8-15.8 21.5-16.7-8 1.3-14.6 3.6-21.5 16.7z"/><path d="m283 82.4c3.5 3.3 9.4 3.5 11.7-2.5-.7 5.5-6.9 8.1-11.7 2.5z"/><path d="m311 43.5c-.2-7.5.3-12.7 9.9-11.5-4.7-.3-9.5.5-9.9 11.5z"/></g><path d="m332.2 25.4c.4-5.4 4.8-9.4 10.4-6.1-3.8-1.3-8.3-.5-10.4 6.1z" fill="#e08a34"/><path d="m374.6 22.3c.4-8.5 2.8-12.4 8-12.8-4.5.9-7.3 6.7-8 12.8z" fill="#e08a34"/><path d="m397.5 26.2c1.9-6 4.7-8.4 10-3.3-4.8-3.9-7.7-1.8-10 3.3z" fill="#e08a34"/><path d="m436.9 36.3c5.6-19.4 6.9-22.1 10.3-23.7s6.4.7 6.4.7c-3.2-1.6-6.6-.6-8.7 2.9-2 3.5-7.6 18.6-8 20.1z" fill="#e08a34"/><path d="m430.9 51.8c1.7 1.1 3.6.7 4.7-5.5-.7 5.1-1 8.1-4.7 5.5z" fill="#e08a34"/><path d="m369.2 69.3c3 2.3 5.3 2.2 5.8-6.2 1.1 9.2-2.6 10.1-5.8 6.2z" fill="#e08a34"/></svg>