<svg enable-background="new 0 0 566.9 179.3" viewBox="0 0 566.9 179.3" xmlns="http://www.w3.org/2000/svg" xmlns:xlink="http://www.w3.org/1999/xlink"><linearGradient id="a"><stop offset="0" stop-color="#33438a"/><stop offset="1" stop-color="#0098df"/></linearGradient><linearGradient id="b" gradientTransform="matrix(1 0 0 -1 -.0898 -234.1621)" gradientUnits="userSpaceOnUse" x1="478.7063" x2="478.7063" xlink:href="#a" y1="-234.1621" y2="-331.9241"/><linearGradient id="c" gradientTransform="matrix(1 0 0 -1 -.0898 -234.1621)" gradientUnits="userSpaceOnUse" x1="270.4653" x2="270.4653" xlink:href="#a" y1="-234.1621" y2="-331.9241"/><linearGradient id="d" gradientTransform="matrix(1 0 0 -1 -.0898 -234.1621)" gradientUnits="userSpaceOnUse" x1="88.3998" x2="88.3998" xlink:href="#a" y1="-234.1621" y2="-331.9241"/><path d="m559.9 7v38.4h-169.6v52.4h176.6v-7h-169.6v-38.4h169.6v-52.4h-176.6v7z" fill="url(#b)"/><path d="m364.1 0v7h-90.1v90.8h-97.4v-7h90.1v-90.8z" fill="url(#c)"/><path d="m7 97.8v-45.4h169.6v-52.4h-176.6v6.9l169.6.1v38.4h-169.6v52.4z" fill="url(#d)"/><g fill="#444"><path d="m162.1 132.8c-2.3-1.1-6.4-1.1-6.4-1.1h-11.7v34.4h5.4v-31.1h5s3.6 0 4.8 1.6c1 1.4 1.2 3.9 1.2 5.5 0 1.8-.1 4.6-.7 5.6-.9 1.6-2.4 1.9-3.8 1.9h-3.3v3h4.7s4.3.2 6.1-1.7c2.2-2.3 2.8-5.3 2.8-9.4 0-3.6-1.3-7.4-4.1-8.7z"/><path d="m170.5 131.8h5.4v34.4h-5.4z"/><path d="m217.2 159-6.6-19.2h-6.2l9.8 25.7-5.7 13.8h4.5l16.2-39.5h-4.9z"/><path d="m244.8 146.1c-1.8-.1-3.3-.3-4.3-.4-1.4-.1-2.3-.9-2.7-1.8s-.5-2.9-.5-3.9.5-2.7 1-3.4c1-1.1 1.8-1.6 4.4-1.6 1.2 0 6.7.2 6.7.2v-3.2l-7.5-.2s-2.4 0-3.8.3c-1.2.2-2.9.7-4 1.8s-2.2 3.5-2.2 7.8 1.1 5.7 1.8 6.6c.8.9 2.4 2.2 4.9 2.3 1.8.1 3.3.3 4.3.4 1.4.1 2.3.9 2.7 1.8s.6 3 .6 4-.5 3.8-1.1 4.4c-1 1-2.3 1.6-4.9 1.6-1.2 0-6.9-.2-6.9-.2v3.2l8.2.2s2.4 0 3.8-.3c1.2-.2 2.9-.7 4-1.8s2.2-4.2 2.2-8.5-1.1-6.3-1.8-7.2c-.8-.7-2.4-2-4.9-2.1z"/><path d="m262.6 135.1h-5.4v25.2s.1 2.3.3 3.1c.1.8 1.3 2.8 4.4 2.8l5.6-.1v-3.2s-1.5.1-2.4.1-2-.1-2.2-1.6-.2-3.4-.2-3.4v-15h6.1v-3.2h-6.1z"/><path d="m314.3 139.8h5.4v26.4h-5.4z"/><path d="m314.3 131.8h5.4v4.8h-5.4z"/><path d="m344.7 141.6c-1.5-1.2-4.4-2.1-8-2.1-3.7 0-6.5.8-8 2.1-1.5 1.2-3.4 3.8-3.4 11.4 0 7.5 1.9 10.1 3.4 11.4 1.5 1.2 4.4 2 8 2 3.7 0 6.5-.8 8-2s3.4-3.8 3.4-11.4-1.9-10.2-3.4-11.4zm-4 19.7c-.7.9-2.1 1.5-3.9 1.5s-3.1-.6-3.8-1.5-1.6-2.8-1.6-8.3.9-7.4 1.6-8.3 2.1-1.5 3.8-1.5c1.8 0 3.1.6 3.9 1.5.7.9 1.6 2.8 1.6 8.3s-.9 7.4-1.6 8.3z"/><path d="m372.2 141.4c-2.3-1.8-6.3-1.6-6.3-1.6l-12 .2v26.1h5.3v-22.6l5.3-.2c1.4 0 3 .4 3.8 1.4.7.9 1.2 2.1 1.2 3.9v17.6h5.4v-18.2c-.1-3.4-1.1-5.4-2.7-6.6z"/><path d="m303.7 135.1h-5.4v25.2s.1 2.3.3 3.1c.1.8 1.3 2.8 4.4 2.8l5.6-.1v-3.2s-1.5.1-2.4.1-2-.1-2.2-1.6-.2-3.4-.2-3.4v-15h6v-3.2h-6v-4.7z"/><path d="m198.9 141.4c-2.3-1.8-6.3-1.6-6.3-1.6l-8.5.2v3.5l7.1-.2c1.4 0 3 .4 3.8 1.4.7.9 1.2 2.1 1.2 3.9v14.1l-3.5.2c-2 0-3.7-.2-4.7-.9-1.1-.8-1.6-1.9-1.6-4.2 0-1.8.4-2.6 1.1-3.6.8-1 2.2-1.2 3.6-1.2h1.8v-3h-3.3s-4-.2-6.3 1.6c-1.6 1.2-2.6 3.2-2.6 6.7s1.2 6.1 3.5 7c2.3 1 7 .9 7 .9l10.3-.2v-17.8c.1-3.6-1-5.5-2.6-6.8z"/><path d="m289.4 141.4c-2.3-1.8-6.3-1.6-6.3-1.6l-8.5.2v3.5l7.1-.2c1.4 0 3 .4 3.8 1.4.7.9 1.2 2.1 1.2 3.9v14.1l-3.5.2c-2 0-3.7-.2-4.7-.9-1.1-.8-1.6-1.9-1.6-4.2 0-1.8.4-2.6 1.1-3.6.8-1 2.2-1.2 3.6-1.2h1.8v-3h-3.3s-4-.2-6.3 1.6c-1.6 1.2-2.6 3.2-2.6 6.7s1.3 6.1 3.5 7c2.3 1 7 .9 7 .9l10.3-.2v-17.8c0-3.6-1-5.5-2.6-6.8z"/><path d="m400.4 154c.1-3 .2-3.9 1.2-5 1.2-1.3 3.8-1.6 4.8-1.6l6.4.2c5.1 0 7.5-1.6 8.6-3.3 1.3-2 1.5-4.1 1.5-8-.1-3.8-.6-5.6-2.1-7.6-1.4-1.9-4.2-3.2-9.3-3.1-8.1.1-16.1.5-16.1.5v4.1s8.2-.2 15.2-.2c2.8 0 3.7.7 4.7 1.8.8.9 1.3 3 1.3 5.1 0 2.3-.5 3.7-1.4 4.9-.8 1.1-1.9 1.6-4.8 1.6-.6 0-1.8 0-3.1-.1-1.7 0-3 0-3.6.1-3.3.2-6.1 1.7-7.2 3.1-1.7 2-2.2 3.1-2.4 10.9v6.6c0 2.2 1.6 3.3 3.2 3.3h1.1 23.6v-4.4h-21.7v-8.9z"/></g></svg>