<svg enable-background="new 0 0 900 133" viewBox="0 0 900 133" xmlns="http://www.w3.org/2000/svg"><path d="m715 127.6c-2.3-2.4-8.3-2.6-9.3-2.6-42.6 0-85.2 0-127.8 0-4.3 0-5.1.5-4.6-5 .9-9 4.2-17.3 10.7-23.8 1.2-1.3 1.7-1.7 4.5-4.3 12.1-11 36.2-19.7 36.2-19.7s20.2-7.4 31.5-11.9c5.1-2 10-4.3 14.6-7.4 16.4-12.9 7.9-25.8-13.8-28.8-15.2-2.2-29 1.5-41.7 9.7-1.7 1.1-3.1 2.1-4.7 3.3-2.9 2.4-5.3 5.2-5.8 8.3-.3 1.7 0 2.8 0 3.1.1.9.4 2.2-.3 2.9-.8.8-2.4 0-3.1-.7-6.6-6.2-13.2-12.4-19.8-18.6-.4-.4-1.2-1.2-1.2-1.2s-.7-.8-.7-1.4.6-1.2 1.4-1.5c3.6-.7 5.2-.9 7.4-2.4 5.8-4.2 11.9-8 18.3-11.2 8.7-4.2 17.7-6.7 27.3-8 7.3-1 28.8-4.3 54 6.8 6.6 2.9 12.3 7 16.6 12.8 2.5 3.4 12.1 22.3-7.4 37.3-7 5.6-15.3 9-23.7 12-7.2 2.5-12.5 4.4-24.2 7.8-8.9 2.7-15.3 4.7-25.6 9.6-8.1 3.9-13.5 8.5-13.5 8.5s-2.7 2.1-2.1 3.7c.4 1.4 2.7 1.3 4 1.3h94.3c3.3 0 6.4-.2 8.9-2.8.4-.4 1.3-.6 1.8-.4.4.2.7 1.1.7 1.6 0 7.4.1 14.9 0 22.3 0 .7-.2 1-.6 1.2-.5.3-1.6.2-2.3-.5z" fill="#a00"/><path d="m480.8 126.7c-5.2-.3-10.3-1-15.4-1.9-20.7-3.7-30.4-8.6-36.2-10.8-2.8-1.1-5.5-2.1-8.5-1-.3.1-.7.1-1.1.1-1.9 0-2.5-.7-1.7-2.4 1-2 2.1-4 3.3-5.9 3.2-5.3 6.4-10.5 9.6-15.7.1-.2.3-.5.5-.7.7-1.1 1.4-2.1 2.9-1.9 1.4.2 1.7 1.4 2 2.5.6 2.4 2.1 4.2 4 5.6 4.5 3.5 9.7 5.9 15 7.7 7 2.4 14.1 4 21.4 5.1 8.6 1.4 17.3 1.5 26 1 7.3-.4 14.6-1.8 21.5-4.5 4.2-1.6 7.4-4.6 10-8.1 3.4-4.7 2-11.2-2.6-14.9-6.3-5-13.6-7-21.3-8.3-7-1.2-13.9-1.1-20.9-1-3.3 0-11.1.4-14.1 3.1-1.1 1-2 1-2.5.6-.5-.5-.5-1.2-.6-1.9-.1-6.8-.1-13.6 0-20.4 0-2.2 1.1-2.9 2.8-1.7 2.2 1.5 4.6 2.2 7.1 2.5 4.2.5 17.9.1 20.7-.3 7.5-1 6.8-.9 11.2-2 4.7-1.3 9.1-4.5 11.5-7.2 0 0 .1-.1.1-.1 3.2-3.9 2.2-8.4-.9-11.6-2.9-3.1-6.5-5.1-10.6-6.3-6.6-2-13.5-3-20.4-2.7-12.5.6-24.8 2.5-36.1 8.3-2.6 1.3-5 3-7.4 4.7-2 1.4-3.1 3.5-3.1 6.1 0 1.3.2 2.8-1.4 3.4s-2.4-.8-3.3-1.7c-5.8-5.9-11.5-11.7-17.2-17.6-.3-.3-.7-.7-.9-1.1-.7-1.1-.3-2.1 1.1-2.2 1.5-.2 3.1.1 4.5-.4 2-.7 4-1.8 5.9-2.7 5.2-2.5 10.2-5.4 15.5-7.6 8.4-3.5 17.2-5.3 26.3-6.4 8.6-1.1 23.9-1.5 34.9.1 7.4 1.1 14.7 2.6 21.5 5.6 6 2.7 11.9 5.7 16.5 10.8 3.3 3.7 5.4 7.8 6.2 12.8.7 4.8-.1 9.1-2.1 13.4-1.4 2.9-3.5 4.9-6.4 6.6-5.7 3.4-9 4.2-9.7 4.7-1.1.7-1.2 1.6 0 2.3 1 .6 2.2 1 3.4 1.3 6.8 2.1 12.7 5.9 17.6 11 3.6 3.7 5.7 8.2 6.4 13.5.7 5.4-.5 10.2-2.9 15-1.8 3.7-4.9 6.3-8 8.6-6.4 4.7-13.6 8-21.3 10.2-5.7 1.7-11.5 2.8-17.4 3.6-20.5 2.2-30.7 1.1-35.4.8z" fill="#a00"/><path d="m757.6 6.4h20.1c.7 0 1.3-.1 2 0 1.5.2 1.7.8.8 2-1.7 2.2-1.7 2.4.2 4.4.1.1.1.1.2.2 9.4 9.5 18.7 18.9 28.1 28.4.5.5.9 1 1.4 1.4.9.7 1.9.7 2.9-.1.5-.4 1-.9 1.4-1.4 9.2-9.3 18.5-18.6 27.7-28 .3-.3.7-.7 1-1 1.2-1.5 1.2-2.1.1-3.7-1-1.4-1-2.2 1.1-2.3h1.4 40.8c.8 0 1.7 0 2.5.2.3.1.8.6.8 1 .1.4-.2 1-.5 1.2-.9.5-1.9.9-2.9 1.1-3.8.8-6.9 2.7-9.7 5.5-11.8 12.1-23.8 24-35.7 36-3 3-5.9 6.1-8.8 9.2-1.8 1.9-1.9 2.9 0 4.8 3.3 3.4 6.7 6.6 10 10 2.4 2.5 4.7 5.2 7.1 7.6 6.5 6.6 13.1 13.1 19.6 19.7 4.4 4.4 8.7 8.9 13 13.4 2.5 2.6 5.4 4.4 8.9 5.3 1.3.3 2.5.8 3.7 1.3.3.1.7.8.6 1.1-.1.4-.5.8-.9.9-.6.2-1.3.2-2 .2-13.9 0-27.8 0-41.6 0-.6 0-1.2 0-1.7-.1-.9-.3-1.2-.8-.7-1.7.5-.8 1.2-1.6 1.1-2.4s-.9-1.6-1.6-2.2c-10.8-11-21.6-22-32.3-32.9-.4-.4-.8-.8-1.2-1.2-2.4-2.3-3.3-2.3-5.6 0-6.9 6.9-13.8 13.7-20.6 20.6-4.4 4.5-8.8 9.1-13.1 13.7-1.6 1.7-1.6 1.8-.4 4.1.7 1.3.4 1.9-1 2.1-.6.1-1.3.1-2 .1-13.4 0-26.8 0-40.2 0-1.2 0-3.2.3-3.3-1.1-.2-1.5 1.6-1.6 2.7-1.9 4.9-1.1 8.6-3.9 12.1-7.5 11-11.3 22.2-22.4 33.3-33.6 3.4-3.5 6.7-7.1 10.1-10.6 1.3-1.4 2.8-2.6 4.1-3.9 2.8-2.8 2.8-3.5.1-6.2-8.2-8.3-16.3-16.5-24.5-24.8-6.6-6.7-13.3-13.4-19.8-20.2-2.5-2.6-5.5-4.2-9-5.1-.6-.2-1.3-.3-1.9-.5-.9-.3-2-.5-1.9-1.7s1.2-1.2 2.2-1.2h1.7c6.7-.2 13.4-.2 20.1-.2z" fill="#a00"/><g fill="#0584db"><path d="m4.3 128.3h52.3c21.4 0 38.7-17.3 38.7-38.7s-17.3-38.7-38.7-38.7h-13.6c-1.1 0-2-.9-2-2s.9-2 2-2h52.2v-16.4h-52.2c-10.1 0-18.3 8.2-18.3 18.3s8.2 18.3 18.3 18.3l13.6.2c12.2 0 22.2 9.9 22.2 22.2 0 12.2-9.9 22.2-22.2 22.2h-52.3z"/><path d="m4.3 107.8h52.3c10.1 0 18.3-8.2 18.3-18.3s-8.2-18.3-18.3-18.3l-13.6-.2c-12.2 0-22.2-9.9-22.2-22.2 0-12.2 9.9-22.2 22.2-22.2h52.2v-16.5h-52.2c-21.4 0-38.7 17.3-38.7 38.7s17.3 38.7 38.7 38.7h13.5c1 0 1.9.8 1.9 1.9 0 1-.8 1.9-1.9 1.9h-52.2z"/><path d="m135.8 111.8c-9.1 0-16.5-7.3-16.5-16.5v-52.4c0-8.9 7.4-16.2 16.5-16.2h55.8v-16.5h-55.8c-18.1 0-32.9 14.7-32.9 32.9v52.2c0 18.1 14.7 32.9 32.9 32.9h55.6v-16.4z"/><path d="m123.3 43.1c0-6.9 5.6-12.5 12.5-12.5h55.8v16.4h-48.1c-3.9 0-3.9 3.9-3.9 3.9h40.1v16.4h-56.4z"/><path d="m135.8 107.8c-6.9 0-12.5-5.6-12.5-12.5v-24.2h56.4v16.4h-40.1c0 3.9 3.9 3.9 3.9 3.9h47.9v16.3z"/><path d="m230.7 111.7c-9.1 0-16.4-7.4-16.4-16.4v-52.2c0-9.1 7.3-16.4 16.4-16.4h54v-16.4h-54.2c-18.1 0-32.9 14.7-32.9 32.9v52.2c0 18.1 14.8 32.9 33 32.9h54v-77.4h-46.4v16.4h30v44.5z"/><path d="m218.2 95.3c0 6.9 5.6 12.6 12.5 12.6h33.7v-36.8h-26.1v16.4h9.7v3.9h-9.6c-2.1 0-3.9-1.7-3.9-3.9l-.1-36.7s0-3.8 3.9-3.9h46.4v-16.4h-54c-6.9 0-12.5 5.6-12.5 12.5z"/><path d="m335.5 30.2c.7-2.1 2.7-3.6 5.1-3.6 2.3 0 4.3 1.5 5.1 3.6l26.2 77.7h-38.4v-18.3h12.8l-5.8-17.2-18.8 55.7h-19.4z"/><path d="m377.1 111.7h-43.6v16.4h66.4l-34.6-102.5c-3-10-13-17.3-24.8-17.3s-21.8 7.3-24.8 17.3l-34.9 102.5h17.4l33.8-99.7c1.4-3.3 4.6-5.6 8.4-5.6s7 2.3 8.4 5.6z"/></g></svg>