<svg enable-background="new 0 0 545 82" viewBox="0 0 545 82" xmlns="http://www.w3.org/2000/svg"><g fill="#c61717"><path d="m22.9 52.7c-.1 0-.2 0-.2-.1-7.5-3.6-11.4-7.9-11.2-12.3.1-3.6 3.1-7 8.5-9.9 5.2-2.7 12.4-4.8 21.1-6.2.3 0 .6.2.6.4 0 .3-.2.6-.4.6-17.4 2.7-28.4 8.5-28.7 15.1-.2 3.9 3.6 7.9 10.6 11.3.3.1.4.4.2.7-.1.3-.3.4-.5.4z"/><path d="m88.3 25.8c-5.6-.9-11.5-1.5-17.5-1.8-.3 0-.5-.3-.5-.6s.3-.5.6-.5c6 .3 11.9.9 17.5 1.8.3 0 .5.3.4.6 0 .3-.2.5-.5.5z"/><path d="m71.7 61.7c-.1 0-.3 0-.4 0-.3 0-.5-.2-.5-.5s.2-.5.5-.5h.4c28.2 0 50.4-7.3 50.7-16.7.1-3.3-2.5-6.6-7.6-9.7-5.1-3-12.4-5.6-21.1-7.4-.3-.1-.5-.3-.4-.6s.3-.5.6-.4c8.8 1.9 16.2 4.5 21.4 7.6 5.5 3.2 8.3 6.9 8.2 10.6-.2 5-5.7 9.6-15.6 12.8-9.5 3.1-22.4 4.8-36.2 4.8z"/><path d="m81.3 34.3 13.9-10.6-16.4 6.5-4.5-4.8 1.4 6.7-13.9 10.6 16.3-6.6 4.6 4.8z"/><path d="m63.9 47.5c.2-1 .6-.8 1.6-1l.9-.1-.3 1.5-.9.1c-1.1.2-1.5.5-1.3-.5zm-2-1.4-.8 3.9c-.2 1.1.1 1.4 1.1 1.2l5.9-.9 1.3-6.8-5.9.9c-1 .2-1.4.6-1.6 1.7zm37.4-6.1-.1.4 6.1-1c.5-.1.9-.6 1-1.1s-.2-.9-.7-.8l-1.6.2-2.5.4-.6.1c-.7.2-1.5 1-1.6 1.8zm-42.7 17.5v-.3c.2 0 .5.1.7.1l6.3-1c-.2 1.3-1.9 1.6-4.4 2l-2.9.5-1.6 8.3 3.8-.6c9.5-.9 13.1-5.8 14.2-11.5l11.4-1.8 1.8-9.9.9-.1c1-.2.9-.3.7.7l-1.7 9 8.2-1.3.1-.6c.6.3 1.3.4 2.1.2l14.2-2.2 1.3-7.1-.9-.7c.8-.9 1.4-2.1 1.6-3.1l.2-1.1c.7-4.2-3.2-5.3-4.9-5l-8.1 1.3c-1.4.2-3 1.2-4.2 2.6-1.1-1.1-2.7-1.5-3.7-1.3l-9 1.4 1 2.2 8.2-1.3c1.2-.2 2 .3 2.2 1.2-.1.2-2.2 11.4-2.2 11.4l-3 .5 1.6-8.4c.2-1.1-.1-1.4-1.1-1.2l-5.6.9-1.8 9.9-3.2.5 2.1-11.3-2.6-3.1-9.5 3.4 4.5-.7h.1l-2.9 15.4c-.7 3.9-4.9 7.7-8.6 8.3l-3.8.6.6-3.1 2.9-.5c2.5-.4 5.4-2.9 5.9-5.6l.3-1.7-7.5 1.2c-1.6.3-2.5-.7-2.2-2.4l1.3-7.3c.2-1.3 1-2.4 2.1-2.9v-.2l3.8-2.9-2.3.3c-1.2.2-3.3 1.1-4.7 2.8-1-1.2-2.9-1.7-3.9-1.6l-8.1 1.3 1.3-7.1 5.9-.9c3.2-.5 6.6-4 7.3-7.4l.9-4.8c.6-3.3-1.7-5.9-4.9-5.4l-12.9 2.1-2.9 14.8-11.9 1.9c-1 .2-2 1.2-2.2 2.2l-4.5 23.9c-.2 1.1.5 1.8 1.5 1.6l22.7-3.6 1.8-9.9.9-.1c1-.2.9-.3.7.7l-1.7 9zm-16.8-5.4-7.6 1.2.3-1.5 6.1-1 1.5-8-6.1 1 .3-1.5 7.6-1.2zm-.5 2.5-.6 3.4-13.4 2.1 4.2-22.6 11.1-1.8-.6 3.1-7.9 1.3-1.2 6.5 6.4-1-.6 3.1-6.4 1-1.2 6.5zm15.4.8-3.2.5 1.6-8.4c.2-1.1-.1-1.4-1.1-1.2l-5.6.9-1.9 9.8-3.2.5 2.4-13h.1l10.7-1.7c1.6-.3 2.5.7 2.2 2.4zm20.9-15.9 3.1-.5-2.4 13-3.2.5zm19.5 6.1 1.1-6c.4-1.9 2.4-3.8 4.1-4l7.5-1.2c1.3-.2 2.1 1.2 1.9 2.6l-.4 1.9c-.3 1.4-1.7 2.9-2.9 3.1l-7.8 1.2-.1.7c-.1.8.4 1.4 1.1 1.3l8.7-1.4-.6 3.2-9.7 1.6c-1.8.2-3.2-1.1-2.9-3zm-46.5-16.8 1.1-5.9 4.1-.6c.5-.1.8.2.7.8l-.7 4c-.1.6-.5 1-1.1 1.1z"/><path d="m74.8 31.5-.9-3.4-.5.1-.1.8c-.1.6-.6 1.1-1.1 1.2l-3.4.5c-.6.1-.9-.3-.8-.9l1.7-9.1c.1-.6.6-1.1 1.1-1.2l3.4-.5c.6-.1.9.3.8.9l-.2 1.2 6.8-1.1.3-1.4c.7-3.5-1.7-6.2-5.1-5.6l-6.5 1c-3.3.5-6.9 4.1-7.5 7.6l-1.8 9.7c-.7 3.5 1.7 6.2 5.1 5.6l2.2-.3z"/><path d="m79.6 29.5c.2-.5.3-.7.4-1.1l.2-1.2-2.7.4z"/></g><path d="m159.8 69.5c-7.7 0-14.9-2.5-20.1-6.9-5.2-4.5-8.1-10.6-8.1-17.3s2.9-12.8 8.1-17.3 12.3-6.9 20.1-6.9h36v9h-36c-5.4 0-10.3 1.7-14 4.8-3.3 2.9-5.2 6.7-5.2 10.4 0 3.8 1.9 7.6 5.2 10.4 3.6 3.1 8.6 4.8 14 4.8h36v9z" fill="#fff"/><path d="m194.9 22v7h-35c-5.6 0-10.8 1.8-14.6 5.1-3.6 3.1-5.6 7.1-5.6 11.2 0 4 2 8.1 5.6 11.2 3.8 3.3 9 5.1 14.6 5.1h35v7h-35c-7.5 0-14.4-2.4-19.4-6.7s-7.7-10.1-7.7-16.5 2.7-12.2 7.7-16.5 11.9-6.7 19.4-6.7h35m2-2.2h-1.5s-22.1 0-35.5 0c-8.2 0-15.5 2.7-20.7 7.2s-8.4 10.9-8.4 18c0 7.2 3.2 13.5 8.4 18s12.5 7.2 20.7 7.2h35.5 1.5v-11h-1.5s-22.1 0-35.5 0c-5.6 0-10.1-1.9-13.3-4.6s-4.9-6.3-4.9-9.7 1.7-6.9 4.9-9.7c3.2-2.7 7.7-4.6 13.3-4.6h35.5 1.5z"/><path d="m379.9 69.5c-7.7 0-14.9-2.5-20.1-6.9-5.2-4.5-8.1-10.6-8.1-17.3s2.9-12.8 8.1-17.3 12.3-6.9 20.1-6.9h23.7c7.7 0 14.9 2.5 20.1 6.9 5.2 4.5 8.1 10.6 8.1 17.3s-2.9 12.8-8.1 17.3-12.3 6.9-20.1 6.9zm0-39.5c-5.4 0-10.3 1.7-14 4.8-3.3 2.9-5.2 6.7-5.2 10.4 0 3.8 1.9 7.6 5.2 10.4 3.6 3.1 8.6 4.8 14 4.8h23.7c5.4 0 10.3-1.7 14-4.8 3.3-2.9 5.2-6.7 5.2-10.4 0-3.8-1.9-7.6-5.2-10.4-3.6-3.1-8.6-4.8-14-4.8z" fill="#fff"/><path d="m403.6 22c7.5 0 14.4 2.4 19.4 6.7s7.7 10.1 7.7 16.5-2.7 12.2-7.7 16.5-11.9 6.7-19.4 6.7h-23.7c-7.5 0-14.4-2.4-19.4-6.7s-7.7-10.1-7.7-16.5 2.7-12.2 7.7-16.5 11.9-6.7 19.4-6.7zm-23.7 39.5h23.7c5.6 0 10.8-1.8 14.6-5.1 3.6-3.1 5.6-7.1 5.6-11.2 0-4-2-8.1-5.6-11.2-3.8-3.3-9-5.1-14.6-5.1h-23.7c-5.6 0-10.8 1.8-14.6 5.1-3.6 3.1-5.6 7.1-5.6 11.2 0 4 2 8.1 5.6 11.2 3.8 3.3 9 5.1 14.6 5.1m23.7-41.5h-23.7c-8.2 0-15.5 2.7-20.7 7.2s-8.4 10.9-8.4 18c0 7.2 3.2 13.5 8.4 18s12.5 7.2 20.7 7.2h23.7c8.2 0 15.5-2.7 20.7-7.2s8.4-10.9 8.4-18c0-7.2-3.2-13.5-8.4-18s-12.5-7.2-20.7-7.2zm-23.7 39.5c-5.6 0-10.1-1.9-13.3-4.6s-4.9-6.3-4.9-9.7 1.7-6.9 4.9-9.7c3.2-2.7 7.7-4.6 13.3-4.6h23.7c5.6 0 10.1 1.9 13.3 4.6s4.9 6.3 4.9 9.7-1.7 6.9-4.9 9.7c-3.2 2.7-7.7 4.6-13.3 4.6z"/><path d="m202.7 69.5v-48.5h36.1 1.5c7.1.3 13.7 2.8 18.5 6.9 5.2 4.5 8.1 10.6 8.1 17.3s-2.9 12.8-8.1 17.3-12.3 6.9-20.1 6.9h-22.8-13.2zm9-9h27.1c5.4 0 10.3-1.7 14-4.8 3.3-2.9 5.2-6.7 5.2-10.4 0-3.8-1.9-7.6-5.2-10.4-3.6-3.1-8.6-4.8-14-4.8h-27.1z" fill="#fff"/><path d="m238.8 20v2h1.5c6.9.3 13.3 2.7 17.9 6.7 5 4.3 7.7 10.1 7.7 16.5s-2.7 12.2-7.7 16.5-11.9 6.7-19.4 6.7h-22.8-12.3v-46.4h10.6 24.5zm-28.1 41.5h2 26.1c5.6 0 10.8-1.8 14.6-5.1 3.6-3.1 5.6-7.1 5.6-11.2 0-4-2-8.1-5.6-11.2-3.8-3.3-9-5.1-14.6-5.1h-26.1-2v2 28.5zm28.1-41.5c-9 0-17.9 0-24.5 0s-11 0-11 0h-1.5v50.4h1.5 12.7 22.8c8.2 0 15.5-2.7 20.7-7.2s8.4-10.9 8.4-18c0-7.2-3.2-13.5-8.4-18-4.9-4.2-11.6-6.8-19.1-7.1-.8-.1-1.4-.1-1.6-.1zm-26.1 39.5v-28.5h26.1c5.6 0 10.1 1.9 13.3 4.6s4.9 6.3 4.9 9.7-1.7 6.9-4.9 9.7c-3.2 2.7-7.7 4.6-13.3 4.6-7-.1-15.2-.1-26.1-.1z"/><path d="m336.9 69.5s0-9.3 0-12.4c0-1.7-.9-3.6-2.3-5.1-1.4-1.4-3.3-2.3-5-2.3h-35v19.7h-9v-48.4h47.9c3.9 0 7.2 1.5 9.3 4.3 2 2.6 3.1 6.1 3.1 10.3 0 2.1-1 4.5-2.6 6.6-.9 1.2-1.9 2-2.9 2.6l-1.2.7 1.1.9c.5.4 1 .9 1.5 1.3 1.9 1.9 4.1 5 4.1 9.3v12.4h-9zm-42.4-28.7h35c2 0 3.9-.5 5.1-1.3 1.5-1 2.2-2.2 2.2-3.9s-.7-3-2.2-4.1c-1.3-.9-3.2-1.5-5.1-1.5h-35z" fill="#fff"/><path d="m333.5 22c3.5 0 6.5 1.4 8.4 3.9 1.9 2.4 2.9 5.7 2.9 9.7 0 1.9-.9 4.1-2.4 6-.8 1.1-1.7 1.9-2.6 2.4l-2.5 1.5 2.2 1.8c.5.4 1 .8 1.4 1.2 1.7 1.7 3.8 4.6 3.8 8.5v11.4h-7v-1.5c0-2.6 0-7 0-9.8 0-2-1-4.1-2.6-5.8-1.6-1.6-3.8-2.6-5.8-2.6h-34-2v2 17.7h-7v-46.4h20.3zm-40 19.8h2 13.3 20.7c2.2 0 4.2-.5 5.7-1.5 1.8-1.2 2.6-2.7 2.6-4.7 0-2-.9-3.6-2.7-4.9-1.5-1.1-3.6-1.7-5.7-1.7h-20.7-13.3-2v2 8.8 2m40.1-21.8c-4 0-15.9 0-26.7 0-10.9 0-20.7 0-20.7 0h-1.5v50.4h11v-19.7h34c1.4 0 3.1.8 4.3 2s2 2.9 2 4.3v11.8 1.5h11v-1.5s0-3.9 0-11.8c0-4.5-2.3-7.8-4.4-10-.5-.5-1.1-1-1.5-1.4 1.2-.7 2.3-1.8 3.2-2.9 1.6-2.2 2.8-4.8 2.8-7.2 0-4.2-1-8-3.3-10.9-2.4-2.8-5.9-4.6-10.2-4.6zm-38 19.8v-8.8h13.3 20.7c1.7 0 3.4.5 4.5 1.3 1.2.8 1.8 1.9 1.8 3.3s-.6 2.3-1.8 3c-1.1.7-2.8 1.1-4.6 1.1-3.9 0-12.8 0-20.7 0-5.6.1-10.7.1-13.2.1z"/><path d="m274.9 49.7c-2.5 0-4.5-2-4.5-4.5s2-4.5 4.5-4.5h3c2.5 0 4.5 2 4.5 4.5s-2 4.5-4.5 4.5z" fill="#fff"/><path d="m277.9 41.8c1.9 0 3.5 1.6 3.5 3.5s-1.6 3.5-3.5 3.5h-3c-1.9 0-3.5-1.6-3.5-3.5s1.6-3.5 3.5-3.5zm0-2h-3c-3 0-5.5 2.5-5.5 5.5s2.5 5.5 5.5 5.5h3c3 0 5.5-2.5 5.5-5.5 0-3.1-2.5-5.5-5.5-5.5z"/><path d="m493.8 69.5v-32.1c0-1.7-.4-3.1-1.2-4.2-.7-.9-1.6-1.6-2.9-2.2-2.1-.8-4.7-.9-6.8-.9h-7.8v39.5h-9v-39.6h-7.6c-1.7 0-3.4 0-5.1.4-2.2.5-3.8 1.4-4.7 2.7-.8 1.1-1.2 2.5-1.2 4.2v32.1h-9v-36c0-3.8 1.8-7.1 5.2-9.3 3-2 6.9-3 11.2-3.1h31.6c4.2 0 8.2 1.1 11.1 3 3.4 2.2 5.2 5.5 5.2 9.3v36.1h-9z" fill="#fff"/><path d="m470.7 22h15.8c4 0 7.8 1 10.6 2.9 1.8 1.2 4.7 3.8 4.7 8.5v35h-7v-31c0-2-.5-3.5-1.4-4.8-.8-1.1-1.9-1.9-3.3-2.5-2.2-.9-5-1-7.2-1h-.4-6.4-2v2 37.5h-7v-37.6-2h-2-6.4-.3c-1.7 0-3.5.1-5.3.4-2.4.5-4.2 1.6-5.3 3.1-.9 1.3-1.4 2.9-1.4 4.8v31.1h-7v-35.1c0-4.7 2.9-7.3 4.7-8.5 2.8-1.9 6.6-2.9 10.6-2.9zm0-2c-6.9 0-13.8 0-15.8 0-4.2 0-8.4 1-11.7 3.2s-5.6 5.7-5.6 10.2v35.5 1.5h11v-1.5s0-23.7 0-31.6c0-1.7.4-2.8 1-3.7.9-1.2 2.4-1.9 4.1-2.3 1.6-.4 3.4-.4 4.9-.4h.3 6.4v39.5h11v-39.4h6.4.4c1.9 0 4.5.1 6.4.9 1 .4 1.9 1 2.5 1.8s1 1.9 1 3.7v31.6 1.5h11v-37c0-4.5-2.3-8-5.6-10.2s-7.5-3.2-11.7-3.2c-2.2-.1-9.1-.1-16-.1z"/><path d="m508.2 37.2v-3.8c0-2.2.2-5.1 1.6-7.4 1.5-2.4 4.3-3.7 8.1-3.7h5c1 0 1.8-.2 2.4-.6.7-.5 1-1.2 1-2.1-.1-1.2-.5-1.6-1.2-2-.6-.3-1.4-.4-2.5-.4h-11.8v-5.8h16.2c2.4 0 4.4 1 5.8 2.7 1.2 1.5 1.9 3.5 1.9 5.6 0 2.8-.9 5.1-2.5 6.5-1.5 1.4-3.7 2.1-6.4 2.1h-3c-.3 0-.5 0-.8 0s-.6 0-.9 0h-.1c-1.3 0-2.2.1-2.8.4-.4.2-.8.5-1 .9l-.8 1.5h18v6.2h-26.2z" fill="#fff"/><path d="m527.1 10.2v2c2 0 3.8.8 5 2.3 1 1.3 1.7 3.1 1.7 5 0 2.5-.7 4.5-2.2 5.8-1.7 1.5-4.1 1.8-5.8 1.8h-2.5-.4-.1c-.3 0-.5 0-.8 0s-.6 0-.9 0h-.1c-1.5 0-2.5.2-3.3.5-.3.2-1 .5-1.4 1.3l-1.5 2.9h3.3 15.3v4.2h-24.1v-2.8c0-2.1.2-4.8 1.5-6.9s3.8-3.2 7.2-3.2h.1 4.9c1.2 0 2.2-.3 3-.9.9-.7 1.4-1.6 1.4-2.9v-.1-.1c-.1-1.7-.8-2.3-1.7-2.8h-.1-.1c-.7-.3-1.7-.5-2.9-.5h-.1-10.8v-3.8h15.3zm0 0c-.1 0-.1 0 0 0-3.9 0-12.5 0-16.4 0h-.9v7.8h.9 11.9.1c.8 0 1.6.1 2 .3.4.3.6.4.7 1.2 0 .8-.2 1.1-.6 1.4s-1 .4-1.8.4h-4.9-.1c-4.6 0-7.4 1.7-8.9 4.2-1.5 2.4-1.8 5.4-1.8 7.9v4.8h28.1v-8.2h-17.3c.1-.2.3-.4.6-.5.5-.2 1.4-.3 2.4-.3h.1 1.7.1.4 2.5c2.8 0 5.3-.7 7.1-2.3s2.9-4.1 2.9-7.3c0-2.1-.7-4.4-2.1-6.2-1.6-1.9-3.9-3.2-6.7-3.2z"/></svg>