<svg enable-background="new 0 0 1607 448" viewBox="0 0 1607 448" xmlns="http://www.w3.org/2000/svg"><path d="m1582 438.1s-36-44.4-56.8-70.3c-6.9-8.6-12.1-15.1-13.9-17.5-2.5-3.3-4.3-5.7-5.5-6.9s-1.4-1.3-2.4-1.6c-.6-.2-1.8-.4-3.8-.4h-85c-2.8 0-5.5-1.1-7.4-3.1-2-2-3.1-4.7-3.1-7.4v-12.5h-74c-2.8 0-5.5-1.1-7.4-3.1-2-2-3.1-4.7-3.1-7.4v-57c0-2.8 1.1-5.5 3.1-7.4s4.7-3.1 7.4-3.1h75v-2h-77c-2.8 0-5.5-1.1-7.4-3.1-2-2-3.1-4.7-3.1-7.4v-54c0-2.8 1.1-5.5 3.1-7.4 2-2 4.7-3.1 7.4-3.1h75v-2h-90v169.6c0 2.8-1.1 5.5-3.1 7.4-2 2-4.7 3.1-7.4 3.1h-64.5c-2.8 0-5.5-1.1-7.4-3.1-2-2-3.1-4.7-3.1-7.4v-189.5h-4.5v189.5c0 2.8-1.1 5.5-3.1 7.4-2 2-4.7 3.1-7.4 3.1h-157.5c-2.8 0-5.5-1.1-7.4-3.1-2-2-3.1-4.7-3.1-7.4v-135.5c0-2.8 1.1-5.5 3.1-7.4 2-2 4.7-3.1 7.4-3.1h82v-99.5h-101.5v246.5c0 2.8-1.1 5.5-3.1 7.4-2 2-4.7 3.1-7.4 3.1h-122.4c-2.8 0-5.5-1.1-7.4-3.1-2-2-3.1-4.7-3.1-7.4v-36c0-2.8 1.1-5.5 3.1-7.4 2-2 4.7-3.1 7.4-3.1h47.5v-125.5h-124v125.5h45.5c2.8 0 5.5 1.1 7.4 3.1 2 2 3.1 4.7 3.1 7.4v36c0 2.8-1.1 5.5-3.1 7.4-2 2-4.7 3.1-7.4 3.1h-111.5c-3.1 0-6.7 0-10.7-.9s-8.4-2.9-12.1-6.1c-.6-.6-.8-.8-1.2-1.1-.3-.3-.6-.7-1-1.1-.8-.8-1.7-1.8-2.8-3.1-2.3-2.5-5.3-5.8-8.8-9.8-7-7.9-16.1-18.1-25-28.3-17.9-20.3-35.3-40.2-35.3-40.2-2.7-3.1-3.4-7.5-1.7-11.3s5.4-6.2 9.6-6.2h69v-73.4h-88v170c0 2.8-1.1 5.5-3.1 7.4-2 2-4.7 3.1-7.4 3.1h-64c-2.8 0-5.5-1.1-7.4-3.1-2-2-3.1-4.7-3.1-7.4v-232c0-2.8 1.1-5.5 3.1-7.4 2-2 4.7-3.1 7.4-3.1h85.5v-4.5h-195.4v4.5h84c2.8 0 5.5 1.1 7.4 3.1 2 2 3.1 4.7 3.1 7.4v232c0 2.8-1.1 5.5-3.1 7.4-2 2-4.7 3.1-7.4 3.1h-64.5c-2.8 0-5.5-1.1-7.4-3.1-2-2-3.1-4.7-3.1-7.4v-13.5h-76c-2.8 0-5.5-1.1-7.4-3.1-2-2-3.1-4.7-3.1-7.4v-57c0-2.8 1.1-5.5 3.1-7.4 2-2 4.7-3.1 7.4-3.1h76v-2.5h-76.5c-2.8 0-5.5-1.1-7.4-3.1-2-2-3.1-4.7-3.1-7.4v-53.5c0-2.8 1.1-5.5 3.1-7.4 2-2 4.7-3.1 7.4-3.1h77v-3h-91.5v171.5c0 2.8-1.1 5.5-3.1 7.4-2 2-4.7 3.1-7.4 3.1h-67c-1.1 0-2.3 0-3.8-.2-1.4-.2-3.1-.7-4.4-1.3-2.7-1.2-4-2.3-6.2-3.7-1.1-.8-1.6-1.3-2-1.7s-.7-.7-.9-1c-.5-.6-1-1.2-1.4-1.9-1-1.3-2-3-3.3-4.9-2.5-4-5.8-9.3-9.7-15.5-7.6-12.6-17.3-28.9-26.9-45.2-19.1-32.5-37.6-64.7-37.6-64.7-1.9-3.3-1.9-7.2 0-10.5 1.9-3.2 5.3-5.2 9.1-5.2h81.5v-100h-99.6l-1.3 245.3c0 5.7-4.7 10.4-10.4 10.4 0 0-82.4.5-86.1.5-6.3 0-11.4-2.1-14.7-4.2-3.2-2-4.9-4-5.5-4.7l-76.9-92.9c-3.7-4.5-3.1-11.1 1.4-14.8s11.1-3.1 14.8 1.4l76.7 92.7c.1.1.4.3.7.5.8.5 1.7.9 3.5.9 1.6 0 23.2-.1 44.2-.2 11.7-.1 23.3-.1 31.3-.2l1.4-245.6c0-5.8 4.7-10.4 10.5-10.4h120.5c2.8 0 5.5 1.1 7.4 3.1 2 2 3.1 4.7 3.1 7.4v121c0 2.8-1.1 5.5-3.1 7.4-2 2-4.7 3.1-7.4 3.1h-73.8c3.1 5.4 6.9 11.8 11 18.9 11.5 19.8 25.9 44.4 37.5 63.8 7.7 12.9 14.3 23.6 17.7 28.6.5.7.9 1.3 1.2 1.7.6.4 1.1.7 1.4.9h.1 56.5v-171.3c0-2.8 1.1-5.5 3.1-7.4 2-2 4.7-3.1 7.4-3.1h112.5c2.8 0 5.5 1.1 7.4 3.1 2 2 3.1 4.7 3.1 7.4v24c0 2.8-1.1 5.5-3.1 7.4-2 2-4.7 3.1-7.4 3.1h-77v32.5h76.5c2.8 0 5.5 1.1 7.4 3.1 2 2 3.1 4.7 3.1 7.4v23.5c0 2.8-1.1 5.5-3.1 7.4-2 2-4.7 3.1-7.4 3.1h-76v36h76c2.8 0 5.5 1.1 7.4 3.1 2 2 3.1 4.7 3.1 7.4v13.5h43.5v-211h-84c-2.8 0-5.5-1.1-7.4-3.1-2-2-3.1-4.7-3.1-7.4v-25.6c0-2.8 1.1-5.5 3.1-7.4 2-2 4.7-3.1 7.4-3.1h216.5c2.8 0 5.5 1.1 7.4 3.1 2 2 3.1 4.7 3.1 7.4v25.5c0 2.8-1.1 5.5-3.1 7.4-2 2-4.7 3.1-7.4 3.1h-85.5v211h43v-170c0-2.8 1.1-5.5 3.1-7.4 2-2 4.7-3.1 7.4-3.1h109c2.8 0 5.5 1.1 7.4 3.1 2 2 3.1 4.7 3.1 7.4v94.5c0 2.8-1.1 5.5-3.1 7.4-2 2-4.7 3.1-7.4 3.1h-56.3c4.8 5.4 10.2 11.7 15.9 18.1 16.3 18.5 34.1 38.7 39.8 44.8.5.5.9 1 1.1 1.2 1.2.9 1.8 1.2 3 1.5s3.2.4 6.1.4h101v-15h-45.5c-2.8 0-5.5-1.1-7.4-3.1-2-2-3.1-4.7-3.1-7.4v-146.5c0-2.8 1.1-5.5 3.1-7.4 2-2 4.7-3.1 7.4-3.1h145c2.8 0 5.5 1.1 7.4 3.1 2 2 3.1 4.7 3.1 7.4v146.5c0 2.8-1.1 5.5-3.1 7.4-2 2-4.7 3.1-7.4 3.1h-47.5v15h101.5v-246.5c0-2.8 1.1-5.5 3.1-7.4 2-2 4.7-3.1 7.4-3.1h122.5c2.8 0 5.5 1.1 7.4 3.1 2 2 3.1 4.7 3.1 7.4v120.5c0 2.8-1.1 5.5-3.1 7.4-2 2-4.7 3.1-7.4 3.1h-82v114.5h136.5v-189.5c0-2.8 1.1-5.5 3.1-7.4 2-2 4.7-3.1 7.4-3.1h25.5c2.8 0 5.5 1.1 7.4 3.1 2 2 3.1 4.7 3.1 7.4v189.5h43.5v-169.5c0-2.8 1.1-5.5 3.1-7.4 2-2 4.7-3.1 7.4-3.1h111c2.8 0 5.5 1.1 7.4 3.1 2 2 3.1 4.7 3.1 7.4v23c0 2.8-1.1 5.5-3.1 7.4-2 2-4.7 3.1-7.4 3.1h-75v33h77c2.8 0 5.5 1.1 7.4 3.1 2 2 3.1 4.7 3.1 7.4v23c0 2.8-1.1 5.5-3.1 7.4-2 2-4.7 3.1-7.4 3.1h-75v36h74c2.8 0 5.5 1.1 7.4 3.1 2 2 3.1 4.7 3.1 7.4v12.5h74.5c3.4 0 6.7.4 9.8 1.3s6 2.4 8.3 4.2c4.7 3.7 7.2 7.6 10.3 11.6 1.1 1.4 4.3 5.5 8.8 11 4.4 5.6 10.1 12.6 16.2 20.2 12.2 15.1 26.1 32.3 35.2 43.6 6.1 7.5 10.1 12.5 10.1 12.5 3.6 4.5 3 11.1-1.6 14.8-1.9 1.6-4.3 2.3-6.6 2.3-3.3 0-6.3-1.3-8.4-3.8z" fill="#fee600"/><path d="m1590.2 447.5c-4.6 0-9.3-2-12.4-5.9-.2-.2-36.1-44.5-56.8-70.3-7-8.7-12.1-15.1-14-17.6-2.4-3.2-4.3-5.6-4.9-6.3-.1-.1-.2-.2-.3-.3-.1 0-.2 0-.3 0-.4 0-.9-.1-1.7-.1h-85c-4.2 0-8.3-1.7-11.3-4.7s-4.7-7.1-4.7-11.3v-7h-68.5c-4.3 0-8.3-1.7-11.3-4.7-.1-.1-.1-.1-.2-.2v11.9c0 4.2-1.7 8.3-4.7 11.3s-7.1 4.7-11.3 4.7h-64.5c-4.2 0-8.3-1.7-11.3-4.7-.5-.5-1-1.1-1.4-1.7-.4.6-.9 1.1-1.4 1.7-3 3-7.1 4.7-11.3 4.7h-157.5c-4.2 0-8.3-1.7-11.3-4.7-1.5-1.5-2.7-3.3-3.5-5.3-.8 2.3-2.1 4.5-3.9 6.3-3 3-7.1 4.7-11.3 4.7h-122.7c-4.2 0-8.3-1.7-11.3-4.7-2.1-2.1-3.5-4.6-4.2-7.4-.7 2.8-2.1 5.3-4.2 7.4-3 3-7.1 4.7-11.3 4.7h-111.5c-3.1 0-7.2 0-11.8-1-4.9-1.1-10.1-3.4-14.6-7.3-.8-.7-1.2-1.2-1.5-1.4-.3-.3-.7-.7-1.1-1.1-.8-.8-1.7-1.9-2.9-3.1-2.3-2.5-5.3-5.9-8.8-9.8-7-7.9-16.1-18.1-25-28.3-17.9-20.3-35.3-40.2-35.3-40.3-.5-.6-1-1.3-1.5-1.9v77.2c0 4.3-1.7 8.3-4.7 11.3s-7.1 4.7-11.3 4.7h-64c-4.3 0-8.3-1.7-11.3-4.7-.6-.6-1.2-1.3-1.7-2-.5.7-1.1 1.4-1.7 2-3 3-7.1 4.7-11.3 4.7h-64.7c-4.2 0-8.3-1.7-11.3-4.7s-4.7-7.1-4.7-11.3v-8h-70.5c-3.4 0-6.8-1.1-9.5-3.1v11.1c0 4.3-1.7 8.3-4.7 11.3s-7.1 4.7-11.3 4.7h-67c-1.2 0-2.7 0-4.5-.3-2-.3-4-.9-5.9-1.7-3.2-1.5-4.9-2.9-6.9-4.1h-.1-.1c-1.4-1-2.5-2-2.7-2.3v-.1c-.5-.5-.9-1-1.2-1.4-.6-.8-1.1-1.5-1.7-2.2-1-1.4-2.2-3.1-3.5-5.2-2.6-4-5.9-9.4-9.7-15.7-7.6-12.6-17.3-29-26.9-45.3-17.1-29.1-33.7-58-37-63.7l-.8 126.1c-.1 8.8-7.1 15.8-15.9 15.9s-.1 0-.2 0c-.2 0-.4 0-.7 0-.6 0-1.5 0-2.6 0-2.3 0-5.5 0-9.4.1-7.8 0-18.2.1-28.7.2-21.1.1-42.5.2-44.4.2h-.1c-7.5 0-13.5-2.5-17.5-5-.9-.6-1.7-1.2-2.5-1.7l-.5.5-71-85.8-9.7-11.8c-2.5-3-3.7-6.6-3.7-10.2 0-2.9.8-5.9 2.4-8.5v-.1.1c.9-1.4 2-2.7 3.3-3.8 3-2.5 6.6-3.7 10.2-3.7 4.6 0 9.2 2 12.3 5.8l76.3 92.2h.4c1.6 0 23.2-.1 44.2-.2 9.3-.1 18.5-.1 25.9-.2l1.4-240.2c.1-8.8 7.2-15.9 16-15.9h120.5c4.2 0 8.3 1.7 11.3 4.7s4.7 7.1 4.7 11.3v121c0 4.3-1.7 8.3-4.7 11.3s-7.1 4.7-11.3 4.7h-64.3c1.9 3.3 4 6.9 6.2 10.7 11.5 19.7 25.9 44.4 37.5 63.7 7.7 12.9 14.3 23.6 17.5 28.4 0 .1.1.1.1.2h37 11.9v-166c0-4.3 1.7-8.3 4.7-11.3s7.1-4.7 11.3-4.7h112.5c4.3 0 8.3 1.7 11.3 4.7s4.7 7.1 4.7 11.3v24c0 4.3-1.7 8.3-4.7 11.3s-7.1 4.7-11.3 4.7h-71.4v21.5h71c4.3 0 8.3 1.7 11.3 4.7s4.7 7.1 4.7 11.3v23.5c0 4.2-1.7 8.3-4.7 11.3s-7.1 4.7-11.3 4.7h-70.5v25h70.5c4.3 0 8.3 1.7 11.3 4.7s4.7 7.1 4.7 11.3v8h32.5v-200h-78.5c-4.2 0-8.3-1.7-11.3-4.7s-4.7-7.1-4.7-11.3v-25.5c0-4.3 1.7-8.3 4.7-11.3s7.1-4.7 11.3-4.7h216.5c4.3 0 8.3 1.7 11.3 4.7s4.7 7.1 4.7 11.3v25.5c0 4.2-1.7 8.3-4.7 11.3s-7.1 4.7-11.3 4.7h-80v200h32v-164.5c0-4.3 1.7-8.3 4.7-11.3s7.1-4.7 11.3-4.7h109c4.2 0 8.3 1.7 11.3 4.7s4.7 7.1 4.7 11.3v94.5c0 4.3-1.7 8.3-4.7 11.3s-7.1 4.7-11.3 4.7h-44.2c2.5 2.9 5.2 5.9 7.9 9 16.3 18.5 34.2 38.8 39.7 44.7.3.3.6.6.8.8.1 0 .1.1.1.1h.1c.1 0 .2.1.5.1.4.1 2 .2 4.3.2h.5 53.3 42.1v-4h-40c-4.3 0-8.3-1.7-11.3-4.7s-4.7-7.1-4.7-11.3v-146.4c0-4.3 1.7-8.3 4.7-11.3s7.1-4.7 11.3-4.7h145c4.3 0 8.3 1.7 11.3 4.7s4.7 7.1 4.7 11.3v146.5c0 4.3-1.7 8.3-4.7 11.3s-7.1 4.7-11.3 4.7h-42v4h90.5v-241c0-4.2 1.7-8.3 4.7-11.3s7.1-4.7 11.3-4.7h122.5c4.2 0 8.3 1.7 11.3 4.7s4.7 7.1 4.7 11.3v120.5c0 4.2-1.7 8.3-4.7 11.3s-7.1 4.7-11.3 4.7h-76.6v103.5h125.5v-184c0-4.3 1.7-8.3 4.7-11.3s7.1-4.7 11.3-4.7h25.5c4.3 0 8.3 1.7 11.3 4.7s4.7 7.1 4.7 11.3v184h32.5v-164c0-4.3 1.7-8.3 4.7-11.3s7.1-4.7 11.3-4.7h111c4.2 0 8.3 1.7 11.3 4.7s4.7 7.1 4.7 11.3v23c0 4.2-1.7 8.3-4.7 11.3s-7.1 4.7-11.3 4.7h-69.5v22h71.5c4.2 0 8.3 1.7 11.3 4.7s4.7 7.1 4.7 11.3v23c0 4.2-1.7 8.3-4.7 11.3s-7.1 4.7-11.3 4.7h-69.5v25h68.5c4.2 0 8.3 1.7 11.3 4.7s4.7 7.1 4.7 11.3v7h69c3.8 0 7.6.4 11.3 1.5 3.8 1.1 7.3 2.9 10.2 5.2 5.4 4.3 8.3 8.8 11.3 12.6 1 1.3 4.3 5.4 8.7 10.9s10.1 12.6 16.2 20.2c12.2 15.1 26.1 32.3 35.2 43.6 6.1 7.5 10 12.4 10.1 12.5 2.4 2.9 3.6 6.5 3.6 10.1 0 4.6-2 9.3-5.9 12.4-2.9 2.4-6.5 3.6-10 3.6h-.3zm-134.7-111.5h44.2c2.4 0 4 .2 5.4.6h.1.1c.4.1 1.3.4 2.2 1s1.4 1.1 2.1 1.8l.1.1c1.8 1.8 3.4 4.1 6 7.4 1.7 2.2 6.9 8.7 13.8 17.4 20.8 25.8 56.8 70.3 56.8 70.3l-4.3 3.5 4.3-3.5c1 1.2 2.4 1.8 3.9 1.9 1.1 0 2.2-.4 3.1-1.1 1.2-1 1.9-2.4 1.9-3.9 0-1.1-.4-2.2-1.2-3.2 0 0-.1-.1-.1-.2-.1-.2-.3-.4-.5-.7-.5-.6-1.2-1.4-2-2.5-1.8-2.2-4.3-5.3-7.3-9.1-9.2-11.3-23-28.5-35.2-43.6-6.1-7.6-11.8-14.6-16.2-20.2-4.5-5.6-7.7-9.6-8.8-11.1-3.4-4.3-5.5-7.6-9.3-10.7-1.8-1.4-4.1-2.6-6.5-3.3-2.5-.7-5.1-1-8.2-1-3.5 0-52.5 0-74.5 0h-5.5v-18c0-1.3-.6-2.6-1.5-3.5s-2.3-1.5-3.5-1.5h-79.5v-47h80.5c1.3 0 2.6-.6 3.5-1.5s1.5-2.3 1.5-3.5v-23c0-1.3-.6-2.6-1.5-3.5s-2.3-1.5-3.5-1.5h-82.5v-44h80.5c1.3 0 2.6-.6 3.5-1.5s1.5-2.3 1.5-3.5v-23c0-1.3-.6-2.6-1.5-3.5s-2.3-1.5-3.5-1.5h-111c-1.3 0-2.6.6-3.5 1.5s-1.5 2.3-1.5 3.5v175h-54.5v-194.9c0-1.3-.6-2.6-1.5-3.5s-2.3-1.5-3.5-1.5h-25.5c-1.3 0-2.6.6-3.5 1.5s-1.5 2.3-1.5 3.5v195h-147.5v-125.5h87.5c1.3 0 2.6-.6 3.5-1.5s1.5-2.2 1.5-3.5v-120.5c0-1.3-.6-2.6-1.5-3.5s-2.3-1.5-3.5-1.5h-122.5c-1.3 0-2.6.6-3.5 1.5s-1.5 2.3-1.5 3.5v252h-112.7v-26h53c1.3 0 2.6-.6 3.5-1.5s1.5-2.3 1.5-3.5v-146.5c0-1.3-.6-2.6-1.5-3.5s-2.3-1.5-3.5-1.5h-145c-1.3 0-2.6.6-3.5 1.5s-1.5 2.3-1.5 3.5v146.5c0 1.3.6 2.6 1.5 3.5s2.3 1.5 3.5 1.5h51v26h-5.5c-11.1 0-29.5 0-47.6 0-25.6 0-50.6 0-53.4 0h-.1-.1-.3c-2.9 0-4.9-.1-7-.5h-.1c-1.3-.3-3.6-1.2-5-2.5l-.3-.2-.3-.3c-.2-.3-.7-.7-1.2-1.3-5.7-6.2-23.6-26.4-39.9-44.9-5.7-6.4-11.2-12.7-15.9-18.1l-8-9.1h68.5c1.3 0 2.6-.6 3.5-1.5s1.5-2.3 1.5-3.5v-94.5c0-1.3-.6-2.6-1.5-3.5s-2.3-1.5-3.5-1.5h-108.7c-1.3 0-2.6.6-3.5 1.5s-1.5 2.3-1.5 3.5v175.4h-54v-222h91c1.3 0 2.6-.6 3.5-1.5s1.5-2.3 1.5-3.5v-25.5c0-1.3-.6-2.6-1.5-3.5s-2.3-1.5-3.5-1.5h-216.5c-1.3 0-2.6.6-3.5 1.5s-1.5 2.3-1.5 3.5v25.5c0 1.3.6 2.6 1.5 3.5s2.3 1.5 3.5 1.5h89.5v222h-54.5v-19c0-1.3-.5-2.6-1.5-3.5-.9-.9-2.3-1.5-3.5-1.5h-81.5v-47h81.5c1.3 0 2.6-.6 3.5-1.5s1.5-2.3 1.5-3.5v-23.5c0-1.3-.6-2.6-1.5-3.5s-2.3-1.5-3.5-1.5h-82v-43.5h82.5c1.3 0 2.6-.6 3.5-1.5s1.5-2.3 1.5-3.5v-24c0-1.3-.6-2.6-1.5-3.5s-2.3-1.5-3.5-1.5h-112.5c-1.3 0-2.6.6-3.5 1.5s-1.5 2.3-1.5 3.5v177h-5.5-17.4c-17.5 0-37.2 0-39.1 0 0 0-.1 0-.4 0l-1.4-.1-1.2-.8c-.4-.2-.9-.6-1.5-1l-.8-.6-.6-.8c-.3-.5-.8-1.1-1.3-1.9-3.5-5.2-10.1-15.9-17.8-28.9-11.6-19.5-26-44.1-37.5-63.9-4.1-7.1-7.9-13.6-11-18.9l-4.8-8.1h83.3c1.3 0 2.6-.6 3.5-1.5s1.5-2.3 1.5-3.5v-121c0-1.3-.6-2.6-1.5-3.5s-2.2-1.5-3.5-1.5h-120.5c-2.7 0-5 2.2-5 5l-1.5 251h-5.4c-8 0-19.6.1-31.3.2-21 .1-42.6.2-44.3.2-2.7 0-5.2-1-6.3-1.7h-.1c-.7-.5-1.2-.9-1.6-1.2l-.2-.2-77-93c-1-1.2-2.4-1.8-3.9-1.8-1.1 0-2.2.4-3.2 1.2-1.2 1-1.8 2.4-1.8 3.9 0 1.1.4 2.2 1.1 3.1l76.4 92.3.5.6c.4.5 1.7 2 4.3 3.6s6.6 3.3 11.6 3.3h.1c3.6 0 86-.5 86-.5 2.7 0 5-2.3 5-5l1.5-251h110.5v111h-87c-1.8 0-3.4.9-4.3 2.5-.5.8-.7 1.6-.7 2.5 0 .8.2 1.7.6 2.4v.1c0 .1.1.2.2.3.1.2.4.6.6 1.1.5.9 1.3 2.3 2.4 4.1 2 3.5 4.9 8.6 8.4 14.6 7 12.1 16.4 28.3 25.9 44.5 9.5 16.3 19.2 32.6 26.8 45.1 3.8 6.3 7.1 11.5 9.6 15.4 1.3 1.9 2.3 3.5 3.2 4.7.5.6.8 1.1 1.2 1.6.2.3.4.5.6.7.5.5.4.4 1.2 1 2.4 1.6 3.3 2.3 5.3 3.3.8.4 2 .7 2.9.9 1.1.2 1.9.2 2.9.2h67c1.3 0 2.6-.6 3.5-1.5s1.5-2.3 1.5-3.5v-177h102.5v14h-82.5c-1.3 0-2.6.6-3.5 1.5s-1.5 2.3-1.5 3.5v53.5c0 1.3.6 2.6 1.5 3.5s2.3 1.5 3.5 1.5h82v13.5h-81.5c-1.3 0-2.6.6-3.5 1.5s-1.5 2.3-1.5 3.5v57c0 1.3.6 2.6 1.5 3.5s2.2 1.5 3.5 1.5h81.5v19c0 1.3.6 2.6 1.5 3.5s2.2 1.5 3.5 1.5h64.5c1.3 0 2.6-.6 3.5-1.5s1.5-2.3 1.5-3.5v-232c0-1.3-.6-2.6-1.5-3.5s-2.3-1.5-3.5-1.5h-89.5v-15.5h206.5v15.5h-91c-1.3 0-2.6.6-3.5 1.5s-1.5 2.3-1.5 3.5v232c0 1.3.5 2.6 1.5 3.5.9.9 2.3 1.5 3.5 1.5h64c1.3 0 2.6-.6 3.5-1.5s1.5-2.3 1.5-3.5v-175.5h99v84.5h-74.5c-2 0-3.7 1.2-4.6 2.9-.3.7-.4 1.3-.4 2.1 0 1.2.4 2.3 1.2 3.3s.1.1.1.2c.1.2.3.4.6.7.5.6 1.3 1.4 2.2 2.5 1.9 2.2 4.7 5.3 7.9 9.1 6.6 7.5 15.4 17.6 24.3 27.7s18 20.4 25 28.3c3.5 3.9 6.5 7.3 8.7 9.8 1.1 1.2 2 2.2 2.8 3 .4.4.7.7.9 1 .4.4.4.4.9.8 2.9 2.6 6.6 4.2 9.7 4.9 3.4.7 6.4.8 9.5.8h111.5c1.3 0 2.6-.6 3.5-1.5s1.5-2.3 1.5-3.5v-36c0-1.3-.6-2.6-1.5-3.5s-2.3-1.5-3.5-1.5h-51v-136.6h135v136.5h-53c-1.3 0-2.6.6-3.5 1.5s-1.5 2.3-1.5 3.5v36c0 1.3.6 2.6 1.5 3.5s2.3 1.5 3.5 1.5h122.5c1.3 0 2.6-.6 3.5-1.5s1.5-2.3 1.5-3.5v-252h112.5v110.5h-87.5c-1.3 0-2.6.6-3.5 1.5s-1.5 2.3-1.5 3.5v135.5c0 1.3.6 2.6 1.5 3.5s2.2 1.5 3.5 1.5h157.5c1.3 0 2.6-.6 3.5-1.5s1.5-2.3 1.5-3.5v-195h15.5v195c0 1.3.6 2.6 1.5 3.5s2.3 1.5 3.5 1.5h64.5c1.3 0 2.6-.6 3.5-1.5s1.5-2.3 1.5-3.5v-175h101v13h-80.5c-1.3 0-2.6.6-3.5 1.5s-1.5 2.3-1.5 3.5v54c0 1.3.6 2.6 1.5 3.5s2.3 1.5 3.5 1.5h82.5v13h-80.5c-1.3 0-2.6.6-3.5 1.5s-1.5 2.3-1.5 3.5v57c0 1.3.6 2.6 1.5 3.5s2.3 1.5 3.5 1.5h79.5v18c0 1.3.6 2.6 1.5 3.5s2.2 1.5 3.5 1.5zm-623.8-56h40c4.2 0 8.3 1.7 11.3 4.7 2.1 2.1 3.5 4.6 4.2 7.4.7-2.8 2.1-5.3 4.2-7.4 3-3 7.1-4.7 11.3-4.7h42v-114.5h-113zm-174-43.6c2.9-4.6 8-7.4 13.5-7.4h63.5v-62.5h-77zm383.5-48.6c.7-1.3 1.6-2.5 2.7-3.6 3-3 7.1-4.7 11.3-4.7h76.5v-88.5h-90.5zm-833.1-.9c3-4.3 7.9-6.9 13.2-6.9h76v-89h-88.6zm356.6-97.2c0-.1.1-.1.1-.2h-.3c.1.1.2.1.2.2z" fill="#222"/><path d="m1216.3 93.4-35.5-35.5c-2-2-3.1-4.7-3.1-7.5s1.2-5.5 3.2-7.5l35.5-34.5c4.1-4 10.7-3.9 14.8.2l34.5 35c4 4.1 4 10.7 0 14.7l-34.5 35c-2 2-4.6 3.1-7.4 3.1-2.9.1-5.6-1-7.5-3zm-13.2-42.8 20.5 20.5 19.8-20.1-19.9-20.2z" fill="#fee600"/><path d="m1223.7 102c-4.2 0-8.3-1.7-11.3-4.7l3.9-3.9-3.9 3.9-35.5-35.5c-3-3-4.7-7.1-4.7-11.3v-.1c0-.1 0-.1 0-.2.1-4.2 1.8-8.2 4.8-11.2l35.5-34.5c3.1-3 7.1-4.5 11.1-4.5 4.1 0 8.3 1.6 11.4 4.8l34.5 35c3.1 3.1 4.6 7.2 4.6 11.2s-1.5 8.1-4.6 11.2l-34.5 35c-2.8 3.1-6.9 4.8-11.3 4.8zm0-11c1.4 0 2.6-.5 3.6-1.5l34.5-35c1-1 1.4-2.2 1.4-3.5s-.5-2.5-1.4-3.5l-34.5-35c-1-1-2.3-1.5-3.6-1.5s-2.5.5-3.5 1.4l-35.5 34.5c-1 .9-1.5 2.2-1.5 3.6v.1c0 1.3.6 2.5 1.5 3.4l35.5 35.5c1 1 2.2 1.5 3.5 1.5zm-24.5-36.5-3.9-3.9 28.3-27.5 27.6 28-27.5 27.9zm24.4 8.8 12.1-12.3-12.3-12.5-12.4 12.2z"/></svg>