<svg enable-background="new 0 0 401 121.8" viewBox="0 0 401 121.8" xmlns="http://www.w3.org/2000/svg" xmlns:xlink="http://www.w3.org/1999/xlink"><linearGradient id="a"><stop offset="0" stop-color="#b2b2b4"/><stop offset=".3516" stop-color="#b2b2b4"/><stop offset=".3571" stop-color="#9ba29a"/><stop offset=".6758" stop-color="#9ba29a"/><stop offset=".6813" stop-color="#717274"/><stop offset="1" stop-color="#717274"/></linearGradient><linearGradient id="b" gradientTransform="matrix(1 0 0 -1 0 124)" gradientUnits="userSpaceOnUse" x1="64.829" x2="64.829" xlink:href="#a" y1="121.4414" y2="5.7275"/><linearGradient id="c" gradientTransform="matrix(1 0 0 -1 0 124)" gradientUnits="userSpaceOnUse" x1="345.163" x2="345.163" xlink:href="#a" y1="121.4414" y2="5.7275"/><linearGradient id="d" gradientTransform="matrix(1 0 0 -1 0 124)" gradientUnits="userSpaceOnUse" x1="186.6285" x2="186.6285" xlink:href="#a" y1="121.4414" y2="5.7275"/><linearGradient id="e" gradientTransform="matrix(1 0 0 -1 0 124)" gradientUnits="userSpaceOnUse" x1="265.897" x2="265.897" xlink:href="#a" y1="121.4409" y2="5.7272"/><path d="m64.8 3.1c-38.6 0-61.8 30.9-61.8 58s19.3 58 61.9 58c34.8 0 61.9-30.9 61.9-58s-23.3-58-62-58zm0 96.6c-19.3 0-30.9-11.6-30.9-38.7s11.6-38.7 30.9-38.7 31 11.7 31 38.8c0 27-11.6 38.6-31 38.6z" fill="url(#b)"/><path d="m362.6 119.1c-42.5 0-69.6-23.2-69.6-58s23.2-58 61.9-58c19.3 0 34.8 11.6 42.5 23.2-3.9 7.7-19.4 19.3-19.4 19.3-3.9 0-7.7-3.9-7.7-3.9 0-7.7 3.9-19.3-15.5-19.3-19.3 0-30.9 7.7-30.9 38.7 0 23.2 19.3 38.7 38.7 38.7h11.6c3.9-3.9 7.7-7.7 7.7-11.6h7.7v30.9s-11.6 0-27 0z" fill="url(#c)"/><path d="m231.1 107.5c-3.9-3.9-23.2-38.7-27.1-42.5 11.6 0 27.1-11.6 27.1-30.9s-15.5-30.9-30.9-30.9-46.4 0-65.7 0v7.7c7.7 0 7.7 11.6 7.7 11.6s0 77.3 0 81.2-3.9 7.7-7.7 7.7v7.7h41.1s0-2.4 0-7.7c-5.3 0-6.3-3.9-6.3-7.7 0-3.9 0-27.1 0-34.8 3.9 0 7.7 0 11.6 3.9s11.6 27.1 15.5 34.8 7.7 11.6 11.6 11.6h23.2l7.7-7.7c-.1-.2-3.9-.2-7.8-4zm-46.4-54.2c-7.7 0-15.5 0-15.5 0 0-15.5 0-30.9 0-30.9s7.7 0 15.5 0 15.5 3.9 15.5 15.5-7.8 15.4-15.5 15.4z" fill="url(#d)"/><path d="m281.4 103.6c0 3.9 3.9 7.7 7.7 7.7v7.7h-46.4v-7.7c3.9 0 7.7-3.9 7.7-7.7v-85.1c0-3.9-3.9-7.7-7.7-7.7v-7.7h46.4v7.7c-3.9 0-7.7 3.9-7.7 7.7z" fill="url(#e)"/></svg>