<svg enable-background="new 0 0 253.21 39.33" viewBox="0 0 253.21 39.33" xmlns="http://www.w3.org/2000/svg"><g fill="#fff"><path d="m67.56 30.26c-1.12.56-3.36 1.12-6.23 1.12-6.65 0-11.66-4.2-11.66-11.94 0-7.39 5.01-12.39 12.32-12.39 2.94 0 4.8.63 5.6 1.05l-.74 2.48c-1.15-.56-2.8-.98-4.76-.98-5.53 0-9.21 3.54-9.21 9.73 0 5.78 3.33 9.49 9.07 9.49 1.86 0 3.75-.39 4.97-.98z"/><path d="m90.8 18.99c0 8.12-4.94 12.43-10.96 12.43-6.23 0-10.61-4.83-10.61-11.97 0-7.49 4.66-12.39 10.96-12.39 6.44-.01 10.61 4.93 10.61 11.93zm-18.31.38c0 5.04 2.73 9.56 7.53 9.56 4.83 0 7.56-4.45 7.56-9.8 0-4.69-2.45-9.59-7.53-9.59-5.04 0-7.56 4.65-7.56 9.83z"/><path d="m94.75 7.44h3.05v21.04h10.08v2.56h-13.13z"/><path d="m111.27 7.44h3.05v21.04h10.08v2.56h-13.13z"/><path d="m140.01 19.97h-9.17v8.51h10.22v2.56h-13.27v-23.6h12.74v2.56h-9.7v7.46h9.17v2.51z"/><path d="m161.5 30.26c-1.12.56-3.36 1.12-6.23 1.12-6.65 0-11.66-4.2-11.66-11.94 0-7.39 5.01-12.39 12.32-12.39 2.94 0 4.8.63 5.6 1.05l-.73 2.48c-1.16-.56-2.8-.98-4.76-.98-5.53 0-9.21 3.54-9.21 9.73 0 5.78 3.33 9.49 9.07 9.49 1.85 0 3.75-.39 4.97-.98z"/><path d="m170.77 10.03h-7.18v-2.59h17.47v2.59h-7.21v21h-3.08z"/><path d="m186.73 7.44v23.59h-3.05v-23.59z"/><path d="m212.21 18.99c0 8.12-4.94 12.43-10.96 12.43-6.23 0-10.61-4.83-10.61-11.97 0-7.49 4.66-12.39 10.96-12.39 6.45-.01 10.61 4.93 10.61 11.93zm-18.31.38c0 5.04 2.73 9.56 7.53 9.56 4.83 0 7.56-4.45 7.56-9.8 0-4.69-2.45-9.59-7.53-9.59-5.03 0-7.56 4.65-7.56 9.83z"/><path d="m216.16 31.03v-23.59h3.33l7.56 11.94c1.75 2.77 3.12 5.25 4.24 7.67l.07-.04c-.28-3.15-.35-6.02-.35-9.7v-9.87h2.87v23.59h-3.08l-7.49-11.97c-1.64-2.63-3.22-5.32-4.41-7.88l-.11.04c.18 2.98.25 5.81.25 9.73v10.08z"/><path d="m238.77 27.32c1.37.84 3.36 1.54 5.46 1.54 3.12 0 4.94-1.65 4.94-4.03 0-2.21-1.26-3.47-4.45-4.69-3.85-1.37-6.23-3.36-6.23-6.69 0-3.68 3.05-6.41 7.63-6.41 2.42 0 4.17.56 5.22 1.16l-.84 2.49c-.77-.42-2.35-1.12-4.48-1.12-3.22 0-4.45 1.92-4.45 3.54 0 2.21 1.43 3.29 4.69 4.55 3.99 1.54 6.02 3.47 6.02 6.93 0 3.64-2.7 6.79-8.26 6.79-2.28 0-4.76-.67-6.02-1.51z"/></g><path d="m19.83 38.61c-.62 0-1.24-.14-1.8-.42l-16.39-8.17c-.37-.19-.61-.57-.61-.99s.24-.8.61-.99l16.39-8.16c1.13-.56 2.47-.56 3.6 0l16.39 8.16c.37.19.61.57.61.99s-.24.8-.61.99l-16.39 8.16c-.56.29-1.18.43-1.8.43z" fill="#fed500"/><path d="m38.03 28.05-16.39-8.16c-.56-.28-1.18-.42-1.8-.42v19.14c.62 0 1.24-.14 1.8-.42l16.39-8.16c.37-.19.61-.57.61-.99s-.24-.8-.61-.99z" fill="#ffc40c"/><path d="m19.83 29.37c-.62 0-1.24-.14-1.8-.42l-16.39-8.16c-.37-.19-.61-.57-.61-.99s.24-.8.61-.99l16.39-8.16c1.13-.56 2.47-.56 3.6 0l16.39 8.16c.37.19.61.57.61.99s-.24.8-.61.99l-16.39 8.16c-.56.28-1.18.42-1.8.42z" fill="#ed1c76"/><path d="m38.03 18.82-16.39-8.16c-.56-.28-1.18-.42-1.8-.42v19.14c.62 0 1.24-.14 1.8-.42l16.39-8.16c.37-.19.61-.57.61-.99s-.24-.81-.61-.99z" fill="#dc166b"/><path d="m19.83 20.14c-.62 0-1.24-.14-1.8-.42l-16.39-8.16c-.37-.19-.61-.57-.61-.99s.24-.8.61-.99l16.39-8.16c1.13-.56 2.47-.56 3.6 0l16.39 8.16c.37.19.61.57.61.99s-.24.8-.61.99l-16.39 8.16c-.56.28-1.18.42-1.8.42z" fill="#426db5"/><path d="m38.03 9.58-16.4-8.16c-.56-.28-1.18-.42-1.8-.42v19.14c.62 0 1.24-.14 1.8-.42l16.39-8.16c.37-.19.61-.57.61-.99.01-.42-.23-.8-.6-.99z" fill="#3861ad"/></svg>