<svg enable-background="new 0 0 566.9 104.5" viewBox="0 0 566.9 104.5" xmlns="http://www.w3.org/2000/svg"><path d="m566.9 84.5c0 11-9 20-20 20h-526.9c-11 0-20-9-20-20v-64.5c0-11 9-20 20-20h526.9c11 0 20 9 20 20z" fill="#222"/><path d="m432.6 69-48.5 17.5h48.8l18.6-10.2z" fill="#f00"/><path d="m387.3 18.2h57.6l76.7 38.9h-30.1l-21.1-9.7-13 5.3z" fill="#f00"/><g fill="#fc0"><path d="m494.6 36 48.5-17.5h-48.8l-18.6 10.2z"/><path d="m539.9 86.8h-57.6l-76.7-38.9h30.1l21.1 9.7 13.1-5.3z"/><path d="m23.8 17.7h38.2v46.7h-38.2z"/><path d="m23.8 70.1h97.8v14.3h-97.8z"/><path d="m85.9 17.7h45.3l31 26.2-22.4 16.5z"/><path d="m143.1 63v21.4h35.8v-21.4l69.2-45.3h-33.4l-69.2 45.3z"/><path d="m252.9 24.9 38.2 23.8v35.7h-38.2z"/><path d="m257.7 17.7 97.8 66.7h21.5v-66.7h-18.6v46.9l-69.7-46.9z"/></g></svg>