<svg enable-background="new 0 0 559.2 81.2" viewBox="0 0 559.2 81.2" xmlns="http://www.w3.org/2000/svg" xmlns:xlink="http://www.w3.org/1999/xlink"><linearGradient id="a" gradientUnits="userSpaceOnUse" x1="159.972028" x2="434.74678" y1="40.0035008" y2="40.0035008"><stop offset="0" stop-color="#f50019"/><stop offset=".2761" stop-color="#f66d19"/><stop offset=".4785" stop-color="#fbfa35"/><stop offset=".681" stop-color="#74b719"/><stop offset=".7914" stop-color="#17710a"/><stop offset=".8834" stop-color="#226887"/><stop offset="1" stop-color="#3262d9"/></linearGradient><path d="m559.2 75.5c0 3.2-2.1 5.7-4.8 5.7h-549.6c-2.7 0-4.8-2.6-4.8-5.7v-69.8c0-3.1 2.1-5.7 4.8-5.7h549.6c2.7 0 4.8 2.6 4.8 5.7z" fill="#222"/><path d="m159.9 18.1h22.1c14.6 0 19.8 10.8 19.8 21.8 0 13.4-7.1 22-22.4 22h-19.5zm13.5 32.6h5.3c8.4 0 9.6-6.8 9.6-10.9 0-2.8-.9-10.4-10.6-10.4h-4.3zm33-32.6h25.7c7.7 0 14.3 4.2 14.3 12.5 0 4.5-2.1 9.3-6.6 11 3.7 1.4 5.9 5.5 6.4 10.9.2 2.1.2 7.4 1.5 9.4h-13.5c-.7-2.2-.9-4.5-1.1-6.7-.4-4.2-.7-8.5-6.1-8.5h-7.2v15.3h-13.5zm13.5 19.1h7.1c2.5 0 6-.4 6-4.4 0-2.8-1.5-4.4-6.7-4.4h-6.3v8.8zm46.6-19.1h13.2l15.9 43.8h-14l-1.8-6.3h-13.9l-2 6.3h-13.6zm10.6 28.1-3.9-13.5h-.1l-4.2 13.5zm52.4 11.2c-3 3.9-7.7 5.5-12.5 5.5-12.9 0-20.9-10.1-20.9-22.5 0-16.7 11.7-23.4 21.6-23.4 11.2 0 18.2 6.1 20.2 16.4h-12.9c-.5-3.2-3.2-5.5-6.4-5.5-9.3 0-9 9.8-9 12.8 0 4.1 1.7 11.3 9.9 11.3 3.1 0 6.3-1.6 7-4.8h-5.9v-9.4h17.9v24.1h-8.5zm37.8-40.4c13.3 0 22.2 9.6 22.2 22.9s-8.9 22.9-22.2 22.9-22.2-9.6-22.2-22.9 8.9-22.9 22.2-22.9zm0 35c3.4 0 8.7-2.3 8.7-12 0-9.8-5.3-12-8.7-12s-8.7 2.3-8.7 12 5.2 12 8.7 12zm28-33.9h13.8l12.8 23.4h.1v-23.4h12.8v43.8h-13.1l-13.6-23.9h-.1v23.9h-12.8z" fill="url(#a)"/><path d="m447.3 33.4c.1-5 2.1-8.7 5.3-11.2 3.3-2.4 7.7-3.6 12.5-3.6 12.4 0 16.5 7.4 16.5 11 0 9-5.6 9-5.6 9.1v.1c0 .5 7 .5 7 10 0 5.2-3.9 13.4-17.9 13.4-19.2 0-19.3-13.5-19-16.7h11.7c-.1 2.3.5 4 1.7 5.1 1.2 1.4 2.9 1.9 5.1 1.9 3.5 0 5.7-1.3 5.7-4.8 0-3.7-2.9-4.4-5.7-4.4-1.8 0-2.6.2-3.6.3v-8.3c.9.1 1.9.2 3.6.2 2.6 0 5.8-.6 5.8-3.9 0-2.7-3.1-3.7-5.6-3.7-3.3 0-6 1.8-5.9 5.3zm38.3 3.8c-.7-11.7 6.6-18.5 18.1-18.5 10.4 0 17.4 4.4 17.4 13.4 0 10.9-10.7 14.4-18.7 19.3v.1h19.3v10.4h-37c-.2-4.1 1-7.7 3.1-10.6 3.6-5 9.7-8.2 15.2-11.5 2.2-1.3 5.8-3.1 5.8-6.2 0-3.9-2.3-5.2-5.2-5.2-4.9 0-6.6 3.6-6.4 8.8z" fill="#fff"/><path d="m373.4 67.4h3.9c2.6 0 3.5 1.9 3.5 3.8 0 2.4-1.2 3.9-3.9 3.9h-3.4zm2.4 5.7h.9c1.5 0 1.7-1.2 1.7-1.9 0-.5-.2-1.8-1.9-1.8h-.8zm8.1-5.7h2.3l2.8 7.7h-2.5l-.3-1.1h-2.4l-.3 1.1h-2.4zm1.9 4.9-.7-2.4-.7 2.4zm4.9-3h-2.2v-2h6.7v2h-2.2v5.7h-2.4zm6.7-1.9h2.3l2.8 7.7h-2.5l-.3-1.1h-2.4l-.3 1.1h-2.4zm1.9 4.9-.7-2.4-.7 2.4zm13.4-4.9h2.4v5.7h3.4v2h-5.8zm7.2 1.9h-2.2v-2h6.7v2h-2.2v5.7h-2.4zm5.4-1.9h3.9c2.6 0 3.5 1.9 3.5 3.8 0 2.4-1.2 3.9-3.9 3.9h-3.4zm2.3 5.7h.9c1.5 0 1.7-1.2 1.7-1.9 0-.5-.2-1.8-1.9-1.8h-.8zm6.1-.2h2.2v2.1h-2.2z" fill="#dedede"/><path d="m76.1 41.7h-6.6l15.8-27.4c3-5.3 8.7-8.6 14.8-8.6h32.7l-3.3 5.8h-29.4c-4.1 0-7.9 2.2-9.9 5.7zm17.7-22.4c1.3-2.2 3.7-3.6 6.2-3.6h27l1.4-2.5h-28.4c-3.5 0-6.7 1.9-8.4 4.9l-13.6 23.6h2.9zm2.6 10.6h22.5l3.9-6.7 1.2-2 2.1-3.7h-25.9c-2 0-3.8 1.1-4.8 2.8l-12.5 21.4h6.6zm-51.1 0s0 .1 0 0c-.1.2-.3.8-1.1 2.2-1.8 3-3.6 6.8-3.6 11.8 0 9.4 7.7 17.1 17.1 17.1h65.3l-6.8 11.7h6.6l5.3-9.2c.5-.8.8-1.8.8-2.8 0-3-2.5-5.5-5.5-5.5h-65.7c-6.3 0-11.4-5.1-11.4-11.4 0-3.5 1.1-6 2.8-8.9 1.6-2.6 2-3.5 2-5.4 0-3-2.5-5.5-5.5-5.5h-19.3l3.3 5.8zm78.1 21.2h-65.7c-4 0-7.2-3.2-7.2-7.2 0-2.2.6-4 2.2-6.7 1.7-2.9 2.6-4.6 2.6-7.5 0-5.3-4.3-9.7-9.7-9.7h-26.5l-.9-1.6-6.3 2.8 9.7 3.1-1.1-1.9h25.1c4 0 7.2 3.2 7.2 7.2 0 2.2-.5 3.4-2.2 6.3-1.8 3.1-2.6 5.3-2.6 8 0 5.3 4.3 9.7 9.7 9.7h65.7c4 0 7.2 3.2 7.2 7.2 0 1.3-.3 2.6-1 3.7l-4.8 8.3h2.9l4.1-7.1c.9-1.5 1.4-3.2 1.4-4.9-.1-5.4-4.4-9.7-9.8-9.7zm-59.6 11.8h-6.6l-5.7 9.9h6.6zm-.8 9.8 5.7-9.9h-2.9l-5.7 9.9zm14.3-9.8h-6.6l-5.7 9.8h6.6zm46.1-19.3h-65.4c0-.4.2-1.1 1.2-2.6 2-3.4 3.6-6.4 3.6-11.4 0-9.4-7.7-17.1-17.1-17.1h-.5l-3.8 3.8-3.8-3.8h-18l3.3 5.8h22.7c6.3 0 11.4 5.1 11.4 11.4 0 3.5-1.1 5.5-2.8 8.4-1.5 2.4-2 4-2 5.9 0 3 2.5 5.5 5.5 5.5h65.7c6.3 0 11.4 5.1 11.4 11.4 0 2-.5 4-1.6 5.8l-3.6 6.2h6.6l1.9-3.3c1.5-2.6 2.4-5.6 2.4-8.7.1-9.6-7.6-17.3-17.1-17.3zm-76.4-31.9-5.7-5.7-5.7 5.7h2.6l3-3 3 3z" fill="#f50019"/></svg>