<svg enable-background="new 169.102 12.001 246.295 124.395" height="124.395" viewBox="169.102 12.001 246.295 124.395" width="246.295" xmlns="http://www.w3.org/2000/svg" xmlns:xlink="http://www.w3.org/1999/xlink"><linearGradient id="a"><stop offset="0" stop-color="#9b9b9b"/><stop offset="1" stop-color="#5b5c60"/></linearGradient><linearGradient id="b" gradientTransform="matrix(1 0 0 -1 654 245.8398)" gradientUnits="userSpaceOnUse" x1="-458.3301" x2="-458.3301" xlink:href="#a" y1="157.1563" y2="230.7196"/><linearGradient id="c" gradientTransform="matrix(1 0 0 -1 654 245.8398)" gradientUnits="userSpaceOnUse" x1="-408.3584" x2="-408.3584" xlink:href="#a" y1="157.1563" y2="230.7195"/><linearGradient id="d" gradientTransform="matrix(1 0 0 -1 654 245.8398)" gradientUnits="userSpaceOnUse" x1="-360.3633" x2="-360.3633" xlink:href="#a" y1="157.1563" y2="230.7198"/><linearGradient id="e" gradientTransform="matrix(1 0 0 -1 654 245.8398)" gradientUnits="userSpaceOnUse" x1="-310.6855" x2="-310.6855" xlink:href="#a" y1="157.1563" y2="230.7196"/><linearGradient id="f" gradientTransform="matrix(1 0 0 -1 654 245.8398)" gradientUnits="userSpaceOnUse" x1="-263.4224" x2="-263.4224" xlink:href="#a" y1="157.1563" y2="230.7195"/><linearGradient id="g"><stop offset="0" stop-color="#f9da55"/><stop offset="1" stop-color="#e04305"/></linearGradient><linearGradient id="h" gradientTransform="matrix(1 0 0 -1 654 245.8398)" gradientUnits="userSpaceOnUse" x1="-457.4707" x2="-457.4707" xlink:href="#g" y1="112.8584" y2="189.3957"/><linearGradient id="i" gradientTransform="matrix(1 0 0 -1 654 245.8398)" gradientUnits="userSpaceOnUse" x1="-408.3779" x2="-408.3779" xlink:href="#g" y1="112.8594" y2="189.3956"/><linearGradient id="j" gradientTransform="matrix(1 0 0 -1 654 245.8398)" gradientUnits="userSpaceOnUse" x1="-359.7236" x2="-359.7236" xlink:href="#g" y1="112.8584" y2="189.3984"/><linearGradient id="k" gradientTransform="matrix(1 0 0 -1 654 245.8398)" gradientUnits="userSpaceOnUse" x1="-310.9966" x2="-310.9966" xlink:href="#g" y1="112.8594" y2="189.396"/><linearGradient id="l" gradientTransform="matrix(1 0 0 -1 654 245.8398)" gradientUnits="userSpaceOnUse" x1="-262.5625" x2="-262.5625" xlink:href="#g" y1="112.8584" y2="189.397"/><path d="m174.233 127.865 1.17-2.779v-107.261l-2.926-3.659h36.438l9.95 6v49.898l-27.071 15.071v25.462h3.659zm17.267-61.02 11.707-7.023v-28.389h-11.707z" fill="url(#b)"/><path d="m261.152 14.166 6.439 7.463v85.166l-23.852 20.192-20.047-18.585v-86.188l6.146-8.048zm-20.925 15.804v65.848l9.805 8.634v-74.483z" fill="url(#c)"/><path d="m272.857 125.378v-107.553l-2.926-3.659h36.436l9.95 6v30.876l-15.364 8.78 15.364 8.193v28.242l1.025.879-16.975 12.437v-34.68l-11.12-5.854v44.046l2.195 3.22-20.196 14.926zm16.096-74.629 11.706-7.024v-12.292h-11.706z" fill="url(#d)"/><path d="m334.608 31.433h-13.024v-13.609l-2.926-3.659h49.313l-2.926 3.659v13.609h-14.196v83.553l2.342 3.513-20.341 14.633 1.756-7.902v-93.797z" fill="url(#e)"/><path d="m403.82 14.166 9.951 6v14.78h-17.56v-3.512h-9.805v21.803l27.364 14.778v24.146l-44.632 35.704 1.172-2.779v-47.998h16.096v10.39l9.805-7.17v-6l-25.899-14.634v-41.849l-2.928-3.659z" fill="url(#f)"/><path d="m218.845 60.32v9.688l-27.072 15.071v25.461h3.659l-21.218 17.268 1.171-2.779v-39.828" fill="url(#h)"/><path d="m267.572 84.119v22.616l-23.852 20.193-20.047-18.585v-48.474l16.535 9.014v26.877l9.804 8.634v-29.919z" fill="url(#i)"/><path d="m289.227 76.907v36.121l2.195 3.219-20.193 14.927 1.609-5.853v-40.661m39.232-18.957 4.229 2.256v28.241l1.025.878-16.976 12.438v-34.68l-3.292-1.732" fill="url(#j)"/><path d="m350.833 74.203v40.727l2.341 3.512-20.34 14.633 1.756-7.902v-61.156" fill="url(#k)"/><path d="m403.894 62.633 9.859 5.326v24.145l-44.632 35.704 1.171-2.779v-47.998h16.096v10.391l9.805-7.171v-5.999l-8.329-4.708" fill="url(#l)"/><g fill="#542209"><path d="m175.901 83.96 41.38-23.937 1.083 1.875-41.378 23.936z"/><path d="m224.338 61.506 1.034-1.902 15.349 8.33-1.028 1.9z"/><path d="m250.54 75.686 1.1-1.865 15.821 9.332-1.101 1.865z"/><path d="m272.914 83.797 15.551-7.844.976 1.932-15.551 7.842z"/><path d="m297.238 71.634 12.304-6.491 1.009 1.916-12.305 6.49z"/><path d="m335.008 65.109 1.193-1.804 13.523 8.924-1.192 1.806z"/><path d="m387.895 68.225 13.926-6.356.9 1.97-13.928 6.356z"/></g><path d="m173.778 124.217v-106.365l-4.677-5.849h40.263l11.12 6.705v51.77l-27.071 15.07v22.886h6.599l-24.756 20.146-5.048 4.107zm1.949 3.735-1.496-.629zm1.298-111.24v106.244l13.857-11.277h-.714v-28.038l27.068-15.072v-48.03l-8.775-5.291-32.612-.002zm12.85 12.558h14.953v30.929l-12.496 7.495-.835-1.391.835 1.391-2.458 1.479v-39.903zm3.245 34.167 8.46-5.075v-25.847l-8.46-.002z"/><path d="m222.067 108.567v-87.443l6.965-9.121h32.118v1.622-1.622h.741l7.321 8.48v86.52l-25.525 21.61zm3.245-86.344v84.932l18.474 17.124 22.18-18.776v-83.814l-5.56-6.442h-29.767zm13.291 73.786v-66.58-1.623h13.049v79.7zm3.245-1.465 6.558 5.775v-69.267h-6.558zm-1.622-63.492v-1.623z"/><path d="m271.232 124.612-.002-106.76-4.678-5.85h40.263l11.123 6.707v32.734l-13.632 7.788 13.632 7.271-.002 28.469 2.014 1.724-21.208 15.534v-36.898l-7.875-4.145v40.857l2.794 4.095-25.226 18.644zm3.246.443-.425 1.541 15.167-11.209-1.598-2.346v-47.229l14.365 7.56-.002 32.458 12.744-9.337-.039-.031v-28.014l-17.098-9.118 17.098-9.771v-29.019l-8.779-5.293h-32.606l1.174 1.466v108.122zm12.851-95.785h14.952v14.83l-12.494 7.499-.836-1.392.836 1.392-2.458 1.475zm3.245 18.071 8.461-5.078v-9.75h-8.461z"/><path d="m332.982 124.512v-91.998h-13.022v-14.662l-4.677-5.849h56.064l-4.681 5.851v14.66h-14.195v81.442l2.938 4.403-25.068 18.037zm3.248-95.242v95.597l-.874 3.924 15.613-11.234-1.743-2.619v-85.668h14.194v-12.557l1.173-1.465h-42.562l1.174 1.465v12.557h11.4v1.623-1.623z"/><path d="m368.687 124.216v-49.293h19.341v8.813l6.559-4.794v-4.232l-25.898-14.63v-42.227l-4.678-5.851h39.81v1.623-1.623h.453l11.123 6.706v17.319h-20.807v-3.512h-6.561v19.212l27.367 14.781v25.892l-50.234 40.179zm3.246-1.206 40.212-32.17v-22.399l-27.363-14.779v-24.393h13.051l-.002 3.511h14.315v-12.241l-8.775-5.291-32.613-.002 1.176 1.468-.003 41.471 25.902 14.633v7.769l-13.051 9.546v-11.964h-12.849z"/></svg>