<svg enable-background="new 0 0 378.5 98.6" viewBox="0 0 378.5 98.6" xmlns="http://www.w3.org/2000/svg"><path clip-rule="evenodd" d="m152.3 31-23 34 18.8 17.4 39.9-29.8z" fill="#333" fill-rule="evenodd"/><circle cx="178.6" cy="30.8" fill="#333" r="28.8"/><g clip-rule="evenodd" fill-rule="evenodd"><path d="m200.6 30.8c0 12.2-9.8 22-22 22s-22-9.8-22-22 9.8-22 22-22c12.1-.1 22 9.8 22 22 0-.1 0 0 0 0z" fill="#fff"/><path d="m196.1 30.8c0 9.7-7.9 17.6-17.6 17.5-9.7 0-17.5-7.9-17.5-17.5 0-9.7 7.8-17.6 17.5-17.6 9.8 0 17.6 7.9 17.6 17.6z" fill="#333"/><path d="m150.1 79c0 9.7-7.9 17.6-17.6 17.6s-17.6-7.9-17.6-17.6 7.9-17.6 17.6-17.6 17.6 7.9 17.6 17.6z" fill="#333"/><path d="m145.6 79c0 7.5-5.9 13.6-13.2 13.5-7.3 0-13.1-6.1-13.1-13.5 0-7.5 5.9-13.6 13.1-13.6s13.2 6.1 13.2 13.6z" fill="#fff"/><path d="m37.3 33c0 9.7-7.9 17.6-17.6 17.6s-17.7-7.9-17.7-17.6 7.9-17.6 17.6-17.6c9.8-.1 17.7 7.8 17.7 17.6z" fill="#333"/><path d="m32.9 33c0 7.1-5.9 12.8-13.2 12.8s-13.2-5.7-13.2-12.8 5.9-12.8 13.2-12.8 13.2 5.7 13.2 12.8z" fill="#fff"/><path d="m27.3 24 105.9 43.2c7 2.9 10.7 9.9 8.4 15.7-2.4 5.8-10 8.2-17 5.4l-105.9-43.2c-7-2.9-10.7-9.9-8.4-15.7 2.4-5.8 10-8.2 17-5.4z" fill="#333"/></g><g fill="#333" transform="scale(.95096987 1.051558)"><path d="m251.5 20.8v6.5c-1.7-.8-3.3-1.3-4.9-1.7s-3.2-.6-4.6-.6c-1.9 0-3.3.3-4.2.8s-1.4 1.3-1.4 2.4c0 .8.3 1.5.9 1.9.6.5 1.7.8 3.3 1.2l3.4.7c3.4.7 5.8 1.7 7.3 3.1s2.2 3.4 2.2 6c0 3.4-1 5.9-3 7.6-2 1.6-5.1 2.5-9.2 2.5-1.9 0-3.9-.2-5.9-.6s-3.9-.9-5.9-1.6v-6.7c2 1 3.8 1.8 5.7 2.4 1.8.5 3.6.8 5.3.8s3-.3 4-.9c.9-.6 1.4-1.4 1.4-2.5 0-1-.3-1.7-.9-2.2s-1.9-1-3.7-1.4l-3.1-.7c-3.1-.7-5.3-1.7-6.7-3.1s-2.1-3.4-2.1-5.8c0-3.1 1-5.4 3-7s4.8-2.5 8.5-2.5c1.7 0 3.4.1 5.2.4 1.6.1 3.5.5 5.4 1z"/><path d="m259.6 19.8h28.3v6h-10.2v24.7h-7.9v-24.7h-10.2z"/><path d="m294.7 19.8h21.3v6h-13.4v5.7h12.6v6h-12.6v7h13.9v6h-21.8z"/><path d="m344.9 44.9h-12.4l-2 5.6h-7.9l11.4-30.7h9.4l11.4 30.7h-7.9zm-10.4-5.7h8.4l-4.2-12.2z"/><path d="m361.6 19.8h10.1l7 16.4 7-16.4h10v30.7h-7.5v-22.4l-7.1 16.5h-5l-7.1-16.5v22.4h-7.5z"/></g></svg>