<svg enable-background="new 0 0 572 100" viewBox="0 0 572 100" xmlns="http://www.w3.org/2000/svg"><g fill="#828056" transform="matrix(.93403196 0 0 .93403196 -613.862018 -328.537019)"><g transform="translate(.000016)"><path d="m1038.7 415.8h2.4c2.2 0 6.1.5 7.7 1.4s2.6 2 3.1 3.1.8 3.7.8 7.6v15.3c0 4.6-4.9 7-7.2 7.5-2.4.5-4.6.8-6.9.8-6.4 0-12-1.7-16.7-5-4.7-3.4-8.1-8.6-10.2-15.7s-3.1-15.4-3.1-24.9c0-7.8 1-15.4 2.9-22.9 1.9-7.4 5.2-13.2 9.8-17.4 4.6-4.1 10.4-6.2 17.3-6.2 7.3 0 11.5 1.8 16.9 7.4 5.5 5.7 10.7 12.1 13.8 21.6h4.5v-34.8h-2.5c-.9 2.8-1.9 4.7-3 5.7s-2.3 1.5-3.6 1.5c-.8 0-3.5-.9-8-2.7s-7.8-2.9-9.8-3.3c-3.7-.8-6.6-1.2-11.2-1.2-14.9 0-27.3 5.1-37.1 15.4-9.8 10.2-14.7 22.8-14.7 37.6 0 8.3 1.6 15.8 4.8 22.5 2.5 5.2 6 9.9 10.5 14s9.6 7.5 15.4 10 13.2 3.8 22 3.8c6.9 0 13.6-.7 20-2.1s12.6-3.5 18.6-6.4v-20.5c0-3.6.2-5.9.6-6.8.7-1.8 1.8-3 3.1-3.8s5-1.2 8.4-1.5v-3.4h-48.5z"/><path d="m1150.2 442.3c-5.5 4.2-12.9 6.3-22.1 6.3h-5.2c-2.8 0-4.8-.4-6.1-1.2-1.2-.8-2.1-1.8-2.6-3s-.7-4.5-.7-9.9v-27.6c4.7 0 10.2.6 12.7 1.8s4.6 3.6 6.5 7.2 3.1 7.5 3.7 13.1h4v-50.7h-4c-.8 7.6-2.6 12.7-5.4 16.6s-7.4 5.9-13.6 5.9h-3.9v-34c0-5.9 5.2-5.2 5.2-5.2h6.2c7.4 0 12.5.4 15.2 1.3 4.6 1.4 8.2 3.7 10.8 6.8 2.5 3.1 4.5 8.2 5.9 15.2h3.3v-29h-82.9v4h2.6c3.2 0 5.7.7 7.5 2 1.3.9 2.2 2.2 2.7 3.9.2 1 .4 3.7.4 8.2v61.3c0 4.9-.3 7.9-.8 9.1-.7 1.6-1.6 2.8-2.9 3.5-1.7 1-4 1.5-6.9 1.5h-2.6v4.6h84.3l5.1-31.2h-4.6c-2.4 8.9-6.3 15.3-11.8 19.5"/><path d="m1215.4 354.6c-14.1-.6-26 4-35.7 13.8s-14.5 22-14.5 36.7c0 13.1 3.7 24.4 11.2 33.9 9.4 12.1 22.7 18.1 40 18.1 17.2 0 30.5-6.3 39.9-19 7.1-9.5 10.7-20.6 10.7-33.1 0-14.7-4.8-26.9-14.3-36.7-9.6-9.7-22-14.3-37.3-13.7m22.6 78.4c-2.3 6.8-5.5 11.8-9.7 14.9-3.2 2.4-7.3 3.6-12.2 3.6-7.2 0-12.8-2.8-16.8-8.5-5.7-8.1-8.6-20.5-8.6-37.4 0-14.2 1.9-25.1 5.6-32.7 4.6-9.2 11.2-13.8 20-13.8 4.8 0 9 1.3 12.6 4s6.7 7.3 9 13.7c2.4 6.5 3.5 16.3 3.5 29.3 0 11.2-1.2 20.1-3.4 26.9"/></g><path d="m902.4 456.5c17.2 0 30.5-6.3 39.9-19 7.1-9.5 10.7-20.6 10.7-33.1 0-14.7-4.8-26.9-14.3-36.7s-21.9-14.4-37.2-13.8c-14.1-.6-26 4-35.7 13.8s-14.5 22-14.5 36.7c0 13.1 3.7 24.4 11.2 33.9 9.4 12.2 22.7 18.2 39.9 18.2m-20.2-83.9c4.6-9.2 11.2-13.8 20-13.8 4.8 0 9 1.3 12.6 4s6.7 7.3 9 13.7c2.4 6.5 3.5 16.3 3.5 29.3 0 11-1.2 19.9-3.5 26.7s-5.5 11.8-9.7 14.9c-3.2 2.4-7.3 3.6-12.2 3.6-7.2 0-12.8-2.8-16.8-8.5-5.7-8.1-8.6-20.5-8.6-37.4.1-14.1 2-24.9 5.7-32.5"/><path d="m852.6 422.2h-4.6c-2.4 8.7-6.4 15.1-11.9 19.4-5.5 4.2-12.9 6.3-22 6.3h-5.2c-2.8 0-4.8-.4-6.1-1.1-1.3-.8-2.1-1.8-2.6-3s-.7-4.5-.7-9.9v-27.6c4.7 0 10.2.6 12.7 1.8s4.6 3.6 6.5 7.2 3.1 7.5 3.7 13.1h4v-50.7h-4c-.8 7.6-2.6 12.7-5.4 16.6s-7.4 5.9-13.6 5.9h-3.9v-34c0-5.9 5.2-5.2 5.2-5.2h6.2c7.5 0 12.5.4 15.2 1.3 4.6 1.4 8.2 3.7 10.8 6.8 2.5 3.1 4.5 8.2 5.9 15.2h3.3v-29h-82.9v4h2.6c3.2 0 5.7.7 7.5 2 1.3.9 2.2 2.2 2.7 3.9.2 1 .4 3.7.4 8.2v61.3c0 4.9-.3 7.9-.8 9.1-.7 1.6-1.6 2.8-2.9 3.5-1.7 1-4 1.5-6.9 1.5h-2.6v4.6h84.3z"/><path d="m693.6 448.7h-2.2c-3.2 0-6.1-1-8.6-3s-3.7-5.8-3.7-11.4v-59.2l64.1 80h4.2v-81.6c0-4.6.4-6 1.2-7.9s1.8-3.3 3.2-4.1 4-1.5 8-2.1v-4.1h-31.8v4.1c5.2-.1 9 1.3 11.2 4.1 1.6 2.1 2.4 4.1 2.4 10v42.7l-49.9-60.9h-30.4v3.3c2.9.1 3 1.1 4.5 1.9l8.1 8.2v65.7c0 5.2-1 8.9-3.1 11-2 2.2-5.7 3.3-10.9 3.3v4h33.6z"/><path d="m968.6 393.5c-6.5 0-11.8 5.3-11.8 11.8s5.3 11.8 11.8 11.8 11.8-5.3 11.8-11.8-5.3-11.8-11.8-11.8z"/></g></svg>