<svg enable-background="new 0 0 161.28 38.86" viewBox="0 0 161.28 38.86" xmlns="http://www.w3.org/2000/svg"><g fill="#fff"><path d="m49.46 7.27c1.54-.31 3.75-.49 5.85-.49 3.26 0 5.36.6 6.83 1.93 1.19 1.05 1.86 2.66 1.86 4.48 0 3.12-1.96 5.18-4.45 6.02v.1c1.82.63 2.91 2.31 3.47 4.76.77 3.29 1.33 5.57 1.82 6.48h-3.15c-.38-.67-.91-2.7-1.58-5.64-.7-3.26-1.96-4.48-4.73-4.59h-2.87v10.22h-3.05zm3.05 10.75h3.12c3.26 0 5.32-1.79 5.32-4.48 0-3.05-2.21-4.38-5.43-4.41-1.47 0-2.52.14-3.01.28z"/><path d="m80.51 19.49h-9.17v8.51h10.22v2.56h-13.27v-23.6h12.74v2.56h-9.7v7.46h9.17v2.51z"/><path d="m102 29.78c-1.12.56-3.36 1.12-6.23 1.12-6.65 0-11.66-4.2-11.66-11.94 0-7.39 5.01-12.39 12.32-12.39 2.94 0 4.8.63 5.6 1.05l-.74 2.49c-1.15-.56-2.8-.98-4.76-.98-5.53 0-9.21 3.54-9.21 9.73 0 5.78 3.33 9.49 9.07 9.49 1.85 0 3.75-.39 4.97-.98z"/><path d="m118.03 19.49h-9.17v8.51h10.22v2.56h-13.27v-23.6h12.74v2.56h-9.7v7.46h9.17v2.51z"/><path d="m123.03 30.55v-23.59h3.33l7.56 11.94c1.75 2.77 3.12 5.25 4.24 7.67l.07-.04c-.28-3.15-.35-6.02-.35-9.7v-9.87h2.87v23.59h-3.08l-7.49-11.97c-1.65-2.63-3.22-5.32-4.41-7.88l-.1.04c.17 2.98.25 5.81.25 9.73v10.08z"/><path d="m150.54 9.55h-7.18v-2.59h17.47v2.59h-7.21v21h-3.08z"/></g><circle cx="19.45" cy="19.5" fill="#595a5a" r="18.98"/><path d="m19.45.52v37.96c10.48 0 18.98-8.5 18.98-18.98s-8.5-18.98-18.98-18.98z" fill="#434444"/><path d="m19.45.45c-10.48 0-18.98 8.5-18.98 18.98s8.5 18.98 18.98 18.98z" fill="#595a5a"/><path d="m27.65 22.11h-8.05c-.03 0-.05-.01-.08-.01s-.05.01-.08.01c-.72 0-1.31-.59-1.31-1.31v-13.4c0-.72.59-1.31 1.31-1.31s1.31.59 1.31 1.31v12.09h6.89c.72 0 1.31.59 1.31 1.31.01.72-.57 1.31-1.3 1.31z" fill="#fff"/></svg>