<svg enable-background="new 0 0 502.3 90.4" viewBox="0 0 502.3 90.4" xmlns="http://www.w3.org/2000/svg" xmlns:xlink="http://www.w3.org/1999/xlink"><linearGradient id="a" gradientTransform="matrix(1 0 0 -1 0 384)" gradientUnits="userSpaceOnUse" x1="251.4215" x2="251.4215" y1="378.5821" y2="298.8193"><stop offset=".0045" stop-color="#e2e3e4"/><stop offset="1" stop-color="#b3b5b8"/></linearGradient><path d="m4 4h494.8v82.5h-494.8z" fill="url(#a)"/><path d="m2 88.5v-86.5h498.8v84.5 2zm496.8-2v-2zm-492.8-2h490.8v-78.5h-490.8z"/><g fill="#807f7f"><path d="m183.2 45.3c-2 0-3.6 1.6-3.6 3.6s1.6 3.6 3.6 3.6 3.6-1.6 3.6-3.6-1.6-3.6-3.6-3.6zm-125.9 0c-2 0-3.6 1.6-3.6 3.6s1.6 3.6 3.6 3.6 3.6-1.6 3.6-3.6-1.6-3.6-3.6-3.6zm21 3.6c0 2 1.6 3.6 3.6 3.6s3.6-1.6 3.6-3.6-1.6-3.6-3.6-3.6-3.6 1.6-3.6 3.6zm36.9-3.6c-2 0-3.6 1.6-3.6 3.6s1.6 3.6 3.6 3.6 3.6-1.6 3.6-3.6-1.6-3.6-3.6-3.6zm126.9-34.7h-224.9c-3.8 0-6.9 3.1-6.9 6.9v54.2c0 3.8 3.1 6.9 6.9 6.9h224.9c3.8 0 6.9-3.1 6.9-6.9v-54.2c0-3.8-3.1-6.9-6.9-6.9zm-201.4 46.3-4.3-7.2v7.2h-8.7v-27.5h13c4.3 0 8.7 2.9 8.7 8.7s-4.3 7.2-5.8 7.2l7.2 11.6zm14.4 0c-2.9 0-5.8-2.9-5.8-7.2 0-4.9 4.3-5.8 5.8-5.8h2.9c2.9 0 1.4-2.9 0-2.9s-5.8 0-5.8 0v-5.8h11.6c2.9 0 4 2.9 4 5.8s.4 15.9.4 15.9zm37.6 0s-5.8 0-11.6 0c-8.7 0-10.1-7.2-10.1-11.6 0-2.7 1.4-10.1 10.1-10.1h2.9v-5.8h8.7zm10.2 0h-7.2v-21.7h7.2zm12.3 0c-6 0-10.9-4.9-10.9-10.9s4.9-10.9 10.9-10.9 10.9 4.9 10.9 10.9c-.1 6-4.9 10.9-10.9 10.9zm36.9-18.8c-2.9 0-4.3 1.4-4.3 4.3v5.8c0 5.8-1.4 8.7-13 8.7 0-5.8 0-8.7 0-8.7 2.9 0 5.8 0 5.8-4.3s0-4.3 0-7.2 1.4-7.2 11.6-7.2c-.1 2.8-.1 8.6-.1 8.6zm21.7 18.8h-8.7v-13c0-1.4-2.9-1.4-2.9 0s0 13 0 13h-7.2v-27.5h7.2v7.2c2.9-2.9 11.6-1.4 11.6 4.3zm7.2 0c-2.9 0-5.8-2.9-5.8-7.2 0-4.9 4.3-5.8 5.8-5.8h2.9c2.9 0 1.4-2.9 0-2.9s-5.8 0-5.8 0v-5.8h11.6c2.9 0 4 2.9 4 5.8s.4 15.9.4 15.9zm36.1-9.7h-7.6c-.6-1.1-1.8-1.9-3.2-1.9-2 0-3.6 1.6-3.6 3.6s1.6 3.6 3.6 3.6c1.4 0 2.6-.8 3.2-1.9h6.6c-1.7 3.7-5.5 6.3-9.8 6.3-6 0-10.9-4.9-10.9-10.9s4.9-10.9 10.9-10.9 10.9 4.9 10.9 10.9c0 .4 0 .8-.1 1.2zm11.7 9.7-2.9-8.7h-1.4v8.7h-5.8v-27.5h5.8v11.6h1.4l2.9-4.3h7.2l-4.3 7.2 5.8 13zm-191.8-17.4c-2 0-3.6 1.6-3.6 3.6s1.6 3.6 3.6 3.6 3.6-1.6 3.6-3.6-1.6-3.6-3.6-3.6z"/><path d="m266.9 51.9h65.1v14.5h-65.1z"/><path d="m337.8 51.9h65.1v14.5h-65.1z"/><path d="m408.7 51.9h65.1v14.5h-65.1z"/><path d="m302.9 23.6h21.2v4.2h-8.5v14.8h-4.2v-14.8h-8.5z"/><path d="m333.6 35.2v7.4h-4.2v-19h14.8c4.2 0 6.4 1.9 6.4 5.8 0 1.8-.3 3.2-.9 4 .6 1 .9 2.3.9 3.9v5.3h-4.2v-5.3c0-1.4-.7-2.1-2.1-2.1zm0-4.2h12.7v-3.2h-12.7z"/><path d="m381.8 35.2v-3.2h7.3v3.2z"/><path d="m414.9 27.8h-16.8v3.2h10.6c4.2 0 6.4 1.9 6.4 5.8s-2.1 5.8-6.4 5.8h-8.5c-3.6 0-5.7-1.4-6.2-4.2h16.8v-3.2h-10.6c-4.2 0-6.4-1.9-6.4-5.7 0-3.9 2.1-5.9 6.4-5.9h8.5c3.6 0 5.7 1.4 6.2 4.2zm-20.9 10.6c-.1-.5-.1-1.1-.1-1.7 0-1.5.3-2.7 1-3.6 1 1.4 2.8 2.1 5.4 2.1h-2.1v3.2zm20-5.3c.7-.9 1-2.2 1-3.7 0-.6 0-1.1-.1-1.6h-4.1v3.2h-2.1c2.5 0 4.3.7 5.3 2.1z"/><path d="m418.5 36.3v-6.4c0-4.2 2.1-6.4 6.4-6.4h6.4c4.2 0 6.4 2.1 6.4 6.4v6.4c0 4.2-2.1 6.4-6.4 6.4h-6.4c-4.3 0-6.4-2.2-6.4-6.4zm12.7 2.1c1.4 0 2.1-.7 2.1-2.1v-6.4c0-1.4-.7-2.1-2.1-2.1h-6.4c-1.4 0-2.1.7-2.1 2.1v6.4c0 1.4.7 2.1 2.1 2.1z"/><path d="m355.1 36.3h5.5c0 1.4.8 2.3 1.8 2.3h9.9c.8 0 1-.6 1-1.3 0-.8.3-2.4-1.2-2.4s-10.5 0-12 0-5-1.2-5-5.4 2.7-5.7 4.7-5.7h14.5c1.8 0 3.4.8 3.4 5.3-1.3 0-5.2 0-5.2 0 0-1-.5-1.7-2.3-1.7s-6.4 0-7.7 0-1.8.1-1.8 2.1 1.2 1.8 2 1.8 10.1 0 12.2 0 4.1 2.1 4.1 5.4-1.6 6.1-5 6.1-12.8 0-14.5 0-4.4-.8-4.4-6.5z"/></g><g fill="#e5e5e5"><path d="m79.3 50.1c0 2 1.6 3.6 3.6 3.6s3.6-1.6 3.6-3.6-1.6-3.6-3.6-3.6-3.6 1.6-3.6 3.6zm36.9-3.6c-2 0-3.6 1.6-3.6 3.6s1.6 3.6 3.6 3.6 3.6-1.6 3.6-3.6-1.6-3.6-3.6-3.6zm68 0c-2 0-3.6 1.6-3.6 3.6s1.6 3.6 3.6 3.6 3.6-1.6 3.6-3.6-1.6-3.6-3.6-3.6zm-146.1-5.8c-2 0-3.6 1.6-3.6 3.6s1.6 3.6 3.6 3.6 3.6-1.6 3.6-3.6-1.6-3.6-3.6-3.6zm20.2 5.8c-2 0-3.6 1.6-3.6 3.6s1.6 3.6 3.6 3.6 3.6-1.6 3.6-3.6c.1-2-1.6-3.6-3.6-3.6zm184.8-34.8h-224.9c-3.8 0-6.9 3.1-6.9 6.9v54.2c0 3.8 3.1 6.9 6.9 6.9h224.9c3.8 0 6.9-3.1 6.9-6.9v-54.2c.1-3.8-3-6.9-6.9-6.9zm-201.4 46.3-4.3-7.2v7.2h-8.7v-27.5h13c4.3 0 8.7 2.9 8.7 8.7s-4.3 7.2-5.8 7.2l7.2 11.6zm14.5 0c-2.9 0-5.8-2.9-5.8-7.2 0-4.9 4.3-5.8 5.8-5.8h2.9c2.9 0 1.4-2.9 0-2.9s-5.8 0-5.8 0v-5.8h11.6c2.9 0 4 2.9 4 5.8s.4 15.9.4 15.9zm37.6 0s-5.8 0-11.6 0c-8.7 0-10.1-7.2-10.1-11.6 0-2.7 1.4-10.1 10.1-10.1h2.9v-5.8h8.7zm10.1 0h-7.2v-21.7h7.2zm12.3 0c-6 0-10.9-4.9-10.9-10.9s4.9-10.9 10.9-10.9 10.9 4.9 10.9 10.9-4.9 10.9-10.9 10.9zm36.9-18.8c-2.9 0-4.3 1.4-4.3 4.3v5.8c0 5.8-1.4 8.7-13 8.7 0-5.8 0-8.7 0-8.7 2.9 0 5.8 0 5.8-4.3s0-4.3 0-7.2 1.4-7.2 11.6-7.2c-.1 2.8-.1 8.6-.1 8.6zm21.7 18.8h-8.7v-13c0-1.4-2.9-1.4-2.9 0s0 13 0 13h-7.2v-27.5h7.2v7.2c2.9-2.9 11.6-1.4 11.6 4.3s0 16 0 16zm7.3 0c-2.9 0-5.8-2.9-5.8-7.2 0-4.9 4.3-5.8 5.8-5.8h2.9c2.9 0 1.4-2.9 0-2.9s-5.8 0-5.8 0v-5.8h11.6c2.9 0 4 2.9 4 5.8s.4 15.9.4 15.9zm36.1-9.6h-7.6c-.6-1.1-1.8-1.9-3.2-1.9-2 0-3.6 1.6-3.6 3.6s1.6 3.6 3.6 3.6c1.4 0 2.6-.8 3.2-1.9h6.6c-1.7 3.7-5.5 6.3-9.8 6.3-6 0-10.9-4.9-10.9-10.9s4.9-10.9 10.9-10.9 10.9 4.9 10.9 10.9c-.1.4-.1.8-.1 1.2zm11.6 9.6-2.9-8.7h-1.4v8.7h-5.8v-27.5h5.8v11.6h1.4l2.9-4.3h7.2l-4.3 7.2 5.8 13z"/><path d="m268 53h65.1v14.5h-65.1z"/><path d="m338.9 53h65.1v14.5h-65.1z"/><path d="m409.8 53h65.1v14.5h-65.1z"/><path d="m304 24.7h21.2v4.2h-8.5v14.8h-4.2v-14.8h-8.5z"/><path d="m334.7 36.4v7.4h-4.2v-19.1h14.8c4.2 0 6.4 1.9 6.4 5.8 0 1.8-.3 3.2-.9 4 .6 1 .9 2.3.9 3.9v5.3h-4.2v-5.3c0-1.4-.7-2.1-2.1-2.1zm0-4.3h12.7v-3.2h-12.7z"/><path d="m382.8 36.4v-3.2h7.3v3.2z"/><path d="m416 28.9h-16.8v3.2h10.6c4.2 0 6.4 1.9 6.4 5.8s-2.1 5.8-6.4 5.8h-8.5c-3.6 0-5.7-1.4-6.2-4.2h16.8v-3.2h-10.6c-4.2 0-6.4-1.9-6.4-5.7 0-3.9 2.1-5.9 6.4-5.9h8.5c3.5 0 5.6 1.4 6.2 4.2zm-21 10.6c-.1-.5-.1-1.1-.1-1.7 0-1.5.3-2.7 1-3.6 1 1.4 2.8 2.1 5.4 2.1h-2.1v3.2zm20.1-5.3c.7-.9 1-2.2 1-3.7 0-.6 0-1.1-.1-1.6h-4.1v3.2h-2.1c2.5 0 4.3.7 5.3 2.1z"/><path d="m419.5 37.4v-6.4c0-4.2 2.1-6.4 6.4-6.4h6.4c4.2 0 6.4 2.1 6.4 6.4v6.4c0 4.2-2.1 6.4-6.4 6.4h-6.4c-4.3 0-6.4-2.1-6.4-6.4zm12.7 2.1c1.4 0 2.1-.7 2.1-2.1v-6.4c0-1.4-.7-2.1-2.1-2.1h-6.4c-1.4 0-2.1.7-2.1 2.1v6.4c0 1.4.7 2.1 2.1 2.1z"/><path d="m356.1 37.4h5.5c0 1.4.8 2.3 1.8 2.3h9.9c.8 0 1-.6 1-1.3 0-.8.3-2.4-1.2-2.4s-10.5 0-12 0-5-1.2-5-5.4 2.7-5.7 4.7-5.7h14.5c1.8 0 3.4.8 3.4 5.3-1.3 0-5.2 0-5.2 0 0-1-.5-1.7-2.3-1.7s-6.4 0-7.7 0-1.8.1-1.8 2.1 1.2 1.8 2 1.8h12.2c2.1 0 4.1 2.1 4.1 5.4s-1.6 6.1-5 6.1-12.8 0-14.5 0-4.4-.8-4.4-6.5z"/></g><path d="m78.9 49.6c0 2 1.6 3.6 3.6 3.6s3.6-1.6 3.6-3.6-1.6-3.6-3.6-3.6-3.6 1.6-3.6 3.6zm104.9-3.6c-2 0-3.6 1.6-3.6 3.6s1.6 3.6 3.6 3.6 3.6-1.6 3.6-3.6-1.6-3.6-3.6-3.6zm-125.9 0c-2 0-3.6 1.6-3.6 3.6s1.6 3.6 3.6 3.6 3.6-1.6 3.6-3.6c.1-2-1.6-3.6-3.6-3.6zm184.8-34.8h-224.9c-3.8 0-6.9 3.1-6.9 6.9v54.2c0 3.8 3.1 6.9 6.9 6.9h224.9c3.8 0 6.9-3.1 6.9-6.9v-54.1c.1-3.9-3-7-6.9-7zm-201.4 46.3-4.3-7.2v7.2h-8.7v-27.4h13c4.3 0 8.7 2.9 8.7 8.7s-4.4 7.2-5.8 7.2l7.2 11.6zm14.5 0c-2.9 0-5.8-2.9-5.8-7.2 0-4.9 4.3-5.8 5.8-5.8h2.9c2.9 0 1.4-2.9 0-2.9s-5.8 0-5.8 0v-5.8h11.6c2.9 0 4 2.9 4 5.8s.4 15.9.4 15.9zm37.6 0s-5.8 0-11.6 0c-8.7 0-10.1-7.2-10.1-11.6 0-2.7 1.4-10.1 10.1-10.1h2.9v-5.8h8.7zm10.1 0h-7.2v-21.7h7.2zm12.3 0c-6 0-10.9-4.9-10.9-10.9s4.9-10.9 10.9-10.9 10.9 4.9 10.9 10.9c0 6.1-4.9 10.9-10.9 10.9zm36.9-18.8c-2.9 0-4.3 1.4-4.3 4.3v5.8c0 5.8-1.4 8.7-13 8.7 0-5.8 0-8.7 0-8.7 2.9 0 5.8 0 5.8-4.3s0-4.3 0-7.2 1.4-7.2 11.6-7.2c-.1 2.8-.1 8.6-.1 8.6zm21.7 18.8h-8.7v-13c0-1.4-2.9-1.4-2.9 0s0 13 0 13h-7.2v-27.4h7.2v7.2c2.9-2.9 11.6-1.4 11.6 4.3zm7.3 0c-2.9 0-5.8-2.9-5.8-7.2 0-4.9 4.3-5.8 5.8-5.8h2.9c2.9 0 1.4-2.9 0-2.9s-5.8 0-5.8 0v-5.8h11.6c2.9 0 4 2.9 4 5.8s.4 15.9.4 15.9zm36.1-9.6h-7.6c-.6-1.1-1.8-1.9-3.2-1.9-2 0-3.6 1.6-3.6 3.6s1.6 3.6 3.6 3.6c1.4 0 2.6-.8 3.2-1.9h6.6c-1.7 3.7-5.5 6.3-9.8 6.3-6 0-10.9-4.9-10.9-10.9s4.9-10.9 10.9-10.9 10.9 4.9 10.9 10.9c-.1.4-.1.8-.1 1.2zm11.6 9.6-2.9-8.7h-1.4v8.7h-5.8v-27.4h5.8v11.6h1.4l2.9-4.3h7.2l-4.3 7.2 5.8 13h-8.7zm-191.7-17.3c-2 0-3.6 1.6-3.6 3.6s1.6 3.6 3.6 3.6 3.6-1.6 3.6-3.6-1.6-3.6-3.6-3.6zm78.1 5.8c-2 0-3.6 1.6-3.6 3.6s1.6 3.6 3.6 3.6 3.6-1.6 3.6-3.6-1.6-3.6-3.6-3.6z"/><path d="m267.6 52.5h65.1v14.5h-65.1z" fill="#ce2027"/><path d="m338.5 52.5h65.1v14.5h-65.1z" fill="#0f7c3e"/><path d="m409.4 52.5h65.1v14.5h-65.1z" fill="#233d98"/><path d="m303.6 24.2h21.2v4.2h-8.5v14.8h-4.2v-14.7h-8.5z"/><path d="m334.3 35.9v7.4h-4.3v-19.1h14.8c4.2 0 6.4 1.9 6.4 5.8 0 1.8-.3 3.2-.9 4 .6 1 .9 2.3.9 3.9v5.3h-4.2v-5.2c0-1.4-.7-2.1-2.1-2.1zm0-4.3h12.7v-3.2h-12.7z"/><path d="m382.4 35.9v-3.2h7.3v3.2z"/><path d="m415.6 28.5h-16.8v3.2h10.6c4.2 0 6.4 1.9 6.4 5.8s-2.1 5.8-6.4 5.8h-8.5c-3.6 0-5.7-1.4-6.2-4.2h16.8v-3.2h-10.6c-4.2 0-6.4-1.9-6.4-5.7 0-3.9 2.1-5.9 6.4-5.9h8.5c3.5-.1 5.6 1.3 6.2 4.2zm-21 10.6c-.1-.5-.1-1.1-.1-1.7 0-1.5.3-2.7 1-3.6 1 1.4 2.8 2.1 5.4 2.1h-2.1v3.2zm20.1-5.3c.7-.9 1-2.2 1-3.7 0-.6 0-1.1-.1-1.6h-4.1v3.2h-2.1c2.5-.1 4.3.6 5.3 2.1z"/><path d="m419.1 36.9v-6.4c0-4.2 2.1-6.4 6.4-6.4h6.4c4.2 0 6.4 2.1 6.4 6.4v6.4c0 4.2-2.1 6.4-6.4 6.4h-6.4c-4.3 0-6.4-2.1-6.4-6.4zm12.7 2.2c1.4 0 2.1-.7 2.1-2.1v-6.4c0-1.4-.7-2.1-2.1-2.1h-6.4c-1.4 0-2.1.7-2.1 2.1v6.4c0 1.4.7 2.1 2.1 2.1z"/><path d="m355.7 37h5.5c0 1.4.8 2.3 1.8 2.3h9.9c.8 0 1-.6 1-1.3 0-.8.3-2.4-1.2-2.4s-10.5 0-12 0-5-1.2-5-5.4 2.7-5.7 4.7-5.7h14.5s3.4.8 3.4 5.3c-1.3 0-5.2 0-5.2 0 0-1-.5-1.7-2.3-1.7s-6.4 0-7.7 0-1.8.1-1.8 2.1 1.2 1.8 2 1.8h12.2s4.1 2.1 4.1 5.4-1.6 6.1-5 6.1-12.8 0-14.5 0c-1.7-.1-4.4-.9-4.4-6.5z"/></svg>