<svg enable-background="new 0 0 186.1 138.8" viewBox="0 0 186.1 138.8" xmlns="http://www.w3.org/2000/svg"><g fill="#fff"><path d="m93.1 38.9c2.1 0 4.1.2 6.1.6l11.5-15.6c-5.7-.7-11.5-1.1-17.5-1.1-44.2-.1-81.4 20.6-93.2 49v.3c7.2 17.2 23.7 31.6 45.4 40.3l18.4-25c-2.4-4.6-3.8-9.9-3.8-15.5-.1-18.2 14.8-33 33.1-33zm45.9-8.1-17.6 23.9c3.1 5 4.8 10.9 4.8 17.2 0 18.3-14.8 33.1-33.1 33.1-2.8 0-5.5-.3-8-1l-11.6 15.8c6.3.9 12.9 1.4 19.6 1.4 44 0 81.2-20.7 93.1-49.1v-.4c-7.4-17.6-24.6-32.3-47.2-40.9z"/><path d="m43.4 137.4c-3.1-2.3-3.8-6.7-1.5-9.8l91.7-124.7c2.3-3.1 6.7-3.8 9.8-1.5s3.8 6.7 1.5 9.8l-91.8 124.7c-1.4 1.9-3.5 2.9-5.6 2.9-1.4-.1-2.9-.5-4.1-1.4z"/></g></svg>