<svg enable-background="new 0 0 193 237" viewBox="0 0 193 237" xmlns="http://www.w3.org/2000/svg"><g fill="#fff"><ellipse cx="43.6" cy="196.3" rx="30.5" ry="35.6" transform="matrix(.9302 -.3671 .3671 .9302 -69.0144 29.7066)"/><path d="m168.6 32.9c0-13.2-10.7-23.9-23.9-23.9-9.2 0-17.2 5.2-21.2 12.9l-.2.2c-8.3-4.1-17.9-6.5-28.1-6.5h-1.2c-10.2 0-19.8 2.4-28.1 6.5l-.2-.2c-4-7.7-12-12.9-21.2-12.9-13.2 0-23.9 10.7-23.9 23.9 0 10.7 7 19.7 16.7 22.8l.1.1c-1 3.8-1.5 7.8-1.5 11.9 0 20.8 13.6 38.7 33.2 47.1l-.9-.7c-4.9-5.3-7.8-12.1-7.8-19.6 0-16.8 15-30.5 33.4-30.5h1.6c18.5 0 33.4 13.7 33.4 30.5 0 7.5-2.9 14.3-7.8 19.6l-.9.7c19.6-8.4 33.2-26.3 33.2-47.1 0-4.1-.5-8-1.5-11.8l.1-.1c9.7-3.2 16.7-12.2 16.7-22.9zm-126.5 11.5c-2.8-2-4.7-5.2-4.7-8.9 0-6 4.9-10.8 10.8-10.8 3.2 0 6.1 1.4 8 3.6-8.1 5.7-12.5 12.2-14.1 16.1zm105 0c-1.6-3.9-6-10.3-14.2-16.2 2-2.2 4.9-3.6 8-3.6 6 0 10.8 4.9 10.8 10.8.1 3.7-1.8 7-4.6 9z"/><ellipse cx="146.4" cy="196.3" rx="35.6" ry="30.5" transform="matrix(.3671 -.9302 .9302 .3671 -89.9302 260.3961)"/><ellipse cx="94.6" cy="78.9" rx="8.1" ry="6.4"/><path d="m130 117.2c-9.5 7-21.5 10-33.8 10s-27-3.3-37.7-10.2c-13.2-3.3-19.2-5.7-31.2-8s-17.8 9-18.8 11.8-5.3 17.3 8.5 23.3c6.8 3 16.5 4.3 16.5 4.3-1.3 2.7-2.3 7.3-2.3 7.3 7.3-3.7 23.7-2.7 34.5 9 4.7-16.3 19.7-20 29.7-20s22.2 2.7 30.8 20.2c6-5.2 14.5-11.8 31.3-10.5-.7-3.2-1.5-5.7-1.5-5.7 8.8-1.8 11.8-2.8 17.2-4.8s11.5-10.5 7.7-22.2-12.2-14.7-19.7-12.7-31.2 8.2-31.2 8.2z"/><path d="m79.8 203.8s.3 8.5-3.7 15.3c13 4.2 29.5 3.2 37-.7-2.5-5.8-2.8-12.5-2.8-14.3-4.7 3.1-22.4 5.2-30.5-.3z"/></g></svg>