<svg enable-background="new 0 0 21.775 20.762" height="20.762" viewBox="0 0 21.775 20.762" width="21.775" xmlns="http://www.w3.org/2000/svg"><path d="m14.152 11.931 3.009-2.931c.397-.388.308-.758-.148-.9-.008-.003-.012-.011-.02-.014-.068-.03-.174-.07-.328-.092l-4.053-.589c-.279-.04-.589-.184-.86-.379-.142-.104-.272-.221-.386-.345-.105-.117-.194-.241-.255-.365l-1.813-3.676c-.02-.04-.044-.07-.066-.107l-.019-.038c-.009-.018-.021-.023-.03-.04-.012-.015-.023-.032-.035-.046-.129-.208-.28-.333-.438-.333-.15 0-.294.119-.419.309-.01.011-.018.025-.027.036-.017.029-.039.041-.055.074l-.026.052c-.02.033-.041.053-.06.093l-1.814 3.674c-.062.126-.152.252-.259.371-.112.121-.239.236-.376.336-.274.199-.586.344-.867.385l-4.054.588c-.055.008-.119.033-.18.051s0 0-.001 0c-.05.015-.095.025-.142.048-.475.138-.572.513-.168.907l3.007 2.931c.431.422.699 1.233.622 1.842l-.687 4.005c-.004.025 0 .045-.002.068l-.022.133c-.077.446.094.708.404.708.118 0 .255-.038.407-.117l3.717-1.955c.276-.145.641-.216 1.003-.216.364 0 .729.072 1.004.216l3.718 1.955c.149.079.289.117.406.117.312 0 .481-.262.405-.708l-.03-.174c-.001-.012.002-.019 0-.03l-.682-3.962c-.093-.613.181-1.452.62-1.882zm-1.619 1.975.574 3.35-3.003-1.581c-.386-.203-.881-.315-1.395-.315-.511 0-1.005.112-1.393.315l-3.007 1.57.572-3.34c.153-.884-.217-2.023-.861-2.65l-2.424-2.373 3.354-.487c.887-.128 1.857-.833 2.255-1.639l1.495-3.067 1.513 3.068c.397.806 1.367 1.51 2.255 1.637l3.355.496-2.432 2.367c-.638.627-1.007 1.766-.858 2.649z" fill="#fff"/></svg>