<svg enable-background="new 0 0 566.929 458.929" height="458.95636" viewBox="0 0 566.91826 458.95637" width="566.91827" xmlns="http://www.w3.org/2000/svg"><path clip-rule="evenodd" d="m564.912 182.70934-178.77-.052-384.142-121.739003s0-39.136 0-58.8799899c1.717-.08 177.23299-.01 263.401-.01 64.021 0 128.043.007 192.064-.003 24.292-.004 45.374 8.6319899 63.727 24.1129899 22.354 18.858 35.846 43.239 43.296 71.218.343 1.286.416 2.673003.417 4.015003.025 25.822.007 81.338.007 81.338z" fill="#ffe1b2" fill-rule="evenodd" stroke="#000" stroke-width="4"/><path clip-rule="evenodd" d="m342.671 178.98735v147.984h49.629v129.985c-89.912 0-179.575 0-269.52 0 0-22.296 0-44.378 0-66.882 21.748-10.971 43.646-22.016 65.864-33.224 0-75.393 0-150.66 0-226.685 51.631 16.366 102.62 32.527 154.027 48.822z" fill="#fe822e" fill-rule="evenodd" stroke="#333" stroke-width="4"/><path clip-rule="evenodd" d="m360.119 196.70435h204.543v114.012c-68.269 0-136.276 0-204.543 0 0-38.092 0-75.923 0-114.012z" fill="#fbd4a4" fill-rule="evenodd" stroke="#000" stroke-width="4"/><path d="m499.37832 290.09598 65.31487-52.2519v30.93863l-50.18932 38.5014z" fill="#fec486" fill-rule="evenodd"/><path d="m425.81315 299.03381-14.95367 10.14099 20.96951 1.89069 4.98456-5.15643z" fill="#fec486" fill-rule="evenodd"/><path d="m476.17629 270.64929 88.03962-69.17601" fill="#fef2bd" fill-rule="evenodd" stroke="#fef2bd" stroke-width="3"/><path d="m495.9407 288.72093-19.2507-21.31327-20.70341 15.05457-20.54809 20.86861 9.62536 8.2503 26.98534-.8594z" fill="#fec486" fill-rule="evenodd"/><path d="m362.56085 286.65836c2.7501-.68753 37.12635-24.7509 37.12635-24.7509l-8.93782-14.43803 49.5018-31.62615-11.68792-17.18812 90.06576-2.06258-156.27669 112.46574z" fill="#fec486" fill-rule="evenodd"/><path d="m523.82667 311.01876 39.87149-30.78885" fill="#fef2bd" fill-rule="evenodd" stroke="#fef2bd" stroke-width="3"/><path d="m542.18998 310.64394 21.02794-16.8209" fill="#fef2bd" fill-rule="evenodd" stroke="#fef2bd" stroke-width="1.778486"/><path d="m390.68679 245.25179-28.9305 18.65105-.67436-28.56943 10.30909-8.83638-7.64729-10.67126 28.49431-18.52596c9.00562-.37997 17.99868-.19042 27.00239.0357l-41.90964 27.14782z" fill="#ed9954" fill-rule="evenodd"/><path clip-rule="evenodd" d="m360.119 196.70435h204.543v114.012c-68.269 0-136.276 0-204.543 0 0-38.092 0-75.923 0-114.012z" fill="none" stroke="#4d4d4d" stroke-width="4"/><g transform="matrix(.89946349 0 0 .89946349 401.13587 339.72428)"><path d="m91.396873-176.93252 45.698437-27.2246 18.47383 25.27999z" fill="#fec486" fill-rule="evenodd"/><path d="m83.551049-175.96021 51.599641-31.11383-12.98849-17.6421-71.602228 46.81131z" fill="#fcc486" fill-rule="evenodd"/><path d="m18.473836-174.98791-13.6123002-17.50152-21.3907578 12.63999z" fill="none"/><path d="m-66.392188-216.93768-21.115456 15.69748-10.695379-1.94461-7.154657-1.24762 28.545415-24.03237 7.778457 5.83384 43.753822-29.16921-18.473836-24.30768 106.953787-57.36612-24.307679-45.69844 44.726129 4.86154 41.809205 18.47383 31.11383 38.89229-215.852186 125.42762-17.501529-5.83384 17.434162-13.40436z" fill="#f7c589" fill-rule="evenodd"/><path d="m-46.670743-276.10785-43.753822 37.91998-28.928695 29.50178-16.99-5.62592 8.97102-17.06971 6.80615 2.91692 18.47384-25.27998-12.63999-11.66769 29.16921-23.33537 22.363065-14.58461z" fill="#ffb978" fill-rule="evenodd"/><path d="m-143.687-217.01157 12.42553-27.01014 14.58461-19.44615-16.52922-8.75076-21.39076 27.2246 8.75077 4.86154-9.29126 19.55482z" fill="#feb46d" fill-rule="evenodd"/><path d="m-167.13578-222.90626 9.62202-18.19853-7.77846-3.88923-9.30719 18.96291z" fill="#e79552" fill-rule="evenodd"/><path d="m-187.79585-229.71241 16.66979-31.81083 26.25229-32.08614 41.80921-35.97536 52.504588-31.11383 54.4492006-15.55692-134.1783886 1.94462-60.28304 44.72613-26.2523-25.27999-35.97536 27.2246-25.27999 28.19691-21.39075-17.50153-32.50201 41.5339 40.28046 12.64 15.55692-35.70006 24.30768 16.52922-12.57263 28.12954 22.2225 8.75076 13.6855-35.908 15.55691-26.25229 16.52922-19.44614 27.22461 22.36306-26.2523 37.91998 10.69538 2.91692-8.6834 19.65408-8.75076-3.47336-3.26543 11.04388z" fill="#fab474" fill-rule="evenodd"/><path d="m-204.1845-241.10479 4.86153-24.30768-10.69538-4.86154-7.77845 23.33538z" fill="none"/><g fill-rule="evenodd"><path d="m-396.16372-296.84654 29.94475-25.78023 88.13912-54.60102-168.20913 2.91692 4.32394 63.5289z" fill="#ed9954"/><path d="m-203.2122-376.25549-49.58766 32.08614-38.89229 31.11383-7.77845-4.86154 51.53228-40.8369 35.97536-21.39075z" fill="#f6d998"/><path d="m-63.199965-218.74173 202.239885-115.70455 6.80615.97231-208.073728 119.59378z" fill="#fec887"/><path d="m-30.627675-264.68324 159.944525-87.26457 1.94462 5.83385-159.180894 86.10743z" fill="#fed08f"/><path d="m-34.032487-184.91079 200.413537-117.22301-4.12515-4.12515-205.569974 117.56678z" fill="#fcd9aa"/><path d="m-22.688324-181.47316 196.288384-110.004-3.43763-3.78139-198.694717 113.09786z" fill="#fcd4a4"/><path d="m9.2815873-189.72346-2.7501-3.43763 167.7560927-94.19092 2.06258 3.78139z" fill="#fed9a8"/><path d="m18.219412-180.78564 161.224608-93.15963-1.03129-6.53149-166.03728 94.87845z" fill="#fcdbac"/><path d="m138.19252-205.53654c2.06258-.68752 45.72041-27.501 45.72041-27.501l-2.06257 21.31328-34.03249 20.28199z" fill="#fee5b6"/><path d="m157.78698-180.44187 25.78219-15.46932-1.71881-10.31287-30.59486 17.87565 5.5002 6.87525z" fill="#efd8ac"/><path d="m-121.34816-275.66408 30.2511-26.81348 33.688724-20.62575 46.751699-22.34456 51.564374-22.34456 2.406337 2.7501-57.064574 25.09466-45.720411 21.31327-30.594862 20.62575-27.500997 25.09467z" fill="#fedca6"/></g></g><path clip-rule="evenodd" d="m564.912 182.70934-178.77-.052-384.142-121.739003s0-39.136 0-58.8799899c1.717-.08 177.23299-.01 263.401-.01 64.021 0 128.043.007 192.064-.003 24.292-.004 45.374 8.6319899 63.727 24.1129899 22.354 18.858 35.846 43.239 43.296 71.218.343 1.286.416 2.673003.417 4.015003.025 25.822.007 81.338.007 81.338z" fill="none" stroke="#4d4d4d" stroke-width="4"/><g fill-rule="evenodd"><path d="m-178.90452 78.298107-8.76124-7.618115-9.89553 6.072358 4.53788-10.686563-8.83304-7.534747 11.56581 1.013455 4.43641-10.729088 2.61018 11.312914 11.57489.903806-9.95263 5.97831z" fill="#f3a0ef" transform="matrix(1.4701431534 .38012381493 -.46697910871 1.31339503166 539.98637222071 384.01403351786)"/><path d="m-178.90452 78.298107-8.76124-7.618115-9.89553 6.072358 4.53788-10.686563-8.83304-7.534747 11.56581 1.013455 4.43641-10.729088 2.61018 11.312914 11.57489.903806-9.95263 5.97831z" fill="#ebc4fd" transform="matrix(.90242467811 .23333313625 -.28664792065 .80620724819 422.52961386155 389.73712083776)"/><path d="m-178.90452 78.298107-8.76124-7.618115-9.89553 6.072358 4.53788-10.686563-8.83304-7.534747 11.56581 1.013455 4.43641-10.729088 2.61018 11.312914 11.57489.903806-9.95263 5.97831z" fill="#f3a0ef" transform="matrix(.77175669511 .19954729654 -.2451422816 .68947123092 354.41920834334 386.58685139557)"/><path d="m-178.90452 78.298107-8.76124-7.618115-9.89553 6.072358 4.53788-10.686563-8.83304-7.534747 11.56581 1.013455 4.43641-10.729088 2.61018 11.312914 11.57489.903806-9.95263 5.97831z" fill="#ebc4fd" transform="matrix(.47373093263 .12248902779 -.15047680715 .42322126275 292.75987995032 389.59120610046)"/><path d="m-178.90452 78.298107-8.76124-7.618115-9.89553 6.072358 4.53788-10.686563-8.83304-7.534747 11.56581 1.013455 4.43641-10.729088 2.61018 11.312914 11.57489.903806-9.95263 5.97831z" fill="#f3a0ef" transform="matrix(.77175669511 .19954729654 -.2451422816 .68947123092 377.12578834334 433.74664139557)"/><path d="m-178.90452 78.298107-8.76124-7.618115-9.89553 6.072358 4.53788-10.686563-8.83304-7.534747 11.56581 1.013455 4.43641-10.729088 2.61018 11.312914 11.57489.903806-9.95263 5.97831z" fill="#ebc4fd" transform="matrix(.47373093263 .12248902779 -.15047680715 .42322126275 315.46645995032 436.75099610046)"/><path d="m-178.90452 78.298107-8.76124-7.618115-9.89553 6.072358 4.53788-10.686563-8.83304-7.534747 11.56581 1.013455 4.43641-10.729088 2.61018 11.312914 11.57489.903806-9.95263 5.97831z" fill="#f3a0ef" transform="matrix(.77175669511 .19954729654 -.2451422816 .68947123092 432.14552834334 429.81665139557)"/><path d="m-178.90452 78.298107-8.76124-7.618115-9.89553 6.072358 4.53788-10.686563-8.83304-7.534747 11.56581 1.013455 4.43641-10.729088 2.61018 11.312914 11.57489.903806-9.95263 5.97831z" fill="#ebc4fd" transform="matrix(.47373093263 .12248902779 -.15047680715 .42322126275 370.48619995032 432.82100610046)"/><path d="m-178.90452 78.298107-8.76124-7.618115-9.89553 6.072358 4.53788-10.686563-8.83304-7.534747 11.56581 1.013455 4.43641-10.729088 2.61018 11.312914 11.57489.903806-9.95263 5.97831z" fill="#f3a0ef" transform="matrix(.77175669511 .19954729654 -.2451422816 .68947123092 456.16209834334 375.67023139557)"/><path d="m-178.90452 78.298107-8.76124-7.618115-9.89553 6.072358 4.53788-10.686563-8.83304-7.534747 11.56581 1.013455 4.43641-10.729088 2.61018 11.312914 11.57489.903806-9.95263 5.97831z" fill="#ebc4fd" transform="matrix(.47373093263 .12248902779 -.15047680715 .42322126275 394.50276995032 378.67458610046)"/><path d="m-178.90452 78.298107-8.76124-7.618115-9.89553 6.072358 4.53788-10.686563-8.83304-7.534747 11.56581 1.013455 4.43641-10.729088 2.61018 11.312914 11.57489.903806-9.95263 5.97831z" fill="#f3a0ef" transform="matrix(.77175669511 .19954729654 -.2451422816 .68947123092 429.08887834334 316.28383139557)"/><path d="m-178.90452 78.298107-8.76124-7.618115-9.89553 6.072358 4.53788-10.686563-8.83304-7.534747 11.56581 1.013455 4.43641-10.729088 2.61018 11.312914 11.57489.903806-9.95263 5.97831z" fill="#ebc4fd" transform="matrix(.47373093263 .12248902779 -.15047680715 .42322126275 367.42954995032 319.28818610046)"/><path d="m-178.90452 78.298107-8.76124-7.618115-9.89553 6.072358 4.53788-10.686563-8.83304-7.534747 11.56581 1.013455 4.43641-10.729088 2.61018 11.312914 11.57489.903806-9.95263 5.97831z" fill="#f3a0ef" transform="matrix(.77175669511 .19954729654 -.2451422816 .68947123092 392.40904834334 342.92038139557)"/><path d="m-178.90452 78.298107-8.76124-7.618115-9.89553 6.072358 4.53788-10.686563-8.83304-7.534747 11.56581 1.013455 4.43641-10.729088 2.61018 11.312914 11.57489.903806-9.95263 5.97831z" fill="#ebc4fd" transform="matrix(.47373093263 .12248902779 -.15047680715 .42322126275 330.74971995032 345.92473610046)"/><path d="m-178.90452 78.298107-8.76124-7.618115-9.89553 6.072358 4.53788-10.686563-8.83304-7.534747 11.56581 1.013455 4.43641-10.729088 2.61018 11.312914 11.57489.903806-9.95263 5.97831z" fill="#f3a0ef" transform="matrix(.85658567949 .20757292622 -.27208753387 .71720118459 526.95223214619 386.72478871054)"/><path d="m-178.90452 78.298107-8.76124-7.618115-9.89553 6.072358 4.53788-10.686563-8.83304-7.534747 11.56581 1.013455 4.43641-10.729088 2.61018 11.312914 11.57489.903806-9.95263 5.97831z" fill="#ebc4fd" transform="matrix(.52580189507 .12741543669 -.1670167345 .44024286638 458.51551077258 389.84997567391)"/><path d="m-178.90452 78.298107-8.76124-7.618115-9.89553 6.072358 4.53788-10.686563-8.83304-7.534747 11.56581 1.013455 4.43641-10.729088 2.61018 11.312914 11.57489.903806-9.95263 5.97831z" fill="#f3a0ef" transform="matrix(.64451325876 .1561822918 -.20472442023 .53963740634 468.09470337948 406.28030082949)"/><path d="m-178.90452 78.298107-8.76124-7.618115-9.89553 6.072358 4.53788-10.686563-8.83304-7.534747 11.56581 1.013455 4.43641-10.729088 2.61018 11.312914 11.57489.903806-9.95263 5.97831z" fill="#ebc4fd" transform="matrix(.39562451366 .09587008901 -.12566692657 .33124808446 416.60146113656 408.63175696898)"/><path d="m-178.90452 78.298107-8.76124-7.618115-9.89553 6.072358 4.53788-10.686563-8.83304-7.534747 11.56581 1.013455 4.43641-10.729088 2.61018 11.312914 11.57489.903806-9.95263 5.97831z" fill="#f3a0ef" transform="matrix(.59380954445 .15353684932 -.18861880882 .53049698171 387.41178547711 371.38607771513)"/><path d="m-178.90452 78.298107-8.76124-7.618115-9.89553 6.072358 4.53788-10.686563-8.83304-7.534747 11.56581 1.013455 4.43641-10.729088 2.61018 11.312914 11.57489.903806-9.95263 5.97831z" fill="#ebc4fd" transform="matrix(.36450082141 .09424622498 -.11578074551 .32563737603 339.96950478704 373.69770565514)"/><path d="m-178.90452 78.298107-8.76124-7.618115-9.89553 6.072358 4.53788-10.686563-8.83304-7.534747 11.56581 1.013455 4.43641-10.729088 2.61018 11.312914 11.57489.903806-9.95263 5.97831z" fill="#f3a0ef" transform="matrix(.59380954445 .15353684932 -.18861880882 .53049698171 344.61863547711 366.14610771513)"/><path d="m-178.90452 78.298107-8.76124-7.618115-9.89553 6.072358 4.53788-10.686563-8.83304-7.534747 11.56581 1.013455 4.43641-10.729088 2.61018 11.312914 11.57489.903806-9.95263 5.97831z" fill="#ebc4fd" transform="matrix(.36450082141 .09424622498 -.11578074551 .32563737603 297.17635478704 368.45773565514)"/><path d="m-178.90452 78.298107-8.76124-7.618115-9.89553 6.072358 4.53788-10.686563-8.83304-7.534747 11.56581 1.013455 4.43641-10.729088 2.61018 11.312914 11.57489.903806-9.95263 5.97831z" fill="#f3a0ef" transform="matrix(.59380954445 .15353684932 -.18861880882 .53049698171 335.88534547711 399.76927771513)"/><path d="m-178.90452 78.298107-8.76124-7.618115-9.89553 6.072358 4.53788-10.686563-8.83304-7.534747 11.56581 1.013455 4.43641-10.729088 2.61018 11.312914 11.57489.903806-9.95263 5.97831z" fill="#ebc4fd" transform="matrix(.36450082141 .09424622498 -.11578074551 .32563737603 288.44306478704 402.08090565514)"/><path d="m-178.90452 78.298107-8.76124-7.618115-9.89553 6.072358 4.53788-10.686563-8.83304-7.534747 11.56581 1.013455 4.43641-10.729088 2.61018 11.312914 11.57489.903806-9.95263 5.97831z" fill="#f3a0ef" transform="matrix(.59380954445 .15353684932 -.18861880882 .53049698171 355.09858547711 417.67252771513)"/><path d="m-178.90452 78.298107-8.76124-7.618115-9.89553 6.072358 4.53788-10.686563-8.83304-7.534747 11.56581 1.013455 4.43641-10.729088 2.61018 11.312914 11.57489.903806-9.95263 5.97831z" fill="#ebc4fd" transform="matrix(.36450082141 .09424622498 -.11578074551 .32563737603 307.65630478704 419.98415565514)"/><path d="m-178.90452 78.298107-8.76124-7.618115-9.89553 6.072358 4.53788-10.686563-8.83304-7.534747 11.56581 1.013455 4.43641-10.729088 2.61018 11.312914 11.57489.903806-9.95263 5.97831z" fill="#f3a0ef" transform="matrix(.59380954445 .15353684932 -.18861880882 .53049698171 383.48179547711 404.57259771513)"/><path d="m-178.90452 78.298107-8.76124-7.618115-9.89553 6.072358 4.53788-10.686563-8.83304-7.534747 11.56581 1.013455 4.43641-10.729088 2.61018 11.312914 11.57489.903806-9.95263 5.97831z" fill="#ebc4fd" transform="matrix(.36450082141 .09424622498 -.11578074551 .32563737603 336.03951478704 406.88422565514)"/><path d="m-178.90452 78.298107-8.76124-7.618115-9.89553 6.072358 4.53788-10.686563-8.83304-7.534747 11.56581 1.013455 4.43641-10.729088 2.61018 11.312914 11.57489.903806-9.95263 5.97831z" fill="#f3a0ef" transform="matrix(.59380954445 .15353684932 -.18861880882 .53049698171 448.10817547711 308.50636771513)"/><path d="m-178.90452 78.298107-8.76124-7.618115-9.89553 6.072358 4.53788-10.686563-8.83304-7.534747 11.56581 1.013455 4.43641-10.729088 2.61018 11.312914 11.57489.903806-9.95263 5.97831z" fill="#ebc4fd" transform="matrix(.36450082141 .09424622498 -.11578074551 .32563737603 400.66589478704 310.81799565514)"/><path d="m-178.90452 78.298107-8.76124-7.618115-9.89553 6.072358 4.53788-10.686563-8.83304-7.534747 11.56581 1.013455 4.43641-10.729088 2.61018 11.312914 11.57489.903806-9.95263 5.97831z" fill="#f3a0ef" transform="matrix(.59380954445 .15353684932 -.18861880882 .53049698171 385.22845547711 229.90670771513)"/><path d="m-178.90452 78.298107-8.76124-7.618115-9.89553 6.072358 4.53788-10.686563-8.83304-7.534747 11.56581 1.013455 4.43641-10.729088 2.61018 11.312914 11.57489.903806-9.95263 5.97831z" fill="#ebc4fd" transform="matrix(.36450082141 .09424622498 -.11578074551 .32563737603 337.78617478704 232.21833565514)"/><path d="m-178.90452 78.298107-8.76124-7.618115-9.89553 6.072358 4.53788-10.686563-8.83304-7.534747 11.56581 1.013455 4.43641-10.729088 2.61018 11.312914 11.57489.903806-9.95263 5.97831z" fill="#f3a0ef" transform="matrix(.87316410867 .2257674587 -.27735353996 .78006648438 440.24204987783 184.86178000403)"/><path d="m-178.90452 78.298107-8.76124-7.618115-9.89553 6.072358 4.53788-10.686563-8.83304-7.534747 11.56581 1.013455 4.43641-10.729088 2.61018 11.312914 11.57489.903806-9.95263 5.97831z" fill="#ebc4fd" transform="matrix(.53597830788 .1385838696 -.17024919109 .47883175938 370.48079856726 188.26090040115)"/><path d="m-178.90452 78.298107-8.76124-7.618115-9.89553 6.072358 4.53788-10.686563-8.83304-7.534747 11.56581 1.013455 4.43641-10.729088 2.61018 11.312914 11.57489.903806-9.95263 5.97831z" fill="#f3a0ef" transform="matrix(.39587527104 .10235848665 -.12574659142 .35366665629 306.36553854064 186.23389274134)"/><path d="m-178.90452 78.298107-8.76124-7.618115-9.89553 6.072358 4.53788-10.686563-8.83304-7.534747 11.56581 1.013455 4.43641-10.729088 2.61018 11.312914 11.57489.903806-9.95263 5.97831z" fill="#ebc4fd" transform="matrix(.24300192346 .06283117703 -.07718760494 .2170928128 274.73717216339 187.77498620147)"/><path d="m-178.90452 78.298107-8.76124-7.618115-9.89553 6.072358 4.53788-10.686563-8.83304-7.534747 11.56581 1.013455 4.43641-10.729088 2.61018 11.312914 11.57489.903806-9.95263 5.97831z" fill="#f3a0ef" transform="matrix(.39587527104 .10235848665 -.12574659142 .35366665629 359.63861854064 167.02064274134)"/><path d="m-178.90452 78.298107-8.76124-7.618115-9.89553 6.072358 4.53788-10.686563-8.83304-7.534747 11.56581 1.013455 4.43641-10.729088 2.61018 11.312914 11.57489.903806-9.95263 5.97831z" fill="#ebc4fd" transform="matrix(.24300192346 .06283117703 -.07718760494 .2170928128 328.01025216339 168.56173620147)"/><path d="m-178.90452 78.298107-8.76124-7.618115-9.89553 6.072358 4.53788-10.686563-8.83304-7.534747 11.56581 1.013455 4.43641-10.729088 2.61018 11.312914 11.57489.903806-9.95263 5.97831z" fill="#f3a0ef" transform="matrix(.77175669511 .19954729654 -.2451422816 .68947123092 321.70427834334 434.71895139557)"/><path d="m-178.90452 78.298107-8.76124-7.618115-9.89553 6.072358 4.53788-10.686563-8.83304-7.534747 11.56581 1.013455 4.43641-10.729088 2.61018 11.312914 11.57489.903806-9.95263 5.97831z" fill="#ebc4fd" transform="matrix(.47373093263 .12248902779 -.15047680715 .42322126275 260.04494995032 437.72330610046)"/><path d="m341.76597 183.79343-20.21709 2.91692 11.30542 6.6882-17.82678 7.89641 19.44614-.97231-27.46767 9.72307 27.01613 1.44224-21.91152 12.17006 16.57808-3.2017-11.85994 7.46219 16.451-.94082-28.25291 12.47317 25.75898-3.35421-15.70943 6.60477-35.05192 7.2089 26.20487-.54544-27.17717 9.29621 61.89401-15.27214.31933.34081-56.14043 19.76235 38.56144-4.77776-51.86348 14.24656 23.20902-1.0414-40.28757 12.99387 29.38151-5.61327-34.24305 17.28096 55.53946-23.08514-28.55794 16.52206 46.91382-21.63383-17.07855 10.22353-30.58473 19.51525 34.85672-17.38267-11.22022 13.12826 24.02678-18.67822-3.43762 11.09812-8.23006 12.23725 20.6055-20.27186.38251 14.34029 8.1812-23.23765z" fill="#ecb57b"/><path d="m369.47672 327.69489-24.43576 6.86514 19.9281.84422-40.21847 14.65371-22.36306-3.88923 11.66768 6.80615-10.69537 5.83384 15.55691-2.91692-11.66769 10.69538 25.27999-13.6123-22.36307 24.30768 32.08614-24.30768 21.73452-11.27506-30.48529 26.83197 35.97537-21.39075 10.69538-3.88923-31.11383 28.19691 21.52843-13.9905-7.965 13.42093 21.43963-18.87658-8.75077 15.55692-6.57023 15.27212c8.51564-7.84972 16.27557-16.40208 24.07176-24.94633l-1.94461-31.16269z" fill="#ecb57b"/></g><path clip-rule="evenodd" d="m342.671 178.98735v147.984h49.629v129.985c-89.912 0-179.575 0-269.52 0 0-22.296 0-44.378 0-66.882 21.748-10.971 43.646-22.016 65.864-33.224 0-75.393 0-150.66 0-226.685 51.631 16.366 102.62 32.527 154.027 48.822z" fill="none" stroke="#4d4d4d" stroke-width="4"/></svg>