<svg height="154.868" viewBox="122.277 6.458 316.575 154.868" width="316.575" xmlns="http://www.w3.org/2000/svg"><g fill="#008fa9"><path d="m167.223 6.458h-31.267l-13.679 15.634v33.221l15.633 15.633h13.679v-21.496h-5.862v-23.45h15.633v15.634h21.496v-19.542z"/><path d="m137.91 115.892h33.221l13.679-15.633v-35.175l-15.633-15.634h-13.679v21.496h5.862v23.45h-15.633v-15.634h-23.45v21.497z"/><path d="m188.718 100.259 16.611 15.633h12.702v-19.541h-5.863v-89.893h-23.45z"/><path d="m251.251 100.259-16.609 15.633h-12.703v-19.541h5.862v-89.893h23.45z"/><path d="m284.473 6.458v19.542h7.816v33.221h-7.816v21.496h15.632l15.634-15.633v-42.015l-16.61-16.611z"/><path d="m257.114 6.458h23.45v109.433h-23.45z"/><path d="m345.051 27.955h25.405v-21.497h-46.9v109.434h46.9v-19.541h-25.405z"/><path d="m348.96 49.45h15.634v19.542h-15.634z"/><path d="m405.631 6.458h17.588l15.633 15.634v29.312l-10.748 10.748 10.748 10.748v42.992h-21.497v-42.992h-11.724v-21.496h9.77v-25.404h-9.77z"/><path d="m378.273 6.458h23.448v109.433h-23.448z"/><path d="m169.177 127.616-4.886 4.886v22.474l6.351 6.35h35.664v-20.03h-19.541v5.863h13.678v7.817h-27.358v-21.497h33.221v-5.863z"/><path d="m253.206 142.273v-8.794l-5.862-5.863h-33.221v33.221h7.816v-13.678h13.679l9.771 13.678h7.817l-9.771-13.678h3.909zm-7.817-.977h-23.45v-7.816h23.45z"/><path d="m257.114 160.837 15.634-33.221h15.633l17.588 33.221h-9.772l-13.678-25.403h-3.909l-11.725 25.403z"/><path d="m307.922 127.616v33.221h7.817v-13.678h25.404v-5.863h-25.404v-7.817h29.312v-5.863z"/><path d="m348.96 127.616 15.634 15.634-17.588 17.587h11.724l11.726-11.725 11.725 11.725h11.724l-17.587-17.587 17.587-15.634h-11.724l-11.725 11.726-11.726-11.726z"/></g></svg>