<svg enable-background="new 0 0 270 82.3" viewBox="0 0 270 82.3" xmlns="http://www.w3.org/2000/svg" xmlns:xlink="http://www.w3.org/1999/xlink"><radialGradient id="a" cx="40.8867" cy="53.4069" gradientUnits="userSpaceOnUse" r="10.654"><stop offset=".5225" stop-color="#ffe41b"/><stop offset=".8933" stop-color="#716a13"/><stop offset="1" stop-color="#49482e"/></radialGradient><path d="m0 0h270v82.4h-270z" fill="#222"/><path d="m3.5 3.9h73.7v73.7h-73.7z" fill="#fff"/><path d="m29.3 72.3c0-1 4.6-1.8 10.4-1.8s10.3.8 10.3 1.8-4.6 1.8-10.4 1.8c-5.7 0-10.3-.8-10.3-1.8z" fill="#888"/><g fill="#fff"><path d="m103.4 37.2v.1c6 .1 10.5 1.3 13.3 3.6 2.9 2.3 4.3 5 4.3 8.3 0 3.6-1.6 6.6-4.9 8.9-3.3 2.4-7.6 3.5-13 3.5-4.7 0-8.3-.9-10.9-2.8s-3.8-4-3.8-6.4c0-1.6.6-2.9 1.7-3.8 1.1-1 2.5-1.5 4.1-1.5 1.5 0 2.8.4 3.9 1.3s1.6 2 1.6 3.4c0 1.9-1.2 3.4-3.7 4.7-.5.2-.7.5-.7.8 0 .6.7 1.1 2.1 1.5s2.8.6 4.3.6c4.8 0 7.2-3.5 7.2-10.6 0-7-2.9-10.5-8.7-10.5l-4.8.2c-1 0-1.5-.4-1.5-1.1 0-.8.5-1.2 1.5-1.2l3.5.1c3.6 0 5.9-.8 7.2-2.4 1.2-1.6 1.8-3.8 1.8-6.8s-.5-5.2-1.4-6.6-2.5-2.1-4.7-2.1c-1.2 0-2.3.2-3.4.6s-1.6.8-1.6 1.2.4.8 1.1 1.2c1.8 1.2 2.8 2.4 2.8 3.8 0 1.3-.5 2.4-1.5 3.2s-2.2 1.2-3.5 1.2c-1.5 0-2.8-.5-4-1.4s-1.8-2-1.8-3.4c0-2.3 1.3-4.3 3.9-6s5.9-2.5 10-2.5c4.5 0 8.3.9 11.3 2.8 3.1 1.9 4.6 4.3 4.6 7.3 0 6.1-5.4 9.6-16.3 10.8z"/><path d="m157.7 18.5v40.2h3.9c6 0 9.7-1.6 10.9-4.7 1.3-3.2 1.9-8.6 1.9-16.2 0-6-.4-10.3-1.2-12.9s-1.9-4.3-3.5-5.2c-1.6-.8-3.5-1.2-5.9-1.2zm-12.2 40.2v-40.2h-6.3v-2.2h25.3c7.3 0 13.1 2.1 17.4 6.2s6.4 9.4 6.4 15.7c0 3.3-.6 6.4-1.9 9.2-1.3 2.9-3.3 5.5-6 7.9s-5.5 3.9-8.3 4.6-6.3 1-10.5 1h-22.3v-2.2z"/><path d="m236.9 38.6c0-6.8-.1-11.3-.4-13.5s-1-3.9-2.2-5.3c-1.2-1.3-3.1-2-5.8-2-2.3 0-4.1.5-5.4 1.6-1.4 1.1-2.2 2.8-2.5 5.2s-.5 7-.5 13.9c0 6.8.1 11.3.4 13.5s1 4 2.3 5.3c1.2 1.3 3.1 2 5.8 2 2.2 0 3.9-.5 5.3-1.6s2.2-2.8 2.6-5.1c.2-2.4.4-7 .4-14zm-30.7-.2c0-6.7 2.2-12.1 6.6-16.4 4.4-4.2 9.7-6.4 15.8-6.4 5.7 0 10.8 2 15.3 6s6.8 9.7 6.8 17c0 6.9-2.1 12.4-6.4 16.6s-9.5 6.2-15.6 6.2c-6.6 0-12.1-2.2-16.2-6.6-4.2-4.3-6.3-9.8-6.3-16.4z"/></g><path d="m30.8 55.2c0-4.9 3.9-8.8 8.8-8.8s8.8 4 8.8 8.8c0 4.9-4 8.8-8.8 8.8s-8.8-4-8.8-8.8z" fill="url(#a)"/><path d="m31.4 32.1c-1.3.9-1.6 5.9-1.6 5.9s.3 5 1.6 5.9 8.2 1.4 8.2 1.4 6.9-.5 8.2-1.4 1.6-5.9 1.6-5.9-.3-5-1.6-5.9-8.2-1.4-8.2-1.4-6.9.5-8.2 1.4z" fill="#0000a0"/><path d="m39.7 9.4 10.3 10.4-10.3 10.3-10.4-10.3z" fill="#f00"/></svg>