<svg enable-background="new 0 0 169.5 67.6" viewBox="0 0 169.5 67.6" xmlns="http://www.w3.org/2000/svg"><path d="m4.7 4.1h161.3v60.6h-161.3z" fill="#222"/><path d="m6.2 5.4h49v57.9h-49z" fill="#1f0200"/><g fill="#f9f8e1"><path d="m77.6 28.5c0 5.6-4.4 8.4-13.2 8.4-1.5 0-3.9 0-7.2-.1.2-4.3.3-9.1.3-14.4 0-5.1-.1-9.5-.3-13.2h3.3c.6 0 1.7 0 3.1-.1s2.6-.1 3.4-.1c6 0 9 2 9 6.1 0 3.1-1.5 5.2-4.6 6.2v.3c1.6.3 3.1.9 4.3 2 1.3 1.2 1.9 2.8 1.9 4.9zm-7-11.6c0-2.5-1.5-3.8-4.6-3.8-1.4 0-2.6.1-3.7.3.1 1.4.2 3.9.2 7.4h1.6c4.4 0 6.5-1.3 6.5-3.9zm1.5 11.8c0-2.8-2.4-4.2-7.1-4.2-.9 0-1.7 0-2.4.1 0 3 .1 5.7.2 8.2.5.1 1.2.2 2.1.2 2.5 0 4.3-.3 5.5-.9s1.7-1.8 1.7-3.4z"/><path d="m102.5 28.5c0 5.6-4.4 8.4-13.2 8.4-1.5 0-3.9 0-7.2-.1.2-4.3.3-9.1.3-14.4 0-5.1-.1-9.5-.3-13.2h3.3c.6 0 1.7 0 3.1-.1 1.5 0 2.6-.1 3.4-.1 6 0 9 2 9 6.1 0 3.1-1.5 5.2-4.6 6.2v.3c1.6.3 3.1.9 4.3 2 1.3 1.2 1.9 2.8 1.9 4.9zm-7-11.6c0-2.5-1.5-3.8-4.6-3.8-1.4 0-2.6.1-3.7.3.1 1.4.2 3.9.2 7.4h1.6c4.4 0 6.5-1.3 6.5-3.9zm1.5 11.8c0-2.8-2.4-4.2-7.1-4.2-.9 0-1.7 0-2.4.1 0 3 .1 5.7.2 8.2.5.1 1.2.2 2.1.2 2.5 0 4.3-.3 5.5-.9s1.7-1.8 1.7-3.4z"/><path d="m125.9 31.8-.3 4.9c-1.9.5-3.8.7-5.7.7-4.6 0-8.2-1.3-10.6-4s-3.6-5.9-3.6-9.8c0-4 1.3-7.4 3.9-10.4 2.6-2.9 6.1-4.4 10.6-4.4 1.7 0 3.2.2 4.7.6l-.7 4.9c-1.6-.5-3.1-.8-4.6-.8-2.8 0-4.8.9-6.1 2.7s-2 4-2 6.6c0 2.7.8 5 2.4 6.9 1.6 2 3.8 2.9 6.7 2.9 1.5.1 3.3-.2 5.3-.8z"/><path d="m63 51-3.2-9.1s-.1-.1-.1-.1-.2.1-.2.1v9h-1.5v-9.9h2.7l2.8 7.7c0 .1.1.1.2.1s.2-.1.2-.1l2.7-7.7h2.8v10h-1.5v-9c0-.1-.1-.1-.1-.1-.1 0-.1 0-.2.1l-3.2 9z"/><path d="m73.1 50.1h1.1v-8.2h-1.1v-.9h4.1v.9h-1.2v8.2h1.2v.9h-4.1z"/><path d="m86.5 43.9c-.1-1-.8-1.8-2.2-1.8-1.3 0-1.9.8-2.2 1.3-.5.9-.5 2.3-.5 2.4 0 2.2.5 4.3 2.7 4.3 1 0 1.6-.6 1.7-.8.4-.5.4-1 .5-1.4l1.8.2c-.1.8-.4 1.6-1.2 2.2-1.1.9-2.4.9-2.9.9-1.1 0-4.3-.4-4.3-5.2 0-2.3.8-5.2 4.5-5.2.8 0 1.9.2 2.7.8.9.7 1.1 1.5 1.2 2z"/><path d="m91.8 41h4.1c3.7 0 4.5 1.7 4.5 2.7 0 1.9-1.6 2.4-2.8 2.7l3.4 4.6h-2.2l-3.1-4.4h-2v4.4h-1.8zm1.8 1.2v3.3c1 0 2.3 0 3-.1s1.8-.4 1.8-1.5c0-1.2-1-1.7-3-1.7z"/><path d="m111 43.3c.4.9.5 2 .5 2.7 0 2.4-.9 5.3-4.4 5.3-3.2 0-4.4-2.5-4.4-5.1 0-1.5.3-2.9 1.1-3.8 1.1-1.3 2.4-1.5 3.4-1.5 2.1 0 3.3 1.2 3.8 2.4zm-3.9-1.3c-1.1 0-1.8.6-2.2 1.5-.3.6-.4 1.5-.4 2.5 0 1.3.2 3.9 2.5 3.9 1.9 0 2.6-1.5 2.6-4 0-1.2-.1-3.9-2.5-3.9z"/><circle cx="11.3" cy="10" r="1.9"/><circle cx="16.2" cy="10" r="1.9"/><circle cx="21.2" cy="10" r="1.9"/><circle cx="26.1" cy="10" r="1.9"/><circle cx="31" cy="10" r="1.9"/><circle cx="35.9" cy="10" r="1.9"/><circle cx="40.8" cy="10" r="1.9"/><circle cx="45.7" cy="10" r="1.9"/><circle cx="50.7" cy="10" r="1.9"/><circle cx="13.7" cy="12.9" r="1.9"/><circle cx="28.5" cy="12.9" r="1.9"/><circle cx="33.4" cy="12.9" r="1.9"/><circle cx="48.2" cy="12.9" r="1.9"/><circle cx="11.3" cy="15.6" r="1.9"/><circle cx="21.2" cy="15.6" r="1.9"/><circle cx="31" cy="15.6" r="1.9"/><circle cx="40.8" cy="15.6" r="1.9"/><circle cx="50.7" cy="15.6" r="1.9"/><circle cx="18.7" cy="18.4" r="1.9"/><circle cx="23.6" cy="18.4" r="1.9"/><circle cx="38.3" cy="18.4" r="1.9"/><circle cx="43.3" cy="18.4" r="1.9"/><circle cx="11.3" cy="21" r="1.9"/><circle cx="21.2" cy="21" r="1.9"/><circle cx="40.8" cy="21" r="1.9"/><circle cx="50.7" cy="21" r="1.9"/><circle cx="13.7" cy="23.8" r="1.9"/><circle cx="28.5" cy="23.8" r="1.9"/><circle cx="33.4" cy="23.8" r="1.9"/><circle cx="48.2" cy="23.8" r="1.9"/><circle cx="11.3" cy="26.5" r="1.9"/><circle cx="16.2" cy="26.5" r="1.9"/><circle cx="31" cy="26.5" r="1.9"/><circle cx="45.7" cy="26.5" r="1.9"/><circle cx="50.7" cy="26.5" r="1.9"/><circle cx="13.7" cy="29.4" r="1.9"/><circle cx="18.7" cy="29.4" r="1.9"/><circle cx="23.6" cy="29.4" r="1.9"/><circle cx="28.5" cy="29.4" r="1.9"/><circle cx="33.4" cy="29.4" r="1.9"/><circle cx="38.3" cy="29.4" r="1.9"/><circle cx="43.3" cy="29.4" r="1.9"/><circle cx="11.3" cy="32.2" r="1.9"/><circle cx="16.2" cy="32.2" r="1.9"/><circle cx="21.2" cy="32.2" r="1.9"/><circle cx="26.1" cy="32.2" r="1.9"/><circle cx="31" cy="32.2" r="1.9"/><circle cx="50.7" cy="32.2" r="1.9"/><circle cx="13.7" cy="35" r="1.9"/><circle cx="18.7" cy="35" r="1.9"/><circle cx="23.6" cy="35" r="1.9"/><circle cx="28.5" cy="35" r="1.9"/><circle cx="33.4" cy="35" r="1.9"/><circle cx="16.2" cy="37.8" r="1.9"/><circle cx="21.2" cy="37.8" r="1.9"/><circle cx="26.1" cy="37.8" r="1.9"/><circle cx="31" cy="37.8" r="1.9"/><circle cx="50.7" cy="37.8" r="1.9"/><circle cx="18.7" cy="40.6" r="1.9"/><circle cx="23.6" cy="40.6" r="1.9"/><circle cx="28.5" cy="40.6" r="1.9"/><circle cx="33.4" cy="40.6" r="1.9"/><circle cx="21.2" cy="43.2" r="1.9"/><circle cx="26.1" cy="43.2" r="1.9"/><circle cx="31" cy="43.2" r="1.9"/><circle cx="35.9" cy="43.2" r="1.9"/><circle cx="50.7" cy="43.2" r="1.9"/><circle cx="23.6" cy="46" r="1.9"/><circle cx="28.5" cy="46" r="1.9"/><circle cx="33.4" cy="46" r="1.9"/><circle cx="38.3" cy="46" r="1.9"/><circle cx="26.1" cy="48.7" r="1.9"/><circle cx="31" cy="48.7" r="1.9"/><circle cx="35.9" cy="48.7" r="1.9"/><circle cx="40.8" cy="48.7" r="1.9"/><circle cx="50.7" cy="48.7" r="1.9"/><circle cx="28.5" cy="51.5" r="1.9"/><circle cx="38.3" cy="51.5" r="1.9"/><circle cx="43.3" cy="51.5" r="1.9"/><circle cx="26.1" cy="54.3" r="1.9"/><circle cx="35.9" cy="54.3" r="1.9"/><circle cx="45.7" cy="54.3" r="1.9"/><circle cx="50.7" cy="54.3" r="1.9"/><circle cx="13.7" cy="57.1" r="1.9"/><circle cx="18.7" cy="57.1" r="1.9"/><circle cx="23.6" cy="57.1" r="1.9"/><circle cx="28.5" cy="57.1" r="1.9"/><circle cx="33.4" cy="57.1" r="1.9"/><circle cx="38.3" cy="57.1" r="1.9"/><circle cx="48.2" cy="57.1" r="1.9"/><circle cx="50.7" cy="59.8" r="1.9"/></g></svg>