<svg enable-background="new 0 0 497 220" viewBox="0 0 497 220" xmlns="http://www.w3.org/2000/svg"><path d="m151 11.3h74.2c16.7 0 29.5 1.3 38.3 3.8 11.8 3.5 21.9 9.7 30.3 18.5 8.4 8.9 14.8 19.7 19.2 32.6s6.6 28.7 6.6 47.6c0 16.6-2.1 30.8-6.2 42.8-5 14.6-12.2 26.5-21.5 35.6-7 6.9-16.5 12.2-28.5 16.1-9 2.8-20.9 4.3-35.9 4.3h-76.5zm40.7 34.1v133h30.3c11.3 0 19.5-.6 24.6-1.9 6.6-1.6 12-4.4 16.4-8.4 4.3-3.9 7.9-10.4 10.6-19.4s4.1-21.3 4.1-36.8-1.4-27.4-4.1-35.8c-2.8-8.1-6.6-14.6-11.6-19.3-4.9-4.7-11.2-7.8-18.8-9.5-5.7-1.3-16.8-1.9-33.3-1.9z" fill="#db1f26"/><path d="m149.4 214.2v-202.9-1.6h75.8c16.8 0 29.7 1.3 38.7 3.9 12.1 3.6 22.4 9.9 31 19 8.6 9.1 15.1 20.2 19.6 33.2 4.5 13.1 6.7 29.1 6.7 48.1 0 16.7-2.1 31.2-6.3 43.4-5.1 14.8-12.4 26.9-21.9 36.2-7.3 7.1-17 12.5-29.2 16.5-9.2 2.9-21.3 4.3-36.4 4.3zm3.2-3.3h74.7c14.9 0 26.7-1.4 35.4-4.2 11.8-3.8 21.1-9 27.9-15.7 9.1-8.9 16.2-20.5 21.1-34.9 4-11.8 6.1-25.9 6.1-42.3 0-18.7-2.2-34.4-6.5-47-4.3-12.7-10.6-23.3-18.8-32-8.2-8.7-18.1-14.7-29.6-18.1-8.5-2.5-21.2-3.8-37.8-3.8h-72.5zm37.4-30.8v-134.7-1.6h19.9c16.6 0 27.7.6 33.7 2 7.8 1.7 14.4 5 19.6 9.9 5.2 4.9 9.1 11.6 12 20.1 2.8 8.6 4.2 20.6 4.2 36.3 0 15.6-1.4 28-4.2 37.3-2.8 9.2-6.4 15.9-11.1 20.1-4.6 4.1-10.3 7-17.1 8.7-5.3 1.3-13.6 2-25 2h-32zm3.3-3.3h28.7c11.3 0 19.4-.7 24.2-1.9 6.4-1.6 11.6-4.3 15.7-8 4-3.6 7.5-9.8 10.2-18.6 2.7-8.7 4-20.9 4-36.3 0-15.4-1.4-27.2-4-35.2-2.7-8.1-6.4-14.3-11.1-18.8-4.7-4.4-10.7-7.4-18-9-5.4-1.2-16.5-1.9-33-1.9h-16.6zm-1.6-129.7v-1.6z"/><path d="m305.5 174.2c8.1 4.8 17.3 7.3 27.8 7.3 16.3 0 29.6-5.9 40-17.6s15.6-29.3 15.6-52.7c0-23.1-5.1-40.4-15.2-51.8s-23.6-17.1-40.4-17.1-30.4 5.8-40.6 17.3c-10.3 11.5-15.4 28.9-15.4 52.1 0 3.1.1 6.1.3 9-.6 12.9-1.8 47.1-26.4 54.3-10.5-16.5-15.7-37.2-15.7-61.9 0-20.6 3.1-37.8 9.2-51.8 4.6-10.3 10.8-19.5 18.8-27.7 7.9-8.2 16.6-14.2 26-18.2 12.5-5.3 27-8 43.4-8 29.7 0 53.4 9.2 71.2 27.7s26.7 44.1 26.7 77c0 32.6-8.8 58.1-26.5 76.5s-41.3 27.6-70.9 27.6c-21.6 0-39.9-4.7-55.1-14.2 11.9-6.2 22.3-18.4 27.2-27.8z" fill="#8461a9"/><path d="m333.3 217.9c-21.8 0-40.5-4.8-56-14.5l-2.4-1.5 2.5-1.3c11.6-6 21.9-18.1 26.6-27.2l.8-1.5 1.5.9c7.8 4.7 16.7 7 26.9 7 15.9 0 28.6-5.6 38.8-17 10.1-11.3 15.2-28.4 15.2-51.6 0-22.9-5-39.7-14.8-50.7-9.9-11-22.8-16.5-39.2-16.5-16.4 0-29.4 5.6-39.4 16.7-9.9 11.1-15 28-15 51 0 3.1.1 6 .3 8.9v.1.1c-.2 4.8-.5 12.8-2.2 21.2-1.6 8.4-4.5 17.4-10.2 24.4-3.8 4.6-8.8 8.4-15.2 10.2l-1.2.3-.7-1c-10.7-16.9-16-37.8-16-62.8 0-20.7 3.1-38.2 9.3-52.4 4.7-10.5 11-19.8 19.1-28.1 8.1-8.3 16.9-14.5 26.6-18.5 12.8-5.4 27.5-8.1 44.1-8.1 30 0 54.3 9.4 72.4 28.2 18.2 18.8 27.2 45 27.2 78.1 0 32.9-8.9 58.9-27 77.6-17.9 18.7-42 28-72 28 .1 0 .1 0 0 0zm0-3.2c29.3 0 52.4-9 69.7-27.1 17.3-18 26.1-43 26.1-75.4 0-32.6-8.8-57.7-26.3-75.8-17.5-18.1-40.7-27.2-70.1-27.2-16.2 0-30.5 2.6-42.8 7.9-9.2 3.9-17.7 9.8-25.5 17.8-7.8 8-13.9 17.1-18.4 27.2-6 13.7-9.1 30.7-9.1 51.1 0 24 5 43.9 14.8 60 5.2-1.8 9.3-4.9 12.4-8.8 3.4-4.2 5.8-9.4 7.5-14.8 3.3-10.7 3.8-22.3 4.1-28.8-.2-2.9-.3-5.9-.3-9 0-23.4 5.2-41.3 15.8-53.2 10.6-11.9 24.7-17.8 41.9-17.8 17.2 0 31.2 5.9 41.7 17.6 10.5 11.8 15.6 29.5 15.6 52.9 0 23.6-5.3 41.6-16.1 53.8-10.7 12-24.6 18.1-41.2 18.1-10.1 0-19.1-2.2-27.1-6.7-5 8.7-14 19.3-24.7 25.7 14.6 8.3 31.8 12.5 52 12.5z"/><path d="m388.6 121.1c-14.9-4.7-25.7-10.1-32.6-16.3-12.3-11.1-18.5-24.6-18.5-40.6 0-10.3 2.9-19.9 8.7-28.8s14.2-15.8 25.1-20.4c10.9-4.7 24.1-7 39.5-7 25.2 0 44.2 5.6 56.9 16.8s19.4 26.1 20.1 44.7l-40.7 1.4c-1.7-10.4-5.4-17.8-11.1-22.4-5.7-4.5-14.2-6.8-25.6-6.8-.3 0-.5 0-.8 0-11.4.1-20.3 2.5-26.8 7.3-4.3 3.1-6.4 7.3-6.4 12.5 0 4.8 2 8.9 6 12.3.1.1.2.2.4.3 6.7 16.7 6.9 34.2 5.8 47zm40.6-31.6c15 3.9 26.4 8 34.2 12.1 9.5 5 16.9 11.8 22.2 20.5s8 19.4 8 32.1c0 11.6-3.2 22.4-9.6 32.5s-15.5 17.6-27.2 22.5-26.3 7.4-43.8 7.4c-25.4 0-45-5.9-58.6-17.7s-21.8-29-24.4-51.5l39.5-3.7c2.4 13.3 7.2 23 14.5 29.2s17.1 9.3 29.4 9.3c13.1 0 22.9-2.8 29.6-8.3 6.6-5.5 10-12 10-19.4 0-4.8-1.4-8.8-4.2-12.2-2.8-3.3-7.6-6.2-14.6-8.7-1.2-.4-2.7-.9-4.6-1.5 1.7-13.5 1.7-27.2-.4-42.6z" fill="#fdc20f"/><path d="m353.4 200.1c-14-12.1-22.3-29.7-25-52.6l-.2-1.7 42.7-4 .3 1.5c2.3 13 7 22.4 13.9 28.3 6.9 5.9 16.3 8.9 28.4 8.9 12.9 0 22.3-2.7 28.5-7.9 6.4-5.3 9.3-11.3 9.4-18.2 0-4.4-1.3-8.1-3.8-11.1-2.5-3-7.1-5.8-13.9-8.2-1.1-.4-2.7-.9-4.6-1.4l-1.3-.4.2-1.4c.8-6.4 1.2-12.8 1.2-19.5 0-7.2-.5-14.7-1.6-22.7l1.6-.2-1.6.2-.3-2.4 2.4.6c15 4 26.5 8 34.6 12.3 9.7 5.1 17.3 12.2 22.8 21.1 5.5 9 8.3 20 8.3 33 0 11.9-3.3 23-9.9 33.3-6.6 10.4-15.9 18.1-27.9 23.1-12 5-26.8 7.5-44.4 7.5-25.8 0-45.8-6-59.8-18.1zm2.1-2.5c13.2 11.4 32.3 17.3 57.5 17.3 17.3 0 31.7-2.4 43.2-7.2 11.4-4.8 20.2-12.1 26.4-21.9 6.3-9.9 9.3-20.3 9.4-31.6 0-12.5-2.6-22.9-7.8-31.3-5.2-8.4-12.4-15-21.6-19.9-7.3-3.8-17.8-7.7-31.5-11.4.9 7.2 1.3 14.1 1.3 20.7 0 6.3-.4 12.4-1.1 18.5 1.3.4 2.5.8 3.4 1.1 7.1 2.5 12.2 5.5 15.3 9.2 3 3.6 4.6 8.1 4.6 13.2 0 7.9-3.6 14.9-10.5 20.7-7.1 5.9-17.3 8.7-30.6 8.7-12.6 0-22.9-3.2-30.5-9.7-7.4-6.3-12.2-16-14.7-28.7l-36.3 3.4c2.7 21.6 10.6 37.7 23.5 48.9zm32.6-75c-15-4.7-26-10.2-33.2-16.6-12.6-11.4-19.1-25.4-19-41.8 0-10.6 3-20.5 9-29.7 6-9.2 14.6-16.3 25.8-21.1 11.2-4.8 24.6-7.2 40.2-7.2 25.4 0 44.8 5.6 58 17.2 13.1 11.5 20 26.9 20.6 45.9l.1 1.6-43.7 1.5-.2-1.4c-1.7-10.1-5.3-17.2-10.5-21.4-5.3-4.2-13.4-6.5-24.6-6.5-.3 0-.5 0-.8 0-11.2.1-19.7 2.5-25.9 7-3.9 2.9-5.7 6.4-5.8 11.2 0 4.3 1.7 7.8 5.5 11 .1.1.2.2.3.3l.3.3.2.4c5 12.6 6.5 25.4 6.5 36.4 0 4.1-.2 8-.5 11.5l-.2 2zm.5-1.5.5-1.6zm-16.7-104.8c-10.7 4.6-18.7 11.2-24.3 19.8-5.6 8.7-8.4 18-8.4 28 0 15.5 5.9 28.5 17.9 39.4 6.3 5.7 16.3 10.8 30 15.3.2-2.9.3-6 .3-9.2 0-10.6-1.4-22.8-6.1-34.8s0 0-.1-.1c-4.3-3.6-6.6-8.3-6.6-13.5 0-5.7 2.4-10.5 7.1-13.9 6.9-5 16.2-7.5 27.8-7.6h.8c11.6 0 20.5 2.3 26.7 7.2 5.8 4.7 9.6 12.1 11.5 22l37.6-1.3c-1-17.5-7.4-31.4-19.4-41.9-12.4-10.7-30.9-16.2-55.9-16.2-15.3 0-28.2 2.3-38.9 6.8z"/><path d="m121.1 214.3h-115.8v-35l78.9-21-78.9-20.7v-35h115.7v21.7h-91l91.1 23v22.5l-91.1 22.8h91.1z" fill="#c0bfbf"/><path d="m3.7 216v-37.9l74.2-19.7-74.2-19.5v-37.9h119v25h-79.6l79.6 20.1v25l-79.5 20h79.5v23.3 1.6zm117.4-1.7v-1.6zm-114.1-78 83.7 22-83.7 22.3v32.1h112.5v-18.4h-89.5l-.4-3.2 89.9-22.6v-19.9l-89.9-22.7.4-3.2h89.5v-18.4h-112.5z"/><path d="m83.4 97.5-2.2-22.7c7.6-1.4 13.2-4.1 16.8-8.3s5.4-9.8 5.4-16.9c0-7.5-1.6-13.2-4.8-17s-6.9-5.7-11.2-5.7c-2.7 0-5.1.8-7 2.4s-3.6 4.4-5 8.4c-.9 2.7-2.6 9-5.1 18.7-3.1 12.5-6.9 21.3-11.4 26.4-6.4 7.1-14.1 10.7-23.3 10.7-5.9 0-11.4-1.7-16.5-5s-9-8.2-11.7-14.4c-2.7-6.3-4-13.9-4-22.8 0-14.5 3.2-25.5 9.6-32.8 6.3-7.5 14.8-11.4 25.4-11.7l1 23.4c-5.9 1-10.2 3.1-12.8 6.4s-3.9 8.2-3.9 14.8c0 6.8 1.4 12.1 4.2 15.9 1.8 2.5 4.2 3.7 7.2 3.7 2.7 0 5.1-1.2 7-3.5 2.5-2.9 5.1-10.1 7.7-21.5 2.7-11.4 5.5-19.8 8.3-25.2 2.9-5.4 6.8-9.7 11.8-12.8s11.1-4.5 18.4-4.5c6.7 0 12.9 1.8 18.7 5.5s10.1 8.9 12.9 15.6 4.2 15.1 4.2 25.2c0 14.6-3.4 25.9-10.1 33.7-6.8 7.8-16.7 12.5-29.6 14z" fill="#c0bfbf"/><path d="m79.4 73.5 1.5-.3c7.4-1.3 12.6-4 15.9-7.8 3.3-3.8 5-9 5-15.9 0-7.3-1.6-12.6-4.4-16-3-3.5-6.2-5.1-9.9-5.1-2.4 0-4.3.7-5.9 2-1.6 1.3-3.2 3.8-4.5 7.7-.9 2.6-2.6 8.9-5 18.6-3.1 12.7-7 21.6-11.8 27.1-6.8 7.4-15.1 11.2-24.7 11.2-6.2 0-12.1-1.8-17.4-5.3-5.4-3.5-9.5-8.6-12.3-15.2-2.8-6.5-4.2-14.3-4.2-23.4 0-14.7 3.2-26.1 10-33.9 6.6-7.6 15.7-11.7 26.6-12.1h1.7l1.2 26.4-1.4.2c-5.7 1-9.6 3-11.8 5.8-2.3 2.9-3.6 7.4-3.6 13.8 0 6.6 1.4 11.5 3.9 15 1.6 2.1 3.3 3 5.9 3 2.3 0 4-.9 5.8-2.9 1-1.2 2.3-3.6 3.5-7.1 1.3-3.5 2.6-8.1 3.9-13.7 2.7-11.4 5.5-19.9 8.5-25.6 3-5.7 7.1-10.2 12.3-13.4 5.3-3.3 11.8-4.9 19.3-4.9 6.9 0 13.5 1.9 19.5 5.8 6.1 3.9 10.6 9.4 13.5 16.4 2.9 7 4.3 15.6 4.3 25.8 0 14.9-3.4 26.5-10.5 34.8-7.1 8.2-17.4 13.1-30.6 14.6l-1.7.2zm4 24 1.6-.2zm1.5-1.8c11.8-1.7 20.7-6.1 26.9-13.3 6.4-7.4 9.7-18.2 9.7-32.6 0-9.9-1.4-18.1-4.1-24.6-2.7-6.5-6.8-11.4-12.3-14.9-5.6-3.5-11.4-5.3-17.8-5.3-7.1 0-12.9 1.5-17.6 4.4-4.7 2.9-8.4 6.9-11.2 12.2-2.8 5.2-5.5 13.5-8.2 24.8-1.4 5.7-2.7 10.4-4 14.1-1.3 3.7-2.6 6.3-4.1 8.1-2.2 2.6-5.1 4.1-8.3 4.1-3.5 0-6.5-1.5-8.5-4.4-3.1-4.2-4.5-9.9-4.5-16.9 0-6.8 1.3-12.1 4.3-15.8 2.7-3.4 6.9-5.6 12.4-6.8l-.8-20.3c-9.5.7-16.9 4.3-22.7 10.9-6 6.9-9.1 17.4-9.1 31.7 0 8.7 1.3 16.1 3.9 22.1 2.6 6 6.3 10.6 11.1 13.7 4.9 3.2 10.1 4.7 15.6 4.7 8.7 0 15.9-3.3 22.1-10.1 4.2-4.7 8-13.3 11.1-25.7 2.4-9.8 4.1-16 5.1-18.9 1.5-4.1 3.2-7.2 5.5-9.1 2.2-1.9 5-2.8 8-2.8 4.8 0 9 2.2 12.4 6.3 3.5 4.2 5.2 10.3 5.2 18.1 0 7.4-1.9 13.5-5.8 18-3.7 4.3-9.2 7.1-16.3 8.6z"/></svg>