<svg enable-background="new 0 0 407 136" viewBox="0 0 407 136" xmlns="http://www.w3.org/2000/svg"><circle cx="58.1" cy="13.7" fill="#ccc" r="4"/><path d="m58.1 107.3-27.9-15.8 7.5-4.1s0 .1.1.1c5.5 8 16.5 8.6 25.2 7.8 5.2-1.7-1.1 2-.7 3.5.9 2.7 4 1.1 5.5.7 3.8-2.2 7.5-4.6 9.8-8.7 1.3-3.9.7-1.8 3.8-5.1 2.8-2.9 3-7.3 6.2-9.8 3.5-3.1 5-7.6 6.9-11.7 6.2-5.8 12-13.4 11.7-22.3.3-6.8-3.8-12.8-8.8-16.9-8.2-6.7-18.7-10.1-29-11.7-2.4-.9-4.8 2-3.1 4.1 4.8 2 10.1 1.9 14.8 3.9 7.6 2.8 15.5 7 19.6 14.3 3.5 7.2-.2 15.8-5.5 21l-.2.1c-2-3.3-4.2-6.6-7.4-9-8.2-6.2-18.6-8.4-28.6-9v-19.2l-50.1 27v57h.1v1l50.1 28.5 50.1-28.5v-25.7zm-.1-43.6s.1 0 0 0c5.7.3 11.6 1.2 16.4 4.3.6.5 1.4.8-.5 1.4-1.4.5-6.3 1.4-9.9 1.9 0 0-3.3.2-4.5.2-.2 0-.7 0-1.5-.1zm-3.5 14.7c3.1-.3 6.2-.2 9.1.5 1.7.5 3.8.5 4.9 2.1-5.6.9-11.3 1.1-17 .7-.8-.2-1.7-.2-2.6-.4zm3.1 11.8c-5-.2-10.8-.7-14.5-4.6 10 2.5 20.6 2.4 30.5-.5-4.3 3.9-10.4 5-16 5.1zm17.9-11.8c-1.3-1.7-3.2-2.5-5.1-3.1 3-.8 6-1.6 9-2.5 1.7 3.2-1.3 4.9-3.9 5.6zm9.5-25.2c2.4 2 3.6 4.9 4.4 7.9-1.8 1.3-3.7 2.5-5.5 3.7-1.3.3-2.8 2-4 .6-6.2-4.8-14.2-6.6-21.9-7.1v-14.1c9.6.1 19.8 2.4 27 9z" fill="#ccc"/><path d="m401.5 129c-94.3 0-188.7 0-283 0 0-4 0-8 0-12h283z" fill="#444"/><path d="m69.2 11.5c-1.7-2.2.7-5 3.1-4.1 10.4 1.6 20.8 5 29 11.7 5 4.1 9.2 10.2 8.8 16.9.2 8.9-5.5 16.5-11.7 22.3-1.8 4.1-3.4 8.6-6.9 11.7-3.2 2.5-3.5 7-6.2 9.8-3 3.3-2.5 1.2-3.8 5.1-2.3 4.2-6.1 6.6-9.8 8.7-1.4.4-4.5 2-5.5-.7-.3-1.5 5.9-5.1.7-3.5-8.8.8-19.8.2-25.2-7.8-1-2.4-.9-3.2-.9-4.6-4-2.8-6.7-7.2-6.4-12.3-4.4-3-8.5-7.4-8.7-13-.8-5.5 3.5-10 7.9-12.7 8.4-5 18.5-6.3 28.2-6.3 10 .6 20.5 2.8 28.7 9 3.2 2.3 5.3 5.7 7.4 9l.2-.2c5.4-5.2 9.1-13.8 5.5-21-4.1-7.3-12-11.5-19.6-14.3-4.7-1.8-10-1.8-14.8-3.7zm-35.7 34.5c-5 4-1.3 12.1 3.8 13.7 6.9-5.6 16-7.2 24.6-7.2 7.7.5 15.7 2.2 22 7.1 1.2 1.4 2.7-.2 4-.6 1.9-1.2 3.7-2.4 5.5-3.7-.8-3-2-5.9-4.4-7.9-7.2-6.6-17.4-8.9-27-9-9.8-.2-20.7 1.1-28.5 7.6zm34.5 19.5c3.7-.5 8.5-1.4 9.9-1.9 1.9-.6 1.2-.9.5-1.4-4.9-3-10.7-3.9-16.4-4.3-6.2 0-12.7.6-18.1 3.7-.6.3-2.4.7 0 1.3 5.3 1.9 18.4 2.6 19.6 2.7 1.2.2 4.5-.1 4.5-.1zm-28.2 2c.5 1.3 1.5 3.2 3.5 4.4.9-.6 2.2-1.2 3.3-1.8.7-.3 1.5-.8 2.2-1.1-.4 0-.9-.1-2-.1-2.5-.3-4.7-.8-7-1.4zm34.6 2.1c1.9.5 3.7 1.4 5.1 3.1 2.7-.7 5.6-2.5 3.9-5.6-3 .9-6 1.7-9 2.5zm-24.7 5.1c1.7 1 4 .9 5.8 1.3 5.6.4 11.4.2 17-.7-1.1-1.6-3.2-1.6-4.9-2.1-5.8-1.4-12.4-.6-17.9 1.5zm-2.6 5.2c3.7 3.9 9.5 4.3 14.5 4.6 5.6-.1 11.7-1.2 16-5.1-9.9 2.9-20.5 3-30.5.5z" fill="#01015b"/><path d="m138.6 70.2c5.1 0 10.1-.3 14.8-2.1 12.7-4.4 21.1-17.8 20.7-31.1-.4-6.5-2.6-12.9-6.5-18.1-5.9-8.3-16-13-26.1-12.7h-22.6v19.1l-.1.3h.1v69.8h9.2v-25.2m-.1-55.8c5.2 0 10.4-.1 15.5.1 7.7.5 15.2 4.8 18.9 11.6 4.7 8.1 4.2 19-1.6 26.4-4.1 5.5-10.7 9-17.5 9.1-5.1.1-10.1 0-15.2 0z" fill="#444"/><circle cx="62.1" cy="9" fill="#01015b" r="4"/><path d="m62.1 127.2-50.1-28.5v-25.7l50.1 28.5z" fill="#01015b"/><path d="m62.1 127.2 50.1-28.5v-25.7l-50.1 28.5z" fill="#f00020"/><path d="m274.1 57.4v-17.3h-13.5c.9 3.3 1.4 6.7 1.4 10.3 0 2.4-.2 4.8-.7 7z" fill="#444"/><path d="m258 67.3c-6.2 12.5-19.1 21-34 21-21 0-37.9-17-37.9-37.9s17-37.9 37.9-37.9c13.6 0 25.4 7.1 32.2 17.8h9.5c-7.5-15.5-23.3-26.2-41.7-26.2-25.6 0-46.3 20.7-46.3 46.3s20.7 46.3 46.3 46.3c19.6 0 36.4-12.2 43.1-29.4z" fill="#444"/><path d="m11.9 97.7 50.1-27v-56.9l-50.1 27z" fill="#fec101"/><g fill="#01015b"><path d="m69.2 11.5c-1.7-2.2.7-5 3.1-4.1 10.4 1.6 20.8 5 29 11.7 5 4.1 9.2 10.2 8.8 16.9.2 8.9-5.5 16.5-11.7 22.3-1.8 4.1-3.4 8.6-6.9 11.7-3.2 2.5-3.5 7-6.2 9.8-3 3.3-2.5 1.2-3.8 5.1-2.3 4.2-6.1 6.6-9.8 8.7-1.4.4-4.5 2-5.5-.7-.3-1.5 5.9-5.1.7-3.5-8.8.8-19.8.2-25.2-7.8-1-2.4-.9-3.2-.9-4.6-4-2.8-6.7-7.2-6.4-12.3-4.4-3-8.5-7.4-8.7-13-.8-5.5 3.5-10 7.9-12.7 8.4-5 18.5-6.3 28.2-6.3 10 .6 20.5 2.8 28.7 9 3.2 2.3 5.3 5.7 7.4 9l.2-.2c5.4-5.2 9.1-13.8 5.5-21-4.1-7.3-12-11.5-19.6-14.3-4.7-1.8-10-1.8-14.8-3.7zm-35.7 34.5c-5 4-1.3 12.1 3.8 13.7 6.9-5.6 16-7.2 24.6-7.2 7.7.5 15.7 2.2 22 7.1 1.2 1.4 2.7-.2 4-.6 1.9-1.2 3.7-2.4 5.5-3.7-.8-3-2-5.9-4.4-7.9-7.2-6.6-17.4-8.9-27-9-9.8-.2-20.7 1.1-28.5 7.6zm34.5 19.5c3.7-.5 8.5-1.4 9.9-1.9 1.9-.6 1.2-.9.5-1.4-4.9-3-10.7-3.9-16.4-4.3-6.2 0-12.7.6-18.1 3.7-.6.3-2.4.7 0 1.3 5.3 1.9 18.4 2.6 19.6 2.7 1.2.2 4.5-.1 4.5-.1zm-28.2 2c.5 1.3 1.5 3.2 3.5 4.4.9-.6 2.2-1.2 3.3-1.8.7-.3 1.5-.8 2.2-1.1-.4 0-.9-.1-2-.1-2.5-.3-4.7-.8-7-1.4zm34.6 2.1c1.9.5 3.7 1.4 5.1 3.1 2.7-.7 5.6-2.5 3.9-5.6-3 .9-6 1.7-9 2.5zm-24.7 5.1c1.7 1 4 .9 5.8 1.3 5.6.4 11.4.2 17-.7-1.1-1.6-3.2-1.6-4.9-2.1-5.8-1.4-12.4-.6-17.9 1.5zm-2.6 5.2c3.7 3.9 9.5 4.3 14.5 4.6 5.6-.1 11.7-1.2 16-5.1-9.9 2.9-20.5 3-30.5.5z"/><circle cx="62.1" cy="9" r="4"/><path d="m62.1 127.2-50.1-28.5v-25.7l50.1 28.5z"/></g><path d="m62.1 127.2 50.1-28.5v-25.7l-50.1 28.5z" fill="#f00020"/><g fill="#444"><path d="m326 23.8v-17.6h-27.7-7.8-9.1v89.1h16.9v-37.9h26.4v-17.3h-26.4v-16.3z"/><path d="m397 95.3-26.5-46.3 24.5-42.8h-20.4l-14.3 25-14.3-25h-20.4l24.5 42.8-26.5 46.3h20.4l16.3-28.5 16.3 28.5z"/><path d="m128.3 113v-9.2l-3.9 9.2h-.9l-3.9-9.2v9.2h-1v-10.4h1.6l3.8 8.8 3.8-8.8h1.6v10.4z"/><path d="m134.9 113.2c-2.1 0-3.5-1.3-3.5-4.1v-6.5h1v6.5c0 2.1.9 3.1 2.5 3.1s2.5-1 2.5-3.1v-6.5h1v6.5c0 2.8-1.4 4.1-3.5 4.1z"/><path d="m140.4 113v-10.4h1v9.4h4.3v.9h-5.3z"/><path d="m148.6 103.6v9.4h-1v-9.4h-2.4v-.9h5.8v.9z"/><path d="m152.1 113v-10.4h1v10.4z"/><path d="m164.9 113v-9.2l-3.9 9.2h-.9l-3.9-9.2v9.2h-1v-10.4h1.6l3.8 8.8 3.8-8.8h1.6v10.4z"/><path d="m167.9 113v-10.4h5.7v.9h-4.6v3.7h4.5v.9h-4.5v3.8h4.6v.9h-5.7z"/><path d="m178.1 113h-2.8v-10.4h2.4c1.9 0 3 .2 3.9.8 1.5.9 2.4 2.5 2.4 4.4.1 3-1.8 5.2-5.9 5.2zm3.1-8.7c-.8-.5-1.8-.7-3.3-.7h-1.4v8.5h1.4c1.8 0 2.9-.3 3.7-.9 1-.8 1.5-2 1.5-3.3-.1-1.6-.7-2.9-1.9-3.6z"/><path d="m185.7 113v-10.4h1v10.4z"/><path d="m196.8 113-1.5-3.5h-4.8l-1.5 3.5h-1.1l4.4-10.4h1.2l4.5 10.4zm-3.9-9.2-2 4.7h4z"/><path d="m202.8 113v-10.4h5.7v.9h-4.6v3.7h4.5v.9h-4.5v3.8h4.6v.9h-5.7z"/><path d="m217.4 113-6.2-9.1v9.1h-1v-10.4h1.4l5.8 8.6v-8.6h1v10.4z"/><path d="m223 103.6v9.4h-1v-9.4h-2.4v-.9h5.8v.9z"/><path d="m226.4 113v-10.4h5.7v.9h-4.6v3.7h4.5v.9h-4.5v3.8h4.6v.9h-5.7z"/><path d="m237.8 109.1 2.9 3.9h-1.3l-3.5-4.7c2.9 0 3.9-.5 3.9-2.4 0-1.7-1.1-2.4-3.5-2.4h-1.5v9.4h-1v-10.4h2.6c3.2 0 4.5 1.2 4.5 3.3-.1 2-1.1 3.1-3.1 3.3z"/><path d="m244.7 103.6v9.4h-1v-9.4h-2.4v-.9h5.8v.9z"/><path d="m255.4 113-1.5-3.5h-4.8l-1.5 3.5h-1.1l4.4-10.4h1.2l4.5 10.4zm-3.9-9.2-2 4.7h4z"/><path d="m257.7 113v-10.4h1v10.4z"/><path d="m268 113-6.2-9.1v9.1h-1v-10.4h1.4l5.8 8.6v-8.6h1v10.4z"/><path d="m280.8 113v-9.2l-3.9 9.2h-.9l-3.9-9.2v9.2h-1v-10.4h1.6l3.8 8.8 3.8-8.8h1.6v10.4z"/><path d="m283.8 113v-10.4h5.7v.9h-4.6v3.7h4.5v.9h-4.5v3.8h4.6v.9h-5.7z"/><path d="m298.5 113-6.2-9.1v9.1h-1v-10.4h1.4l5.8 8.6v-8.6h1v10.4z"/><path d="m304 103.6v9.4h-1v-9.4h-2.4v-.9h5.8v.9z"/><path d="m314.2 108.8h-2v4.2h-1v-10.4h2.9c2.8 0 4 1 4 3.1 0 2-1.1 3.1-3.9 3.1zm-.5-5.2h-1.5v4.3h1.9c2.1 0 2.8-.6 2.8-2.1.1-2.1-1.2-2.2-3.2-2.2z"/><path d="m319.4 113v-10.4h1v9.4h4.3v.9h-5.3z"/><path d="m334.3 113-1.5-3.5h-4.8l-1.5 3.5h-1.1l4.4-10.4h1.2l4.5 10.4zm-3.9-9.2-2 4.7h4z"/><path d="m339.1 109.5v3.5h-1v-3.5l-3.6-6.9h1.1l2.9 5.8 3-5.8h1.1z"/><path d="m343.7 113v-10.4h5.7v.9h-4.6v3.7h4.5v.9h-4.5v3.8h4.6v.9h-5.7z"/><path d="m355.1 109.1 2.9 3.9h-1.3l-3.5-4.7c2.9 0 3.9-.5 3.9-2.4 0-1.7-1.1-2.4-3.5-2.4h-1.5v9.4h-1v-10.4h2.6c3.2 0 4.5 1.2 4.5 3.3-.1 2-1.1 3.1-3.1 3.3z"/><path d="m366.4 108.8h-2v4.2h-1v-10.4h2.9c2.8 0 4 1 4 3.1-.1 2-1.1 3.1-3.9 3.1zm-.6-5.2h-1.5v4.3h1.9c2.1 0 2.8-.6 2.8-2.1.1-2.1-1.2-2.2-3.2-2.2z"/><path d="m376.5 113.2c-3.1 0-5.4-2.3-5.4-5.3 0-3.1 2.3-5.4 5.4-5.4 2.1 0 4 1.1 4.8 2.9h-1.2c-.9-1.4-2.1-1.9-3.6-1.9-2.5 0-4.4 1.9-4.4 4.4 0 2.4 2 4.4 4.4 4.4 1.5 0 2.5-.6 3.6-1.9h1.1c-1 1.8-2.6 2.8-4.7 2.8z"/><path d="m387.7 103.6v3.7h4.1v.9h-4.1v4.7h-1v-10.4h5.3v.9z"/><path d="m399.5 113-2.9-4.4-2.9 4.4h-1.2l3.5-5.3-3.3-5.1h1.2l2.7 4.1 2.7-4.1h1.2l-3.3 5.1 3.5 5.3z"/><path d="m383.6 108.8c-.4 0-.8-.3-.8-.8 0-.4.3-.8.8-.8.4 0 .8.3.8.8 0 .4-.4.8-.8.8z"/></g></svg>