<svg enable-background="new 0 0 216.49 39.3" viewBox="0 0 216.49 39.3" xmlns="http://www.w3.org/2000/svg"><g fill="#fff"><path d="m55.28 23.36-2.45 7.42h-3.15l8.02-23.59h3.68l8.05 23.59h-3.26l-2.52-7.42zm7.74-2.38-2.31-6.79c-.53-1.54-.88-2.94-1.23-4.31h-.07c-.35 1.4-.73 2.83-1.19 4.27l-2.31 6.83z"/><path d="m72.89 7.19h3.05v21.04h10.08v2.56h-13.13z"/><path d="m89.4 7.19h3.05v21.04h10.08v2.56h-13.13z"/><path d="m131.3 29.73c-1.37.49-4.06 1.3-7.25 1.3-3.57 0-6.51-.91-8.82-3.12-2.03-1.96-3.29-5.11-3.29-8.79.03-7.04 4.87-12.18 12.78-12.18 2.73 0 4.87.6 5.88 1.08l-.73 2.49c-1.26-.56-2.84-1.02-5.22-1.02-5.74 0-9.49 3.57-9.49 9.49 0 5.99 3.61 9.52 9.1 9.52 2 0 3.36-.28 4.06-.63v-7.04h-4.8v-2.45h7.77v11.35z"/><path d="m139.77 23.36-2.45 7.42h-3.15l8.02-23.59h3.68l8.05 23.59h-3.26l-2.52-7.42zm7.73-2.38-2.31-6.79c-.53-1.54-.88-2.94-1.23-4.31h-.07c-.35 1.4-.73 2.83-1.19 4.27l-2.31 6.83z"/><path d="m177.12 20.42c-.18-3.29-.39-7.25-.35-10.19h-.1c-.81 2.77-1.79 5.71-2.98 8.96l-4.17 11.45h-2.31l-3.82-11.24c-1.12-3.33-2.06-6.37-2.73-9.17h-.07c-.07 2.94-.25 6.9-.46 10.43l-.63 10.12h-2.91l1.65-23.59h3.89l4.03 11.41c.98 2.91 1.79 5.5 2.38 7.95h.1c.6-2.38 1.44-4.97 2.49-7.95l4.2-11.41h3.89l1.47 23.59h-2.98z"/><path d="m197.59 19.72h-9.17v8.51h10.22v2.56h-13.27v-23.6h12.74v2.56h-9.7v7.46h9.17v2.51z"/><path d="m202.17 27.07c1.37.84 3.36 1.54 5.46 1.54 3.12 0 4.94-1.65 4.94-4.03 0-2.21-1.26-3.47-4.45-4.69-3.85-1.37-6.23-3.36-6.23-6.69 0-3.68 3.05-6.41 7.63-6.41 2.42 0 4.17.56 5.22 1.16l-.84 2.49c-.77-.42-2.35-1.12-4.48-1.12-3.22 0-4.45 1.92-4.45 3.54 0 2.21 1.44 3.29 4.69 4.55 3.99 1.54 6.02 3.47 6.02 6.93 0 3.64-2.7 6.79-8.26 6.79-2.28 0-4.76-.67-6.02-1.51z"/></g><path d="m40.63 15.08c-.14-.42-.5-.73-.95-.8l-12.35-1.79-5.51-11.19c-.2-.4-.6-.65-1.05-.65-.03 0-.05.01-.08.01-.41.03-.79.27-.97.64l-5.52 11.19-12.5 1.8c-.44.06-.81.37-.95.8s-.02.89.3 1.2l9.08 8.71-2.11 12.29c-.08.44.11.88.47 1.15.36.26.84.3 1.23.09l10.97-5.76.08-.04 11.04 5.81c.39.21.87.17 1.23-.09s.54-.71.47-1.15l-2.11-12.3 8.93-8.71c.32-.32.44-.79.3-1.21z" fill="#ffce06"/><path d="m40.63 15.12c-.14-.42-.5-.73-.95-.8l-12.35-1.79-5.51-11.19c-.2-.4-.6-.65-1.05-.65-.03 0-.05.01-.08.01v32.1l.08-.04 11.04 5.81c.39.21.87.17 1.23-.09s.54-.71.47-1.15l-2.11-12.3 8.93-8.71c.32-.31.44-.78.3-1.2z" fill="#ffce06"/><path d="m20.69.7c-.41.03-.79.27-.97.64l-5.52 11.19-12.5 1.8c-.44.06-.81.37-.95.8s-.02.89.3 1.2l9.08 8.71-2.11 12.29c-.08.44.11.88.47 1.15.36.26.84.3 1.23.09l10.97-5.76z" fill="#feda45"/></svg>