<svg height="234.744" viewBox="-25.928 -4 566.928 234.744" width="566.928" xmlns="http://www.w3.org/2000/svg"><path d="m1.536-4h566.928v234.744h-566.928z" fill="#003e99"/><path d="m38.726 197.467 43.064-169.511h39.932l20.749 73.991 21.531-73.991h37.583l35.233 124.883 85.965-.162c9.023-.088 9.577-18.748-.669-18.744l-50.063-.668c-21.497.207-44.167-23.05-43.063-54.024.229-28.412 25.004-50.786 56.698-50.778l127.69-.114 32.494 44.238 31.709-44.629 52.85.392-57.938 81.428 62.637 88.292-52.572-.161-36.457-50.662-34.68 50.662-53.633-.048 61.072-87.3-26.623-38.757-110.999.162c-12.114.111-11.669 19.169.095 18.812l46.768.716c19.767.127 47.604 20.668 46.911 52.736.301 37.279-33.275 54.312-49.441 53.401l-122.419.163-20.357-76.271-20.357 76.108h-38.644l-21.255-75.718-18.677 75.833z" fill="#fff"/></svg>