<svg enable-background="new 0 0 564.1 97.8" viewBox="0 0 564.1 97.8" xmlns="http://www.w3.org/2000/svg"><g fill="#f4b20c"><path d="m2.8 95.1 52.7-91.5c6.7 11.9 14.8 27 24.3 45.3l23.8 45.9zm55.2-35.6c.2 1.5-.1 2.8-.7 4-.8 1.4-1.9 2-3.4 2-1.9 0-3.3-1-4.3-3-.2-1.2-.1-2.3.3-3.4.5-1.4 1.3-2.2 2.5-2.5.4-.1.7-.1 1.1-.1 1.8 0 3.4 1 4.5 3z"/><path d="m192.7 93.8c-14.5.3-28.9.5-43.4.7-17.3.2-31.9.3-43.9.2v-91.9c3.5.4 14.4.4 32.7-.2 14.5-.4 25.4.9 32.7 3.7 10.5 4 17.2 11.9 20.1 23.6.1.8.1 1.6.1 2.5 0 8.6-4.1 16.1-12.4 22.5-2.2 1.7-5.1 3.2-8.6 4.3-3.1.9-6.2 1.7-9.3 2.5zm-38.4-62.9c.1.4.2.9.2 1.4 0 1.4-.4 2.5-1.3 3.4s-1.9 1.3-3.2 1.3c-1.9 0-3.3-1-4.4-3-.4-2.8.4-4.8 2.4-5.9.6-.2 1.1-.4 1.7-.4 2.3.1 3.9 1.1 4.6 3.2zm21.1 56.3c-4.5.1-11.1-.1-19.9-.6v-.8c1.7-.2 4.3-.3 7.8-.3 3.5.1 6.1-.1 7.8-.4l-15.6-15.9h1.9zm7.6-52.6c-.2 3-1.3 6-3.3 8.9s-4.5 5-7.4 6.3l-8.3 3.7v-2c11.1-3.6 17.1-9.2 17.9-16.8z"/><path d="m280.6 64.5c-3 8.7-8.6 15.7-16.6 21.2-8.1 5.5-16.7 8.2-25.8 8.2-8.3 0-16-2.2-23.2-6.6s-12.8-10.4-16.8-17.9c-3.2-5.9-4.7-12.8-4.7-20.7 0-7.4 1.4-13.8 4.3-19.3 4-7.9 9.7-14.1 17-18.7 7.3-4.5 15.3-6.8 24-6.8 2.5 0 4.9.2 7.4.6 6.7 1.1 12.9 3.7 18.7 7.9 6.1 4.4 10.5 9.7 13.4 15.9-7.9 4.8-19.6 11.9-35.3 21.3 13.5 5.9 26.1 10.9 37.6 14.9zm-13.6 4.8c0 1.6-1 3.4-3.1 5.3-1.6 1.5-3.5 2.8-5.6 3.8l-.8-.6c1.3-1.1 2.6-2.1 3.9-3.2 1.6-1.4 2.7-2.7 3.2-4.1-2.9-1.4-6.9-3.1-12-5-6.1-2.3-10.2-4-12.1-4.8v-1.5z"/><path d="m267 95.1 52.7-91.5c6.7 11.9 14.8 27 24.3 45.3l23.8 45.9zm55.2-35.6c.2 1.5-.1 2.8-.7 4-.8 1.4-1.9 2-3.4 2-1.9 0-3.3-1-4.3-3-.2-1.2-.1-2.3.3-3.4.5-1.4 1.3-2.2 2.5-2.5.4-.1.7-.1 1.1-.1 1.9 0 3.4 1 4.5 3zm33.2 28.2-19 .4v-1.2l15.9-.5c-.7-2.2-2.2-5.5-4.5-9.7-2.5-4.5-4.1-7.9-4.8-10.1l1.1-.6z"/><path d="m462.4 71c-4.6 9.5-11.6 16.1-21 19.9-7.1 2.8-16.7 4.3-28.7 4.3-3.3 0-8.3-.1-15-.4-6.7-.2-11.7-.4-15-.4-5.1 0-9.5.2-13.4.7l.3-92.4c3.7.4 7.9.6 12.7.6 3.3 0 8.3-.1 15.1-.3s11.9-.3 15.2-.3c10.3 0 18.8 1.1 25.3 3.3 8.4 2.8 15.1 7.8 20 15 6.3 7.1 9.5 16.3 9.5 27.7 0 8.1-1.6 15.6-5 22.3zm-37.6-11.9c.1.4.2.9.2 1.4 0 1.1-.4 2.1-1.1 3s-1.6 1.4-2.7 1.5c-2.6-.5-4.2-1.5-4.8-2.9-.1-.4-.1-.8-.1-1.2 0-2.2 1-3.7 3-4.7.4-.1.7-.1 1.1-.1 1.8.1 3.3 1.1 4.4 3zm35.7-9.1c-.9 7.5-3.1 14.2-6.5 19.8-4 6.7-9.2 11.3-15.8 13.8-3.6 1.4-6.3 2.4-8.1 2.9-3 .9-5.9 1.3-8.5 1.4l-.5-1.1c14.5-2.5 24.6-7.8 30.2-15.9 3.8-5.5 6.3-12.5 7.4-21z"/><path d="m561.6 45.1h-50.4c-.6 1.5-.8 3.2-.8 5.2s.3 3.7.8 5.1h17.9v11.6l-17.9.8v9.1l50.2.4v17.8h-89.7v-92.3h89.7zm-44.8-33.5-36.4.3-.3 30.2h-1.3v-32.2c8.5-.1 21.2 0 38 .5z"/></g><path d="m2.8 95.1 52.7-91.5c6.7 11.9 14.8 27 24.3 45.3l23.8 45.9zm96-3-43.3-82.6-47.9 82.8zm-40.8-32.6c.2 1.5-.1 2.8-.7 4-.8 1.4-1.9 2-3.4 2-1.9 0-3.3-1-4.3-3-.2-1.2-.1-2.3.3-3.4.5-1.4 1.3-2.2 2.5-2.5.4-.1.7-.1 1.1-.1 1.8 0 3.4 1 4.5 3zm33.2 28.2-19 .4v-1.2l15.8-.5c-.7-2.2-2.2-5.5-4.5-9.7-2.5-4.5-4.1-7.9-4.8-10.1l1.1-.6z"/><path d="m192.7 93.8c-14.5.3-28.9.5-43.4.7-17.3.2-31.9.3-43.9.2v-91.9c3.5.4 14.4.4 32.7-.2 14.5-.4 25.4.9 32.7 3.7 10.5 4 17.2 11.9 20.1 23.6.1.8.1 1.6.1 2.5 0 8.6-4.1 16.1-12.4 22.5-2.2 1.7-5.1 3.2-8.6 4.3-3.1.9-6.2 1.7-9.3 2.5zm-4.6-64c-2.5-9.4-7.7-16.1-15.6-19.8-6.1-2.8-14.6-4.3-25.5-4.3-3 0-7.6.1-13.7.4s-10.6.4-13.5.4c-4.4 0-8.3-.2-11.6-.6v85.6h78l-29.3-29.6c-.4-.4-.5-1-.5-1.6-.1-.8.2-1.3.8-1.6 6.6 0 12.9-2 19-6 8.5-5.4 12.5-13.1 11.9-22.9zm-33.8 1.1c.1.4.2.9.2 1.4 0 1.4-.4 2.5-1.3 3.4s-1.9 1.3-3.2 1.3c-1.9 0-3.3-1-4.4-3-.4-2.8.4-4.8 2.4-5.9.6-.2 1.1-.4 1.7-.4 2.3.1 3.9 1.1 4.6 3.2zm21.1 56.3c-4.5.1-11.1-.1-19.9-.6v-.8c1.7-.2 4.3-.3 7.8-.3 3.5.1 6.1-.1 7.8-.4l-15.6-15.9h1.9zm7.6-52.6c-.2 3-1.3 6-3.3 8.9s-4.5 5-7.4 6.3l-8.3 3.7v-2c11.1-3.6 17.1-9.2 17.9-16.8z"/><path d="m280.6 64.5c-3 8.7-8.6 15.7-16.6 21.2-8.1 5.5-16.7 8.2-25.8 8.2-8.3 0-16-2.2-23.2-6.6s-12.8-10.4-16.8-17.9c-3.2-5.9-4.7-12.8-4.7-20.7 0-7.4 1.4-13.8 4.3-19.3 4-7.9 9.7-14.1 17-18.7 7.3-4.5 15.3-6.8 24-6.8 2.5 0 4.9.2 7.4.6 6.7 1.1 12.9 3.7 18.7 7.9 6.1 4.4 10.5 9.7 13.4 15.9-7.9 4.8-19.6 11.9-35.3 21.3 13.5 5.9 26.1 10.9 37.6 14.9zm-4.9 1.8c-14.3-5.4-27.4-10.8-39.1-16.2 4.8-2.8 11.2-6.6 19-11.5 9.4-5.9 15.6-9.8 18.6-11.7-2.9-5.3-7.1-9.7-12.6-13.3-5-3.2-10.6-5.4-16.8-6.6-1.7-.1-3.3-.2-4.9-.2-8.2 0-15.6 1.8-22.3 5.4-7 3.8-12.5 9.3-16.4 16.3-3.3 6-5 12.8-5 20.3 0 10.3 2.9 18.8 8.6 25.6 4.4 5.2 9.5 9.3 15.3 12.2s11.9 4.4 18.3 4.4c4.4 0 8.8-.7 13.1-2.2 5.6-1.9 10.6-4.8 15-8.6 5.2-4.3 8.2-8.9 9.2-13.9zm-8.7 3c0 1.6-1 3.4-3.1 5.3-1.6 1.5-3.5 2.8-5.6 3.8l-.8-.6c1.3-1.1 2.6-2.1 3.9-3.2 1.6-1.4 2.7-2.7 3.2-4.1-2.9-1.4-6.9-3.1-12-5-6.1-2.3-10.2-4-12.1-4.8v-1.5z"/><path d="m267 95.1 52.7-91.5c6.7 11.9 14.8 27 24.3 45.3l23.8 45.9zm96.1-3-43.4-82.6-47.9 82.8zm-40.9-32.6c.2 1.5-.1 2.8-.7 4-.8 1.4-1.9 2-3.4 2-1.9 0-3.3-1-4.3-3-.2-1.2-.1-2.3.3-3.4.5-1.4 1.3-2.2 2.5-2.5.4-.1.7-.1 1.1-.1 1.9 0 3.4 1 4.5 3zm33.2 28.2-19 .4v-1.2l15.9-.5c-.7-2.2-2.2-5.5-4.5-9.7-2.5-4.5-4.1-7.9-4.8-10.1l1.1-.6z"/><path d="m462.4 71c-4.6 9.5-11.6 16.1-21 19.9-7.1 2.8-16.7 4.3-28.7 4.3-3.3 0-8.3-.1-15-.4-6.7-.2-11.7-.4-15-.4-5.1 0-9.5.2-13.4.7l.3-92.4c5.2.1 9 .3 13.7.3h14.4c6.8 0 11.5-.3 14.8-.3 10.3 0 18.8 1.1 25.3 3.3 8.4 2.8 15.1 7.8 20 15 6.3 7.1 9.5 16.3 9.5 27.7.1 8.1-1.5 15.6-4.9 22.3zm.8-34.1c-2.2-7.5-6.5-14-13.1-19.8-6.6-5.7-13.7-9.2-21.4-10.6l-17.7-.7-38.9.1v86.4c3.2-.4 6.9-.6 10.9-.6 3.5 0 8.7.2 15.9.6 7.1.4 12.4.6 15.9.6 16.5 0 28.7-4 36.5-11.9 9.2-9.4 13.7-20 13.7-32 0-4-.6-8.1-1.8-12.1zm-38.4 22.2c.1.4.2.9.2 1.4 0 1.1-.4 2.1-1.1 3s-1.6 1.4-2.7 1.5c-2.6-.5-4.2-1.5-4.8-2.9-.1-.4-.1-.8-.1-1.2 0-2.2 1-3.7 3-4.7.4-.1.7-.1 1.1-.1 1.8.1 3.3 1.1 4.4 3zm35.7-9.1c-.9 7.5-3.1 14.2-6.5 19.8-4 6.7-9.2 11.3-15.8 13.8-3.6 1.4-6.3 2.4-8.1 2.9-3 .9-5.9 1.3-8.5 1.4l-.5-1.1c14.5-2.5 24.6-7.8 30.2-15.9 3.8-5.5 6.3-12.5 7.4-21z"/><path d="m561.6 45.1h-50.4c-.6 1.5-.8 3.2-.8 5.2s.3 3.7.8 5.1h17.9v11.6l-17.9.8v9.1l50.2.4v17.8h-89.7v-92.3h89.7zm-2.8 47.3v-12h-49.5c-.9-3.3-1.1-8.6-.4-15.9h17.6v-6.2h-17.9c-.4-1.4-.7-3-.8-4.8-.1-1.2-.2-2.9-.1-5.1.1-2.5.1-4.2.1-5.1l.8-.8h50.2v-36.6h-84.5v86.5zm-42-80.8-36.4.3-.3 30.2h-1.3v-32.2c8.5-.1 21.2 0 38 .5z"/></svg>