<svg enable-background="new 0 0 566.9 180.9" viewBox="0 0 566.9 180.9" xmlns="http://www.w3.org/2000/svg" xmlns:xlink="http://www.w3.org/1999/xlink"><linearGradient id="a" gradientTransform="matrix(1 0 0 -1 0 182)" gradientUnits="userSpaceOnUse" x1="254.058" x2="254.058" y1="97.3862" y2="5.1847"><stop offset="0" stop-color="#f57e25"/><stop offset="1" stop-color="#fcd660"/></linearGradient><path d="m459.7 80.1-91.2 100.8h-216l-3.6-3.5c-10.2-9.8-20.5-19.7-30.7-29.5l-55.6-53.4-51.7-49.7c-2.5-2.3-5.2-4.9-7.3-7.6-8.3-10.7-1.6-24.7 12.7-24.7h26.1 23.4c1.8 0 3.4-.1 5.3.1 2.8.3 5.3 1.1 7.6 2.3 2.5-1.5 5.6-2.4 9.1-2.4h42.5c.7 0 1.4 0 2.1-.1 4.7-.1 8.6.7 12 2.2 2.4-1.4 5.3-2.2 8.8-2.2h20.9.6l.6.1c2.1.2 4.1.8 5.9 1.7 2.3-1.1 4.9-1.7 7.8-1.7h14.3c4.5 0 8.1-.2 12.4 1.9.2.1.3.2.5.2 2.5-1.4 5.5-2.2 8.9-2.2h50.8c4.9 0 9 0 13.2 2.5 2.9-1.6 6.2-2.5 9.8-2.5h48.5c4.7 0 8.9.1 12.8 2.5 3.1-1.6 6.5-2.5 10.2-2.5h51.2c4.7 0 9.1.1 12.9 2.4 1.1-.6 2.4-1.1 3.7-1.5 3.7-1.1 6.8-.9 10.5-.9h17.3c3.1 0 6 .5 8.5 1.9 2-1.1 4.3-1.7 6.7-1.9h.5.5 23c2.1 0 4.2.3 6.1 1 .3-1.4.8-2.8 1.6-4.2l.6-1.1.9-1c3.7-3.9 7.6-7.4 13.6-7.1h18.3c5.1 0 10.1 1 14.1 4.2 8.5 6.7 8.2 18.3 2.4 26.5-2.3 3.2-5.7 5.8-9.5 7.5-.5 2.6-1.9 5.2-4.4 7.3-1.4 1.3-2.8 2.6-4.2 3.9-3.8 3.6-7.3 4.2-12.4 4.2h-23.9c-2.8 0-5.5-.3-7.9-1.4l-17.4 17.6c-5.8 5.9-12.2 10.1-21 10.2h-.1c-.7.1-1.5.1-2.3.1" fill="#222"/><g fill="#f57e25"><path d="m82.5 36.6c-9.2-12.4-11.4-11.2-16.7-11.2h-23.4-26.1c-4 0-4.9 3-2.7 6 1.2 1.7 3.9 4.4 6.1 6.5l51.7 51.9h51c-11.7-15.3-24.9-32.9-39.9-53.2zm7.5 40.5c-1.6 0-4.1.1-5.6.1-1.7 0-2.2-.4-3.3-1.6l-23.7-26.4c-1.1-1.2-.9-2.5 1-2.5h7.3c1 0 1.5.1 3.3 2.3l21.3 25.7c1.1 1.5.3 2.4-.3 2.4z"/><path d="m87.8 25.5h26.2 16.3c5.3 0 10.5-1.9 16.7 11.1l25.4 53.2h-45l-23.7-32.7c-1-1.3-1.1-1.5-1.7-2.6-.5-.9.1-1.9 1.5-2 5.8-.1 11.5-.1 17.2-.2 2.8.1 3.8.1 5.4 2.7 4.5 6.7 8.6 13.7 13.1 20.4.9 1.7 2.2 1.7 4.9 1.8 3.1 0 5-.3 3.1-3.6l-14.9-24.9c-2.2-3.7-8.9-3.1-9.8-3.1h-22.3c-2.6 0-4.6.2-6.3-2l-8.9-12.2c-2-3-1.2-5.9 2.8-5.9z"/><path d="m153.2 25.5h20.9c1.1.1 1.7.4 1.8 1 3.1 7.7 5.5 15.5 8.6 23.2.6 1.5 1.1 2.2 1.9 2h4.9c1.6-.1 2-1 1.5-2.7-2-7.4-4.3-14.3-6.3-21.6-.5-1.8.6-2 2.4-2h14.3c7.2 0 8.3-1 11 11.1 2.1 9.6 4 19.2 6.1 28.9.5 3.2-.8 5.8-4.3 5.7h-6.7l5.1 18.7h-24.8l-7.5-18.7c-2.9 0-4.4 0-7.3 0-4.4 0-6.5-2.9-8.3-6.7l-15.7-33c-1.3-3-1.6-5.9 2.4-5.9z"/><path d="m225.1 25.5h27.5 23.3c5.3 0 9.2-.5 8.5 7.3l-.6 7.3c-.1 1.2-.2 2.3-.5 3.4-.7 2.5-3 2.8-5.5 2.9h-28.8c-1.3 0-1.7.1-1.7 1v4.5c0 1 .7.9 2.3.9h22c1.6 0 3.2-.1 4.8.3 3 .7 4.5 2.4 5.4 4.7.7 1.9.4 3.4.2 5.3l-2.2 26.9h-49.5l-1.6-9c-.3-1.6.2-2.5 2.1-2.5h26.2c4.5-.7 4.7-3.8 4.2-7.3h-27.8c-2.9.1-4.7-.7-5.9-2.2-1.1-1.3-1.2-2.5-1.5-4.2l-5.5-31.4c-.8-4.7.6-7.9 4.6-7.9z"/><path d="m298.9 25.5h25.8 22.7c5.2 0 9-.5 6.5 7.1l-2.6 7.7c-.4 1.2-.8 2.2-1.3 3.3-1.3 2.4-3.6 2.8-6.1 2.8h-25.7c-1.3 0-1.7.1-1.9.9l-1.3 4.9c-.3 1 .5.9 2 .9h19.1c1.6 0 3.1-.1 4.6.3 2.7.7 3.8 2.4 4.1 4.5.2 1.8-.4 3.3-1.1 5.2l-9.5 26.7h-47.4l1-8.7c.1-1.5.8-2.5 2.7-2.5h19.6c4.6-.6 5.5-3.7 5.9-7.1h-17.7c-6.4.3-9.4-3.9-8.9-9.5l2.1-29c.3-4.4 3.5-7.5 7.4-7.5z"/><path d="m370.3 25.5h27.2 24c5.5 0 9.7-.5 4.9 7.1l-4.8 7.7c-.7 1.2-1.4 2.2-2.3 3.3-2 2.4-4.5 2.8-7.2 2.8h-20.5c-1.3 0-3.1-.1-3.1.6l.2 4.1c0 .9.9 1.5 2.6 1.5h11.2l7.8.1c1.7 0 2.4 1.6 1.6 2.9l-3.1 5.2-7 11.2c-.3 0-.6 0-.9 0h-21.9c-1.4 0-3.2-.1-3.2.8l.2 3.9c0 .9 1 1.5 2.7 1.5h12.2 6.8l-7.5 11.5h-49.7c4.8-12 4.6-12.8 19.9-56.7 1.6-4.4 5.8-7.5 9.9-7.5z"/><path d="m505.3 25.5c-7.5 0-15.5 0-23 0-1.2.1-2 .4-2.4 1-6.7 7.7-12.6 15.5-19.2 23.2-1.3 1.5-2.1 2.2-2.9 2-1.9 0-3.5 0-5.4 0-1.7-.1-1.8-1-.5-2.7 5.3-7.4 10.7-14.3 16-21.6 1.4-1.8.2-2-1.8-2h-17.3c-7.9 0-8.7-1-16.8 11.1-6.4 9.6-12.6 19.2-19 28.9-1.9 3.2-1.6 5.8 2.3 5.7h9l-13.5 18.7h27.2l16.2-18.7h8c4.8 0 8.4-2.9 12-6.7l31.2-33c2.7-3 4.2-5.9-.1-5.9z"/><path d="m540.4 38.5c-1.5 1.4-2.9 2.8-4.4 4.2-1.2 1.1-2 .9-3.7.9h-23.9c-1.4 0-2.4-.1-2.9-.5-.8-.6-.6-1.7.4-2.7 3.7-3.9 7.4-7.9 11.2-11.8 1.8-1.6 3.4-3.3 6.8-4.4 2.1-.7 3.9-.8 6-.8h9.9c2.4.2 4.7-4.6 2.1-5.5h-16.1c-2.1.2-2.7-.6-1.8-2.3 1.8-2 2.8-3.3 3.6-3.2h18.7c1.9 0 4.6.2 6.1 1.5 3.3 2.7 2.3 7.8.1 11.1-1.9 2.8-6.3 4.8-9.6 4.9h-12.9c-3.1.2-7.2 6.7-1.6 6.8h11.3c1.7.1 1.7.9.7 1.8"/></g><path d="m118.7 85c14.7 19.4 30.5 40.2 40.6 53.5 11.3 14.9 20.7 27.4 28.7 38h-30.2c-8.8-8.9-19-19-30.7-30.8l-60.6-60.7zm322.9.6-27.4-.6-66.2 91.5h14.9zm-99.1-.6c-4 10.1-13.4 33.1-36.6 91.5h28.3l58.5-90.3zm-7.2 1.7-48.2.2-10.6 89.5h26.8zm-55.3.5-50 .5 15.4 88.7h27.3zm-66.4-.7h-25.2l36.3 90h13.5l-23.7-86.6zm-43.5-1.5h-46.2l66.2 91.5h23.8l-41.4-86.6" fill="url(#a)"/></svg>