<svg enable-background="new 0 0 565 92" viewBox="0 0 565 92" xmlns="http://www.w3.org/2000/svg"><g fill="#333"><path d="m270.2 73.7c-9.2 0-16.5-6.4-16.5-14.5 0-9.4 3.6-12.7 8.7-16.2-2.7-2.7-5.1-5.5-5.1-10s3.2-11.7 11.9-11.7c3.9 0 7.4 1.4 9.8 3.9 2 2.1 3.1 4.8 2.9 7.4-.3 4.8-.9 6.2-5.8 11l6 5.4 4.2-9.8 9.6.1-6.9 16 12 11.3-5.8 6.4-.4-.3s-6.4-5.8-9.7-8.9c-2.1 4-6.5 9.9-14.9 9.9zm-1.3-24.6c-4.9 3.2-6.7 4.4-6.7 9.7 0 5.4 4.9 6.2 7.8 6.2 2.6 0 5.9-.9 8.3-7.6-1.9-1.7-8-7.1-9.4-8.3zm.7-18.9c-.9 0-1.8.2-2.4.7-.7.5-1.1 1.2-1.1 2.1 0 1.9.5 2.4 3.2 4.5l.5.4c.9-.6 3.4-2.5 3.4-4.6-.1-2.2-1.9-3.1-3.6-3.1z"/><path d="m154.6 72.7v-34.3l-22.7 34.1h-11.5l34.5-51.9h9.1v34l22.9-33.9h9.3v51.8h-9.5v-34l-22.9 34.2z"/><path d="m202.5 72.6v-51.9h27.2v9.6h-17.6v12h17.6v9.7h-17.7v11h17.6v9.6z"/><path d="m109.9 72.8v-11.1h-15.6l-7.2 11.1h-11.7l34.5-52.1h9.4v52.1zm-.1-20.9v-13.4l-8.9 13.4z"/><path d="m55.2 75.3c-15.1 0-27.4-12.3-27.4-27.4s12.3-27.4 27.4-27.4c10.8 0 20.7 6.4 25.1 16.3l.3.7h-9.8l-.1-.2c-3.5-5.1-9.3-8.1-15.4-8.1-10.3 0-18.7 8.4-18.7 18.7s8.4 18.7 18.7 18.7c7.1 0 13.6-4 16.7-10.3l-17-.1v-9.3h27.6v1c-.1 15.1-12.3 27.4-27.4 27.4z"/><path d="m401.4 71.3v-11.1h-15.6l-7.2 11.1h-11.6l34.5-52.1h9.4v52.1zm-.1-20.9v-13.4l-8.9 13.4z"/><path d="m466 72.3c-15 0-27.2-12.2-27.2-27.2s12.2-27.2 27.2-27.2c10.1 0 19.3 5.5 24 14.5l.4.7h-10.9l-.1-.2c-3.4-3.7-8.2-5.8-13.2-5.8-9.9 0-17.9 8-17.9 17.9s8 17.9 17.9 17.9c5.2 0 10.2-2.3 13.6-6.2l.2-.2h10.7l-.4.7c-4.6 9.4-14 15.1-24.3 15.1z"/><path d="m320.5 71.4v-51.9h9.8v34.1l22.6-34h9.4v33.9l22.4-34h11.7l-34.2 51.8h-9.7v-33.5l-22.4 33.6z"/><path d="m422.6 71.2v-42.1h-9.8l.1-9.7h29.2v9.6h-9.8v42.2z"/><path d="m491.8 71.4v-51.9l9.6.1v20.5h14.9v-20.6h9.6v51.8h-9.8v-21.5h-14.7v21.6z"/><path d="m11.6 87.9c-5 0-9.1-4.1-9.1-9.1v-66.4c0-5 4.1-9.1 9.1-9.1h540.4c5 0 9.1 4.1 9.1 9.1v66.3c0 5-4.1 9.1-9.1 9.1zm.4-82.2c-3.8 0-6.9 3.1-6.9 6.9v65.9c0 3.8 3.1 6.9 6.9 6.9h539.6c3.8 0 6.9-3.1 6.9-6.9v-65.8c0-3.8-3.1-6.9-6.9-6.9z"/></g></svg>